<svg width="49" height="48" viewBox="0 0 49 48" fill="none" xmlns="http://www.w3.org/2000/svg">
<path d="M0.193848 24C0.193848 10.7452 10.939 0 24.1938 0V0C37.4487 0 48.1938 10.7452 48.1938 24V24C48.1938 37.2548 37.4487 48 24.1938 48V48C10.939 48 0.193848 37.2548 0.193848 24V24Z" fill="#23C8AC" fill-opacity="0.1"/>
<path fill-rule="evenodd" clip-rule="evenodd" d="M14.5441 30.72C15.7308 31.3333 17.0641 31.64 18.5441 31.64C19.9041 31.64 21.1175 31.4 22.1841 30.92C23.2508 30.44 24.1308 29.7467 24.8241 28.84L21.8441 26.18C20.9775 27.2733 19.9575 27.82 18.7841 27.82C17.7975 27.82 17.0041 27.5067 16.4041 26.88C15.8041 26.24 15.5041 25.3867 15.5041 24.32C15.5041 23.2533 15.8041 22.4067 16.4041 21.78C17.0041 21.14 17.7975 20.82 18.7841 20.82C19.9575 20.82 20.9775 21.3667 21.8441 22.46L24.8241 19.8C24.1308 18.8933 23.2508 18.2 22.1841 17.72C21.1175 17.24 19.9041 17 18.5441 17C17.0641 17 15.7308 17.3133 14.5441 17.94C13.3575 18.5533 12.4241 19.42 11.7441 20.54C11.0775 21.6467 10.7441 22.9067 10.7441 24.32C10.7441 25.7333 11.0775 27 11.7441 28.12C12.4241 29.2267 13.3575 30.0933 14.5441 30.72ZM35.3841 31.32H40.1041V17.32H35.3841V22.28H31.0241V17.32H26.3041V31.32H31.0241V26.16H35.3841V31.32Z" fill="#23C8AC"/>
</svg>
