<svg width="65" height="65" viewBox="0 0 65 65" fill="none" xmlns="http://www.w3.org/2000/svg">
<g clip-path="url(#clip0)">
<path d="M20.8195 30.7658H0.5V25.4706C0.5 23.7824 1.88265 22.429 3.54155 22.429H21.8932H22.3932V21.929V3.54155C22.3932 1.85344 23.7759 0.5 25.4348 0.5H39.4937C41.1818 0.5 42.5352 1.88265 42.5352 3.54155L42.5352 18.9598L42.5353 18.9659L42.571 21.8993L42.577 22.3932H43.071H61.4227C63.1108 22.3932 64.4642 23.7759 64.4642 25.4348V30.7301H44.1609L39.7631 22.3155C39.4462 21.6431 38.7363 21.3106 38.0629 21.3587L38.0453 21.36L38.0278 21.3625C37.3629 21.4575 36.7525 21.8947 36.546 22.6094L32.4821 35.825L28.4182 22.6093C28.2188 21.9192 27.6203 21.4101 26.9013 21.3587C26.2022 21.3088 25.5519 21.6635 25.2092 22.3001L25.2091 22.3001L25.2055 22.307L20.8195 30.7658Z" stroke="#23C8AC"/>
<path d="M34.1727 42.2991L34.1729 42.2992L34.1765 42.2874L38.6476 27.6818L41.5506 33.2782C41.5512 33.2794 41.5518 33.2806 41.5524 33.2818C41.8557 33.885 42.4613 34.2343 43.1068 34.2343H64.5715V39.5295C64.5715 41.2177 63.1889 42.5711 61.53 42.5711H43.1425H42.6425V43.0711V61.4586C42.6425 63.1467 41.2599 64.5001 39.601 64.5001H25.4706C23.7824 64.5001 22.429 63.1175 22.429 61.4586V43.0711V42.5711H21.929H3.54155C1.85344 42.5711 0.5 41.1885 0.5 39.5295V34.2343H21.929C22.5746 34.2343 23.1804 33.8849 23.4836 33.2813L26.3556 27.7168L30.857 42.2801C31.0653 43.0418 31.7709 43.5353 32.5179 43.5353C33.2906 43.5353 33.9327 43.0193 34.1727 42.2991Z" stroke="#23C8AC"/>
<path opacity="0.3" d="M39.5652 0H25.4348C23.503 0 21.8932 1.57402 21.8932 3.54155V21.929H3.54155C1.6098 21.929 0 23.503 0 25.4706V31.2658H21.142L25.6494 22.5371C25.8998 22.0721 26.3649 21.8217 26.8657 21.8575C27.3665 21.8932 27.7958 22.251 27.9389 22.7518L28.9406 25.9714L42.6417 1.82444C42.0693 0.751238 40.8888 0 39.5652 0Z" fill="white"/>
<path opacity="0.3" d="M26.4722 26.4006L23.038 33.0545C22.8233 33.4837 22.3941 33.7342 21.929 33.7342H0V39.5294C0 41.4612 1.57402 43.071 3.54155 43.071H19.246L27.2592 28.9763L26.4722 26.4006Z" fill="white"/>
</g>
<defs>
<clipPath id="clip0">
<rect width="65" height="65" fill="white"/>
</clipPath>
</defs>
</svg>
