<svg width="100" height="90" viewBox="0 0 100 90" fill="none" xmlns="http://www.w3.org/2000/svg">
<path d="M86.4474 68.6839C89.7175 68.6839 92.3685 66.033 92.3685 62.7628C92.3685 59.4927 89.7175 56.8418 86.4474 56.8418C83.1773 56.8418 80.5264 59.4927 80.5264 62.7628C80.5264 66.033 83.1773 68.6839 86.4474 68.6839Z" fill="#C98E00"/>
<path d="M54.9739 86.8803L89.2425 67.9566L84.1741 57.2939L54.4741 71.0521L54.9739 86.8803Z" fill="#C98E00"/>
<path d="M99.4737 65.1313C99.4737 61.8606 96.8234 59.2103 93.5526 59.2103C92.7474 59.2103 91.98 59.3737 91.2813 59.665L91.279 59.6627L91.2529 59.6745C91.2482 59.6769 91.2434 59.6792 91.2387 59.6816L61.5789 73.4208L58.0263 71.0524C61.2971 71.0524 63.9474 68.4021 63.9474 65.1313C63.9474 62.9287 62.73 61.0292 60.9466 60.0085L60.9561 59.9706L28.6247 43.709H28.5655C27.0734 43.0316 25.4297 42.6313 23.6842 42.6313C21.9837 42.6313 20.3755 43.0032 18.9118 43.6498H18.8597L1.77273 51.3103C0.694115 51.7938 0 52.8657 0 54.0478V78.2141C0 80.4014 2.26534 81.8534 4.25277 80.94L19.1605 74.0887L56.8445 89.5024H56.8468C57.5739 89.8198 58.3697 89.9998 59.2105 89.9998C60.2408 89.9998 61.1953 89.7132 62.0408 89.249L62.0811 89.2466L96.3497 70.3253L96.3474 70.3206C98.1995 69.3211 99.4737 67.3861 99.4737 65.1313Z" fill="url(#paint0_linear)"/>
<path d="M58.0268 68.6834C59.9888 68.6834 61.5794 67.0928 61.5794 65.1308C61.5794 63.1687 59.9888 61.5781 58.0268 61.5781C56.0647 61.5781 54.4741 63.1687 54.4741 65.1308C54.4741 67.0928 56.0647 68.6834 58.0268 68.6834Z" fill="#FFDE87"/>
<path d="M61.5793 73.4203L58.0527 71.0566C55.0803 70.9145 52.7427 69.9482 33.1582 62.7363V71.0519L60.5158 82.264C60.5158 82.264 58.5785 76.8569 61.5793 73.4203Z" fill="url(#paint1_linear)"/>
<path d="M66.3158 6.51316C66.3158 6.51316 72.1469 0 79.3421 0C86.5374 0 92.3685 5.91158 92.3685 13.0263C92.3685 25.2711 73.1819 39.2495 67.7392 42.9679C66.8771 43.5576 65.7545 43.5576 64.8924 42.9679C59.4498 39.2495 40.2632 25.2711 40.2632 13.0263C40.2632 5.91158 46.0942 0 53.2895 0C60.4848 0 66.3158 6.51316 66.3158 6.51316Z" fill="url(#paint2_linear)"/>
<defs>
<linearGradient id="paint0_linear" x1="0" y1="66.3156" x2="99.4737" y2="66.3156" gradientUnits="userSpaceOnUse">
<stop stop-color="#FFCF54"/>
<stop offset="0.261" stop-color="#FDCB4D"/>
<stop offset="0.639" stop-color="#F7C13A"/>
<stop offset="1" stop-color="#F0B421"/>
</linearGradient>
<linearGradient id="paint1_linear" x1="45.7985" y1="74.2919" x2="50.0285" y2="66.9971" gradientUnits="userSpaceOnUse">
<stop stop-color="#F0B421" stop-opacity="0"/>
<stop offset="0.512" stop-color="#E9AB12" stop-opacity="0.512"/>
<stop offset="1" stop-color="#E09F00"/>
</linearGradient>
<linearGradient id="paint2_linear" x1="55.89" y1="-2.64553" x2="80.3771" y2="35.0645" gradientUnits="userSpaceOnUse">
<stop stop-color="#F44F5A"/>
<stop offset="0.443" stop-color="#EE3D4A"/>
<stop offset="1" stop-color="#E52030"/>
</linearGradient>
</defs>
</svg>
