<svg width="107" height="87" viewBox="0 0 107 87" fill="none" xmlns="http://www.w3.org/2000/svg">
<path fill-rule="evenodd" clip-rule="evenodd" d="M93.6561 30.2734C92.7788 30.3504 91.9014 30.4889 91.0395 30.6582C88.038 29.1652 83.8052 29.2421 80.773 29.2421C77.7869 29.2421 74.5392 29.396 71.5223 30.1503C71.3992 30.0733 71.2761 29.9809 71.1375 29.9194C70.1371 29.396 69.0288 29.7501 68.6132 30.8275C68.567 30.9506 68.5209 31.0584 68.4901 31.1815C68.3362 31.2431 68.1823 31.3201 68.0283 31.3816C65.8888 32.4129 65.0885 35.4605 66.5815 37.3384C66.4737 37.8771 66.366 38.4004 66.2429 38.9083C65.6733 41.3711 65.2424 43.8646 64.9807 46.3735C64.5651 50.2677 64.7652 54.716 68.1361 57.2865C71.1067 59.5645 75.4165 59.9801 79.0337 59.9031C81.8658 59.8415 84.9442 59.7338 87.6994 58.9026C90.7932 58.7487 93.6407 57.8098 95.4878 54.8853C97.3194 51.9762 97.5657 48.0512 97.6581 44.7111C97.7504 41.1248 97.5041 37.5231 97.9351 33.9367C98.2429 31.4586 95.7802 30.0887 93.6561 30.2734ZM80.8038 40.9093C84.0515 40.2628 87.253 38.816 90.4853 37.9694C90.4084 42.1868 90.7778 46.4197 89.5618 50.4986C89.4079 50.9911 89.4079 50.9295 89.1616 51.2989C89.1155 51.3451 89.0539 51.4067 88.9769 51.4837C89.2848 51.3297 89.2386 51.3605 88.8384 51.576C88.4844 51.7761 87.7148 51.8992 86.976 51.9146C84.3131 52.007 81.6503 51.7607 78.9875 51.8531C78.1409 51.8838 77.1558 51.8838 76.4632 51.7145C76.4324 51.7145 75.9552 51.5298 75.8783 51.5144C75.8013 51.4683 75.7398 51.4375 75.6782 51.3913L75.6474 51.3605C75.632 51.3451 75.6166 51.3297 75.6012 51.3143C75.5858 51.2836 75.555 51.2374 75.5243 51.1758C75.4473 51.0065 75.4165 50.9295 75.4165 50.9295C75.3704 50.791 75.3396 50.6679 75.3088 50.5293C75.0625 49.5596 74.9855 48.5284 74.8932 47.5433C74.7085 45.4807 74.6777 43.4028 74.5853 41.3249C76.5555 41.525 78.6489 41.3403 80.8038 40.9093Z" fill="#E6EAEE"/>
<path fill-rule="evenodd" clip-rule="evenodd" d="M19.9128 21.5615C21.452 18.5446 22.0061 13.8193 23.0066 9.87892C23.9301 6.26178 23.9301 -0.0181764 29.3789 1.1824C31.3645 2.29063 30.2101 5.50757 29.9638 8.03187C29.5021 12.8034 28.5631 17.775 28.0244 22.3311C28.8094 22.0386 29.0403 20.915 29.4713 20.0069C29.8868 19.1449 30.5025 18.2676 30.8258 17.498C31.2414 16.4667 31.4415 15.2507 31.8878 14.1117C32.7652 11.8645 33.5809 10.2791 34.8893 8.21657C35.505 7.24687 36.0745 6.18482 37.2135 6.18482C39.4299 6.20021 39.3837 9.69421 39.1375 12.08C38.8296 15.1276 37.3982 18.0213 36.4285 20.9612C35.7051 23.1315 34.92 25.3325 34.4891 27.7183C34.0889 29.9656 34.1351 32.3051 33.9042 34.7679C36.8902 33.5827 38.8912 30.6428 41.8311 28.8727C42.7238 28.334 44.0322 27.7183 45.1096 27.5182C45.6329 27.4105 47.2029 27.3181 47.8186 27.6106C49.05 28.2109 49.3732 31.0122 49.0807 32.2436C48.6344 34.1214 46.3102 35.8299 45.0173 37.4615C42.9085 40.1089 40.0302 41.8328 38.2601 45.0959C37.9061 45.7578 37.7368 46.4966 37.3982 47.1277C36.2745 49.1748 34.7507 51.222 33.0576 52.438C31.3953 53.6385 28.794 54.0541 28.1322 56.1013C27.7012 57.4558 28.0398 59.5799 28.0398 61.4115C28.0398 63.0431 27.9167 65.2134 28.0398 66.9219C28.1322 68.0301 28.6863 70.262 27.3626 70.3081C25.731 70.3697 26.3467 67.553 26.1004 65.9676C24.7613 66.1985 23.1451 66.1677 21.5597 66.1523C22.2986 70.6314 20.5439 78.0503 23.5915 80.3591C25.7156 81.9599 30.5333 82.591 34.0273 82.8681C37.8753 83.1759 41.8003 82.0984 45.5252 81.3288C47.3106 80.9594 49.2347 80.7132 51.1279 80.4669C53.1596 80.1898 55.4377 79.959 57.3155 80.1744C59.101 80.3745 60.9788 81.3596 62.6257 82.2062C65.2578 83.5453 68.5209 84.3765 72.7691 84.0379C75.4012 83.8224 78.6797 83.1451 80.4959 81.9137C82.7124 80.4207 82.7278 76.4804 82.8201 73.0325C81.2348 72.7093 79.8187 72.9864 78.7566 72.3553C78.3103 72.0936 78.2025 71.5395 77.7869 71.0008C77.0481 70.0311 76.14 69.0614 76.0476 67.4298C70.2756 67.4606 65.5195 65.9522 63.5801 61.7348C62.5642 59.5183 62.1178 55.9935 62.3179 52.5611C62.8105 44.3879 62.6719 33.044 63.1799 24.7476C63.303 22.7929 63.1645 20.8996 63.2722 19.1449C63.657 12.788 66.0582 9.67882 71.861 8.80147C72.923 8.64755 74.2006 8.90922 75.4319 8.89382C75.9245 6.90825 76.4632 4.26082 78.4334 3.87601C79.1568 3.73749 81.9274 3.82984 82.5892 4.07611C83.1895 4.2916 83.3435 5.13816 83.9438 5.33826C85.1597 5.72306 85.406 4.36856 86.4527 4.07611C87.053 3.9068 88.1612 3.9068 89.0539 3.98376C89.9005 4.04533 91.0857 4.0915 91.6706 4.36856C92.7634 4.89189 93.4407 7.41619 93.9794 8.61677C97.104 8.7399 99.4897 9.17088 100.844 11.4181C103.723 16.2051 102.83 25.7635 102.383 32.7669C102.23 35.3528 102.584 38.2157 102.383 40.9709C102.214 43.4028 101.706 45.8348 101.414 48.1128C101.121 50.3908 100.998 52.9151 100.736 55.6549C100.413 58.9488 100.444 61.8733 99.0895 63.5818C98.52 64.3052 96.3498 66.1215 95.4262 66.4755C93.8716 67.0912 91.7014 67.0296 90.2083 67.3375C90.3007 71.0316 88.3459 72.6785 84.698 72.6477C84.7903 77.4808 84.2978 81.7137 81.5118 83.6684C76.4632 86.4236 67.936 86.7776 62.4872 84.3457C60.8249 83.6069 58.8393 82.3601 56.9769 82.1292C55.0836 81.883 52.8364 82.2216 50.897 82.514C48.9884 82.7911 47.1106 83.0989 45.3866 83.4837C41.8157 84.2841 37.9215 85.0537 33.8888 84.8382C31.5492 84.7151 28.7478 84.3765 26.6391 83.7762C24.8229 83.2529 22.4371 82.4217 21.2365 80.8825C18.743 77.6963 20.0821 71.5395 19.5896 66.1985C17.3577 65.8444 14.4332 65.629 12.0628 65.1364C11.678 66.2446 12.3553 69.6463 10.7083 69.6771C9.0306 69.7078 10.0619 65.4135 10.1234 64.3668C10.2158 63.0277 10.2928 62.1811 10.1234 61.1806C10.0773 60.8882 9.8156 60.6881 9.83099 60.411C9.86177 59.8723 10.2928 59.6876 10.4159 59.0565C10.8623 56.7323 9.78482 53.2999 9.15375 51.7145C8.30718 49.6058 6.87572 48.2359 6.26003 46.1118C5.1672 42.3869 6.38317 36.9074 5.67514 32.6899C5.38269 30.966 4.59769 29.0574 4.13593 27.1796C3.19702 23.3162 2.27349 20.0531 1.13447 16.0665C0.580361 14.1117 -0.250802 12.2801 0.0724309 10.079C0.503409 7.10835 3.79731 7.49315 5.29034 9.49411C6.59866 11.2488 7.47601 13.9578 8.29178 16.2512C9.12296 18.6216 10.1234 21.0382 10.893 23.3931C12.0628 20.6687 11.3394 16.8515 11.5703 13.1574C11.6934 11.1103 11.832 9.03235 11.9551 7.16991C12.1398 4.52248 12.0167 0.751426 15.0489 0.505153C16.1571 0.412801 17.2962 1.5826 17.6502 2.33681C18.2043 3.53739 18.4352 5.89237 18.5121 7.93952C18.7276 12.2493 19.4048 17.5903 19.9128 21.5615ZM13.8329 8.32432C13.6482 11.4797 13.8175 16.1589 13.6482 19.0526C13.5251 21.1151 13.2788 25.8867 11.4318 26.0098C10.3389 26.0868 9.47697 24.8862 9.10756 24.0858C7.50679 20.5918 6.55248 15.851 4.767 12.4956C4.1821 11.4027 3.58182 9.97127 2.2581 9.89431C2.02722 13.573 3.16623 15.6663 3.90505 18.6832C4.35142 20.5148 4.95171 22.3465 5.44426 24.1935C6.47552 28.0415 7.86081 31.5355 7.86081 35.7837C7.86081 38.8929 7.33748 42.2946 8.15326 45.3422C8.59963 47.02 9.83099 48.3129 10.5698 49.8829C11.7704 52.438 12.463 55.4086 12.4015 59.0565C16.111 59.8107 21.6059 59.7954 26.0234 59.4413C26.0234 58.0253 25.9926 56.1936 26.4082 55.1931C27.5319 52.5457 29.9946 52.4226 32.1033 50.7448C35.1355 48.3283 36.4131 43.5721 39.1529 40.5091C40.061 39.5086 41.5233 38.6159 42.5391 37.5077C43.3857 36.5841 43.9552 35.6144 44.9557 34.614C46.4795 33.0901 47.8802 31.9357 46.9874 29.4884C40.2303 29.8116 38.9374 36.1224 33.1808 37.1229C32.0571 36.4764 31.7801 35.2296 31.9186 33.5519C32.0879 31.5663 32.2264 29.6423 32.5035 27.8568C33.0576 24.2859 34.5506 20.484 35.6896 17.2363C36.6286 14.5273 37.4751 12.08 37.2288 8.53981C36.6901 8.63216 36.5362 9.35559 36.2592 9.80196C35.2895 11.3104 34.5814 12.8188 33.8426 14.6351C33.3808 15.7895 33.15 17.0516 32.6882 18.206C32.2572 19.2681 31.5184 20.4687 30.8565 21.777C30.2716 22.9468 29.5944 24.5783 28.3476 24.763C27.0855 24.9477 26.6237 24.3475 26.1312 23.6086C26.4698 16.282 28.1937 10.3407 28.5477 3.02945C27.1778 2.75239 26.7161 3.7067 26.3313 4.6764C25.6079 6.47727 25.5463 8.03187 25.0691 10.079C24.8998 10.8024 24.6535 11.5413 24.4842 12.2955C23.8224 15.4047 23.3914 18.5139 22.2678 21.2844C21.7445 22.562 21.021 24.4706 19.7589 24.4706C18.0657 24.4706 17.9118 21.346 17.7271 20.0223C17.1576 16.0357 16.8959 12.1723 16.6651 8.04726C16.5573 6.04629 16.3111 3.87601 15.4029 2.64465C15.3106 2.64465 15.2952 2.56769 15.2028 2.5523C13.8637 2.99867 13.9407 6.40031 13.8329 8.32432ZM78.9413 5.92316C77.7869 6.21561 77.8485 7.72403 77.5868 9.01696C82.5892 9.15549 87.3146 8.52442 91.8861 8.53981C91.6552 7.67785 91.1318 7.10835 90.824 6.32335C89.762 6.00012 88.3613 6.01551 86.9606 6.0309C86.8375 8.03187 81.9736 8.00109 81.7427 6.0309C80.5883 6.24639 79.6802 5.72306 78.9413 5.92316ZM94.6874 64.6439C95.7648 64.2437 97.6581 62.489 98.0737 61.5501C98.8125 59.9185 98.6586 56.8709 98.8433 54.4081C99.028 51.9146 99.3666 49.3595 99.6129 47.2508C99.8745 44.9882 100.382 42.4023 100.475 40.2013C100.598 37.323 100.321 34.9218 100.475 32.2898C100.69 28.8265 100.829 24.5937 100.767 20.4994C100.706 16.8207 100.059 12.2031 97.8736 11.1257C97.0424 10.7255 95.4416 10.6485 94.3026 10.5408C89.6388 10.1406 85.8985 10.8486 81.2655 11.0179C76.4478 11.2026 71.2915 10.0021 68.1207 11.9876C65.5502 13.6038 65.2886 18.2368 65.1193 22.4234C64.8576 28.9189 64.7345 35.1681 64.7345 42.1253C64.7345 48.3898 63.3338 55.8704 65.2116 60.5804C66.7508 64.4284 70.7066 65.4442 76.1246 65.4135C76.6171 64.7208 76.3863 62.9969 77.4791 62.5198C78.5565 62.0426 81.6196 62.3043 83.4666 62.4274C84.2516 62.489 85.2521 62.6121 86.1756 62.7198C87.0991 62.8276 88.0842 62.7968 88.5922 63.0123C89.5465 63.3971 89.8081 64.844 90.2391 65.4289C91.7321 65.0133 93.3637 65.1518 94.6874 64.6439ZM12.186 61.0729C12.0013 61.5962 12.1244 62.4274 12.0936 63.1047C13.6482 63.551 15.5568 63.6434 17.3115 63.8743C17.3731 63.0431 17.1422 62.489 17.2192 61.6578C15.526 61.4577 13.8483 61.273 12.186 61.0729ZM23.2991 61.5501C23.3606 62.5505 23.2529 63.3817 23.0989 64.1513C23.807 64.3514 25.023 64.1205 26.1004 63.9512C26.1004 63.12 26.1004 62.2735 26.1004 61.4423C25.1923 61.5193 24.2995 61.5962 23.2991 61.5501ZM78.5565 64.4592C78.2795 65.1056 78.0024 65.7983 77.9716 66.4909C77.8947 68.2764 78.9259 69.5385 79.8956 70.6468C81.1886 71.2624 82.8047 70.8623 84.1439 70.7391C85.6677 70.6006 87.1453 70.616 87.8226 69.7694C88.5922 68.7997 88.2689 66.26 87.8226 64.9363C84.9904 64.5207 81.8966 64.3514 78.5565 64.4592Z" fill="#23C8AC"/>
<path fill-rule="evenodd" clip-rule="evenodd" d="M101.537 7.26225C101.568 7.18529 101.783 7.00059 101.922 7.06215C105.015 8.43205 105.323 14.5889 105.108 18.9448C105.046 20.0838 104.954 22.485 104.138 22.4234C103.292 22.3465 104 20.13 104.046 19.3296C104.184 16.7745 104.138 11.6798 103.168 9.86351C102.845 9.24783 101.198 7.9395 101.537 7.26225Z" fill="#23C8AC"/>
<path fill-rule="evenodd" clip-rule="evenodd" d="M41.9387 7.37014C42.0772 7.84729 42.1696 9.06326 41.8463 9.40189C41.6462 9.40189 41.4616 9.40189 41.2615 9.40189C40.9536 8.87856 40.7689 6.67749 41.9387 7.37014Z" fill="#23C8AC"/>
<path fill-rule="evenodd" clip-rule="evenodd" d="M61.7484 13.1574C61.2251 12.4494 62.0101 11.4951 62.4257 10.7409C62.949 9.78656 63.3338 8.86304 64.2573 8.52441C65.4733 8.90922 64.1342 9.7096 63.7802 10.2637C63.1799 11.1718 62.7643 13.219 61.7484 13.1574Z" fill="#23C8AC"/>
<path fill-rule="evenodd" clip-rule="evenodd" d="M106.17 11.6184C106.693 11.6953 106.601 12.5265 106.647 13.0652C106.77 14.2504 107.14 16.3437 106.647 17.3134C105.508 17.298 105.847 15.6819 105.77 14.7122C105.693 13.6655 105.4 12.4957 105.677 11.7107C105.831 11.7107 106.093 11.3567 106.17 11.6184Z" fill="#23C8AC"/>
<path fill-rule="evenodd" clip-rule="evenodd" d="M92.7479 14.6045C92.5632 15.605 91.7167 16.313 91.101 17.021C89.3463 19.0836 87.8225 21.6694 85.9754 23.7782C85.5906 24.2091 85.1289 24.7325 84.4362 24.7479C83.8667 23.7474 84.8518 23.5319 85.2982 23.0086C87.53 20.4073 89.454 16.8363 91.9629 14.4044C92.3477 14.3736 92.594 14.4506 92.7479 14.6045Z" fill="#23C8AC"/>
<path fill-rule="evenodd" clip-rule="evenodd" d="M78.5565 16.0665C78.4796 16.8207 77.7254 17.2363 77.2944 17.8058C76.4786 18.8986 75.786 20.0838 74.9702 21.2844C74.647 21.7769 74.2006 22.7004 73.431 22.4388C73.1847 21.5614 74.3083 20.2685 75.1703 19.0525C75.8321 18.0982 77.1559 15.851 77.8793 15.774C78.0948 15.7432 78.418 15.7124 78.5565 16.0665Z" fill="#23C8AC"/>
<path fill-rule="evenodd" clip-rule="evenodd" d="M94.1024 15.9589C93.5637 17.5751 92.3785 18.945 91.3934 20.2995C90.9162 20.9768 90.3621 21.6694 89.8542 22.3313C89.4078 22.9008 89.023 23.9782 88.1149 23.8705C87.607 23.0855 88.5613 22.3928 88.9922 21.8387C90.4545 19.9455 91.9629 17.6982 93.3328 15.7588C93.7022 15.7281 93.9485 15.7896 94.1024 15.9589Z" fill="#23C8AC"/>
<path fill-rule="evenodd" clip-rule="evenodd" d="M71.0144 19.2527C70.7989 19.9915 70.4911 20.6534 69.7522 20.8997C69.6599 20.7765 69.4906 20.6996 69.3674 20.6072C69.429 19.7299 70.291 18.2522 71.0144 19.2527Z" fill="#23C8AC"/>
<path fill-rule="evenodd" clip-rule="evenodd" d="M78.8335 19.6376C78.9105 20.284 78.2179 20.7612 77.6791 21.4692C77.1558 22.1619 76.5093 23.5625 75.7551 22.7314C76.1553 21.8386 77.5406 18.9603 78.8335 19.6376Z" fill="#23C8AC"/>
<path fill-rule="evenodd" clip-rule="evenodd" d="M93.9022 20.0222C94.1946 20.6378 93.5328 20.9765 93.2249 21.469C92.5631 22.5464 92.1629 24.4243 90.716 24.2704C90.4697 23.4238 91.3779 22.8235 91.7781 22.1463C92.2552 21.3305 92.5785 20.5147 93.2249 19.8221C93.5328 19.8067 93.8098 19.8221 93.9022 20.0222Z" fill="#23C8AC"/>
<path fill-rule="evenodd" clip-rule="evenodd" d="M97.9659 29.2882C99.1357 30.8736 98.951 34.3214 98.7355 37.3998C98.5508 40.155 97.7043 42.8178 97.4734 46.004C97.2579 48.8823 97.7043 51.9145 97.2733 55.0853C96.9347 57.6096 96.2266 60.1185 94.5643 60.7804C93.4099 61.2421 90.2545 61.1344 88.5768 60.9651C86.4835 60.765 84.0515 60.0723 81.3271 59.903C79.8033 59.8107 78.1102 59.7953 76.494 59.903C71.6917 60.2416 67.3511 60.6726 66.7355 56.0396C66.5046 54.3311 66.6585 52.3455 66.7355 50.5293C67.0587 43.0333 66.8278 35.953 66.7355 28.4109C67.8591 27.7028 69.7061 27.0564 71.861 27.4412C73.1078 27.672 74.4931 28.8726 75.8168 29.2728C76.6941 29.5499 77.8947 29.75 79.0029 29.6576C80.5883 29.5191 82.1583 28.2416 83.5436 28.0107C88.8385 27.1179 90.547 31.2892 95.4263 30.1348C96.2574 29.9809 96.9501 29.3652 97.9659 29.2882ZM67.7359 33.3517C67.7975 33.6442 67.6128 34.1829 67.8283 34.3214C69.0597 32.2743 71.1222 30.535 72.2766 28.7187C70.9683 28.3955 68.4286 28.2877 67.7359 29.1959C67.7359 30.1963 67.7359 31.1968 67.7359 32.1973C68.3824 32.0742 68.3208 31.2276 69.1828 31.3354C69.8447 32.0896 68.6749 33.2594 67.7359 33.3517ZM73.0462 29.1959C73.077 29.6115 72.8153 29.7346 72.7537 30.0732C71.076 31.5047 69.86 33.4287 68.3978 35.091C68.0899 35.2296 67.8283 34.6447 67.8129 35.091C67.9206 36.5225 67.936 38.0617 67.9976 39.5393C69.1982 38.0155 70.5373 36.5994 71.861 35.1988C73.2001 33.7827 74.4007 32.1665 76.0169 31.1353C76.1708 31.2738 76.3555 31.3815 76.4017 31.6124C74.0159 34.7986 70.9067 37.2613 68.5825 40.4936C68.4286 40.8169 67.9822 40.232 67.9976 40.6783C68.0592 41.294 67.8745 42.156 68.09 42.6023C69.8446 40.0165 72.1073 37.8154 74.0775 35.5528C74.7393 34.7986 75.2627 33.7519 76.2939 33.4287C76.4478 33.5672 76.6325 33.675 76.6787 33.9058C74.1544 37.3075 71.0298 40.1088 68.5671 43.572C68.2747 43.649 68.2131 43.4797 67.9822 43.4797C67.9207 45.219 67.7513 47.3739 67.9822 49.0824C68.5979 48.1435 68.9981 47.3123 69.8139 46.3734C70.9529 45.0497 73.1539 44.0338 73 41.6326C72.5844 41.5557 72.2766 42.1406 71.938 42.51C71.5993 42.8794 71.1376 43.2796 70.7836 43.6644C70.0601 44.4494 69.5522 45.8347 68.5671 46.1733C67.8745 45.296 68.9673 44.3263 69.4445 43.7568C70.722 42.2329 72.0149 41.0631 73.3079 39.7086C73.9697 39.0006 74.4315 38.0309 75.3396 37.7692C75.5551 37.8308 75.6321 38.0617 75.7244 38.2464C75.6475 39.016 74.6162 39.3238 74.6624 39.8933C75.001 39.6779 75.7398 39.878 76.1092 39.6932C76.0477 39.37 76.1708 39.2469 76.2016 39.016C79.634 36.1377 82.4353 32.6283 85.1905 29.0573C83.5898 28.9342 82.5431 29.3806 81.6196 29.9347C82.0506 29.8577 82.1583 30.104 82.2045 30.4118C81.2194 31.6586 80.0342 32.6745 78.926 33.7981C77.8177 34.9063 76.9096 36.2146 75.6475 37.1843C75.5551 37.015 75.2934 37.0304 75.2627 36.7995C76.5556 33.9366 79.4801 32.1973 81.1578 30.0424C78.6951 31.3969 74.924 30.2271 73.0462 29.1959ZM85.8832 29.5807C83.8206 32.7822 81.1116 36.0453 78.4488 38.5696C78.0332 38.9544 77.3098 39.2623 77.4791 39.6317C81.6965 39.6471 85.483 40.1242 89.6542 40.2166C91.255 38.2926 92.8712 36.0761 94.2872 33.8443C94.6413 33.2902 95.2569 31.6586 95.8264 31.7202C96.9962 31.8433 95.3955 34.029 95.1492 34.4292C94.1949 35.9376 93.2868 37.2151 92.3479 38.4927C91.8553 39.1545 90.9933 39.7548 91.2858 40.5244C91.6244 41.017 91.9938 40.3089 92.1631 40.1396C94.0564 38.1694 95.7495 35.6759 97.0886 33.3825C97.2425 33.2132 97.6889 33.3517 97.6735 32.9977C98.0737 32.105 97.7197 31.2584 97.2887 30.6735C95.9804 31.2584 93.964 31.5662 92.0708 31.2584C91.0395 33.7365 89.4233 35.8914 88.0073 37.9232C87.5455 38.585 87.2531 39.6163 86.3603 39.8472C86.268 39.6779 86.0063 39.6932 85.9755 39.4624C87.5147 36.3993 89.6388 33.9212 91.2858 30.966C90.7932 30.8736 90.47 30.6273 89.9313 30.5811C88.6537 33.3979 86.7759 35.8606 85.0982 38.1079C84.6364 38.7389 84.267 39.7702 83.3589 39.8472C83.3281 39.7086 83.1434 39.7394 83.0664 39.6625C83.0818 38.6004 84.0515 37.9232 84.6056 37.1536C85.7908 35.522 86.8067 34.0444 87.8841 32.3205C88.2843 31.6894 89.4234 30.2117 88.469 29.8115C86.6374 32.3974 84.5749 34.8601 82.774 37.3537C82.1891 38.154 81.4349 39.0776 80.5575 39.5701C79.7879 38.6774 81.1116 37.6153 81.6196 36.9535C83.6052 34.4138 85.8216 31.8125 87.6071 29.319C87.0684 29.1805 86.0833 28.965 85.483 29.2266C85.8062 29.1497 85.7754 29.4421 85.8832 29.5807ZM92.1631 41.8481C92.2863 42.079 92.4094 42.3099 92.4556 42.6177C93.256 41.8789 93.7947 40.8784 94.4873 40.0165C95.1492 39.1853 95.8418 38.0925 96.9962 37.8C97.0116 37.9386 97.1502 37.9693 97.181 38.0925C96.7808 39.2315 95.7803 40.0934 94.9645 41.1863C94.1641 42.2637 92.5018 43.649 92.7327 45.2498C94.0102 43.8337 94.9337 42.0328 96.4114 40.8015C96.8731 40.586 96.9501 41.6019 97.0886 41.0939C97.381 39.0622 97.9506 36.8149 97.5658 34.4292C96.2574 37.369 93.8563 39.2623 92.1631 41.8481ZM76.2324 40.7861C74.3237 40.9246 73.4618 41.6173 74.4007 43.1103C73.4772 44.3263 74.3391 46.5427 74.4931 47.6509C75.9091 49.2363 78.6797 49.0516 81.9274 49.2979C85.7293 49.5903 89.254 49.067 91.5782 48.3282C91.4705 45.8193 92.0092 42.6793 90.7163 41.371C86.6989 41.2325 80.3882 40.4782 76.2324 40.7861ZM95.5494 43.4951C94.5181 44.8034 92.9481 45.8193 92.6557 47.851C93.8409 46.8813 94.9645 45.0035 96.2266 43.7875C96.3806 43.7875 96.5499 43.7875 96.7038 43.7875C96.75 43.0333 97.0578 42.0174 96.9039 41.371C96.3806 42.0636 96.0727 42.8332 95.5494 43.4951ZM73.5233 47.9434C72.723 48.6514 71.9226 49.3902 71.1992 50.1598C70.4757 50.9448 69.937 51.9299 69.075 52.5764C67.8129 51.8991 70.1833 49.7443 70.722 49.1901C72.0149 47.851 73.6465 47.066 72.9385 44.9419C71.2761 46.0194 69.9216 48.2358 68.4902 49.8674C68.1361 50.0675 67.9206 49.421 67.9053 49.8674C67.7513 52.8381 67.1049 56.7015 68.875 58.3638C70.3064 59.7183 73.9082 59.0411 76.4017 58.841C77.279 58.764 78.2795 58.8871 79.1107 58.841C79.3416 58.7486 78.8952 58.5485 79.0183 58.2561C81.0655 55.6702 83.0203 52.992 84.9135 50.2368C84.4671 50.2368 84.0207 50.2368 83.559 50.2368C83.6052 50.5754 83.5282 50.7755 83.4666 51.0064C82.2507 52.6072 80.2805 54.7929 78.7413 56.6091C78.2487 57.194 77.0789 59.3027 76.5248 57.8713C78.4026 55.1623 80.85 53.0382 82.6047 50.2368C80.6345 50.1752 78.7413 50.0367 76.8172 49.9444C75.9091 52.3301 73.5234 54.2849 72.1842 55.9319C71.8764 56.3167 71.6301 57.2864 70.9221 57.0863C69.8139 56.763 71.5378 55.1161 71.7994 54.8698C73.3694 53.269 74.9394 51.3758 75.8629 49.7443C75.0318 49.1901 73.7542 49.0824 73.5233 47.9434ZM93.3329 48.8053C93.3329 49.1286 93.5023 49.2825 93.4253 49.6673C91.9323 52.0839 90.1622 54.562 88.8846 57.1017C88.4844 57.9021 88.0688 59.0411 87.1453 59.4105C86.2218 58.8718 87.2069 58.056 87.5301 57.4711C87.8995 56.8246 88.1304 55.978 88.5922 55.2546C89.7928 53.346 91.5321 51.0064 92.3632 49.067C91.8245 49.2363 91.332 49.4518 90.7163 49.5442C90.7624 49.8828 90.6855 50.0829 90.6239 50.3138C89.1001 52.3763 88.0996 55.0391 86.6682 57.0709C86.191 57.7327 85.7293 58.7332 84.8365 58.9025C84.267 58.5485 84.6672 57.8405 84.8365 57.548C85.1905 56.9477 85.7754 56.4706 86.191 55.8087C87.407 53.8847 88.546 51.7914 89.5773 49.8212C89.1617 49.9597 88.6691 50.0059 88.2228 50.1137C87.4839 52.284 86.3603 53.9001 85.129 55.5317C84.2978 56.6399 83.559 57.8559 82.5123 58.7178C81.4195 58.3946 82.7586 56.7784 83.1896 56.2089C84.6364 54.2849 86.4681 52.2993 87.053 50.2214C86.4681 50.2214 85.8986 50.2214 85.3137 50.2214C85.0982 50.4215 85.7908 50.5139 85.6061 50.991C83.8514 53.7154 81.8351 56.1627 80.0034 58.8102C82.5123 58.6101 85.6215 59.5798 88.4998 59.8722C90.2237 60.0569 92.4556 60.1955 93.9024 59.8722C95.9034 59.4259 96.0419 55.9319 96.2266 53.7924C95.9034 54.9006 95.2415 55.9473 94.672 56.9785C94.1795 57.9021 93.887 59.4413 92.6403 59.6875C92.4248 58.5331 93.256 57.3172 93.7947 56.3013C94.3796 55.2084 94.9799 54.1002 95.6263 53.2075C96.0573 53.1305 96.1651 53.3768 96.3036 53.5923C96.1651 51.4528 96.7654 49.5442 96.3959 47.5124C95.1338 49.144 94.3334 51.0526 93.3022 52.915C92.4864 54.4081 91.4705 55.7933 90.5932 57.2556C90.1776 57.9482 89.9467 58.9949 89.0539 59.2873C88.0689 58.8102 89.4388 57.2248 89.8236 56.5783C91.2088 54.3003 92.7942 51.8838 93.5946 49.6211C94.5027 48.8207 95.0261 47.6509 95.8111 46.7274C95.9804 46.4042 96.5037 47.0814 96.4883 46.6351C96.4421 46.0348 96.5653 45.0959 96.4883 44.8034C95.5494 46.2657 94.3796 47.4816 93.3329 48.8053Z" fill="#23C8AC"/>
<path fill-rule="evenodd" clip-rule="evenodd" d="M23.7763 28.2263C23.4838 29.3345 22.2678 28.6265 21.4521 28.6111C20.2977 28.5957 18.1889 28.6727 16.6189 28.8112C15.0951 28.9344 13.8176 29.8579 12.8479 29.2884C13.0326 28.2263 15.0951 27.8877 16.6189 27.7492C17.758 27.6414 19.1125 27.8107 20.39 27.7492C21.6676 27.6876 23.1914 27.3951 23.7763 28.2263Z" fill="#23C8AC"/>
<path fill-rule="evenodd" clip-rule="evenodd" d="M26.1926 27.8414C26.2388 28.2108 26.1618 28.4571 25.9925 28.611C25.5308 28.688 25.3614 28.4725 25.2229 28.2262C25.1459 27.6567 25.9155 27.472 26.1926 27.8414Z" fill="#23C8AC"/>
<path fill-rule="evenodd" clip-rule="evenodd" d="M74.4931 30.1657C74.3391 31.3971 73.1847 31.9819 72.4613 32.7669C71.7225 33.5673 70.9221 34.3831 70.2449 35.1835C69.6292 35.9069 69.3983 37.0459 68.3055 37.3076C67.7975 36.2917 68.8596 35.1989 69.4599 34.5062C70.7836 32.9824 72.5383 31.5048 73.7081 29.9656C74.0929 29.9194 74.3391 29.9964 74.4931 30.1657Z" fill="#23C8AC"/>
<path fill-rule="evenodd" clip-rule="evenodd" d="M94.1948 31.7047C94.4411 32.6282 93.533 33.1978 93.1328 33.8288C92.2862 35.1525 91.455 36.5224 90.4238 37.8923C90.0544 38.3849 89.4387 39.7086 88.8846 39.6316C87.6994 39.4777 89.177 37.9539 89.3617 37.6922C90.8394 35.8144 92.1323 33.5826 93.4098 31.6124C93.5483 31.6124 93.6869 31.6278 93.7023 31.52C93.8408 31.6124 94.0717 31.6124 94.1948 31.7047Z" fill="#23C8AC"/>
<path fill-rule="evenodd" clip-rule="evenodd" d="M28.9018 39.0469C28.5631 40.1551 27.4087 40.7554 26.6853 41.7559C25.7926 42.9718 24.6843 44.157 24.4688 45.9117C24.3765 46.6044 24.7613 47.7434 23.7916 47.8511C23.2375 47.4663 23.4068 46.2657 23.4991 45.5269C23.7608 43.4798 26.7161 39.6471 28.1322 38.7698C28.2091 38.7082 28.794 38.6775 28.9018 39.0469Z" fill="#23C8AC"/>
<path fill-rule="evenodd" clip-rule="evenodd" d="M3.19691 39.7242C3.5971 40.74 3.30466 41.9868 3.38162 43.0027C3.52015 44.8959 4.50524 46.3274 4.53602 47.8358C4.42828 47.8204 4.3667 47.8512 4.35131 47.9281C3.4124 47.882 3.48936 46.7891 3.08916 46.1888C2.87368 46.3581 2.99682 46.8815 2.50427 46.7737C1.6731 46.6814 1.73467 45.2653 1.73467 44.6496C1.8578 44.4495 2.38113 44.3572 2.59662 44.5573C2.27339 43.2951 2.27338 41.7251 2.30417 40.109C2.50426 39.8627 2.68897 39.6318 3.19691 39.7242Z" fill="#23C8AC"/>
<path fill-rule="evenodd" clip-rule="evenodd" d="M76.3246 43.5875C79.68 43.2643 83.7281 44.0185 86.1755 44.2648C86.8835 44.3417 88.3919 43.9108 88.3919 44.8497C88.3919 45.6347 86.5603 45.373 85.5906 45.2345C84.7286 45.1113 83.4049 44.8035 82.6045 44.7573C80.2188 44.588 77.756 44.9266 76.0321 44.3725C75.8166 44.0801 76.0783 43.6953 76.3246 43.5875Z" fill="#23C8AC"/>
<path fill-rule="evenodd" clip-rule="evenodd" d="M41.0768 45.0345C41.554 47.5741 39.63 49.6059 38.2755 51.1143C37.8291 51.6223 37.3673 52.6381 36.5362 52.2687C36.4592 50.9758 37.7829 50.3601 38.4756 49.4674C39.2144 48.4977 39.6608 47.451 40.2149 46.2812C40.1687 45.8195 40.2457 45.4808 40.3072 45.1268C40.5381 44.9729 40.769 44.8959 41.0768 45.0345Z" fill="#23C8AC"/>
<path fill-rule="evenodd" clip-rule="evenodd" d="M88.6997 46.2042C88.438 47.1123 87.0989 46.7891 85.9907 46.7891C83.9128 46.7891 82.0349 46.7891 79.6184 46.7891C78.464 46.7891 76.0628 46.9892 77.2018 45.8194C79.4798 45.65 83.4664 45.727 86.2831 45.727C87.1297 45.7116 88.2841 45.4192 88.6997 46.2042Z" fill="#23C8AC"/>
<path fill-rule="evenodd" clip-rule="evenodd" d="M41.6462 48.3283C41.7693 49.5905 41.2306 50.9912 40.107 51.3144C40.0146 51.1759 39.8453 51.1143 39.7222 51.0219C40.1224 50.0368 40.5841 49.1133 41.0767 48.2206C41.3075 48.2206 41.5384 48.2052 41.6462 48.3283Z" fill="#23C8AC"/>
<path fill-rule="evenodd" clip-rule="evenodd" d="M69.6599 55.0852C69.5983 54.9467 69.506 54.8544 69.3674 54.7928C69.8446 53.5614 70.8758 52.7457 71.6916 51.7913C72.492 50.8524 73.3694 50.0059 74.1082 48.99C75.8629 49.4825 72.9999 51.8529 72.4612 52.4686C71.4146 53.7 70.7527 54.762 69.6599 55.0852Z" fill="#23C8AC"/>
<path fill-rule="evenodd" clip-rule="evenodd" d="M23.8684 49.1903C24.2224 49.5443 24.0377 50.1754 23.4835 50.16C23.3912 50.0215 23.2219 49.9599 23.0987 49.8675C23.0064 49.2826 23.3142 49.1133 23.8684 49.1903Z" fill="#23C8AC"/>
<path fill-rule="evenodd" clip-rule="evenodd" d="M74.9701 56.3475C76.8787 55.0392 77.7098 52.638 79.7108 51.4221C80.5574 52.0531 79.5261 52.8073 79.1259 53.2537C77.7252 54.8699 76.263 57.0094 74.4929 58.1792C73.8464 58.0868 73.123 58.0714 72.8459 57.5943C73.985 55.6241 75.7089 53.8848 77.0942 51.9916C77.479 51.4682 77.7252 50.2215 78.7411 50.6371C78.7873 51.8376 77.7252 52.638 77.0942 53.5308C76.4631 54.4389 75.8474 55.424 75.0624 56.132C75.047 56.2244 74.9701 56.2398 74.9701 56.3475Z" fill="#23C8AC"/>
<path fill-rule="evenodd" clip-rule="evenodd" d="M96.1341 50.7293C95.503 53.4383 93.7022 55.5008 92.4708 57.5941C92.1322 58.1636 92.1322 59.1487 91.1163 59.041C90.6084 58.3637 91.3318 57.5172 91.7012 56.9169C92.086 56.2858 92.5786 55.6085 92.948 54.9929C93.8561 53.4998 94.6565 51.9914 95.3645 50.5446C95.7185 50.4984 95.9802 50.5753 96.1341 50.7293Z" fill="#23C8AC"/>
<path fill-rule="evenodd" clip-rule="evenodd" d="M60.0091 52.5764C60.2861 53.8078 60.0399 55.0853 60.1014 56.2397C60.2246 58.764 61.1173 61.2883 62.3179 62.9045C62.8566 63.6433 63.8417 63.9665 63.7648 65.0286C62.8874 65.3672 61.9177 64.2128 61.4406 63.5817C59.809 61.3653 58.4545 56.3783 59.2241 52.8535C59.2857 52.715 59.378 52.6226 59.5166 52.561C59.6859 52.5764 59.8398 52.5764 60.0091 52.5764Z" fill="#23C8AC"/>
<path fill-rule="evenodd" clip-rule="evenodd" d="M69.0904 53.5307C69.4598 54.054 69.2135 54.762 69.2905 55.27C69.4598 56.486 70.3525 57.0709 70.645 58.0713C68.7056 58.5639 68.0283 55.6856 68.3208 53.623C68.5363 53.4845 68.7826 53.3922 69.0904 53.5307Z" fill="#23C8AC"/>
<path fill-rule="evenodd" clip-rule="evenodd" d="M57.885 58.364C58.3621 58.9181 58.3006 59.6569 58.5622 60.3034C58.7931 60.8421 59.4242 61.2423 59.3318 61.9504C58.0235 62.7507 56.7614 59.2721 57.3924 58.3794C57.5617 58.364 57.7157 58.364 57.885 58.364Z" fill="#23C8AC"/>
<path fill-rule="evenodd" clip-rule="evenodd" d="M102.307 60.3955C102.691 61.319 102.337 62.7043 102.014 63.674C101.737 64.5206 101.183 65.8289 100.183 65.5057C99.8593 64.8284 100.613 64.3975 100.86 63.8587C101.26 62.966 101.368 61.8732 101.537 60.6726C101.568 60.5494 101.706 60.5187 101.722 60.3801C101.922 60.3955 102.122 60.3955 102.307 60.3955Z" fill="#23C8AC"/>
<path fill-rule="evenodd" clip-rule="evenodd" d="M24.6536 74.895C25.1462 76.3111 25.2385 77.5424 26.4853 78.1735C27.8552 78.8661 30.1948 78.0042 30.9336 79.528C30.3641 80.0513 29.6561 79.7127 28.5171 79.6203C26.0543 79.4356 23.6224 78.0658 23.9764 75.172C23.9148 74.7872 24.3458 74.895 24.6536 74.895Z" fill="#23C8AC"/>
<path fill-rule="evenodd" clip-rule="evenodd" d="M29.2865 77.4962C29.2865 77.6963 29.2865 77.881 29.2865 78.0811C28.0706 78.6814 26.3928 77.7733 26.5775 76.819C26.8392 75.5722 27.501 76.9421 28.0244 77.2038C28.6247 77.4962 28.9479 77.0345 29.2865 77.4962Z" fill="#23C8AC"/>
<path fill-rule="evenodd" clip-rule="evenodd" d="M57.9774 86.67C56.8384 87.0087 55.8533 85.7619 54.4064 85.608C53.9293 85.5464 53.2828 85.5002 52.7595 85.608C52.0361 85.7465 51.682 86.6854 50.8201 86.1929C50.9586 84.7306 52.7595 84.392 54.2987 84.5459C55.8533 84.6999 57.7773 85.4233 57.9774 86.67Z" fill="#23C8AC"/>
</svg>
