<svg width="135" height="112" viewBox="0 0 135 112" fill="none" xmlns="http://www.w3.org/2000/svg">
<path fill-rule="evenodd" clip-rule="evenodd" d="M104.951 27.199C102.867 23.7556 101.804 18.2022 100.279 13.6178C98.8733 9.40983 98.333 1.96617 91.9778 3.85802C89.7197 5.34244 91.3647 9.05617 91.8738 12.027C92.8317 17.643 94.3724 23.4552 95.4029 28.8091C94.4473 28.53 94.0769 27.218 93.488 26.1787C92.9212 25.1928 92.1159 24.2058 91.6666 23.3214C91.0853 22.1348 90.7435 20.7107 90.1164 19.3991C88.8831 16.8109 87.7798 15.0019 86.0516 12.6697C85.2384 11.5733 84.472 10.3635 83.1219 10.4615C80.496 10.6704 80.8514 14.8079 81.3486 17.6146C81.9756 21.2004 83.9213 24.5072 85.3237 27.9084C86.3679 30.4186 87.4877 32.96 88.2038 35.7508C88.8715 38.38 89.018 41.1572 89.5036 44.0564C85.8622 42.9085 83.2376 39.596 79.6006 37.7508C78.4961 37.1891 76.8923 36.5719 75.598 36.4274C74.9685 36.3447 73.0996 36.3703 72.395 36.7699C70.9871 37.5874 70.845 40.9357 71.2976 42.3701C71.9882 44.5575 74.8901 46.3826 76.563 48.2053C79.2902 51.1618 82.8502 52.9576 85.2291 56.6731C85.7056 57.4271 85.9699 58.2883 86.4256 59.0071C87.9335 61.337 89.9158 63.6323 92.0273 64.928C94.101 66.208 97.22 66.4768 98.1807 68.8463C98.808 70.4147 98.5894 72.9616 98.747 75.1327C98.8874 77.0666 99.2201 79.6284 99.2211 81.6641C99.207 82.9856 98.7422 85.6787 100.315 85.6196C102.254 85.5522 101.282 82.2665 101.438 80.3661C103.045 80.5246 104.958 80.349 106.836 80.1944C106.345 85.567 109.064 94.2098 105.65 97.2086C103.27 99.2888 97.6137 100.451 93.496 101.08C88.9615 101.776 84.2165 100.837 79.7352 100.245C77.587 99.9609 75.2853 99.8345 73.0201 99.7055C70.588 99.5519 67.868 99.4742 65.6607 99.8912C63.5616 100.282 61.4206 101.611 59.5413 102.756C56.5367 104.57 52.7404 105.836 47.6758 105.8C44.5375 105.771 40.5933 105.25 38.3345 103.947C35.5789 102.368 35.2216 97.699 34.8155 93.6202C36.6668 93.1007 38.3691 93.3073 39.5737 92.4679C40.0803 92.1193 40.1603 91.4533 40.6065 90.7789C41.3988 89.566 42.3918 88.3385 42.3609 86.3966C49.2052 85.9365 54.7129 83.7394 56.6488 78.5736C57.6622 75.859 57.888 71.6427 57.3556 67.5914C56.0685 57.9461 55.2567 44.4881 53.9409 34.6981C53.6268 32.3917 53.628 30.1358 53.3494 28.0652C52.3463 20.5634 49.2327 17.0846 42.2792 16.544C41.0071 16.4529 39.5153 16.873 38.0544 16.9607C37.2998 14.6495 36.4334 11.5579 34.0651 11.2713C33.1957 11.1693 29.9197 11.5172 29.1563 11.866C28.4634 12.1731 28.3537 13.1898 27.6594 13.4786C26.2512 14.0393 25.8428 12.455 24.577 12.1984C23.8509 12.0494 22.5373 12.1447 21.4858 12.3127C20.4876 12.4586 19.0868 12.6153 18.4174 12.994C17.167 13.7083 16.5815 16.7586 16.0462 18.228C12.3532 18.6428 9.56246 19.3589 8.15031 22.1391C5.15049 28.0607 7.03104 39.3136 8.16267 47.5764C8.56759 50.6282 8.3943 54.0521 8.86852 57.3006C9.27844 60.1686 10.0897 63.0075 10.6324 65.6825C11.175 68.3575 11.5381 71.3389 12.084 74.5639C12.7505 78.4404 12.9657 81.9094 14.7182 83.818C15.4555 84.6265 18.1841 86.5926 19.3093 86.9328C21.2049 87.5288 23.772 87.2691 25.5682 87.5055C25.7766 91.8921 28.2353 93.676 32.5566 93.3257C32.8629 99.0623 33.8109 104.037 37.2813 106.114C43.5025 108.946 53.6403 108.632 59.8895 105.28C61.7963 104.262 64.0426 102.613 66.2303 102.179C68.4531 101.724 71.1459 101.932 73.4699 102.112C75.756 102.276 78.0083 102.48 80.0848 102.787C84.3863 103.429 89.0683 104.006 93.8298 103.404C96.5923 103.056 99.8836 102.414 102.331 101.521C104.439 100.745 107.196 99.554 108.486 97.6263C111.168 93.6352 109.051 86.4527 109.175 80.0796C111.79 79.468 115.238 78.9609 118.005 78.1732C118.557 79.4536 118.046 83.5439 120.001 83.4387C121.992 83.3308 120.401 78.3294 120.238 77.0941C120.013 75.5148 119.849 74.518 119.963 73.3175C119.993 72.9669 120.286 72.7072 120.244 72.3801C120.161 71.7442 119.634 71.5624 119.434 70.825C118.705 68.1085 119.687 63.9473 120.298 62.0139C121.12 59.4416 122.699 57.6947 123.246 55.124C124.221 50.6148 122.308 44.2245 122.785 39.1646C122.983 37.0961 123.749 34.7663 124.135 32.5008C124.916 27.8407 125.73 23.8934 126.737 19.0702C127.225 16.7055 128.053 14.4629 127.48 11.8818C126.714 8.3977 122.843 9.1372 121.245 11.6374C119.845 13.8298 119.039 17.1163 118.269 19.9049C117.488 22.786 116.51 25.7364 115.8 28.594C114.179 25.4654 114.708 20.8786 114.117 16.5199C113.795 14.104 113.452 11.6529 113.146 9.45595C112.699 6.33382 112.52 1.85338 108.905 1.82236C107.583 1.80824 106.334 3.2928 105.979 4.21723C105.426 5.68796 105.355 8.4992 105.44 10.9323C105.555 16.0592 105.212 22.4483 104.951 27.199ZM111.019 10.9858C111.509 14.71 111.711 20.2708 112.161 23.6862C112.484 26.1203 113.187 31.7549 115.387 31.7419C116.689 31.7391 117.607 30.2419 117.976 29.2614C119.573 24.9822 120.296 19.2809 122.124 15.15C122.723 13.8044 123.311 12.056 124.874 11.8509C125.464 16.1914 124.294 18.7706 123.678 22.4101C123.306 24.6195 122.752 26.8423 122.327 29.0739C121.436 33.7237 120.095 37.9844 120.46 43.0198C120.728 46.7051 121.641 50.6921 120.936 54.3746C120.551 56.4017 119.203 58.0401 118.462 59.9646C117.259 63.0965 116.694 66.6772 117.081 70.9958C112.749 72.2089 106.234 72.6634 100.968 72.6239C100.846 70.9454 100.725 68.7717 100.146 67.6216C98.5863 64.5803 95.6566 64.6462 93.0128 62.839C89.2107 60.2355 87.2873 54.708 83.7763 51.3131C82.6138 50.2053 80.8037 49.273 79.5043 48.0468C78.4214 47.025 77.6629 45.9246 76.391 44.8248C74.4537 43.1497 72.6941 41.9019 73.5417 38.9242C81.5788 38.726 83.6543 46.0949 90.5637 46.7855C91.8399 45.9226 92.0611 44.4209 91.7525 42.4442C91.381 40.1053 91.0512 37.8367 90.5692 35.7442C89.6052 31.5592 87.5084 27.1813 85.8789 23.4298C84.5329 20.2995 83.3189 17.4715 83.3063 13.2542C83.9528 13.3173 84.1974 14.1615 84.5642 14.6668C85.8434 16.3713 86.8124 18.0983 87.8444 20.1876C88.4911 21.5162 88.8733 22.9923 89.52 24.3209C90.1222 25.5427 91.1012 26.9022 91.9983 28.396C92.7922 29.7322 93.7353 31.6079 95.229 31.7195C96.7409 31.8299 97.2366 31.0786 97.7569 30.1605C96.7251 21.5054 94.1706 14.6114 93.1219 5.97582C94.7218 5.52956 95.3513 6.62098 95.8908 7.73726C96.9032 9.8096 97.11 11.647 97.8517 14.0324C98.1146 14.8753 98.4701 15.7299 98.7357 16.6093C99.7877 20.2377 100.566 23.8859 102.136 27.0732C102.866 28.5425 103.888 30.7425 105.384 30.6339C107.391 30.4883 107.305 26.7714 107.41 25.1865C107.742 20.4123 107.719 15.8104 107.638 10.9011C107.594 8.52007 107.699 5.92645 108.669 4.38877C108.779 4.38082 108.791 4.28828 108.899 4.26209C110.524 4.67596 110.726 8.71457 111.019 10.9858ZM33.6391 13.7415C35.0326 13.9888 35.0894 15.782 35.5108 17.292C29.5934 17.8866 23.938 17.5452 18.5208 17.9567C18.7203 16.9152 19.2916 16.1951 19.589 15.2382C20.82 14.7637 22.4816 14.6614 24.1431 14.5591C24.4612 16.9203 30.2238 16.4653 30.3279 14.1102C31.7148 14.2663 32.7462 13.5679 33.6391 13.7415ZM20.0274 84.6981C18.7159 84.3165 16.3208 82.3995 15.7475 81.3224C14.7314 79.452 14.6516 75.8264 14.2208 72.9232C13.7873 69.9836 13.1661 66.9841 12.6928 64.5059C12.188 61.8465 11.3634 58.8251 11.0646 56.2241C10.671 52.8231 10.7928 49.9531 10.3839 46.8466C9.83051 42.7602 9.30213 37.7549 9.02284 32.8966C8.77931 28.531 9.14829 23.0021 11.6463 21.5369C12.597 20.991 14.4878 20.7621 15.8286 20.5364C21.3222 19.6608 25.8165 20.1782 31.3226 19.9803C37.0489 19.7847 43.0575 17.918 46.9866 19.9987C50.1725 21.6932 50.8812 27.1622 51.4421 32.1101C52.3111 39.7867 52.9947 47.1833 53.5933 55.4297C54.1323 62.8551 56.4361 71.6013 54.6156 77.3456C53.1222 82.0391 48.5209 83.5836 42.0962 84.0133C41.4528 83.2346 41.5781 81.1714 40.2418 80.6999C38.9236 80.227 35.3155 80.8007 33.1368 81.1055C32.2116 81.2461 31.0363 81.4781 29.951 81.6853C28.8656 81.8924 27.6953 81.9407 27.1118 82.2398C26.0137 82.778 25.8281 84.5155 25.3675 85.2459C23.5621 84.8817 21.6401 85.1863 20.0274 84.6981ZM117.509 73.3673C117.773 73.9717 117.699 74.9675 117.794 75.7676C115.989 76.4304 113.735 76.7041 111.675 77.1287C111.531 76.1488 111.757 75.4722 111.594 74.4936C113.584 74.1107 115.556 73.7475 117.509 73.3673ZM104.378 74.889C104.391 76.0802 104.59 77.0561 104.839 77.955C104.017 78.2531 102.556 78.0841 101.264 77.9761C101.193 76.9909 101.12 75.9875 101.048 75.0023C102.131 75.0154 103.196 75.0298 104.378 74.889ZM39.1315 83.0913C39.5155 83.8338 39.9035 84.6309 39.9996 85.4493C40.2444 87.559 39.1307 89.1437 38.0766 90.5408C36.5971 91.3818 34.647 91.0465 33.0491 91.0157C31.231 90.9826 29.4809 91.128 28.6053 90.1828C27.6097 89.0997 27.7743 86.0615 28.1895 84.4541C31.5107 83.7179 35.1632 83.251 39.1315 83.0913Z" fill="#E6EAEE"/>
<path fill-rule="evenodd" clip-rule="evenodd" d="M6.97196 17.2728C6.92885 17.1843 6.65753 16.9839 6.49863 17.0688C2.94939 18.9587 3.11424 26.2829 3.74443 31.4275C3.91541 32.7722 4.23147 35.6104 5.19312 35.4672C6.18993 35.3032 5.16 32.7369 5.0364 31.7922C4.65237 28.7756 4.26875 22.7327 5.26187 20.4965C5.59203 19.7389 7.4316 18.0464 6.97196 17.2728Z" fill="#E6EAEE"/>
<path fill-rule="evenodd" clip-rule="evenodd" d="M77.623 12.2729C77.4999 12.8504 77.4951 14.2996 77.9073 14.6732C78.1445 14.656 78.3634 14.6401 78.6006 14.6229C78.9205 13.9761 78.95 11.3513 77.623 12.2729Z" fill="#E6EAEE"/>
<path fill-rule="evenodd" clip-rule="evenodd" d="M54.6405 20.8371C55.1999 19.9528 54.1873 18.8892 53.6299 18.031C52.9275 16.9449 52.3919 15.8833 51.2681 15.5614C49.8599 16.1221 51.516 16.9556 51.9833 17.5819C52.773 18.6067 53.4417 20.9974 54.6405 20.8371Z" fill="#E6EAEE"/>
<path fill-rule="evenodd" clip-rule="evenodd" d="M1.85504 22.8346C1.24136 22.9709 1.42234 23.9481 1.41396 24.5907C1.36997 26.0061 1.11222 28.5191 1.77946 29.6261C3.12821 29.5098 2.58778 27.6233 2.59557 26.4673C2.59674 25.2201 2.84276 23.8084 2.44682 22.9017C2.26438 22.915 1.92375 22.5179 1.85504 22.8346Z" fill="#E6EAEE"/>
<path fill-rule="evenodd" clip-rule="evenodd" d="M18.0209 25.2192C18.3259 26.3892 19.3903 27.1556 20.181 27.9419C22.4383 30.2356 24.4669 33.1696 26.8377 35.5101C27.3309 35.9878 27.9232 36.5684 28.7455 36.5271C29.3345 35.2922 28.1483 35.1215 27.5742 34.5396C24.705 31.6484 22.1172 27.5812 18.9342 24.9145C18.4754 24.9111 18.1901 25.0235 18.0209 25.2192Z" fill="#E6EAEE"/>
<path fill-rule="evenodd" clip-rule="evenodd" d="M34.9679 25.7313C35.124 26.6186 36.0537 27.0463 36.6136 27.6843C37.6746 28.9095 38.5975 30.2547 39.6678 31.6075C40.0933 32.1635 40.7018 33.2198 41.5915 32.8434C41.8079 31.7823 40.3649 30.3465 39.2386 28.9793C38.372 27.9051 36.6096 25.3554 35.7455 25.3264C35.4874 25.3084 35.1017 25.2997 34.9679 25.7313Z" fill="#E6EAEE"/>
<path fill-rule="evenodd" clip-rule="evenodd" d="M16.5321 26.9412C17.3097 28.8105 18.8324 30.3323 20.1166 31.853C20.7405 32.6147 21.4568 33.388 22.1158 34.1288C22.6939 34.7655 23.2427 36.0095 24.3099 35.8036C24.8444 34.8295 23.6537 34.0906 23.0951 33.4709C21.199 31.3526 19.2177 28.8187 17.4271 26.6378C16.9866 26.6331 16.7 26.7273 16.5321 26.9412Z" fill="#E6EAEE"/>
<path fill-rule="evenodd" clip-rule="evenodd" d="M44.1819 28.8589C44.5009 29.7161 44.9228 30.4741 45.8197 30.7025C45.9185 30.5486 46.1126 30.4428 46.2506 30.3227C46.1022 29.2881 44.9533 27.6108 44.1819 28.8589Z" fill="#E6EAEE"/>
<path fill-rule="evenodd" clip-rule="evenodd" d="M34.9469 29.9878C34.9113 30.7606 35.7734 31.2666 36.4728 32.0595C37.1527 32.8355 38.0395 34.4401 38.8619 33.39C38.3108 32.3663 36.4212 29.0738 34.9469 29.9878Z" fill="#E6EAEE"/>
<path fill-rule="evenodd" clip-rule="evenodd" d="M17.119 31.7404C16.8253 32.4953 17.6389 32.8397 18.0462 33.397C18.9234 34.6172 19.5593 36.8086 21.261 36.5016C21.4801 35.477 20.3521 34.8436 19.8194 34.0753C19.1837 33.1494 18.7304 32.2103 17.9045 31.4449C17.5383 31.4532 17.2112 31.4952 17.119 31.7404Z" fill="#E6EAEE"/>
<path fill-rule="evenodd" clip-rule="evenodd" d="M13.0996 43.073C11.8494 45.0528 12.365 49.1237 12.8853 52.754C13.3413 56.0038 14.5738 59.0872 15.1216 62.8439C15.6247 66.2371 15.3565 69.8696 16.1401 73.5908C16.7587 76.5538 17.8138 79.4667 19.8411 80.1081C21.2491 80.5561 24.98 80.157 26.954 79.8119C29.418 79.3946 32.241 78.3644 35.4557 77.9293C37.2539 77.6888 39.2595 77.5248 41.1844 77.5135C46.9057 77.5017 52.0877 77.6391 52.4188 72.0946C52.5455 70.0496 52.1922 67.7093 51.9447 65.5631C50.9167 56.706 50.5812 48.2938 50.0417 39.3461C48.649 38.6036 46.4041 37.9962 43.883 38.6377C42.4251 39.0186 40.8864 40.5609 39.3518 41.1491C38.3357 41.553 36.9299 41.8935 35.6083 41.8794C33.7173 41.8516 31.7464 40.4724 30.0846 40.3179C23.7317 39.7153 22.0655 44.8065 16.1827 43.8579C15.1843 43.747 14.3103 43.0768 13.0996 43.073ZM49.281 45.2886C49.2332 45.6405 49.4984 46.2632 49.2549 46.4459C47.6193 44.1254 45.0249 42.2412 43.5003 40.1877C45.0233 39.692 48.0243 39.3458 48.9234 40.3627C49.0095 41.5485 49.0956 42.7344 49.1817 43.9203C48.4048 43.8299 48.4049 42.8212 47.3925 43.0231C46.6729 43.974 48.1601 45.2599 49.281 45.2886ZM42.6291 40.8195C42.6284 41.3148 42.9492 41.4382 43.0513 41.8343C45.1631 43.3867 46.7699 45.5626 48.6461 47.4072C49.0229 47.5449 49.2827 46.8291 49.3394 47.3568C49.3348 49.0628 49.449 50.8886 49.5032 52.6453C47.949 50.9424 46.24 49.3792 44.5504 47.8328C42.8413 46.2696 41.2792 44.4572 39.2748 43.3739C39.1043 43.5513 38.8947 43.6949 38.8598 43.9726C41.9618 47.5439 45.859 50.1955 48.892 53.8268C49.1023 54.1967 49.581 53.465 49.6012 53.9954C49.5812 54.7305 49.8743 55.7362 49.6573 56.2839C47.3549 53.3698 44.4837 50.9555 41.9537 48.4431C41.1043 47.6061 40.394 46.4105 39.1438 46.1161C38.9733 46.2936 38.7636 46.4372 38.7287 46.7148C42.0135 50.5296 45.9581 53.5812 49.1751 57.4743C49.5284 57.5404 49.5868 57.3344 49.8604 57.3145C50.0831 59.3708 50.4692 61.9105 50.3425 63.9554C49.5319 62.8955 48.9861 61.9448 47.9383 60.902C46.4744 59.431 43.778 58.4163 43.7539 55.5569C44.2399 55.43 44.6551 56.0967 45.0882 56.5055C45.5214 56.9142 46.1032 57.3488 46.5559 57.7745C47.4809 58.6427 48.2022 60.241 49.3989 60.5576C50.1444 59.4581 48.7656 58.4027 48.1511 57.7687C46.5057 56.0725 44.8725 54.7971 43.2235 53.3029C42.3781 52.5206 41.7473 51.4109 40.6484 51.1789C40.3982 51.2704 40.3269 51.5507 40.2333 51.7776C40.3907 52.6832 41.6396 52.9593 41.6339 53.6384C41.214 53.4121 40.3554 53.7128 39.9017 53.5257C39.9469 53.1372 39.7903 53.0019 39.734 52.7309C35.4178 49.6145 31.7955 45.6958 28.2225 41.7002C30.1093 41.4165 31.3883 41.8555 32.5306 42.4329C32.0132 42.3787 31.9067 42.6799 31.8784 43.0488C33.1533 44.4418 34.6455 45.544 36.0558 46.7804C37.4647 47.9987 38.6537 49.4713 40.2332 50.5121C40.3281 50.3035 40.6395 50.2992 40.6562 50.0229C38.8773 46.7407 35.2613 44.9307 33.0872 42.5209C36.1229 43.9145 40.4921 42.2035 42.6291 40.8195ZM27.4465 42.3801C30.1667 45.9974 33.6584 49.6322 37.0319 52.3951C37.5576 52.8155 38.4416 53.1181 38.2727 53.5705C33.275 53.9516 28.828 54.843 23.8917 55.3113C21.8288 53.1685 19.7225 50.6804 17.852 48.1568C17.3847 47.5305 16.5145 45.6496 15.8448 45.7715C14.4688 46.0181 16.5543 48.4711 16.8806 48.9243C18.1415 50.6301 19.3279 52.0662 20.5507 53.4997C21.1914 54.2419 22.2648 54.8792 21.9843 55.8166C21.6253 56.4296 21.1266 55.6221 20.9113 55.436C18.4978 53.2636 16.2764 50.4537 14.4918 47.8505C14.2948 47.6631 13.7776 47.8657 13.7654 47.4447C13.2142 46.421 13.561 45.3871 14.0215 44.6567C15.6226 45.2375 18.0391 45.4289 20.2567 44.9011C21.6923 47.7497 23.7933 50.1648 25.6466 52.4512C26.2509 53.196 26.6862 54.3932 27.7642 54.5901C27.8591 54.3814 28.1706 54.3772 28.1872 54.1009C26.0993 50.6027 23.3684 47.8481 21.162 44.4869C21.7378 44.3351 22.0998 44.0153 22.7344 43.9143C24.491 47.143 26.9287 49.9006 29.1106 52.4199C29.7123 53.1282 30.2389 54.3188 31.3219 54.3318C31.3465 54.165 31.568 54.1856 31.6526 54.0878C31.543 52.8302 30.3353 52.1109 29.6123 51.2464C28.0672 49.4144 26.7359 47.7504 25.3105 45.7997C24.7819 45.0861 23.3046 43.4327 24.4013 42.8762C26.7949 45.7837 29.4515 48.5253 31.8006 51.3259C32.5628 52.2243 33.5362 53.2541 34.6185 53.7624C35.4539 52.638 33.7935 51.4931 33.1345 50.7523C30.5625 47.9128 27.7115 45.0202 25.3806 42.2183C26.0073 42.0077 27.1564 41.6675 27.8904 41.926C27.5007 41.8626 27.5623 42.2066 27.4465 42.3801ZM21.0583 57.4611C20.9322 57.7454 20.8061 58.0296 20.7779 58.3985C19.7656 57.5916 19.041 56.4521 18.1458 55.49C17.2898 54.5617 16.3748 53.326 14.9813 53.0787C14.975 53.2442 14.8134 53.2926 14.7875 53.4412C15.3599 54.7569 16.6199 55.6925 17.6809 56.9176C18.7223 58.1258 20.8119 59.6248 20.6759 61.5421C19.0398 59.9735 17.7902 57.9184 15.9328 56.586C15.367 56.3703 15.3632 57.581 15.1553 56.9909C14.6338 54.6078 13.7654 51.9931 14.0163 49.1322C15.82 52.5043 18.829 54.5417 21.0583 57.4611ZM39.8498 54.8316C42.124 54.8316 43.2052 55.5784 42.2208 57.4289C43.4201 58.7907 42.5891 61.4921 42.502 62.8189C40.9599 64.8199 37.6601 64.8393 33.8317 65.4107C29.3505 66.0844 25.1276 65.7674 22.3091 65.0916C22.221 62.1085 21.3123 58.433 22.7322 56.771C27.4821 56.2612 34.8973 54.8243 39.8498 54.8316ZM17.1863 59.7046C18.5212 61.1666 20.4695 62.2357 20.991 64.6187C19.5027 63.5713 18.0093 61.4422 16.4087 60.1095C16.2263 60.1227 16.0256 60.1373 15.8431 60.1505C15.7235 59.2605 15.2712 58.0829 15.398 57.3034C16.0779 58.0794 16.509 58.9651 17.1863 59.7046ZM43.6766 63.0821C44.6862 63.8525 45.6984 64.6593 46.6221 65.5093C47.5472 66.3775 48.2705 67.4988 49.3478 68.1909C50.7855 67.2796 47.7905 64.9293 47.1043 64.3189C45.4565 62.8429 43.4551 62.0528 44.1116 59.4742C46.1747 60.6082 47.9709 63.1189 49.808 64.9296C50.2448 65.1363 50.4446 64.3515 50.5012 64.8793C50.9393 68.3872 52.0379 72.9109 50.0829 75.0336C48.5027 76.7622 44.1752 76.2693 41.2025 76.2467C40.1559 76.231 38.9806 76.463 37.9915 76.4798C37.7099 76.3902 38.2217 76.1146 38.0506 75.7786C35.4016 72.8896 32.8542 69.8833 30.3731 66.7805C30.9022 66.7421 31.4313 66.7037 31.9786 66.6639C31.953 67.0693 32.0614 67.2998 32.1543 67.5682C33.7333 69.361 36.2566 71.7822 38.2373 73.8026C38.8715 74.4535 40.4394 76.8523 40.9731 75.1079C38.5142 72.0585 35.4306 69.7513 33.1097 66.5818C35.4397 66.3394 37.6719 66.0123 39.9444 65.7373C41.2261 68.487 44.2222 70.5987 45.9511 72.4357C46.3491 72.8653 46.7245 73.9935 47.5465 73.6954C48.8323 73.2169 46.6472 71.4131 46.3158 71.1437C44.3172 69.3814 42.2934 67.2724 41.0584 65.418C41.9959 64.6897 43.5009 64.4521 43.6766 63.0821ZM20.2703 65.8081C20.2981 66.1913 20.1107 66.3883 20.235 66.8378C22.2126 69.5737 24.5239 72.3587 26.2567 75.2591C26.7999 76.1734 27.3905 77.4877 28.517 77.8461C29.5653 77.1281 28.3274 76.2459 27.894 75.5804C27.4005 74.8459 27.054 73.8624 26.4444 73.0446C24.8572 70.8856 22.5943 68.2621 21.4422 66.0349C22.0953 66.1892 22.6977 66.4023 23.4354 66.4587C23.4098 66.8641 23.5183 67.0947 23.6111 67.363C25.5947 69.6766 27.0097 72.7468 28.8812 75.0319C29.5038 75.7754 30.1372 76.9215 31.2099 77.0454C31.8545 76.5768 31.3192 75.772 31.0934 75.4399C30.6221 74.7588 29.8878 74.2436 29.3382 73.4948C27.7314 71.3189 26.2012 68.9357 24.8093 66.6891C25.3138 66.8176 25.9016 66.8299 26.44 66.9193C27.5024 69.4281 28.9733 71.2471 30.5732 73.0751C31.6538 74.3171 32.6341 75.6949 33.9489 76.6265C35.2164 76.1493 33.4901 74.3489 32.9303 73.7109C31.0498 71.5549 28.7079 69.359 27.8358 66.9463C28.5291 66.896 29.2042 66.847 29.8974 66.7967C30.1701 67.0153 29.357 67.1844 29.617 67.734C31.9313 70.8123 34.5318 73.5397 36.9307 76.5201C33.9396 76.4988 30.3377 77.9157 26.9512 78.51C24.9237 78.8772 22.2902 79.2334 20.5475 78.9748C18.1373 78.6179 17.6725 74.4883 17.2695 71.9683C17.748 73.254 18.6225 74.4377 19.3863 75.6111C20.0495 76.6634 20.5286 78.4626 22.0276 78.6473C22.1837 77.2604 21.0939 75.8906 20.3679 74.7328C19.5806 73.4878 18.7738 72.2259 17.9307 71.2233C17.4132 71.1692 17.3067 71.4704 17.161 71.7377C17.1412 69.1898 16.2654 66.9792 16.5285 64.5392C18.1649 66.3645 19.2778 68.5579 20.6604 70.6767C21.7558 72.3762 23.0791 73.9308 24.2448 75.5885C24.797 76.3738 25.1607 77.5945 26.2441 77.8644C27.3706 77.214 25.6105 75.4527 25.0988 74.7196C23.2608 72.1386 21.1737 69.4107 20.0304 66.7976C18.8851 65.927 18.1641 64.5855 17.1542 63.5584C16.9257 63.1898 16.3637 64.0376 16.3435 63.5072C16.3466 62.7917 16.1199 61.6894 16.186 61.3361C17.4247 62.9885 18.9158 64.3292 20.2703 65.8081Z" fill="#E6EAEE"/>
<path fill-rule="evenodd" clip-rule="evenodd" d="M100.946 35.4312C101.388 36.7197 102.768 35.7758 103.734 35.6874C105.101 35.5698 107.607 35.4796 109.48 35.5087C111.296 35.5236 112.89 36.5083 113.99 35.7498C113.68 34.5069 111.206 34.283 109.388 34.2499C108.029 34.2201 106.438 34.5374 104.918 34.5743C103.399 34.6113 101.567 34.3957 100.946 35.4312Z" fill="#E6EAEE"/>
<path fill-rule="evenodd" clip-rule="evenodd" d="M98.0482 35.183C98.0253 35.6248 98.1377 35.9101 98.3516 36.078C98.9055 36.1295 99.0877 35.8595 99.2307 35.5556C99.2729 34.874 98.3448 34.7213 98.0482 35.183Z" fill="#E6EAEE"/>
<path fill-rule="evenodd" clip-rule="evenodd" d="M40.9976 42.0934C41.2859 43.5397 42.7046 44.1337 43.6296 45.0019C44.5742 45.887 45.5931 46.7851 46.4647 47.6756C47.2567 48.4801 47.6284 49.8103 48.9462 50.0264C49.4609 48.7786 48.108 47.5746 47.3369 46.8053C45.6368 45.113 43.4298 43.5125 41.9108 41.7887C41.4507 41.7671 41.1654 41.8795 40.9976 42.0934Z" fill="#E6EAEE"/>
<path fill-rule="evenodd" clip-rule="evenodd" d="M17.7774 45.613C17.565 46.7288 18.6904 47.3258 19.219 48.0393C20.3364 49.5355 21.4394 51.0877 22.7796 52.6227C23.2599 53.1748 24.1035 54.6908 24.7537 54.5519C26.1453 54.2675 24.2627 52.5885 24.0213 52.2942C22.1083 50.1955 20.3837 47.6613 18.7 45.436C18.5358 45.4479 18.3729 45.4781 18.3454 45.3517C18.1891 45.4731 17.9154 45.4929 17.7774 45.613Z" fill="#E6EAEE"/>
<path fill-rule="evenodd" clip-rule="evenodd" d="M95.8014 48.6979C96.2981 49.9823 97.7181 50.5945 98.6616 51.7182C99.8244 53.0826 101.24 54.3921 101.646 56.4534C101.815 57.2665 101.457 58.6496 102.616 58.6939C103.24 58.1901 102.936 56.7817 102.763 55.9139C102.276 53.5099 98.4437 49.2213 96.6897 48.3032C96.5932 48.2369 95.8973 48.2507 95.8014 48.6979Z" fill="#E6EAEE"/>
<path fill-rule="evenodd" clip-rule="evenodd" d="M126.328 47.2891C125.941 48.5276 126.395 49.9803 126.391 51.191C126.389 53.447 125.345 55.2285 125.438 57.019C125.565 56.9915 125.64 57.0227 125.665 57.1126C126.774 56.9771 126.589 55.6884 127.011 54.9424C127.281 55.1246 127.181 55.7555 127.755 55.5854C128.732 55.4044 128.537 53.7312 128.485 53.0015C128.321 52.7749 127.693 52.7104 127.455 52.9661C127.729 51.4423 127.594 49.5814 127.419 47.6684C127.16 47.3937 126.922 47.1359 126.328 47.2891Z" fill="#E6EAEE"/>
<path fill-rule="evenodd" clip-rule="evenodd" d="M39.9813 58.1601C35.9763 58.0657 31.2429 59.308 28.3633 59.8104C27.5307 59.9626 25.7056 59.5815 25.7864 60.6944C25.854 61.6249 28.0025 61.1571 29.14 60.9095C30.1511 60.6894 31.6936 60.2106 32.6383 60.087C35.4516 59.6811 38.3998 59.8705 40.3955 59.0654C40.6258 58.7003 40.2825 58.2667 39.9813 58.1601Z" fill="#E6EAEE"/>
<path fill-rule="evenodd" clip-rule="evenodd" d="M81.8852 56.8424C81.5381 59.8937 83.9934 62.1364 85.7287 63.8078C86.3015 64.3715 86.9362 65.5359 87.8897 65.0265C87.8696 63.4874 86.2476 62.8715 85.3498 61.8729C84.3907 60.7871 83.7716 59.5849 83.0141 58.246C83.0291 57.6947 82.9088 57.2999 82.8053 56.8856C82.5184 56.723 82.2382 56.6517 81.8852 56.8424Z" fill="#E6EAEE"/>
<path fill-rule="evenodd" clip-rule="evenodd" d="M25.5381 62.3263C25.9264 63.3802 27.4858 62.8819 28.7994 62.7866C31.2624 62.6078 33.4882 62.4462 36.3525 62.2383C37.7209 62.139 40.5842 62.1696 39.1335 60.881C36.4187 60.8763 31.7001 61.3105 28.3614 61.5529C27.3566 61.6074 25.9632 61.3601 25.5381 62.3263Z" fill="#E6EAEE"/>
<path fill-rule="evenodd" clip-rule="evenodd" d="M81.4936 60.7957C81.4562 62.3023 82.2153 63.9162 83.5749 64.2026C83.6724 64.0305 83.8678 63.943 84.0058 63.8229C83.4467 62.6897 82.82 61.6348 82.1593 60.619C81.8857 60.6388 81.6107 60.6405 81.4936 60.7957Z" fill="#E6EAEE"/>
<path fill-rule="evenodd" clip-rule="evenodd" d="M48.8704 71.2151C48.9315 71.0456 49.033 70.9282 49.1919 70.8433C48.5204 69.4248 47.2278 68.5466 46.1788 67.4856C45.1493 66.4416 44.0365 65.5136 43.0734 64.3731C41.0359 65.1079 44.6333 67.6712 45.3248 68.3546C46.6714 69.7241 47.5472 70.926 48.8704 71.2151Z" fill="#E6EAEE"/>
<path fill-rule="evenodd" clip-rule="evenodd" d="M102.64 60.2879C102.251 60.7379 102.524 61.4701 103.179 61.4041C103.277 61.232 103.472 61.1445 103.61 61.0244C103.67 60.3232 103.29 60.149 102.64 60.2879Z" fill="#E6EAEE"/>
<path fill-rule="evenodd" clip-rule="evenodd" d="M42.6847 73.168C40.3098 71.7814 39.118 69.0068 36.6417 67.7377C35.6925 68.5585 36.9798 69.3638 37.4926 69.8584C39.2918 71.6536 41.2091 74.0637 43.4078 75.298C44.1662 75.1329 45.0223 75.0524 45.3097 74.463C43.7901 72.2257 41.5971 70.3125 39.7922 68.1876C39.2911 67.6004 38.8919 66.1438 37.7235 66.7238C37.7721 68.1508 39.0998 69.0082 39.9246 70.012C40.7508 71.0341 41.5653 72.1488 42.5567 72.9205C42.5829 73.0286 42.6754 73.0403 42.6847 73.168Z" fill="#E6EAEE"/>
<path fill-rule="evenodd" clip-rule="evenodd" d="M17.1155 68.3297C18.0966 71.4864 20.4086 73.7762 22.0483 76.1514C22.4987 76.7973 22.5834 77.965 23.7782 77.7499C24.322 76.9034 23.3917 75.9622 22.9022 75.2825C22.3918 74.5676 21.7497 73.8072 21.2589 73.1092C20.054 71.4176 18.9755 69.6986 18.0118 68.0445C17.5882 68.0202 17.2847 68.134 17.1155 68.3297Z" fill="#E6EAEE"/>
<path fill-rule="evenodd" clip-rule="evenodd" d="M60.0937 67.411C59.8712 68.8944 60.273 70.3875 60.2994 71.7611C60.3706 74.7637 59.5296 77.8326 58.2456 79.8516C57.6706 80.7736 56.5308 81.2415 56.7134 82.4937C57.7825 82.8196 58.8325 81.3679 59.3438 80.5788C61.087 77.8113 62.2634 71.7836 61.0479 67.6719C60.9631 67.513 60.8456 67.4114 60.6761 67.3504C60.4768 67.3832 60.2943 67.3964 60.0937 67.411Z" fill="#E6EAEE"/>
<path fill-rule="evenodd" clip-rule="evenodd" d="M49.4116 69.3235C49.0187 69.9755 49.3716 70.7936 49.3241 71.4023C49.228 72.8581 48.2201 73.6282 47.9596 74.8393C50.3007 75.2562 50.8558 71.7863 50.3317 69.3667C50.0644 69.221 49.7645 69.1328 49.4116 69.3235Z" fill="#E6EAEE"/>
<path fill-rule="evenodd" clip-rule="evenodd" d="M63.1091 74.0882C62.5912 74.786 62.7278 75.6564 62.4733 76.4452C62.246 77.1036 61.5324 77.6323 61.7028 78.4636C63.3224 79.2997 64.5191 75.0679 63.6943 74.064C63.4923 74.0604 63.3098 74.0736 63.1091 74.0882Z" fill="#E6EAEE"/>
<path fill-rule="evenodd" clip-rule="evenodd" d="M10.631 80.3182C10.2543 81.4459 10.7931 83.0575 11.2597 84.179C11.6609 85.1586 12.4303 86.6617 13.5883 86.1925C13.9132 85.362 12.9822 84.916 12.6439 84.2986C12.0927 83.2749 11.871 81.9888 11.567 80.5804C11.5199 80.437 11.3531 80.4125 11.3229 80.2496C11.0871 80.2851 10.8499 80.3023 10.631 80.3182Z" fill="#E6EAEE"/>
<path fill-rule="evenodd" clip-rule="evenodd" d="M103.921 90.8233C103.459 92.5441 103.455 94.0116 102.032 94.8669C100.468 95.8058 97.6204 94.9854 96.8758 96.8551C97.5959 97.4264 98.406 96.9642 99.7481 96.7567C102.651 96.3259 105.416 94.4929 104.747 91.0934C104.787 90.632 104.286 90.7968 103.921 90.8233Z" fill="#E6EAEE"/>
<path fill-rule="evenodd" clip-rule="evenodd" d="M98.6532 94.3052C98.6704 94.5424 98.6863 94.7613 98.7035 94.9985C100.196 95.6054 102.107 94.3846 101.806 93.2693C101.388 91.8141 100.722 93.4948 100.124 93.8499C99.4377 94.2482 99.0148 93.7287 98.6532 94.3052Z" fill="#E6EAEE"/>
<path fill-rule="evenodd" clip-rule="evenodd" d="M65.4351 107.647C66.8143 107.951 67.8747 106.388 69.5764 106.081C70.1367 105.967 70.899 105.857 71.5285 105.939C72.3979 106.041 72.8984 107.124 73.8777 106.466C73.5876 104.745 71.4239 104.498 69.6127 104.813C67.7833 105.129 65.565 106.152 65.4351 107.647Z" fill="#E6EAEE"/>
</svg>
