<svg width="159" height="151" viewBox="0 0 159 151" fill="none" xmlns="http://www.w3.org/2000/svg">
<path fill-rule="evenodd" clip-rule="evenodd" d="M133.24 65.8561C137.297 68.5469 142.104 69.5061 144.332 72.3617C147.352 76.2377 144.013 83.5323 140.364 88.5235C138.966 88.544 137.351 87.9195 135.628 87.0173C132.861 93.5219 129.106 98.8629 126.607 105.143C126.197 106.193 126.074 107.34 125.646 108.471C124.753 110.848 123.368 113.181 122.387 115.559C122.128 116.214 122.031 116.949 121.772 117.649C120.737 120.313 118.941 123.338 117.674 126.424C116.504 129.268 115.032 132.677 113.583 134.643C113.252 135.083 112.831 135.165 112.41 135.605C110.451 137.607 109.729 139.733 106.95 139.783C104.126 139.834 100.501 137.94 97.0377 136.53C93.4401 135.075 89.4663 133.792 85.9944 132.445C84.6039 131.909 83.3925 131.284 82.0559 130.776C73.4435 127.475 62.5678 121.838 54.347 116.986C49.5187 114.135 44.2978 112.298 39.703 109.698C36.6248 107.965 33.5915 106.231 30.6299 104.488C27.5516 102.665 24.6076 100.797 21.5652 98.9921C19.8241 97.9465 17.2047 97.0459 15.7053 95.7847C14.3315 94.6308 14.0475 91.3323 14.1245 89.3778C14.1588 88.5441 13.9868 87.63 14.1203 87.1367C14.3873 86.1052 15.1021 84.804 15.584 83.6556C16.2354 82.0318 17.2725 80.5327 17.9329 78.9358C18.2006 78.2629 18.2978 77.4828 18.5476 76.8459C21.2239 69.8484 26.1145 62.8109 29.1936 55.454C30.5056 52.3229 32.1766 49.4601 33.3366 46.5444C34.0237 44.8487 34.6553 42.2298 36.131 40.3445C33.2219 37.9563 33.7106 35.6246 35.7827 31.4611C36.6401 29.7383 37.2641 27.8545 38.3018 26.6692C39.2948 25.5289 41.7408 24.7981 43.4624 25.028C45.731 25.3285 48.3961 26.6773 50.89 27.6049C53.5544 28.5951 56.165 29.6032 58.4437 30.5133C60.0224 26.1715 62.443 21.4425 65.5036 18.5771C66.9444 17.2117 68.6093 15.8908 70.0522 15.6461C72.8394 15.1747 77.038 16.8612 80.7428 18.1452C88.7535 20.9452 97.9432 26.1903 105.793 29.3581C110.53 31.2677 114.991 34.2715 118.974 35.3578C121.09 35.9186 124.411 37.9295 127.139 39.287C132.469 41.9396 137.708 43.8303 138.8 47.7548C139.305 49.5289 139.206 53.8232 138.377 56.2542C137.271 59.6449 134.964 62.8855 133.24 65.8561ZM135.857 55.7838C136.588 53.7743 136.957 49.7933 136.416 48.1806C135.461 45.3764 129.711 43.4329 125.834 41.5037C120.809 39.003 117.283 37.0911 112.546 35.1815C109.379 33.8965 105.664 32.227 103.044 31.1472C100.218 29.9871 96.7268 27.6897 93.4792 26.3869C89.5946 24.8343 85.1076 22.3774 80.8195 20.7807C78.191 19.8084 72.4675 17.6765 70.4603 18.1554C69.6449 18.3542 68.3113 19.549 67.3716 20.4024C64.6868 22.8727 62.4901 27.4667 60.9738 31.5485C62.508 32.2001 65.0113 33.3787 67.0034 34.4149C69.4706 30.6272 72.4346 24.0416 75.9315 24.3936C76.9985 24.4992 78.9811 25.2396 80.5421 25.8373C84.4356 27.372 88.6359 29.9549 92.6911 31.6148C93.4357 31.9182 94.2876 32.0511 94.9964 32.3366C99.0874 34.0144 103.486 36.9645 107.828 38.7225C111.578 40.2305 115.507 41.5589 118.817 42.9153C120.899 43.7721 123.142 44.7092 124.794 45.8894C129.56 49.2692 125.852 55.8204 122.913 61.5454C125.202 62.9306 127.694 63.1411 129.104 64.3577C129.739 63.5318 130.636 63.5301 131.577 63.6179C133.097 61.2843 134.822 58.6275 135.857 55.7838ZM121.411 58.8498C122.974 55.6644 125.44 51.2491 124.262 49.1626C123.335 47.5148 119.935 46.0688 117.665 45.1856C116.84 44.8644 115.763 44.4182 114.741 43.9987C112.776 43.2225 110.506 42.3392 108.38 41.5274C97.7313 37.5042 84.8698 29.4689 75.542 27.021C73.1513 28.5854 71.3466 31.8967 69.5869 35.2976C77.3739 38.3221 83.6917 41.8693 90.2411 44.5913C93.8746 46.1086 97.4015 48.1101 100.83 50.1297C106.924 53.7221 113.732 56.0581 119.584 59.5972C120.121 59.1032 120.793 59.0571 121.411 58.8498ZM142.597 74.4537C141.202 71.722 133.084 68.8685 129.863 67.5567C128.23 66.8784 126.884 65.9396 125.574 65.4221C123.717 64.6994 121.241 63.7807 118.926 62.4045C113.451 59.0977 105.467 56.0198 99.5522 52.4718C98.897 52.0786 98.4209 51.5506 97.8017 51.1752C94.7323 49.3342 90.9463 47.8083 87.3847 46.4165C83.0605 44.7123 78.8331 42.0487 74.5448 40.3176C68.8478 37.9974 63.2396 35.184 57.3721 32.7565C53.6399 31.2126 50.0072 30.1436 46.6699 28.841C43.6646 27.6812 42.2023 27.1102 40.1428 28.4139C38.911 31.249 36.7294 34.3729 36.501 36.8565C37.2467 37.7427 38.3239 38.5027 39.3742 39.2717C39.5704 38.7424 39.8478 38.455 40.0981 38.087C40.8772 37.6014 41.7461 37.2501 42.5789 36.7914C43.4118 36.3326 44.0733 35.3184 45.1133 35.3882C45.9765 36.7581 44.1577 37.3084 43.3786 37.7491C42.304 38.3787 41.1574 38.8828 40.5048 39.8343C41.0252 40.0933 41.5636 40.3613 42.0841 40.6203C43.3106 39.7753 45.4964 38.8927 46.6963 38.1463C47.0544 37.9215 47.6085 36.9882 48.2098 37.3546C48.3624 37.4529 48.6052 37.82 48.5073 38.1967C48.0978 39.7394 44.1004 40.2579 43.7889 41.4687C44.8119 41.9778 45.8168 42.478 46.8398 42.987C48.4428 42.1055 50.2792 41.3401 51.8371 40.2793C52.2758 39.9826 52.5344 39.2381 53.2429 39.434C54.2139 40.9024 52.2606 41.4529 51.4457 41.9206C50.38 42.5322 49.2609 43.3411 48.4101 43.7909C49.1639 44.166 49.9176 44.5411 50.6534 44.9073C51.6742 44.2958 52.6678 43.514 53.7425 42.9293C54.7187 42.4075 55.9005 41.5627 57.1022 41.8025C57.0755 41.9011 57.1294 41.9727 57.2639 42.0173C56.201 44.1081 53.601 43.9336 52.0891 45.6218C52.5828 45.9794 52.8962 45.7996 53.3809 46.1304C54.4647 45.6174 56.0579 44.2607 57.3658 43.7473C57.9123 43.5491 59.5787 42.9901 59.617 44.3079C58.0588 45.1893 56.3833 45.6766 54.8971 46.7282C55.8662 47.2105 56.8532 47.7017 57.8223 48.184C58.6637 47.4832 59.2906 47.1234 60.4728 46.5475C60.9117 46.3405 62.8364 44.8577 63.2851 45.1258C64.4428 45.8139 62.3654 47.1087 61.8908 47.3875C60.8341 47.9811 59.9824 47.9827 59.3028 48.8984C59.9401 49.3275 60.4331 49.2818 61.0434 49.6303C61.9029 49.0728 62.9871 48.7391 63.9092 48.1009C64.7598 47.5166 65.5643 46.26 66.7751 46.5715C67.3508 47.6193 65.9982 48.1777 65.3177 48.6451C64.4493 49.2653 63.5359 49.7959 62.8464 50.2365C63.6003 50.7012 64.4078 51.0583 65.0897 51.3529C65.9843 50.3651 67.7678 50.1107 68.8513 49.4184C69.2363 49.1846 69.7815 48.2692 70.3648 48.6267C71.5495 49.3506 69.454 50.5469 69.0062 50.7718C67.9762 51.3116 67.2056 51.5103 66.4177 52.0138C69.2552 54.5007 71.4356 50.7493 74.1874 50.5291C74.6939 52.9307 71.0267 52.6058 70.1325 53.8626C70.5456 54.2024 71.1284 54.291 71.8195 54.7021C72.8136 54.1893 73.8527 53.766 74.9187 53.2888C75.8771 52.8478 77.0229 51.985 78.2247 52.2696C78.184 54.4661 74.9558 53.9791 73.7213 55.3799C74.3135 55.6746 74.9237 55.9783 75.5159 56.273C76.4555 55.3748 78.0509 55.1835 79.287 54.6344C79.7796 54.4093 80.692 53.296 81.3653 53.8326C82.3978 54.6823 80.1763 55.5919 79.6926 55.799C78.5998 56.2851 77.8021 56.4032 76.9964 56.9874C78.0014 57.4875 79.0243 57.9966 80.0293 58.4968C81.5516 57.5975 83.0019 56.5279 84.8038 56.5066C85.3362 58.4061 82.3951 58.0172 81.483 59.2202C82.2726 59.6132 83.0622 60.0061 83.8518 60.3991C85.5985 59.6338 87.1379 58.2504 89.0288 57.9152C89.8125 59.9397 86.3969 59.9192 85.4311 61.185C86.2566 61.5959 87.0821 62.0067 87.9076 62.4176C89.1276 62.8008 91.587 59.6585 92.574 60.1049C94.2428 60.8459 90.3827 62.8433 89.9351 63.1579C90.4914 63.4347 91.0657 63.7205 91.622 63.9974C92.778 63.7442 93.9063 63.0518 95.0437 62.476C96.1453 61.9271 97.3445 60.8221 98.5289 61.4116C98.4951 62.5143 97.1782 63.0009 96.2379 63.4957C95.2706 63.9995 93.9443 64.2351 93.7035 64.899C94.5289 65.2201 95.3091 65.4069 96.1795 65.8625C97.2006 65.3855 98.1948 64.9174 99.2067 64.2791C100.12 63.7036 101.095 62.6439 102.306 62.8658C102.828 63.9316 101.323 64.6158 100.463 65.1732C99.5053 65.7935 98.1702 66.1367 97.9921 66.7646C101.366 68.7126 102.658 64.4519 105.627 65.2353C105.663 65.4324 105.825 65.6025 105.745 65.8536C104.411 66.9139 102.807 67.168 101.473 68.2283C102.2 68.6124 102.891 68.9338 103.555 69.1298C104.763 68.2311 106.188 67.9774 107.442 67.2579C107.889 66.8985 108.202 66.1807 108.848 66.4126C109.749 68.7417 106.441 68.8197 105.358 69.7361C106.004 70.0576 106.632 70.3702 107.278 70.6917C108.289 69.6499 110.144 69.1175 111.388 68.3711C111.702 68.1912 112.48 67.1678 113.081 67.5342C114.383 68.2938 111.794 69.5806 111.4 69.7875C110.361 70.3005 109 70.9216 108.875 71.4866C109.485 71.7903 110.078 72.085 110.67 72.3797C112.354 72.009 113.462 69.8733 115.336 70.0671C115.552 70.2639 115.507 70.5777 115.508 70.8467C114.488 71.7719 113.296 72.2762 112.249 73.1657C112.967 73.5229 113.667 73.8712 114.385 74.2285C115.791 73.4728 116.917 71.8839 118.774 72.4721C118.712 72.6426 118.855 72.7589 118.82 72.9203C118.024 74.0693 116.751 73.8386 115.901 74.8263C118.583 75.8253 119.931 72.8465 122.244 72.7884C123.493 74.5969 119.397 74.8646 118.646 76.0583C119.472 76.4691 120.297 76.88 121.123 77.2908C121.14 76.8515 121.292 76.905 121.516 76.5012C122.43 76.1946 123.289 75.6372 124.158 75.1515C124.973 74.6838 125.859 73.8484 126.908 74.1244C127.377 75.4772 125.665 75.7673 124.886 76.208C123.928 76.7387 122.952 77.3949 122.128 77.7909C122.684 78.0678 123.258 78.3536 123.815 78.6305C124.863 78.01 125.561 77.4618 126.796 76.5988C127.495 76.0955 129.356 74.5591 130.003 74.9702C131.232 75.7389 128.653 77.0974 127.811 77.6638C126.808 78.3738 125.877 78.8059 125.286 79.3628C125.663 79.5504 126.04 79.7379 126.417 79.9255C128.863 79.3741 130.507 76.4306 133.161 76.5421C133.63 77.8949 131.918 78.1402 131.139 78.6257C130.145 79.2282 129.322 80.1173 128.444 80.6658C129.27 81.0766 130.095 81.4875 130.921 81.8983C131.387 81.5926 131.834 81.2332 132.327 81.053C133.131 79.6171 134.278 79.4267 135.308 78.7524C135.872 78.3838 136.256 77.5225 137.063 77.7899C137.225 78.0048 137.449 78.2285 137.396 78.5154C135.857 80.2575 133.913 80.8349 132.393 82.6307C132.994 82.8626 133.73 83.4529 134.241 83.4161C135.027 82.2403 136.632 82.0311 137.607 81.1507C138.18 80.6297 138.5 79.356 139.586 79.7395C140.03 82.446 136.606 82.7573 135.587 84.086C136.467 84.7925 138.153 85.5872 139.14 85.7198C141.366 82.327 144.028 77.248 142.597 74.4537ZM116.049 77.5423C112.667 76.1501 109.437 74.677 106.189 73.0604C103.066 71.5064 99.7651 70.4457 96.6696 69.0172C93.6279 67.6154 90.6312 66.3032 87.545 65.036C84.3422 63.7331 81.2459 61.9011 78.0874 60.3292C71.6447 57.1229 64.9698 54.3384 58.321 51.1862C51.762 48.0788 44.9882 45.1779 38.3388 41.6671C35.4093 47.5535 32.9911 53.5375 30.0973 59.352C27.15 65.2743 23.7453 71.0808 21.184 77.2622C20.8538 78.0607 20.8012 78.7063 20.4622 79.5675C19.8286 81.1107 18.6842 82.7802 17.9972 84.5207C16.8997 87.3108 15.7793 92.2166 17.6651 93.9163C18.9313 95.0614 21.2904 95.8101 23.1841 96.954C28.2907 100.01 33.8103 103.407 39.06 106.266C46.625 110.366 54.737 114.627 61.9334 118.209C67.6044 121.031 73.7516 124.426 79.5027 126.952C83.3607 128.648 86.9846 129.825 90.6987 131.27C94.6551 132.814 97.9483 134.475 101.949 135.75C103.734 136.302 106.327 137.526 107.411 137.192C108.137 136.993 108.87 135.97 109.541 135.162C110.346 134.174 111.125 133.689 111.679 132.845C113.047 130.772 114.234 128.161 115.207 125.756C117.384 120.391 120.082 114.927 122.268 109.589C122.982 107.839 123.498 106.036 124.177 104.359C126.782 97.908 130.528 92.4953 133.367 85.892C127.311 83.3035 121.997 79.9875 116.049 77.5423Z" fill="#E6EAEE"/>
<path fill-rule="evenodd" clip-rule="evenodd" d="M130.735 49.4283C129.852 47.377 126.838 46.0559 123.752 44.8335C120.055 43.3522 116.25 41.1002 112.607 39.2872C111.512 38.7424 109.961 38.3957 109.564 37.2131C110.521 36.0548 112.075 37.4773 112.99 37.9328C116.831 39.8441 121.829 42.4435 125.48 43.88C126.252 44.1744 127.104 44.621 127.741 45.0053C129.689 46.176 131.601 47.4186 132.016 49.1031C132.423 50.7609 131.085 54.7975 130.282 56.8161C129.738 58.2245 128.417 61.3288 127.592 60.8283C126.604 60.2026 128.59 57.6978 128.938 56.7289C129.152 56.1189 129.221 54.9444 129.614 53.9755C130.363 52.0198 130.774 51.1046 130.735 49.4283Z" fill="#E6EAEE"/>
<path fill-rule="evenodd" clip-rule="evenodd" d="M66.7896 30.2557C65.7389 29.3074 67.1513 27.1443 67.9648 25.9146C69.8063 23.1142 71.7602 22.8774 74.5476 22.5854C76.9318 22.3389 79.8186 22.4321 82.7612 23.583C87.839 25.5727 93.0982 28.7274 98.6436 31.4872C99.828 32.0766 101.721 32.7723 101.4 33.5529C101.007 34.5666 98.8887 33.1542 97.9017 32.6629C97.2197 32.3235 95.0664 31.3863 94.1868 30.8142C92.4096 29.661 89.0259 27.462 86.0295 26.3291C85.4823 26.124 84.8996 26.125 84.3882 25.9377C82.9081 25.4026 81.6514 24.5533 80.3329 24.1882C78.4314 23.6897 76.531 23.7291 74.7115 23.9208C72.3901 24.1761 70.7674 24.1075 69.2121 26.5129C68.488 27.608 68.2764 29.5627 66.7896 30.2557Z" fill="#E6EAEE"/>
<path fill-rule="evenodd" clip-rule="evenodd" d="M104.595 35.5908C106.33 33.3643 105.97 37.7756 104.595 35.5908V35.5908Z" fill="#E6EAEE"/>
<path fill-rule="evenodd" clip-rule="evenodd" d="M85.4157 33.7709C84.0457 34.6341 82.4828 33.0055 81.0205 32.4344C77.8536 31.1943 75.4241 31.1719 73.8876 34.0794C71.2946 32.9009 75.5838 30.2662 76.9731 30.1291C78.0576 30.0195 80.0847 30.5805 81.4214 31.089C83.0361 31.6687 85.1176 32.5702 85.4157 33.7709Z" fill="#E6EAEE"/>
<path fill-rule="evenodd" clip-rule="evenodd" d="M139.42 63.0206C139 63.7296 138.454 64.0623 138.142 65.049C138.071 65.6408 138.79 66.3566 137.912 66.9051C135.124 66.7489 137.981 60.6476 139.42 63.0206Z" fill="#E6EAEE"/>
<path fill-rule="evenodd" clip-rule="evenodd" d="M135.79 72.8796C134.788 74.2173 133.244 72.732 132.023 72.2592C131.458 72.0451 130.768 71.9926 130.274 71.8142C127.601 70.7972 124.801 69.0453 122.163 68.0462C121.562 67.8142 120.962 67.8064 120.414 67.6012C119.051 67.1018 117.857 66.2165 116.466 65.6364C115.426 65.208 114.242 64.9771 113.21 64.5756C110.088 63.3354 106.983 61.4765 103.752 59.8689C100.63 58.3149 97.3995 56.7072 94.2948 55.1621C86.1114 51.0895 78.3761 46.9712 71.2082 44.2324C70.0419 43.7864 68.3296 43.7627 67.8879 42.4457C69.0337 41.5381 70.3803 42.5666 71.4209 42.9501C80.9031 46.3928 93.2514 53.2546 103.75 58.4794C106.962 60.0781 110.077 62.0086 113.207 63.1861C114.436 63.641 115.773 63.8806 116.984 64.3714C118.383 64.9336 119.568 65.8368 120.932 66.3363C121.389 66.4968 121.891 66.4779 122.448 66.6651C124.95 67.53 127.993 69.38 130.675 70.4687C131.815 70.9238 133.753 71.978 134.668 72.0301C135.053 72.0652 135.824 72.0459 135.79 72.8796Z" fill="#E6EAEE"/>
<path fill-rule="evenodd" clip-rule="evenodd" d="M59.2035 38.9745C58.1916 39.5681 57.4901 38.3681 56.6734 37.8497C54.3309 36.3928 49.4227 33.9725 46.5338 32.8036C45.8789 32.5448 44.8292 32.0896 44.3987 32.0097C43.4393 31.868 41.621 32.732 40.9771 33.5311C40.4583 34.1686 40.5236 35.5221 39.412 35.5511C38.3805 35.2393 39.2467 33.4537 39.8549 32.6816C40.8119 31.4785 43.2223 30.9092 44.2974 30.5486C47.6528 31.9498 53.3586 34.2072 57.0832 36.4863C58.0078 37.1031 59.4434 37.8176 59.2035 38.9745Z" fill="#E6EAEE"/>
<path fill-rule="evenodd" clip-rule="evenodd" d="M62.36 39.4259C64.7379 40.6317 60.274 40.918 62.36 39.4259V39.4259Z" fill="#E6EAEE"/>
<path fill-rule="evenodd" clip-rule="evenodd" d="M49.0567 87.6182C48.7737 84.9024 47.5936 81.8297 47.5158 78.5667C47.4384 75.5278 47.2969 71.7629 48.2865 68.8296C49.2493 65.9501 51.7356 62.754 53.2208 61.1645C55.8243 58.3626 59.9654 58.0949 63.7317 58.6706C66.6012 59.1135 70.3181 62.038 71.9075 63.4335C72.6348 64.0866 73.4875 64.6677 74.2148 65.2759C76.4326 67.1633 77.9088 70.361 78.5675 72.6368C78.739 73.2371 78.8153 75.6933 79.1832 75.8988C79.5601 76.0864 81.0728 74.8464 81.6104 74.711C83.4293 74.2055 85.4107 74.3184 87.6248 74.1887C90.9234 73.9943 94.1972 74.8398 98.4783 77.4854C101.7 79.4696 104.998 83.5065 105.532 86.4818C105.976 89.009 105.501 93.6536 104.484 96.5063C103.066 100.436 98.5352 103.151 96.0091 104.223C94.0922 105.06 91.789 105.459 89.6023 105.804C85.2556 106.484 81.045 107.971 76.5092 108.132C74.2233 108.226 71.8832 108.024 69.5795 108.199C68.6742 108.263 67.4382 108.857 66.255 108.94C65.8158 108.968 65.2506 108.709 64.6858 108.719C63.9418 108.729 63.7182 109.043 63.2158 108.838C62.5698 108.561 61.6706 107.084 61.1222 106.251C57.0314 99.9388 51.4271 94.418 49.0567 87.6182ZM75.9218 105.623C80.3591 105.525 84.4445 104.155 88.6298 103.528C90.7897 103.193 93.0838 102.722 94.8754 102.002C97.3478 100.993 100.867 99.0053 102.179 95.5155C103.035 93.21 103.457 89.1213 103.059 86.9525C102.588 84.524 99.4891 81.1232 97.0299 79.5859C92.6142 76.8509 89.3327 76.6508 85.9531 76.7378C83.5866 76.814 81.803 77.0235 80.5051 78.1016C79.6011 78.8384 78.8334 80.6059 77.478 79.6851C76.8137 79.2202 77.0444 77.9019 76.8539 76.71C76.3372 73.654 75.6684 70.7686 73.6286 68.2085C73.0805 67.5103 72.3538 67.2158 71.483 66.5809C70.1993 65.651 69.1118 64.1469 68.0976 63.4855C66.7513 62.6363 64.3823 61.4126 63.1985 61.1817C58.1137 60.2409 54.9524 61.9591 51.8333 67.0569C50.0011 70.0635 50.3185 72.0352 50.1531 74.6621C49.8402 79.925 50.3964 84.9263 52.5383 89.3509C55.463 95.3518 60.753 100.604 64.152 106.102C64.6707 105.465 65.7111 105.669 66.4116 106.376C69.3592 105.402 72.6139 105.701 75.9218 105.623Z" fill="#E6EAEE"/>
<path fill-rule="evenodd" clip-rule="evenodd" d="M63.9294 63.6726C63.5631 64.3635 62.8722 64.042 62.1184 63.6221C59.0077 63.6638 55.9815 65.7403 53.8003 69.0434C53.2282 69.923 53.0327 70.8557 52.3508 70.5611C51.7228 70.2934 51.9901 69.4412 52.5084 68.5348C53.8667 66.2104 56.2379 63.8303 58.3431 63.0196C59.5166 62.5512 63.3066 61.4146 63.9294 63.6726Z" fill="#E6EAEE"/>
<path fill-rule="evenodd" clip-rule="evenodd" d="M90.7281 79.8308C90.0756 80.8719 88.9474 81.6091 88.034 82.1397C87.1922 82.6165 86.0372 83.4075 84.9428 82.9972C85.5215 80.8894 88.3635 80.9827 89.7231 79.3306C89.8304 79.2049 90.0098 79.2494 90.1081 79.0968C90.6463 79.2303 90.5125 79.5891 90.7281 79.8308Z" fill="#E6EAEE"/>
<path fill-rule="evenodd" clip-rule="evenodd" d="M94.2813 81.4647C93.1004 82.8027 91.1831 83.4159 89.6786 84.2345C88.3352 84.9542 86.5714 86.1587 84.7869 85.8752C84.5338 84.764 85.8333 84.5375 86.5857 84.2402C88.8342 83.3216 91.4126 81.5149 93.7333 80.9009C94.1011 81.0168 94.0658 81.2679 94.2813 81.4647Z" fill="#E6EAEE"/>
<path fill-rule="evenodd" clip-rule="evenodd" d="M96.9835 83.6381C93.9507 87.0324 90.0002 88.5818 86.0317 90.1221C85.1986 90.4464 82.9946 91.1857 82.9389 90.1279C82.9014 89.2584 85.142 88.9404 85.7512 88.7062C86.7187 88.3369 87.9911 88.0297 88.7883 87.6875C91.4666 86.535 93.7401 84.6661 96.041 83.0123C96.4797 82.7157 96.9111 83.2886 96.9835 83.6381Z" fill="#E6EAEE"/>
<path fill-rule="evenodd" clip-rule="evenodd" d="M99.902 86.2324C99.2784 88.3403 97.1283 89.0615 95.1218 89.899C91.9776 91.2227 88.8061 92.3312 85.6173 93.7446C85.0172 94.0057 84.1666 94.59 83.6451 93.7483C84.0546 92.2056 85.9014 92.2291 87.0211 91.7787C89.4845 90.7432 91.7328 89.7349 94.3216 88.6723C96.0146 87.9698 97.5647 87.5098 98.8707 86.0102C99.0311 85.4631 99.803 85.9816 99.902 86.2324Z" fill="#E6EAEE"/>
<path fill-rule="evenodd" clip-rule="evenodd" d="M131.443 102.489C132.163 104.012 130.553 105.584 129.884 107.333C128.733 110.321 126.707 115.067 125.395 118.601C125.083 119.454 125.149 120.942 123.83 120.621C123.408 119.851 123.809 118.864 124.104 118.093C125.353 114.908 127.12 110.727 128.36 107.56C128.851 106.304 129.673 105.191 130.102 104.061C130.36 103.406 130.207 102.68 130.834 102.32C131.103 102.364 131.353 102.176 131.443 102.489Z" fill="#E6EAEE"/>
<path fill-rule="evenodd" clip-rule="evenodd" d="M19.6478 65.9517C18.8398 65.2809 19.8417 64.1673 20.2704 63.3059C21.5297 60.7755 23.6919 56.8808 24.6378 54.5303C24.843 54.0279 25.1521 51.5172 26.2553 51.8199C27.1792 52.0782 26.1347 54.4468 25.8225 55.2542C25.1978 56.7794 23.9469 59.0229 22.8484 61.2303C21.857 63.2223 21.0196 66.0298 19.6478 65.9517Z" fill="#E6EAEE"/>
<path fill-rule="evenodd" clip-rule="evenodd" d="M100.644 89.8258C99.9205 91.2346 98.1639 91.48 96.8829 92.0292C95.5751 92.5875 94.2943 93.1815 93.0042 93.6142C89.6176 94.7501 86.5448 95.8406 83.0411 96.6719C82.4497 96.8254 81.6438 97.3199 81.0153 96.7832C80.8056 94.91 83.3882 95.2996 84.3918 95.0826C89.41 93.9974 94.9989 91.2707 99.8003 89.2716C99.9257 89.1996 100.087 89.1904 100.257 89.208C100.455 89.3959 100.5 89.6199 100.644 89.8258Z" fill="#E6EAEE"/>
<path fill-rule="evenodd" clip-rule="evenodd" d="M100.426 93.0985C100.5 94.5237 98.7529 94.8855 97.8391 95.192C92.5443 96.968 87.0515 98.3768 81.2974 99.0509C80.1591 99.1786 79.0031 99.4317 77.9277 99.613C76.8882 99.8122 75.6164 100.478 74.6111 99.7985C74.6983 98.4984 76.0885 98.8544 76.751 98.3332C75.6203 97.7706 74.5077 97.2168 73.3771 96.6541C72.0799 98.0909 72.0304 100.395 70.5254 100.989C68.8592 101.638 66.5066 99.5716 65.742 98.1834C66.1336 96.6766 67.5466 94.8273 67.535 93.4557C65.4798 92.2314 62.3675 91.3766 61.3336 89.8097C61.3665 88.2139 62.6144 84.3567 64.479 84.3443C66.5073 85.5328 68.614 85.5289 70.4456 87.0226C70.8741 86.0715 72.1213 81.8558 73.1423 81.3339C74.7992 80.4792 77.1352 83.2987 78.6697 84.0847C79.5149 85.4458 77.2334 87.8705 76.8782 89.6641C78.1354 90.8272 81.292 91.3681 81.7877 92.8015C81.0826 94.4434 79.7058 96.4451 78.6508 97.9801C78.5882 98.0609 78.4895 98.0341 78.4359 98.1418C85.2568 97.4388 91.574 95.8582 97.9527 93.6589C98.6694 93.3886 99.5465 92.616 100.426 93.0985ZM74.3043 84.308C73.1515 86.2645 73.0021 87.8694 71.8493 89.8259C69.9057 90.7619 67.282 87.5753 64.6906 87.2485C64.4316 87.7689 64.0919 88.3164 64.0659 88.7736C66.0765 90.0877 68.4528 90.4419 70.2674 92.4197C70.1165 93.2178 70.0741 94.5178 69.6548 95.6302C69.2891 96.6349 68.1437 97.7218 69.4357 98.32C70.9121 96.8381 70.9773 93.3327 73.0218 93.6337C74.2235 93.8287 75.3284 95.0727 76.9699 95.5986C77.5429 95.1672 78.0346 94.4491 78.4363 93.507C77.4217 92.6663 75.6723 91.9524 74.6053 91.8916C73.1681 90.3703 74.8487 87.8033 75.9917 85.4165C75.8115 84.9238 74.9594 84.6564 74.3043 84.308Z" fill="#E6EAEE"/>
<path fill-rule="evenodd" clip-rule="evenodd" d="M100.262 96.8012C99.3321 97.8608 97.764 98.2671 96.3842 98.6551C93.6424 99.4402 90.7919 99.589 87.8434 100.025C86.3915 100.243 85.0119 100.765 83.6136 100.875C79.2125 101.215 75.2701 102.343 70.7437 102.755C69.5695 102.865 67.3029 103.64 66.69 101.857C67.0204 101.148 67.7024 101.533 68.3213 101.684C72.2563 101.426 76.172 100.441 80.0705 99.8062C81.4148 99.5796 82.6611 99.6848 84.0145 99.5299C85.3051 99.3661 86.5953 98.9782 87.8949 98.7965C91.7307 98.2425 95.6922 97.751 99.311 96.1933C99.4544 96.1303 99.5888 96.1301 99.7681 96.1298C100.243 96.2544 100.029 96.5955 100.262 96.8012Z" fill="#E6EAEE"/>
<path fill-rule="evenodd" clip-rule="evenodd" d="M51.7918 73.664C53.5268 71.4375 53.1496 75.8399 51.7918 73.664V73.664Z" fill="#E6EAEE"/>
<path fill-rule="evenodd" clip-rule="evenodd" d="M55.1431 87.2663C54.8744 87.4013 54.6056 87.4914 54.292 87.5368C52.288 84.9497 51.4308 81.993 51.5233 78.7028C53.2057 77.1218 52.7363 80.1796 52.9265 81.2371C53.1256 82.2318 53.5414 84.0509 54.117 85.0539C54.6027 85.9226 55.509 86.396 55.1431 87.2663Z" fill="#E6EAEE"/>
<path fill-rule="evenodd" clip-rule="evenodd" d="M13.4885 80.0378C14.0378 81.3188 12.928 82.289 12.4814 83.1863C11.6955 84.7656 10.4982 86.9014 10.1793 88.937C10.0287 89.9144 10.3122 92.944 10.5297 94.1718C10.756 95.3816 11.4043 96.8685 12.2308 97.8172C12.4554 98.0858 13.8283 98.7466 13.3635 99.5005C13.0239 100.048 12.0279 99.5747 11.3992 98.9483C9.35141 96.8992 9.04883 93.278 8.84589 90.2214C8.64279 87.0752 10.8238 83.6825 12.8786 79.8686C13.0401 79.949 13.5327 79.6792 13.4885 80.0378Z" fill="#E6EAEE"/>
<path fill-rule="evenodd" clip-rule="evenodd" d="M116.938 135.596C117.307 136.564 116.477 138.233 115.707 139.193C114.42 140.836 109.692 143.813 107.792 144.39C107.058 144.606 105.776 144.752 105.595 143.722C105.934 142.771 106.939 143.271 107.61 143.045C109.151 142.514 113.611 139.852 114.854 138.074C115.408 137.276 115.549 136.182 116.31 135.418C116.489 135.507 116.982 135.238 116.938 135.596Z" fill="#E6EAEE"/>
<path fill-rule="evenodd" clip-rule="evenodd" d="M6.90512 87.8673C7.14986 89.3101 7.1795 90.7803 7.7557 92.0971C8.05278 92.7599 9.10298 93.4841 8.44132 94.4087C6.66574 94.1072 6.2403 91.9027 5.90541 90.191C5.62478 88.7303 5.06702 87.6914 6.29261 86.3086C7.34016 85.5984 7.36103 87.1761 6.90512 87.8673Z" fill="#E6EAEE"/>
<path fill-rule="evenodd" clip-rule="evenodd" d="M51.743 109.891C55.5406 112.878 62.6576 117.158 68.3545 119.434C69.458 119.871 71.0267 119.823 71.4059 121.221C71.0043 122.208 70.0343 121.233 69.2719 121.01C68.8593 120.894 68.3573 120.913 67.9715 120.788C65.0023 119.736 59.501 116.573 56.5481 114.678C54.8517 113.587 49.2798 111.061 51.743 109.891Z" fill="#E6EAEE"/>
<path fill-rule="evenodd" clip-rule="evenodd" d="M76.06 121.992C76.7598 122.296 76.8511 123.192 76.2333 123.624C75.4446 123.679 75.0217 122.864 75.388 122.218C75.612 122.128 75.8359 122.038 76.06 121.992Z" fill="#E6EAEE"/>
<path fill-rule="evenodd" clip-rule="evenodd" d="M70.109 127.741C73.0968 129.116 76.9375 131.162 79.5671 132.717C80.2222 133.11 84.1602 134.42 83.5169 135.533C82.8824 136.628 78.9505 133.776 78.053 133.239C75.1901 131.523 70.7682 130.286 69.2674 128.307C69.4367 127.787 69.7953 127.786 70.109 127.741Z" fill="#E6EAEE"/>
<path fill-rule="evenodd" clip-rule="evenodd" d="M62.7447 125.352C61.9389 125.892 60.9781 125.078 61.3803 124.404C61.7914 123.713 63.173 124.267 62.7447 125.352Z" fill="#E6EAEE"/>
<path fill-rule="evenodd" clip-rule="evenodd" d="M58.7963 123.387C57.6959 124.564 55.1548 122.381 53.3426 121.658C49.135 119.99 43.858 116.916 39.1036 115.266C38.4488 115.052 35.8752 114.645 36.3481 113.469C36.7139 112.554 38.4463 113.707 38.7154 113.797C39.6933 114.171 42.7251 115.143 43.389 115.428C46.7892 116.785 51.2763 119.331 53.9857 120.411C54.811 120.732 55.888 121.358 56.8033 121.813C57.6647 122.242 58.8306 122.553 58.7963 123.387Z" fill="#E6EAEE"/>
</svg>
