<svg width="135" height="72" viewBox="0 0 135 72" fill="none" xmlns="http://www.w3.org/2000/svg">
<path fill-rule="evenodd" clip-rule="evenodd" d="M29.1928 26.1442C27.8672 25.5568 26.4678 24.5839 24.9847 24.0506C23.5016 23.5173 21.7647 23.2832 20.2252 22.7828C17.0012 21.728 14.0953 20.3111 10.8783 19.2899C9.64361 18.9015 6.60225 18.4836 6.28089 17.285C6.16017 16.7757 6.63248 16.0087 7.45197 16.1606C9.37069 16.7926 11.3207 17.3055 13.2426 17.986C15.1644 18.6666 16.9696 19.7302 18.8664 20.3246C21.849 21.2682 24.7604 21.9385 27.5315 23.0812C28.4937 23.4775 29.3148 24.1072 30.3106 24.4965C31.9715 25.1402 33.8205 25.3719 35.5081 25.9749C35.9686 25.2525 36.5967 23.6511 37.9959 23.4143C38.4785 23.3343 38.6564 23.7472 39.2025 23.668C40.8851 22.5349 42.5968 21.4731 44.0217 20.3519C45.2469 19.3849 46.3569 18.6742 47.123 17.6979C47.4606 17.2615 47.4919 16.84 47.8898 16.6582C48.6521 16.3017 49.9417 17.0865 50.7361 17.1522C51.8846 17.2633 52.8788 17.1747 54.018 17.4424C55.0827 17.6907 56.1764 17.7077 57.2184 17.9818C58.7775 18.4078 60.2661 19.1017 61.8025 19.5536C65.701 20.7063 69.6316 21.9788 73.3986 23.2083C76.5481 24.2436 79.707 25.1222 82.9176 25.7438C87.8228 26.6998 92.58 28.1579 97.2424 29.4319C100.614 30.3505 103.657 32.1535 106.979 32.8363C107.457 33.4394 108.004 33.5357 108.411 34.1679C108.807 34.7813 108.895 35.7754 109.026 36.6693C109.438 39.34 109.079 42.1581 109.116 44.3164C111.205 45.0886 113.374 45.6751 115.645 45.8746C115.863 43.5924 116.297 41.3988 117.601 39.4659C120.235 37.5007 122.78 38.4726 123.706 41.2466C124.156 42.6222 123.942 45.1285 123.782 46.9484C123.637 48.7088 123.149 50.5061 122.727 52.3527C121.74 56.7087 121.205 59.5918 117.98 62.2293C116.646 63.3106 114.822 63.4675 114.013 62.7296C111.425 60.346 113.737 57.787 112.465 55.6061C112.321 54.8838 112.73 54.3549 112.675 53.6561C111.555 53.3773 110.331 53.0077 109.122 52.642C108.033 52.3076 107.953 52.1274 107.48 53.2603C106.349 55.9869 104.641 58.5458 101.854 60.5502C100.707 60.917 100.047 60.2182 99.0867 59.9974C97.899 59.7328 96.7497 59.6851 95.6223 59.3727C93.3377 58.74 91.1683 57.8511 88.9558 57.1259C85.9512 56.1446 82.956 55.3091 79.9913 54.4179C78.7229 54.0366 77.5923 53.3732 76.3497 53.0145C75.7582 52.843 75.0962 52.9395 74.4898 52.7641C72.3619 52.1407 70.3147 51.3317 68.1712 50.7679C67.0845 50.4821 66.0065 50.1031 65.0075 49.6652C64.0235 49.2313 62.9133 48.7325 61.894 48.4325C61.4513 48.3002 60.9351 48.3872 60.5073 48.2588C60.1242 48.1421 59.8107 47.8209 59.4613 47.6972C59.1119 47.5735 58.652 47.6276 58.2948 47.5336C57.5356 47.3339 56.8015 46.918 56.0423 46.7184C53.7569 46.1491 51.4418 45.572 49.299 44.9448C48.5586 44.7341 47.9632 44.2751 47.2118 44.0457C45.7428 43.5797 44.1509 43.3997 42.6662 42.9933C42.4092 42.3368 41.5137 42.2923 41.0686 41.7455C40.2224 40.7271 39.6212 38.8979 38.8737 37.4439C38.09 35.885 37.3354 34.3974 36.6536 33.0562C35.8623 32.7367 35.0005 32.6851 34.3173 32.0757C33.1709 30.2622 33.9283 29.0767 34.2916 27.7558C32.9589 27.1347 30.8044 26.8545 29.1928 26.1442ZM44.8264 39.4394C43.7712 39.3369 43.7149 40.277 43.1955 40.9203C44.0417 41.3338 45.0116 41.3979 45.8813 41.7221C46.7868 40.9417 46.666 39.8277 47.2966 38.9431C47.1767 38.6729 46.8946 38.8374 46.8288 38.4222C48.2158 35.206 49.4689 31.9546 50.6624 28.6875C50.5566 28.4846 50.6851 28.3592 50.49 28.1329C50.5824 27.9025 50.8237 27.7113 50.9161 27.481C50.8447 26.6028 51.2715 25.585 51.2815 24.1553C51.2939 23.1399 50.6708 20.6683 51.9611 20.7848C52.4619 22.2694 52.1558 24.0988 52.1592 25.6594C52.4851 25.57 52.3573 24.7247 52.5781 24.369C53.8262 24.5858 53.314 25.8676 53.0696 26.615C52.1255 25.9688 50.6191 27.0368 51.778 28.1374C51.0169 31.4546 49.4191 34.5039 48.2898 37.7083C48.7309 37.6652 49.1907 37.611 49.4963 37.962C50.8442 35.1971 51.3147 32.1377 52.343 29.2569C52.791 28.945 53.3168 29.3061 53.1083 28.6464C53.6316 28.5931 54.039 28.8594 54.4888 29.0255C54.2209 29.2574 54.1997 29.1563 54.0579 29.4533C53.8341 31.5748 53.0071 33.5696 52.4511 35.6834C52.134 36.8891 52.142 38.0689 51.003 39.0108C50.5917 39.3642 50.529 38.6951 50.1757 38.8887C49.4308 39.966 48.7603 41.0629 48.0303 42.1441C48.4988 42.6016 49.041 42.8397 49.6795 42.8326C51.1678 41.4097 51.5147 39.6069 52.4193 37.9827C52.7194 37.8707 53.0076 37.8033 53.238 37.8957C54.5719 35.3658 54.7195 32.4443 55.7486 29.8025C55.9578 29.7938 56.1897 29.7593 56.3519 29.9293C56.4601 30.849 56.1939 31.8613 55.9731 32.8218C55.4767 34.9512 54.7373 36.794 54.0271 39.0104C53.4765 40.68 52.944 42.0996 51.7181 43.4324C52.0213 43.6713 52.4522 43.5459 52.7593 43.7699C53.8019 42.7709 53.8629 41.45 54.2027 40.2184C54.491 40.151 54.7096 40.2881 54.936 40.3954C55.2355 41.8588 54.5682 43.0043 53.7817 44.1184C56.256 45.7241 56.4034 40.3834 57.1702 39.0413C57.3527 38.4686 58.1338 39.0083 58.2881 38.9057C58.5968 38.7004 58.5873 37.6474 58.7125 37.1711C59.0305 35.9019 59.3273 35.1364 59.6413 33.8821C59.8409 33.1229 59.6974 32.0347 60.6689 32.2743C60.9073 33.849 60.3466 35.4363 59.9558 36.8615C59.5611 38.3015 59.3185 39.8292 58.5556 41.1564C58.2518 42.493 57.8031 43.7755 57.1459 45.0033C57.3974 45.1967 57.7265 45.156 57.9631 45.3455C58.4714 44.0786 59.0392 42.8274 59.2427 41.4486C59.3359 41.1548 59.5992 41.3036 59.8475 41.1461C60.7707 37.9989 61.9283 34.9292 62.383 31.627C62.7301 31.6387 63.0262 31.8439 63.3341 32.0045C62.8692 35.2245 61.8464 38.2659 60.79 41.3144C60.5894 41.5322 60.4805 41.5831 60.1852 41.6169C59.9331 42.9989 59.8299 44.42 58.8304 45.5577C62.3584 47.0904 60.1013 40.8468 63.0846 41.1221C64.2336 38.4481 64.6907 35.5603 65.4566 32.7696C65.7683 32.6129 65.9478 32.8988 66.1938 32.9317C65.9997 34.4563 65.8793 36.0639 65.3906 37.5588C64.8166 39.3177 64.3875 41.1306 63.3528 42.7047C63.3287 44.067 62.9254 45.2979 62.3324 46.4629C63.0298 46.8373 63.7427 47.1521 64.4948 47.3181C65.4849 46.0347 66.1068 44.6386 66.2492 43.0686C66.1152 42.7309 65.9146 42.6463 65.7226 42.4685C67.0737 39.7522 67.3428 36.6717 67.872 33.6914C68.2097 33.5574 68.8356 33.6584 68.7479 34.1128C68.9085 33.8049 69.4138 34.0015 69.8306 34.1111C69.9192 34.5004 69.703 34.7778 69.5832 35.1123C69.4924 35.5182 68.9612 34.9965 68.7998 35.0654C68.5405 35.2041 68.1616 37.7942 68.0865 38.1405C67.7983 39.4175 67.7264 40.4172 67.4484 41.1717C69.3367 42.7665 67.3738 46.3565 66.4982 48.052C67.3498 48.3237 68.0895 48.9002 69.0147 48.9526C70.373 47.7819 70.9204 46.3662 70.6351 44.6678C69.8972 45.4764 69.356 46.9892 68.7937 48.0987C68.4858 48.2405 68.2633 48.1183 68.0564 47.9366C68.0476 46.5178 69.0205 45.4208 69.6252 44.2111C69.4684 43.8994 69.0869 44.2606 68.9733 43.7851C69.5252 40.7789 70.8057 37.7257 70.9087 34.7925C71.3749 34.5332 71.6006 35.0063 72.0314 34.8809C71.6863 37.7663 70.8617 40.4779 70.0888 43.2349C70.3975 43.332 70.7705 43.6689 70.6052 44.0551C70.7987 44.106 71.0478 43.5827 71.5045 43.48C72.327 42.1684 72.4819 40.4902 72.8522 38.9006C73.1317 37.7168 73.7176 36.5181 73.3931 35.2709C73.7989 35.0593 74.0457 35.3311 74.3505 35.4431C74.6969 36.7279 74.1808 38.0246 73.8895 39.253C73.5145 40.921 73.2444 42.5529 72.3225 44.0612C73.2018 46.3455 72.2666 48.0253 71.1418 49.6394C71.5351 49.8383 72.0177 49.7583 72.4071 49.9722C73.0282 48.6395 73.3406 47.2096 73.7682 45.826C73.7008 45.5378 73.4979 45.6436 73.4156 45.3513C74.1782 42.5121 75.0749 39.708 75.8227 36.8648C75.4748 36.6142 75.4388 36.2068 75.5617 35.9208C76.0639 35.7664 76.4494 35.9951 76.8121 36.2497C76.5783 39.1962 75.3517 41.8021 74.6643 44.5975C74.7481 44.7628 74.8429 44.9469 74.9268 45.1122C74.5141 46.8021 74.2057 48.5194 73.4436 50.0856C74.9947 49.0293 75.1997 46.9187 75.664 45.2743C75.5191 45.2202 75.4133 45.0173 75.3114 44.7996C76.7612 42.2524 76.8313 39.2628 77.5932 36.487C77.9528 36.3906 78.1879 36.7071 78.5005 36.7893C78.0754 39.4946 77.4569 42.1489 76.6934 44.7492C77.0499 44.9066 77.5379 44.6849 77.9453 44.6488C78.9219 42.3273 79.705 39.955 79.8896 37.3775C80.4686 37.3547 80.8925 37.8004 81.444 37.8818C81.5341 38.1442 81.4605 38.3636 81.2271 38.525C81.3854 38.7099 81.6525 38.5414 81.745 38.9159C82.5256 41.3335 82.9121 43.6156 83.8565 46.0762C84.2027 45.849 84.4213 45.986 84.7253 45.8591C83.5953 43.3178 83.1124 40.9785 82.1758 38.4881C82.4476 38.2413 83.0314 38.7449 83.4372 38.8358C84.1952 41.884 85.7155 45.1805 86.4695 48.2436C86.7336 48.6314 86.6575 47.8315 86.8604 47.7257C85.5643 45.6341 85.3499 41.7898 84.2254 39.1067C84.697 39.0079 85.0605 39.1991 85.4319 39.3604C86.0715 41.7091 86.6852 44.035 87.2394 46.3453C87.4439 46.415 88.0102 45.2907 88.0078 44.8762C87.9888 43.3752 86.5634 41.17 86.4143 39.6188C86.8452 39.4934 87.1406 39.7621 87.5409 39.6923C87.8153 40.7671 88.1343 41.8537 88.5575 42.9677C89.2844 41.8379 88.2524 40.1341 88.4065 38.8218C86.9585 37.2473 86.5954 34.2711 85.9942 32.1394C85.8116 31.5025 85.3336 30.8993 85.9854 30.4182C86.1875 30.3759 86.3583 30.4526 86.5487 30.4549C87.3239 33.3167 88.0246 36.159 89.2386 39.168C89.5112 38.8577 89.334 38.3814 89.5322 38.0515C88.813 37.6395 88.4649 35.8769 88.0377 34.4753C87.6215 33.0926 87.5407 32.0687 86.8927 30.7205C86.8283 30.1783 87.4151 29.8234 87.8868 30.3294C88.7416 31.2545 88.7812 34.7346 89.5601 35.767C89.3547 34.2488 89.341 32.0011 88.8042 30.4116C88.6561 30.0065 88.4429 29.4253 88.1553 29.1268C87.4807 28.4242 84.9698 28.289 83.7789 27.9757C81.427 27.3571 79.665 27.3393 77.6875 26.6282C78.1664 28.0752 77.7639 29.2425 77.8486 30.554C77.4483 30.6238 77.1647 30.3105 76.8074 30.2165C77.1465 29.0483 76.4255 27.5536 77.2182 26.5366C76.8296 26.2593 76.3361 26.3205 75.913 26.1138C75.7306 27.2913 75.6892 28.5377 75.7113 29.785C75.3423 29.7357 75.0156 29.5861 74.7202 29.3174C74.6409 28.1665 74.8555 27.1089 74.7464 25.9502C71.2027 24.1746 67.2745 23.6189 63.6149 22.1629C64.2002 23.1445 64.0202 24.4341 64.1081 25.4917C63.7187 25.5803 63.4265 25.3602 63.1107 25.2294C62.972 24.3653 63.1231 23.6092 62.7947 22.6793C62.7484 22.4921 63.0563 22.0478 63.3046 22.1928C60.6134 20.9279 57.0831 20.1903 53.8208 19.5233C52.5062 19.2571 51.0388 18.9666 49.4476 19.0256C49.9029 19.6546 49.6851 20.0589 49.8019 20.583C50.1905 20.2555 50.373 20.59 50.6292 20.7051C50.9459 21.9821 50.2363 22.9254 50.5678 24.2063C49.5192 27.5274 48.8178 31.1626 47.8139 34.7979C47.5445 35.7616 47.388 37.5666 46.5811 37.9114C46.5287 37.9295 46.1997 38.2727 45.8439 37.7494C45.5947 37.3655 46.7939 35.1663 46.9113 34.7197C46.9583 34.5411 46.7695 34.4118 46.988 34.2465C46.7528 32.418 47.4545 30.8996 47.8178 29.2762C46.9485 31.3713 46.3246 34.7722 45.1333 37.2441C45.6332 37.8849 44.9697 38.7131 44.8264 39.4394ZM47.7798 19.8601C45.3969 22.0823 41.8466 23.9019 39.6086 26.1781C39.4293 27.1018 39.1404 28.1398 38.8953 29.2531C38.705 30.158 38.3151 31.5197 38.5212 32.3697C39.1052 34.6878 41.0397 36.4699 41.9261 39.0903C44.2626 35.1689 45.6228 30.4815 46.6485 25.9766C47.1058 23.996 47.8396 22.2951 47.8245 20.1743C47.837 20.0662 47.8456 19.9729 47.7798 19.8601ZM37.4965 26.7048C36.6983 27.2588 34.5952 30.7164 36.6196 30.9464C36.8239 29.5041 37.1175 28.0853 37.4965 26.7048ZM49.5297 23.3125C48.8239 24.5434 48.7427 26.607 48.1718 28.112C48.0724 28.6111 48.0873 28.615 48.3019 28.1621C48.6041 27.2549 48.6573 26.2662 49.1938 25.4365C49.229 24.6977 49.4389 24.0208 49.5297 23.3125ZM50.8249 37.3883C51.1978 37.1203 51.5032 35.9592 51.1257 36.9104C51.0451 37.0961 50.8884 37.0867 50.8249 37.3883ZM93.8302 56.6254C94.6958 55.4525 95.841 54.003 96.2278 52.5928C96.4345 51.8673 96.1751 50.7964 96.953 50.3802C97.3251 50.1757 98.0631 50.2744 98.3334 50.7593C98.6477 51.3194 98.0635 53.2984 97.8293 53.8257C97.2223 55.2258 96.4249 56.3211 95.8978 57.2966C96.5692 57.6482 97.3488 57.71 98.0703 57.9316C98.0115 57.5501 98.4228 57.1967 98.8858 57.1912C100.199 55.4675 100.574 53.4336 100.92 51.3919C102.344 49.7928 103.898 51.8091 102.617 52.8089C102.141 54.737 102.034 56.7779 100.179 58.2635C100.431 58.457 100.76 58.4162 100.997 58.6058C107.677 53.9012 106.955 46.3584 107.334 39.4711C107.408 38.0421 107.231 36.6586 106.44 35.3684C105.619 35.3434 105.132 36.409 104.507 36.2445C103.906 35.3225 104.781 34.9001 105.66 34.4628C100.622 33.0423 95.9413 30.5062 90.6906 29.7141C91.1374 31.6459 91.3907 33.5269 91.5852 35.3288C91.7837 37.1158 91.4901 38.8371 91.1746 40.5207C90.7589 42.7669 90.1215 45.1298 89.1417 47.4026C88.1463 49.7351 87.6656 52.1074 85.0702 53.6848C88.0083 54.6167 90.8531 55.8424 93.8302 56.6254ZM80.8902 38.5956C80.4526 40.8041 79.8402 42.9508 78.934 45.0043C78.6332 45.1799 78.3864 45.2104 78.2054 45.0514C77.4229 45.8483 77.8619 47.8099 77.544 49.0792C77.4539 49.4215 77.0952 50.3617 76.8657 50.5082C76.1849 50.9181 76.0289 49.938 75.4885 50.7826C77.9509 51.5258 80.3742 52.4178 82.8484 53.1163C83.9928 52.0326 85.6951 51.1275 86.0365 49.769C85.4316 49.1643 85.6759 48.4169 85.2857 47.6617C84.7045 48.7821 84.466 51.807 82.596 52.3815C81.8353 52.6111 80.8927 51.838 81.3791 50.8359C82.8503 49.9018 82.8822 48.5097 83.3419 47.2459C82.0873 44.2103 81.2674 41.3368 80.8902 38.5956ZM114.503 54.6939C115.66 56.8921 113.761 58.9073 115.45 61.2613C119.704 59.5474 120.036 55.3215 120.883 51.6768C121.273 50.0128 121.596 48.6018 121.768 46.8006C121.974 44.6266 122.648 41.6369 120.432 40.3218C118.411 40.7451 118.45 42.1083 118.081 43.571C117.886 44.3153 117.429 45.6276 117.663 46.3734C118.051 47.6214 119.036 48.5332 119.148 49.7404C119.331 51.5869 118.83 53.7947 117.451 54.4984C116.294 55.0854 115.518 54.1649 114.503 54.6939ZM108.562 50.2346C109.493 50.9889 110.74 51.0303 111.856 51.3874C113.414 51.8768 114.793 52.6851 116.525 52.6951C117.23 51.5277 117.731 49.6223 116.416 48.2099C115.907 47.6624 114.553 47.8474 113.514 47.6219C111.839 47.2767 110.561 47.052 109.184 46.3557C108.815 47.5795 108.861 48.9763 108.562 50.2346Z" fill="#E6EAEE"/>
<path fill-rule="evenodd" clip-rule="evenodd" d="M15.3634 31.1011C15.413 32.8489 14.0069 34.2616 11.8393 35.0602C9.25695 34.0468 9.31687 30.975 9.17634 28.7257C9.04682 26.7977 8.76848 25.1329 9.49145 24.018C9.54393 24 9.59642 23.982 9.6215 24.0682C11.3717 23.8282 15.3091 29.1292 15.3634 31.1011ZM10.8321 25.819C10.9222 25.779 10.6834 26.9894 10.7924 27.2409C10.8323 27.331 11.1967 27.4586 11.2703 27.5417C11.4396 27.7453 11.5132 28.1308 11.7515 28.4958C12.3525 29.4179 13.7228 30.017 12.7976 30.5695C12.2524 30.8876 11.8809 30.1214 11.4539 29.6272C11.422 31.0193 13.6156 31.4531 12.8112 32.5147C12.4571 32.7717 12.2612 32.6088 12.074 32.3526C12.0623 32.6997 12.545 33.5269 12.6437 33.6962C16.06 31.8413 12.9336 27.6927 10.8321 25.819Z" fill="#E6EAEE"/>
<path fill-rule="evenodd" clip-rule="evenodd" d="M22.2936 18.4884C25.7685 20.7075 30.3265 21.0469 34.7419 20.8395C35.534 20.7931 36.6669 20.9638 37.2434 20.2241C36.7732 19.2888 35.5315 19.7739 34.8703 19.8069C32.4385 19.9153 29.8963 19.8992 27.4339 19.4584C25.7612 19.1617 24.2788 18.2626 22.7158 17.8515C22.2591 17.9541 22.386 18.2581 22.2936 18.4884Z" fill="#E6EAEE"/>
<path fill-rule="evenodd" clip-rule="evenodd" d="M28.6403 18.2002C29.9197 18.9027 32.1048 19.4297 33.742 18.6508C33.6723 18.5528 33.688 18.4933 33.7373 18.4267C32.3967 17.533 30.5597 18.1639 29.1564 17.5083C28.6621 17.633 28.6958 17.9283 28.6403 18.2002Z" fill="#E6EAEE"/>
<path fill-rule="evenodd" clip-rule="evenodd" d="M10.5013 35.1858C10.4409 34.3264 9.50927 33.5721 9.05393 32.3382C8.58449 31.037 8.91883 29.6448 8.39693 28.664C8.27862 28.5692 8.05538 28.8129 7.96761 28.6625C7.89632 28.6915 7.89946 28.7401 7.93237 28.7965C7.4953 29.4296 7.56605 31.2785 8.07469 32.7332C8.53317 34.0157 9.38891 35.7845 10.5013 35.1858Z" fill="#E6EAEE"/>
<path fill-rule="evenodd" clip-rule="evenodd" d="M17.0831 30.0096C17.9902 29.4047 16.6628 27.1297 15.9444 27.5615C15.2676 27.9564 16.4156 29.9454 17.0831 30.0096Z" fill="#E6EAEE"/>
<path fill-rule="evenodd" clip-rule="evenodd" d="M52.7211 22.1307C53.0869 22.1314 53.4379 22.1282 53.839 21.995C53.6932 21.3996 53.9454 20.9248 53.4761 20.2284C52.25 20.0491 53.0085 21.5219 52.7211 22.1307Z" fill="#E6EAEE"/>
<path fill-rule="evenodd" clip-rule="evenodd" d="M30.9987 32.0463C31.1789 32.5712 31.6106 32.3823 31.8645 32.6878C32.9097 33.6152 33.525 35.8143 34.6555 36.4777C35.5063 35.9057 34.5989 34.6962 34.1154 33.9324C33.5113 32.9618 32.383 31.8056 31.8141 31.3058C31.3355 31.3709 30.9924 31.6467 30.9987 32.0463Z" fill="#E6EAEE"/>
<path fill-rule="evenodd" clip-rule="evenodd" d="M54.4423 20.6098C54.3954 21.0908 54.549 21.6564 54.4574 22.1257C55.7691 23.5529 56.1023 19.8049 54.4423 20.6098Z" fill="#E6EAEE"/>
<path fill-rule="evenodd" clip-rule="evenodd" d="M56.864 22.8383C57.1109 23.1101 57.4117 23.237 57.7251 23.2558C58.0384 22.6697 58.0618 21.9756 58.0108 21.2619C56.9875 20.6744 56.9721 22.246 56.864 22.8383Z" fill="#E6EAEE"/>
<path fill-rule="evenodd" clip-rule="evenodd" d="M59.3323 21.2594C59.167 21.3433 58.9829 21.4381 58.8176 21.5219C58.8123 22.2685 59.1304 23.1162 58.995 23.8127C59.2692 23.9803 59.5975 24.003 59.9023 24.115C60.0722 23.348 60.2428 21.9127 59.3323 21.2594Z" fill="#E6EAEE"/>
<path fill-rule="evenodd" clip-rule="evenodd" d="M60.7929 21.8185C60.92 22.7273 60.8723 23.5742 60.8097 24.4172C61.1552 24.5558 61.4937 24.6607 61.8862 24.6207C61.5797 23.7284 62.8141 21.0928 60.7929 21.8185Z" fill="#E6EAEE"/>
<path fill-rule="evenodd" clip-rule="evenodd" d="M54.211 25.4828C53.9932 25.887 54.0356 26.3916 53.9221 26.8233C54.2174 27.0919 54.552 27.2118 54.9633 27.1608C54.8747 26.7714 55.0799 26.4753 55.0916 26.1282C54.8346 25.7741 54.4805 25.7287 54.211 25.4828Z" fill="#E6EAEE"/>
<path fill-rule="evenodd" clip-rule="evenodd" d="M56.208 26.4218C55.9424 26.7658 56.1008 27.253 55.8203 27.5931C56.0507 27.9879 56.5019 27.7246 56.7362 28.1045C56.9501 27.7152 57.0448 27.2944 57.0839 26.8432C56.8379 26.5079 56.4626 26.6638 56.208 26.4218Z" fill="#E6EAEE"/>
<path fill-rule="evenodd" clip-rule="evenodd" d="M65.2651 23.9975C65.3318 24.6517 65.4322 25.2988 65.3688 25.9028C65.6642 26.1715 65.9752 26.3806 66.3599 26.3704C66.334 25.7429 66.8225 23.3408 65.2651 23.9975Z" fill="#E6EAEE"/>
<path fill-rule="evenodd" clip-rule="evenodd" d="M58.7098 27.3186C58.4772 27.719 58.4044 28.1773 58.2869 28.6239C58.5259 28.9255 58.9121 28.7883 59.1942 28.9262C59.4707 28.601 59.3602 28.174 59.6218 27.845C59.3531 27.5355 59.006 27.5238 58.7098 27.3186Z" fill="#E6EAEE"/>
<path fill-rule="evenodd" clip-rule="evenodd" d="M60.5329 28.1323C60.2861 28.4653 60.2329 28.8492 60.2392 29.2488C60.5346 29.215 60.7947 29.3153 61.0666 29.3709C61.3901 29.1695 61.2898 28.8248 61.4127 28.5388C61.1816 28.2075 60.7914 28.3595 60.5329 28.1323Z" fill="#E6EAEE"/>
<path fill-rule="evenodd" clip-rule="evenodd" d="M67.6149 26.9233C67.8609 27.2586 68.2307 27.2445 68.5308 27.4348C68.6529 26.6075 68.8604 25.8186 68.38 24.8009C67.0372 24.4 67.8208 26.2613 67.6149 26.9233Z" fill="#E6EAEE"/>
<path fill-rule="evenodd" clip-rule="evenodd" d="M55.8087 40.1634C56.7073 39.9541 56.8842 38.9184 57.087 38.2078C57.7636 35.9984 58.2388 33.4655 58.6068 31.159C57.6156 30.389 57.3957 32.4957 57.1882 33.2847C56.7419 34.9816 56.5642 36.3832 56.0858 37.9603C55.883 38.6709 55.1145 39.5352 55.8087 40.1634Z" fill="#E6EAEE"/>
<path fill-rule="evenodd" clip-rule="evenodd" d="M62.393 29.8948C62.7369 29.8579 62.9642 30.2042 63.3355 30.0631C63.301 29.8312 63.4969 29.6917 63.4624 29.4598C62.9726 28.9013 62.1352 28.9993 62.393 29.8948Z" fill="#E6EAEE"/>
<path fill-rule="evenodd" clip-rule="evenodd" d="M70.1605 27.8953C70.5083 27.8435 70.7473 28.1451 71.1531 27.9335C71.2251 27.2363 71.4034 24.864 70.063 25.7847C70.2034 26.5219 70.0945 27.1777 70.1605 27.8953Z" fill="#E6EAEE"/>
<path fill-rule="evenodd" clip-rule="evenodd" d="M72.7871 25.5939C72.0798 26.3469 72.6926 27.5267 72.2493 28.365C72.5447 28.6337 72.8941 28.7574 73.2905 28.7025C73.3734 27.7217 73.7799 26.8418 73.2752 25.6746C73.1076 25.6464 72.9242 25.6777 72.7871 25.5939Z" fill="#E6EAEE"/>
<path fill-rule="evenodd" clip-rule="evenodd" d="M64.3955 30.3897C64.6909 30.6584 65.0403 30.7821 65.4367 30.7272C65.6983 30.0957 64.4087 29.6133 64.3955 30.3897Z" fill="#E6EAEE"/>
<path fill-rule="evenodd" clip-rule="evenodd" d="M67.0327 30.8923C66.9308 30.9769 66.9739 31.1156 66.8572 31.1963C67.1111 31.5018 67.4887 31.4578 67.7731 31.7077C68.1969 31.2462 67.3014 31.2017 67.0327 30.8923Z" fill="#E6EAEE"/>
<path fill-rule="evenodd" clip-rule="evenodd" d="M79.1455 27.6802C79.2436 28.8201 79.2861 29.9295 79.2094 31.0075C79.4202 31.4767 79.8448 31.2542 80.1253 31.519C80.1628 30.2874 80.7963 28.5442 79.6751 27.4216C79.4949 27.5016 79.3257 27.6003 79.1455 27.6802Z" fill="#E6EAEE"/>
<path fill-rule="evenodd" clip-rule="evenodd" d="M43.9115 46.1856C44.7922 46.831 45.9564 46.8826 46.9764 47.1191C47.9816 47.3516 48.9727 47.8192 49.9662 48.0964C54.048 49.2177 58.1165 50.2083 62.0402 52.052C63.4434 52.7075 64.943 53.4202 66.3322 54.3108C66.6581 54.5239 67.2222 55.102 67.7126 54.6898C68.0564 53.7457 66.3335 52.9743 65.5798 52.6328C62.8032 51.3295 59.8745 49.9385 56.8777 48.9275C54.9034 48.265 52.7747 47.7051 50.773 47.1468C48.6521 46.5571 46.5955 45.9048 44.6729 45.5901C44.3713 45.5267 43.8629 45.5839 43.9115 46.1856Z" fill="#E6EAEE"/>
<path fill-rule="evenodd" clip-rule="evenodd" d="M87.8602 24.561C88.2646 25.3836 89.3426 25.4602 90.1065 25.5816C90.9785 25.7154 91.8959 25.7975 92.7349 25.875C96.2033 26.1824 99.5588 27.1605 103.322 26.8929C104.245 26.8332 105.16 26.7398 106.086 26.7922C106.918 26.836 108.027 27.0959 108.671 26.3422C108.28 25.3481 107.042 25.8183 106.333 25.7909C105.434 25.7613 104.522 25.7763 103.659 25.8516C101.962 26.0101 100.232 25.8098 98.472 25.6651C94.9998 25.3725 91.4907 24.7361 88.4854 24.1207C88.2433 24.0729 87.8813 24.0573 87.8602 24.561Z" fill="#E6EAEE"/>
<path fill-rule="evenodd" clip-rule="evenodd" d="M71.5315 32.7281C71.8151 33.0415 72.1262 33.2506 72.5727 33.0657C72.3392 32.6223 71.9161 32.7179 71.5315 32.7281Z" fill="#E6EAEE"/>
<path fill-rule="evenodd" clip-rule="evenodd" d="M91.7789 23.7613C92.6705 24.4255 93.584 24.5226 94.8587 24.6987C95.3209 24.7566 98.1844 25.0641 97.7495 23.9948C97.5395 23.4621 95.7509 23.7874 95.121 23.7013C93.7304 23.5425 93.1843 23.3193 92.31 23.0734C91.8157 23.198 91.8494 23.4934 91.7789 23.7613Z" fill="#E6EAEE"/>
<path fill-rule="evenodd" clip-rule="evenodd" d="M81.6973 28.4468C81.4288 29.9518 80.8164 31.7961 81.9016 33.116C82.1868 32.6976 82.2611 31.81 82.3628 30.8182C82.452 29.9344 83.1082 27.863 81.6973 28.4468Z" fill="#E6EAEE"/>
<path fill-rule="evenodd" clip-rule="evenodd" d="M85.4743 29.4562C84.8923 29.4304 84.0423 29.939 84.2633 30.4905C84.7343 31.6648 87.0867 29.4983 85.4743 29.4562Z" fill="#E6EAEE"/>
<path fill-rule="evenodd" clip-rule="evenodd" d="M76.4963 34.0021C76.3389 34.3585 76.9726 34.1274 77.0581 34.4682C77.2382 34.0858 76.6397 34.183 76.4963 34.0021Z" fill="#E6EAEE"/>
<path fill-rule="evenodd" clip-rule="evenodd" d="M87.0684 37.7377C86.0614 35.5152 86.0956 33.6302 85.308 31.4814C83.8171 31.5826 84.828 33.1854 85.1478 34.8133C85.5061 36.6583 85.565 37.947 87.0684 37.7377Z" fill="#E6EAEE"/>
<path fill-rule="evenodd" clip-rule="evenodd" d="M82.2095 33.2766C82.4571 33.485 82.7281 33.604 82.9099 34.002C83.1449 33.7136 83.7145 33.5451 83.8155 33.2215C83.7903 32.2281 82.5525 32.6984 82.2095 33.2766Z" fill="#E6EAEE"/>
<path fill-rule="evenodd" clip-rule="evenodd" d="M78.7527 34.8024C78.6885 35.1675 79.5621 35.4768 79.7038 35.1799C79.4883 34.789 79.0332 35.0672 78.7527 34.8024Z" fill="#E6EAEE"/>
<path fill-rule="evenodd" clip-rule="evenodd" d="M63.0555 46.5575C63.5946 47.0495 64.5197 46.1946 64.3105 45.5985C64.7953 44.7233 65.3655 43.8865 64.8984 42.6973C64.7457 42.6731 64.5663 42.6895 64.4252 42.6206C63.9389 43.9251 63.3076 45.1755 63.0555 46.5575Z" fill="#E6EAEE"/>
<path fill-rule="evenodd" clip-rule="evenodd" d="M83.7839 37.0331C84.1075 37.1341 84.4428 37.1904 84.7852 37.2805C84.8078 36.3474 84.4175 35.2898 84.1165 34.2558C82.6412 33.9951 83.5942 36.0601 83.7839 37.0331Z" fill="#E6EAEE"/>
<path fill-rule="evenodd" clip-rule="evenodd" d="M81.819 35.3066C82.0604 35.7202 82.5758 35.3942 82.6729 35.0855C82.4614 34.9821 82.0721 35.3731 81.819 35.3066Z" fill="#E6EAEE"/>
<path fill-rule="evenodd" clip-rule="evenodd" d="M53.6231 52.5279C56.1106 53.0548 58.6758 54.2547 61.2823 54.8129C62.0047 54.9711 63.1156 55.4065 63.747 54.7609C63.5048 53.8059 62.2372 53.9659 61.2767 53.7451C59.5719 53.3286 57.7722 52.7279 55.9491 52.2166C55.0301 51.9589 53.9583 51.3746 53.3073 51.4899C52.0609 51.7509 52.4825 52.9918 53.6231 52.5279Z" fill="#E6EAEE"/>
<path fill-rule="evenodd" clip-rule="evenodd" d="M80.7414 50.4772C80.1905 49.4251 80.7208 48.4982 81.0654 47.4907C81.2471 46.9814 81.8674 45.7122 81.6566 45.2429C81.282 44.4282 80.146 44.5114 79.586 45.4304C79.1975 46.0604 78.7238 48.4664 78.5304 49.3227C78.4036 49.9259 78.1154 50.5982 78.2752 50.9585C78.7486 51.9424 80.0905 51.4996 80.7414 50.4772Z" fill="#E6EAEE"/>
<path fill-rule="evenodd" clip-rule="evenodd" d="M92.4801 40.9435C93.0247 41.8985 94.6355 42.3699 95.1172 41.4462C94.4989 40.7106 93.12 40.2047 92.4801 40.9435Z" fill="#E6EAEE"/>
<path fill-rule="evenodd" clip-rule="evenodd" d="M102.837 39.3863C103.616 39.5116 103.6 38.6639 103.744 38.1766C103.881 37.6556 104.322 37.0076 104.074 36.4968C102.695 36.2933 102.399 38.5074 102.837 39.3863Z" fill="#E6EAEE"/>
<path fill-rule="evenodd" clip-rule="evenodd" d="M101.302 41.895C101.438 42.0423 101.62 42.0744 101.78 42.1958C102.813 41.6559 102.574 40.686 102.89 39.9096C101.687 38.4948 101.545 41.211 101.302 41.895Z" fill="#E6EAEE"/>
<path fill-rule="evenodd" clip-rule="evenodd" d="M96.7796 42.5678C97.3712 43.3442 98.2079 43.3096 99.1175 43.1191C99.2928 41.9079 97.067 41.6567 96.7796 42.5678Z" fill="#E6EAEE"/>
<path fill-rule="evenodd" clip-rule="evenodd" d="M91.2653 46.2263C92.2745 46.7464 93.2766 47.2328 94.5104 47.0798C94.4705 46.9898 94.5755 46.9537 94.6358 46.9059C94.6311 46.6818 94.5997 46.4985 94.4234 46.2612C94.1734 45.9408 91.2315 45.0238 91.2653 46.2263Z" fill="#E6EAEE"/>
<path fill-rule="evenodd" clip-rule="evenodd" d="M100.312 44.0222C101.207 44.735 102.576 45.1586 103.643 44.6117C104.927 46.4455 103.151 47.2676 103.878 48.9229C104.163 48.8069 103.939 48.5092 104.004 48.3196C105.149 47.8408 105.263 46.4384 105.187 45.3361C104.712 45.0839 104.365 44.4674 104.06 43.7506C102.91 44.6736 100.988 42.4811 100.312 44.0222Z" fill="#E6EAEE"/>
<path fill-rule="evenodd" clip-rule="evenodd" d="M96.3189 47.8897C96.9739 48.3644 97.6516 48.8132 98.6168 48.3508C98.6105 48.2537 98.6191 48.1605 98.7021 48.0868C98.2233 47.2447 96.5264 46.7984 96.3189 47.8897Z" fill="#E6EAEE"/>
<path fill-rule="evenodd" clip-rule="evenodd" d="M90.4425 55.5274C91.501 55.9808 91.7374 54.6584 92.5129 53.8279C93.485 52.7944 94.7125 51.9395 94.4327 51.0064C94.2109 50.216 93.6265 50.0782 93.1729 50.2294C92.5242 50.4567 92.2995 51.4321 91.9251 51.827C91.3454 52.5181 88.5669 54.7317 90.4425 55.5274Z" fill="#E6EAEE"/>
<path fill-rule="evenodd" clip-rule="evenodd" d="M99.5679 48.7284C100.157 49.3927 100.893 49.6817 101.68 49.7137C102.328 48.6426 99.892 47.5563 99.5679 48.7284Z" fill="#E6EAEE"/>
<path fill-rule="evenodd" clip-rule="evenodd" d="M99.0718 52.6723C99.1697 52.6026 99.2332 52.6033 99.2959 52.6676C100.034 51.859 99.8942 50.7559 99.8439 49.6763C98.7313 48.763 98.3964 52.0331 99.0718 52.6723Z" fill="#E6EAEE"/>
<path fill-rule="evenodd" clip-rule="evenodd" d="M102.695 50.3945C102.816 50.8402 103.078 50.8135 103.297 50.9506C103.795 50.5087 104.025 49.9963 104.025 49.3915C103.294 48.7218 103.079 50.0818 102.695 50.3945Z" fill="#E6EAEE"/>
<path fill-rule="evenodd" clip-rule="evenodd" d="M125.054 39.3888C125.615 41.4939 125.821 43.5535 125.692 45.5567C125.545 47.8099 125.414 50.0036 125.202 52.0805C125.132 52.8898 124.234 53.9428 125.218 54.6791C126.278 53.8595 126.174 52.2566 126.239 50.9209C126.343 48.4656 126.877 46.0752 126.851 43.5698C126.835 42.1808 126.504 40.8365 125.873 39.3018C125.759 39.1921 125.639 39.1608 125.479 39.1663C125.332 39.2392 125.186 39.312 125.054 39.3888Z" fill="#E6EAEE"/>
<path fill-rule="evenodd" clip-rule="evenodd" d="M97.9225 54.439C97.9304 55.014 97.7051 57.2625 98.718 56.8605C99.2209 56.6426 99.3796 53.74 97.9225 54.439Z" fill="#E6EAEE"/>
<path fill-rule="evenodd" clip-rule="evenodd" d="M128.923 44.465C128.983 45.9927 129.024 47.5314 128.824 48.9588C128.709 49.7564 128.105 50.2978 128.192 51.1165C129.172 51.6287 129.786 49.9599 129.9 49.1624C129.993 48.5662 129.805 47.7687 129.897 46.997C130.019 45.8672 130.478 44.9694 129.457 44.1915C129.273 44.2864 129.089 44.3812 128.923 44.465Z" fill="#E6EAEE"/>
<path fill-rule="evenodd" clip-rule="evenodd" d="M111.269 63.0583C111.306 64.9142 113.623 66.2716 115.088 65.2404C114.762 64.0567 113.226 64.8145 112.573 63.9105C112.248 63.2681 111.958 62.5552 111.269 63.0583Z" fill="#E6EAEE"/>
</svg>
