<svg width="60" height="100" viewBox="0 0 60 100" fill="none" xmlns="http://www.w3.org/2000/svg">
<path fill-rule="evenodd" clip-rule="evenodd" d="M23.693 0.00590233C25.6259 -0.145697 26.0049 2.65889 26.5544 4.28858C27.1798 6.12672 27.7672 7.90801 28.4494 9.29136C29.2832 10.94 30.875 12.3991 32.012 14.0478C33.0922 15.6206 34.1155 17.6293 34.8735 19.3917C35.6315 21.1919 36.7874 22.9353 37.7349 24.7355C38.5876 26.3842 39.8573 28.0897 40.9374 29.7383C43.6283 33.8125 46.3002 38.0573 48.9153 42.34C50.4313 44.8224 51.7957 47.5323 53.0843 50.4316C53.5012 51.3602 53.8613 52.3266 54.2782 53.293C54.6761 54.2216 55.3394 54.9986 55.6994 55.9081C56.2111 57.1967 56.4574 58.7317 57.007 60.1908C58.6935 64.682 60.3232 69.3247 59.8684 76.014C59.4894 81.4905 58.3524 84.7689 55.9458 88.2556C54.0318 91.0223 52.4211 93.1068 49.7681 95.0397C48.5363 95.9304 47.1151 96.9537 45.9591 97.4274C44.5947 97.9769 42.9651 98.1096 41.4491 98.6213C39.99 99.114 38.5119 99.6635 37.0527 99.8151C33.1869 100.232 29.2264 99.853 25.6449 99.5687C18.7281 99.0382 14.0664 97.219 10.2954 93.6185C9.63216 92.9742 9.02578 92.0646 8.26779 91.2497C6.35384 89.1084 4.11774 86.5881 2.9239 83.7645C2.5828 82.9686 2.56384 81.9074 2.20379 81.0357C1.84374 80.1261 1.31315 79.4629 1.1426 78.667C-0.392343 71.466 -0.297584 62.768 1.38896 55.7186C2.128 52.6109 3.39766 48.9346 4.4778 45.9594C4.8947 44.8414 4.97051 43.6475 5.3116 42.6243C5.7285 41.4115 6.41068 40.2934 6.86548 39.1754C8.26778 35.6128 9.36686 31.766 10.6744 28.2413C11.584 25.7967 12.5884 23.3711 13.4032 21.0972C14.2749 18.6905 15.5445 16.7576 16.492 14.4268C16.8331 13.574 16.9279 12.6076 17.3258 11.698C18.3112 9.42401 19.7135 6.82787 20.661 4.55388C21.4948 2.37464 21.2674 0.214351 23.693 0.00590233ZM23.1056 5.12237C21.9686 6.67627 20.6231 10.201 19.6567 12.3802C19.2587 13.2519 19.164 14.1046 18.8229 14.9953C18.2733 16.4355 17.3448 17.8757 16.6816 19.3917C15.9994 20.9266 15.5446 22.5563 14.9003 24.1481C14.635 24.7924 14.1044 25.304 13.8391 25.9294C12.6831 28.6013 11.8683 31.7281 10.8639 34.7221C10.3712 36.1813 9.82166 37.6404 9.31001 39.1185C6.05062 48.7072 1.46477 58.7127 2.52596 71.8261C2.79126 74.9907 3.58716 78.0037 4.42096 80.2777C4.72415 81.0926 4.81888 82.0401 5.14103 82.7791C6.16433 85.1479 7.85086 87.4029 9.78376 89.3168C11.7735 91.3066 13.3653 93.3911 15.7341 94.6607C19.145 96.4989 24.9437 97.0674 30.117 97.3895C34.7408 97.6927 37.9054 97.219 40.9374 96.1957C43.4578 95.3429 45.1443 95.0966 46.8877 93.9406C49.8439 91.9698 51.7768 89.8664 53.7855 87.0429C56.0973 83.8024 57.1396 80.543 57.4617 75.5023C57.8597 69.4573 56.2868 65.0041 54.733 60.873C54.2024 59.4707 53.9371 57.9358 53.4254 56.704C52.9896 55.6618 52.3074 54.7333 51.8716 53.6152C49.6923 47.9492 46.6413 43.3633 43.6662 38.6258C42.4913 36.7498 41.2785 34.8169 40.1036 32.9219C37.7728 29.1888 35.1956 25.4177 33.2059 21.2677C32.2394 19.259 31.1214 17.1177 29.8707 15.3174C28.5442 13.4035 26.9714 11.8685 26.0618 9.8409C25.3417 8.23016 25.0005 6.48677 24.0341 5.08448C23.6551 5.33083 23.5983 5.10342 23.1056 5.12237Z" fill="#23C8AC"/>
<path fill-rule="evenodd" clip-rule="evenodd" d="M12.1526 40.0849C12.1526 40.3313 12.1526 40.5586 12.1526 40.805C10.7882 41.8662 10.6935 38.9669 12.1526 40.0849Z" fill="#23C8AC"/>
<path fill-rule="evenodd" clip-rule="evenodd" d="M48.309 52.4593C46.6224 57.3673 44.3294 61.65 41.0511 64.9473C43.2304 65.6674 42.0365 69.7416 42.605 72.0914C45.1822 70.367 47.2288 66.8612 49.0291 63.6398C49.5597 62.7112 50.2418 61.0626 51.6441 61.4984C51.9852 62.5217 50.8862 62.8628 50.4503 63.526C50.1282 64.0187 50.0334 64.701 49.7302 65.1936C47.9868 68.093 45.9781 70.9165 43.6662 73.1716C43.4767 73.38 42.9651 73.2663 42.605 73.2853C43.2683 76.7531 39.2888 75.5971 36.6547 75.7866C36.6926 78.2501 37.2611 80.183 37.1285 82.7981C36.6547 83.8972 35.6315 83.613 34.0397 83.7456C31.4246 83.9541 28.3926 84.731 25.7206 84.5794C23.5035 82.4002 24.091 78.5723 23.5793 75.3129C22.7455 75.5213 21.5138 75.3318 20.3578 75.4266C19.3535 75.5213 18.5007 76.0519 17.629 75.5403C16.6816 75.0097 16.4162 72.4515 16.0751 71.2576C15.8856 70.5754 15.6393 69.7416 15.355 69.0026C14.8813 67.714 14.1612 66.558 15.355 65.6674C16.113 65.0989 17.1932 65.4021 18.0838 65.3073C19.543 65.1747 21.2674 64.7767 22.954 64.9473C23.1435 62.1617 22.556 58.5991 23.314 56.3819C24.8869 55.3207 28.4873 55.8892 30.9319 56.1356C31.7467 56.2114 32.9974 56.0219 33.4333 56.2493C34.1534 56.6472 33.9449 57.9927 34.0207 58.9781C34.1723 60.6457 34.9114 63.0523 34.8545 64.9284C36.6737 64.9473 38.2466 64.9473 40.0847 64.9284C40.3121 64.8336 39.7625 64.5493 39.971 64.0946C43.4577 61.2142 45.0875 56.4388 47.3425 52.3267C47.4372 52.213 47.5699 52.1561 47.7025 52.0803C48.0815 52.0424 48.0247 52.4214 48.309 52.4593ZM25.588 60.911C25.986 59.9066 26.6113 59.1676 27.1419 58.2959C26.5923 58.2959 26.0428 58.2959 25.4743 58.2959C25.4933 59.2623 25.2469 60.153 25.588 60.911ZM28.8095 58.2959C28.1462 59.4708 27.4451 60.134 26.6681 61.3847C25.9859 62.4838 25.0953 63.0523 25.588 63.9998C26.9334 62.0669 28.7716 60.5888 29.757 58.2959C29.4348 58.2959 29.1316 58.2959 28.8095 58.2959ZM30.8371 58.8833C29.359 62.0859 26.7818 64.1893 24.7731 66.8612C24.4699 67.0318 24.0151 67.0507 23.8256 67.335C24.3562 67.2592 24.4889 67.6571 24.5458 67.9224C24.7732 69.2868 21.0021 72.3946 21.3432 73.0389C23.0677 72.3378 23.2003 70.0638 24.9058 69.3626C26.3081 67.1076 28.222 64.6251 30.0222 62.4649C30.9887 61.3089 32.3721 60.3993 31.5762 58.5422C31.3488 58.5422 31.1024 58.5422 30.856 58.5422C30.8371 58.637 30.8371 58.7696 30.8371 58.8833ZM24.8868 71.5987C24.1478 71.5987 23.5983 72.3378 23.693 72.7926C24.0531 72.7926 24.4131 72.7926 24.7731 72.7926C27.1987 69.6279 29.3401 66.179 32.2584 63.5071C32.0689 63.1092 32.2584 62.3132 32.031 61.9532C29.5486 65.0799 26.9713 68.1119 24.8868 71.5987ZM28.8095 69.4763C27.2177 71.5229 24.8679 73.3421 26.1944 76.1467C28.3547 73.1147 30.1928 69.7416 32.6184 66.9939C32.2963 66.5201 32.8079 65.2315 32.2584 64.9662C31.4435 66.2548 30.117 67.7708 28.8095 69.4763ZM22.2718 67.4487C21.6275 69.7227 18.5007 70.4238 19.0692 73.1526C21.0021 71.6366 22.2339 69.4195 23.5793 67.316C23.1624 67.3918 22.8024 67.5055 22.2718 67.4487ZM17.5153 67.6761C17.7806 68.6046 18.0838 69.4763 18.4628 70.2912C19.3156 69.3816 20.1304 68.472 20.8316 67.4297C19.5051 67.316 18.8418 67.8277 17.5153 67.6761ZM33.926 67.4487C31.3488 70.2912 29.3022 73.7022 27.2745 77.0752C27.1229 77.3974 26.346 77.1131 26.3271 77.549C26.346 78.4017 26.2512 79.3682 26.4407 80.0504C29.4348 75.6729 33.2058 72.0725 35.9536 67.4487C35.2714 67.4487 34.5892 67.4487 33.926 67.4487ZM37.1285 67.8087C35.1198 71.5229 32.3152 74.5739 29.757 77.5679C28.8474 78.6291 28.4684 79.9746 27.3882 80.9031C27.1229 81.1305 26.7629 80.7515 26.5544 80.5431C26.5544 81.3011 26.706 81.9075 27.1419 82.2107C30.0981 78.7049 32.5994 74.7444 35.7072 71.3903C35.9346 71.3903 36.181 71.3903 36.4273 71.3903C37.3559 70.0638 38.7013 69.1352 39.2888 67.4676C38.5687 67.4676 37.8675 67.4676 37.1474 67.4676C37.1285 67.5624 37.1285 67.6761 37.1285 67.8087ZM38.7961 70.6512C38.1139 71.4471 36.5789 72.622 36.6547 73.2663C38.2465 72.4704 38.9666 70.8218 39.9899 69.4574C39.8383 69.4574 39.8762 69.2489 39.7436 69.23C39.4025 69.6279 39.194 70.1775 38.7961 70.6512ZM38.7961 73.2663C39.2698 73.2663 39.7436 73.2663 40.2173 73.2663C40.0847 72.7547 40.5016 71.7124 39.9899 71.5987C39.6299 72.2051 39.2319 72.7547 38.7961 73.2663ZM29.1695 81.9454C29.8328 82.0212 30.2118 81.8127 30.7234 81.699C31.7278 79.5008 33.4332 77.9848 34.1723 75.5213C34.1533 75.4266 34.1723 75.294 34.0586 75.275C32.5047 77.6058 30.5718 79.5198 29.1695 81.9454ZM33.3196 80.0504C33.6417 79.3871 34.5324 79.2734 34.5134 78.2691C34.0018 78.667 33.3006 79.5198 33.3196 80.0504ZM33.8122 81.3579C34.1344 81.3579 34.4376 81.3579 34.7597 81.3579C34.7408 81.0168 34.8545 80.5431 34.5323 80.5241C34.3428 80.8842 33.9638 81.0168 33.8122 81.3579ZM32.2584 81.6043C32.6942 81.6801 32.77 81.3958 33.2059 81.4906C33.0732 81.1874 32.8648 80.96 32.7321 80.6568C32.6184 81.0168 32.3342 81.2063 32.2584 81.6043Z" fill="#23C8AC"/>
</svg>
