<svg width="112" height="144" viewBox="0 0 112 144" fill="none" xmlns="http://www.w3.org/2000/svg">
<path fill-rule="evenodd" clip-rule="evenodd" d="M92.4181 62.7868C92.4335 62.3866 92.4951 61.9865 92.5413 61.5863C92.9569 58.5694 89.94 55.1216 86.8616 55.2755C83.6139 55.4294 80.8587 54.7983 77.8111 53.7517C74.1632 52.5203 70.623 51.489 66.8211 50.8426C65.3743 50.5963 63.9274 50.3962 62.4652 50.2423C61.8187 50.1653 61.1877 50.1038 60.5412 50.0268C60.141 49.9806 59.7254 49.9191 59.3098 49.8575C59.8178 49.9806 59.7254 49.9498 59.0328 49.8113C57.7091 49.5343 56.5854 49.0879 55.5234 48.5184C51.937 43.1466 49.228 37.1437 46.7653 31.2023C45.9033 29.109 43.2867 28.0624 41.178 28.4933C39.0539 28.9397 37.8071 30.4327 37.3761 32.2644C36.2987 32.6954 35.329 33.5111 34.5902 34.8349C32.4353 38.6829 34.113 43.2235 36.4988 46.5328C36.2987 47.0408 36.1602 47.5795 36.1294 48.1644C35.6214 56.199 32.8663 63.5718 30.9884 71.3294C30.3266 74.0538 31.481 77.7171 34.621 78.3636C39.9312 79.4718 44.9798 81.0418 49.5205 84.1048C53.3531 86.6907 56.1699 90.5079 59.9101 93.2323C62.0034 97.773 66.2978 100.405 71.1925 101.128C78.7654 102.252 86.446 97.5113 91.8486 92.7244C97.2051 87.9682 101.9 81.6883 103.069 74.5002C104.07 68.2818 98.0362 62.2943 92.4181 62.7868Z" fill="#E6EAEE"/>
<path fill-rule="evenodd" clip-rule="evenodd" d="M31.2039 0.756765C30.9269 2.14205 29.2799 2.28058 28.2487 2.80391C27.1712 3.35803 26.0168 3.85057 25.0471 4.46626C24.5238 4.80488 24.139 5.42057 23.3848 5.359C22.7075 3.95832 24.57 3.14254 25.5704 2.66539C27.1558 1.91118 29.1722 1.2801 30.3112 0.35658C30.7883 0.310403 31.1116 0.418139 31.2039 0.756765Z" fill="#23C8AC"/>
<path fill-rule="evenodd" clip-rule="evenodd" d="M35.9448 5.49746C35.1444 5.86687 34.9751 5.18962 34.2825 5.11266C32.066 4.89717 28.3565 6.6057 26.8481 7.54461C25.8322 8.17569 24.9395 8.97608 24.0314 9.59176C22.9847 10.3152 22.1073 11.1617 21.0761 11.5158C20.3065 9.94578 22.5537 9.08381 23.8928 8.19107C25.1704 7.34451 26.5557 6.12854 27.864 5.49746C29.5417 4.69708 32.497 3.77355 34.1439 3.83512C35.0983 3.8659 36.3604 4.29688 35.9448 5.49746Z" fill="#23C8AC"/>
<path fill-rule="evenodd" clip-rule="evenodd" d="M67.4984 6.14402C66.6672 6.575 65.559 5.9901 64.42 6.14402C63.4656 6.26716 62.6191 7.1599 61.988 6.52882C62.0188 4.55864 67.2059 4.00452 67.4984 6.14402Z" fill="#23C8AC"/>
<path fill-rule="evenodd" clip-rule="evenodd" d="M70.1921 9.22239C69.5148 9.80729 68.6683 8.96073 67.6216 8.83759C65.7592 8.6221 63.5273 9.20699 61.9881 8.59131C61.9265 8.09876 62.0497 7.79092 62.3729 7.69857C65.1127 8.06798 69.6687 6.62113 70.1921 9.22239Z" fill="#23C8AC"/>
<path fill-rule="evenodd" clip-rule="evenodd" d="M61.4647 13.4553C65.0203 11.3466 73.1935 12.0084 77.3647 13.3321C80.3816 14.2864 83.9217 14.0556 83.1367 18.4577C85.5071 16.9185 88.0006 17.2263 90.8328 18.4577C92.0334 18.981 93.5264 19.5043 94.296 20.3817C95.6043 21.8747 95.3888 23.9834 95.7121 26.0152C98.6212 27.6468 101.53 29.971 104.301 32.4337C105.117 33.1417 106.302 33.6189 106.61 34.2345C107.549 36.0816 106.533 39.4678 106.348 41.5458C106.271 42.5309 106.44 43.9623 106.348 45.1321C106.148 47.9027 105.563 51.4429 105.194 54.7522C105.07 55.8758 104.655 57.2457 104.301 58.477C103.931 59.7238 103.3 61.1707 103.408 62.0634C103.516 62.9253 104.562 63.972 104.947 64.757C106.456 67.82 107.318 72.3607 106.871 77.5786C106.44 82.4579 103.747 85.5209 101.361 88.5993C100.714 89.4305 99.1753 90.5695 98.7905 91.5546C98.3749 92.632 98.5904 93.9711 98.4057 95.0178C97.4821 100.113 96.2354 105.731 94.8193 110.533C94.0343 113.196 92.9107 114.812 91.6178 117.075C90.9713 118.198 90.5095 119.522 89.8169 120.415C89.3705 121 88.6471 121.569 88.1545 122.2C87.1079 123.555 86.4152 124.663 84.6913 125.417C84.0449 130.035 83.1521 133.929 83.1521 139.655C83.1521 141.594 83.5831 143.949 81.4898 143.503C80.243 143.241 80.597 141.04 80.597 139.532C80.597 134.529 81.2589 130.189 81.8746 126.448C79.4272 126.464 75.9332 126.094 73.5475 125.94C71.7928 125.817 69.4994 126.387 69.4378 124.663C69.3454 122.062 75.0867 123.616 76.8722 123.77C76.8106 122.277 75.7024 120.646 76.2411 119.414C77.9804 119.722 77.6726 122.077 78.042 123.77C78.8578 123.77 79.6581 123.77 80.4739 123.77C80.243 121.846 78.0727 120.014 78.9347 118.26C80.1199 118.352 80.2276 119.845 80.597 120.692C80.9972 121.6 81.5667 122.554 81.7514 123.508C84.8299 123.001 86.7846 120.261 88.2931 117.86C88.8164 117.044 89.3243 116.074 89.8323 115.166C91.2483 112.596 92.4027 109.794 93.2955 106.316C94.4345 101.883 95.2195 97.0495 95.9891 92.7244C91.9256 94.6638 87.4003 96.9572 83.4292 99.3891C82.0901 100.205 80.7971 101.144 79.458 101.821C77.0877 103.006 73.8707 104.561 70.8693 105.284C67.8832 105.992 64.7586 105.885 62.0188 105.023C62.0188 106.393 60.8183 107.685 59.5869 106.824C58.7711 106.239 59.4484 105.361 59.2021 104.253C58.9404 103.052 58.2016 103.329 57.9245 102.452C58.0015 100.667 56.9702 99.4045 56.0005 97.5729C52.3064 90.631 46.7807 86.3059 39.0693 83.2121C37.1453 82.4425 35.7138 81.3035 32.9125 81.5497C33.1433 82.4117 33.8206 84.5666 32.3891 84.8744C30.5883 85.2746 30.5113 82.9658 29.9572 81.6729C28.4795 78.1789 27.4175 76.8705 25.3396 74.1C24.6931 73.238 23.3694 72.1452 23.5387 70.8984C23.6772 69.8518 25.1856 69.2669 25.8475 68.4665C30.3112 63.0177 33.0818 52.428 29.8187 44.8705C28.3256 47.1485 27.2944 51.997 25.4627 54.4905C24.1698 56.2298 20.2294 56.7224 17.8898 55.137C15.7041 58.7849 13.1491 62.7868 9.9475 66.1731C9.20869 66.9581 8.0235 68.4511 7.90036 69.1283C7.71565 70.0673 8.06967 71.822 8.16202 73.0995C8.23898 74.1769 8.50065 75.0697 8.66996 76.0548C9.74741 81.8884 11.7484 87.568 12.2563 94.3867C12.3487 95.6181 14.5343 98.2655 15.4579 99.5277C16.6738 101.144 17.6281 102.668 18.6594 104.268C19.7523 105.962 20.4911 107.747 21.4762 109.394C22.5074 111.118 23.4002 113.119 24.4314 114.273C24.9702 114.889 26.0784 115.889 27.125 116.459C28.772 117.352 32.7124 117.29 32.7739 118.891C32.8817 121.723 26.8018 119.06 25.986 118.768C27.125 123.201 27.2636 128.48 27.2636 135.053C27.2636 137.346 27.7253 140.655 25.8629 140.563C24.139 140.486 24.7085 136.838 24.7085 135.176C24.7085 129.327 24.7393 125.294 23.6772 120.553C23.3386 119.045 23.1385 117.429 22.7845 116.444C22.492 115.674 21.7686 114.781 21.2453 113.873C18.7364 109.579 16.4429 105.223 13.4261 101.175C12.8874 100.467 12.3025 99.5584 11.7484 98.7427C10.5324 96.911 9.9475 96.3261 9.70123 93.3555C9.11633 86.2443 6.16106 79.3179 5.59155 72.0682C5.4992 70.8061 5.06822 69.4516 5.32989 68.2202C5.65312 66.758 7.59252 65.4035 8.0235 64.3722C7.60791 57.9691 8.13124 50.0114 7.90036 43.085C7.80801 40.2682 7.22311 37.7285 8.16202 35.2658C8.56221 34.1884 9.85515 32.8647 10.8556 31.5409C12.9182 28.8165 14.5035 26.9695 16.6277 24.4914C17.6435 23.3062 18.7979 22.2749 19.7061 21.1513C20.6912 19.9353 21.3838 18.2576 22.2765 17.1801C23.2308 16.0103 24.57 14.7636 25.8629 13.4553C27.0173 12.2701 28.2641 10.3461 29.4492 9.73039C30.9423 8.96079 33.759 8.49903 35.8677 8.31433C39.1462 8.02188 43.2559 8.49903 47.4118 8.82227C49.3973 8.97619 51.4137 8.66835 53.1838 8.82227C57.2319 9.19168 60.0333 10.7771 61.4647 13.4553ZM60.8336 24.2297C60.926 23.7064 60.5258 22.9368 60.4488 22.4288C60.064 19.8122 59.8793 16.4259 59.0328 14.0863C58.0631 13.5784 57.1242 12.2855 55.8312 11.9007C53.1838 11.1311 50.1516 11.6852 46.7191 11.3927C41.8398 10.9772 36.2833 10.3923 32.3583 11.5159C32.1582 11.8545 33.0202 12.5009 32.2352 12.7934C31.3117 13.0705 31.5887 12.1623 31.0808 12.0238C30.3728 12.0854 30.1881 12.6703 29.8032 13.0551C31.0192 13.8093 30.2804 16.5183 31.3425 17.411C31.5579 16.2566 30.8037 14.1325 31.9889 13.9478C33.051 14.5327 32.9278 18.4885 31.9889 19.0734C32.3583 19.3042 32.62 20.3355 31.9889 20.4894C30.8037 20.0584 30.2496 18.4731 29.8032 17.2879C29.4338 16.2874 29.2645 15.1176 29.1568 13.9478C27.4791 15.4716 25.5704 17.1494 24.0312 19.0734C22.9692 20.4125 22.2765 22.1518 20.9528 23.5678C18.2746 26.4308 16.3506 28.7242 13.9033 31.9104C12.7796 33.3726 11.0557 34.9734 10.5632 36.2663C9.91671 38.0056 10.4246 40.7916 10.5632 42.6694C10.9634 48.149 10.2707 55.3063 10.5632 61.1399C12.8566 58.8464 14.6729 54.9984 16.72 52.0278C16.2275 51.997 15.935 51.5968 15.6887 51.2582C15.2424 50.6733 13.2722 46.071 14.5343 45.9941C16.1043 45.9017 15.8119 51.1966 17.3511 51.1196C17.7821 50.4732 18.213 49.8421 18.6286 49.1956C17.8128 48.58 17.0432 46.8406 16.7046 45.3476C16.443 44.1932 15.7657 42.0845 17.0894 41.6227C18.2284 43.439 17.6435 46.9792 19.3982 48.1644C19.5675 47.1793 20.0601 46.5174 20.5526 45.8556C19.783 44.7935 19.3213 43.2697 18.8903 41.7459C18.6286 40.807 18.0591 39.2985 19.2751 39.1754C20.3987 40.5299 20.1524 43.2543 21.3222 44.5626C21.7224 43.7622 22.1842 43.0388 22.4766 42.1307C22.0764 41.5766 21.6147 40.4991 21.3222 39.4371C21.076 38.5751 20.4295 36.959 21.707 36.7435C22.5382 37.7439 22.492 39.6372 23.1231 40.8531C23.9235 40.3144 24.2467 39.3293 25.1702 38.9291C24.3853 38.4212 22.7229 34.3577 23.8927 34.1884C25.278 33.9729 24.8624 37.6362 26.0784 38.0364C26.2939 37.2668 26.6479 36.6357 26.9711 35.9892C26.4478 35.4197 25.4473 33.0186 26.7095 32.6492C27.3251 32.9416 27.5406 33.6189 27.4791 34.5732C28.4795 34.3577 28.7104 33.0801 28.6335 31.8796C29.049 31.4332 29.557 32.1412 29.7879 31.8796C30.4497 30.9253 31.2809 30.1249 31.835 29.0628C35.2367 25.6766 40.8855 24.5222 47.0885 23.9373C47.735 24.5375 48.9818 24.5222 49.5205 25.2148C51.7831 33.3418 53.8457 41.6689 59.4022 46.502C61.6187 45.3938 63.4811 43.9315 63.1271 41.3765C62.5576 37.2668 62.3729 32.1258 61.3262 28.9397C60.7413 29.6785 60.5104 30.7867 59.4022 30.9868C58.2632 29.1706 61.6033 28.1547 61.0645 26.1075C60.2795 26.0922 60.0332 27.7237 58.8788 27.7699C57.5243 26.1383 60.5412 25.7843 60.8336 24.2297ZM66.4671 14.7328C65.6514 14.8098 64.066 14.8406 63.3887 15.3793C62.4652 16.1027 62.773 18.3653 63.0039 20.2586C63.2194 22.0594 63.5273 23.7987 63.7735 25.261C64.343 28.5241 65.1896 32.2336 65.4359 35.2658C65.6668 38.1903 65.9746 41.6073 65.4359 43.9777C65.2666 44.7319 64.5431 45.5015 64.5278 46.1634C64.5278 47.6564 67.1906 50.1499 68.6374 50.3962C70.4383 50.7041 73.8092 49.2572 74.4094 48.3491C75.2098 47.1023 75.5331 43.2851 75.9487 41.4226C76.472 39.0523 76.9953 36.2971 77.3647 34.3731C78.5037 28.2932 80.5817 23.7218 80.5663 17.057C76.7798 15.7179 72.0545 14.2403 66.4671 14.7328ZM88.9088 51.7969C90.2787 50.2577 90.4326 47.0869 90.8328 44.3625C91.079 42.6386 91.2484 40.8377 91.4792 38.9753C91.9718 35.0349 92.9261 31.4178 93.1416 28.5857C93.3109 26.4616 93.08 23.2908 92.372 22.3057C91.5716 21.1975 88.5086 19.8584 86.6 19.9969C85.2455 20.0892 84.1988 21.1051 83.1367 21.5361C82.0131 26.0306 80.5201 31.1715 79.6735 36.1586C79.3811 37.8825 78.5345 39.8527 78.6423 41.2841C78.7192 42.2538 79.4426 43.5621 79.7967 44.6242C80.9665 48.0874 81.8592 51.643 84.0295 53.9826C85.2762 53.3207 87.8467 52.9975 88.9088 51.7969ZM33.6359 31.0176C33.1587 31.5563 32.8355 32.3259 32.3583 32.9416C30.9115 34.7733 29.2953 36.6049 28.5103 38.9753C29.557 39.1754 30.0649 39.8988 29.911 41.2841C37.0529 46.9022 33.1587 63.8797 28.3718 69.2361C28.8643 69.2053 29.1106 69.4362 29.1414 69.8826C29.0183 73.0841 29.3261 75.8547 30.8037 77.4555C31.1578 73.4997 31.127 68.8205 31.5734 65.1418C31.6349 64.6031 31.7119 63.4949 32.6046 63.4795C33.3127 64.0951 32.9278 65.2495 32.8663 66.0499C32.543 70.2981 31.7888 74.808 32.343 79.01C32.7278 79.01 33.1126 79.01 33.4974 79.01C33.4204 74.531 33.7744 70.175 34.0053 66.3116C34.0823 65.111 33.8668 63.3255 35.0366 62.7252C35.8523 64.2491 35.2674 66.1269 35.1597 67.8508C34.9596 71.4371 34.6364 75.1466 34.7749 79.01C48.1506 82.227 56.3084 90.6464 61.3262 102.221C67.991 104.838 75.5023 101.005 79.9198 98.3733C80.5201 98.0038 81.2743 97.8037 81.8438 97.4805C84.4451 95.9413 86.8924 94.2944 89.4167 92.986C92.2335 91.5392 95.1426 90.4309 97.4975 89.0149C98.8674 88.1991 100.36 85.8287 101.484 84.2741C102.977 82.1962 104.501 79.4718 103.793 76.9629C105.224 73.2996 103.839 67.5737 102.131 65.1572C99.5909 67.6969 94.1267 65.1572 92.8953 62.4636C92.8183 63.6796 93.8804 66.1269 92.3874 66.4347C91.5254 66.0807 91.9256 64.6954 91.8794 64.0028C91.6178 60.7705 90.4326 57.3996 90.0786 54.2596C89.3705 54.7983 88.447 55.1062 87.7697 55.6757C88.3392 58.2154 89.4013 61.8479 89.6938 64.6492C89.7707 65.4035 90.0016 67.9585 89.0473 67.9893C88.4008 68.0047 88.5393 67.0812 88.5393 67.0966C88.1392 63.3255 87.6004 59.4006 86.6153 55.9373C86.0151 56.0913 85.4302 56.2914 84.8145 56.4453C85.4609 59.1543 86.1536 62.6329 86.6153 65.6805C86.7385 66.4809 87.4003 68.1894 85.9689 68.2356C85.4148 67.5122 85.4763 66.4039 85.3224 65.542C84.8145 62.5098 84.2911 59.6007 83.6601 56.8147C81.8746 56.4607 81.4436 54.7522 80.4585 53.6131C80.8895 55.6757 81.7976 58.5848 81.9977 61.186C82.1516 63.0793 82.8289 65.819 81.4898 66.5733C80.597 66.0191 81.028 64.8801 80.9818 64.1413C80.751 60.4164 80.2122 57.3996 79.3195 54.3981C78.673 52.274 77.7495 50.1037 77.6572 48.2413C77.6264 47.5641 78.1035 46.9792 77.6572 46.4558C77.3955 48.1644 76.8414 49.565 75.9948 50.6887C76.9953 54.3058 78.042 58.3693 78.8116 62.3558C79.0732 63.6796 79.7351 65.6343 78.6884 66.0807C77.534 65.4035 77.8881 63.8027 77.6572 62.6175C76.8876 58.6464 75.7793 55.0138 74.9636 51.4583C74.2863 51.643 73.8399 52.0432 73.0396 52.1047C74.5172 54.6598 75.964 58.908 75.4715 63.1408C75.3637 64.0951 74.9943 64.9263 74.4402 65.0648C71.7004 65.7575 73.0549 60.909 72.7779 58.6617C72.5778 57.0456 71.3156 53.4438 70.0843 53.0129C69.2993 52.7512 68.3142 53.1976 67.6369 53.0129C66.7442 52.7512 65.9438 51.8738 65.205 51.2274C63.8813 50.073 62.7269 49.5496 62.3882 48.0258C60.8182 49.3495 58.1862 49.5342 56.7393 48.149C54.723 46.225 52.5835 42.0537 51.7369 39.8065C49.9361 41.946 48.7971 44.9628 47.5041 47.8873C46.1958 50.858 44.5181 53.7517 43.7792 56.6146C43.7792 56.6146 43.8408 59.7546 42.748 59.5699C41.7937 59.4006 42.5017 57.2611 42.6248 56.7531C42.9327 55.3832 43.2097 54.6136 43.5176 53.7978C45.6725 48.1951 48.2891 42.9619 50.9519 38.2827C49.2434 34.8656 48.3815 30.602 47.1039 26.7386C41.5166 27.3543 36.5604 27.7699 33.6359 31.0176ZM101.992 56.7993C103.454 50.7348 103.777 42.6694 104.301 35.7738C102.315 34.0345 99.8679 32.172 97.8823 30.5097C97.1743 29.9248 96.2508 29.1244 95.6967 29.2321C94.6038 34.5116 93.9266 40.2067 93.2493 45.9017C93.942 52.5665 92.3566 63.264 99.5447 63.7257C101.145 61.971 101.407 59.262 101.992 56.7993ZM25.8167 42.0537C23.4925 45.2245 21.5069 49.9037 19.3982 53.0744C20.3525 53.6439 21.4915 53.3053 22.8614 53.3361C24.7393 49.8729 26.9249 46.7175 27.2174 41.6689C26.4324 41.4996 26.0322 41.7613 25.8167 42.0537ZM26.5863 71.5449C27.1404 72.0221 27.3867 72.807 28.0024 73.2072C27.8485 72.2067 28.3256 70.5752 27.7407 70.0057C27.4483 70.606 26.8326 70.8984 26.5863 71.5449Z" fill="#23C8AC"/>
<path fill-rule="evenodd" clip-rule="evenodd" d="M84.3065 11.7774C84.522 11.9775 84.6297 12.3161 84.5681 12.8087C85.0453 13.9631 86.092 14.5172 87.1232 15.1175C87.8313 15.0405 88.3854 15.1329 88.5393 15.6254C87.508 17.534 83.737 14.9328 83.4137 13.4551C83.2752 12.8856 83.1521 11.5927 84.3065 11.7774Z" fill="#23C8AC"/>
<path fill-rule="evenodd" clip-rule="evenodd" d="M54.5383 12.6857C55.0462 13.1321 54.9384 14.2095 54.5383 14.7329C54.3228 14.7329 54.1073 14.7329 53.8918 14.7329C53.4916 14.2711 53.3377 12.3317 54.5383 12.6857Z" fill="#23C8AC"/>
<path fill-rule="evenodd" clip-rule="evenodd" d="M76.9953 21.1513C75.8409 21.1975 75.8563 20.0738 75.4561 19.3504C74.471 18.6732 72.5932 18.2114 70.9616 18.4577C70.192 18.5654 69.5764 19.2581 69.1608 18.5808C69.8072 16.3028 74.7019 16.9031 76.2103 18.3192C76.8568 18.9194 77.4417 20.2893 76.9953 21.1513Z" fill="#23C8AC"/>
<path fill-rule="evenodd" clip-rule="evenodd" d="M90.4479 25.8921C90.1555 24.1682 88.9241 23.3832 87.7543 22.552C87.6466 22.0133 88.093 22.0441 88.2623 21.7824C88.6163 21.9209 89.2474 22.0133 89.6783 22.2903C90.6942 22.9676 92.4951 25.4457 90.4479 25.8921Z" fill="#23C8AC"/>
<path fill-rule="evenodd" clip-rule="evenodd" d="M59.9256 22.5519C59.1406 23.6447 58.6173 24.9992 57.1089 25.3687C56.5394 24.1219 58.8944 21.3821 59.9256 22.5519Z" fill="#23C8AC"/>
<path fill-rule="evenodd" clip-rule="evenodd" d="M77.1185 22.6904C77.0107 23.6909 75.7948 24.0295 75.0713 24.4913C73.4859 25.4917 71.8236 26.2459 70.3306 27.4465C69.7303 27.9391 68.9915 29.2166 68.0218 28.4778C68.2526 27.0925 70.0843 26.0766 71.6081 25.1377C73.2705 24.1218 74.902 22.8905 76.2257 22.321C76.4412 22.1978 76.9338 22.3672 77.1185 22.6904Z" fill="#23C8AC"/>
<path fill-rule="evenodd" clip-rule="evenodd" d="M77.3801 26.1536C76.2718 27.5081 74.4248 28.2931 72.8856 29.2321C72.1468 29.6938 71.3156 30.1402 70.5768 30.6481C69.8841 31.1253 69.1145 32.0334 68.1448 31.6794C68.1448 30.1556 70.3459 29.4014 71.8697 28.4778C73.2704 27.6159 75.179 25.8458 76.4873 25.7842C76.7644 25.7534 77.1646 25.7227 77.3801 26.1536Z" fill="#23C8AC"/>
<path fill-rule="evenodd" clip-rule="evenodd" d="M108.287 40.3913C107.826 38.2056 108.41 35.5274 108.164 33.08C107.949 31.0175 106.533 29.5091 106.625 27.9545C106.81 27.9545 107.148 27.4773 107.271 27.8313C109.195 29.5706 109.457 33.3109 109.457 37.4514C109.442 38.575 109.75 40.4682 108.287 40.3913Z" fill="#23C8AC"/>
<path fill-rule="evenodd" clip-rule="evenodd" d="M42.748 28.2008C42.317 29.4321 41.3781 30.3095 40.7009 31.4023C38.7615 34.5115 36.7913 38.0671 35.8216 42.2999C35.5753 43.3774 35.837 44.8088 35.052 45.7631C33.8052 45.563 34.3132 44.1008 34.4055 43.4543C35.2675 37.5438 38.6845 31.5255 41.7167 27.9391C42.2093 27.8775 42.5325 27.9853 42.748 28.2008Z" fill="#23C8AC"/>
<path fill-rule="evenodd" clip-rule="evenodd" d="M88.9087 28.324C88.1699 29.8632 86.2151 30.4789 84.9376 31.5256C84.2757 32.0797 83.7678 33.4188 82.6288 32.9416C82.4441 31.7103 83.7986 30.9253 84.6759 30.248C85.738 29.4323 86.9232 28.7396 87.8775 27.9392C88.4008 27.893 88.8318 27.9392 88.9087 28.324Z" fill="#23C8AC"/>
<path fill-rule="evenodd" clip-rule="evenodd" d="M77.1184 29.2321C76.7798 30.4635 75.3175 31.0484 74.3016 31.664C73.2704 32.2951 72.1621 33.2494 70.9616 33.2032C70.5306 31.9103 72.2699 31.4332 73.1472 30.8944C74.2247 30.2326 75.3945 29.5861 76.2256 28.8473C76.7336 28.7549 76.9183 29.0012 77.1184 29.2321Z" fill="#23C8AC"/>
<path fill-rule="evenodd" clip-rule="evenodd" d="M111.489 29.4784C112.028 30.2788 112.274 33.4187 111.227 33.8343C110.334 33.5727 109.965 29.3398 111.489 29.4784Z" fill="#23C8AC"/>
<path fill-rule="evenodd" clip-rule="evenodd" d="M46.5961 30.3711C46.1651 31.9564 44.7336 32.9723 43.7793 34.3422C41.9323 37.005 40.5932 39.9295 39.1617 43.3158C38.4845 44.9165 37.6995 46.702 37.4994 48.3182C37.407 49.1032 37.8534 50.4885 36.8529 50.7501C35.7293 50.1344 36.191 48.5337 36.345 47.6717C36.8375 44.855 38.3305 41.9305 39.4234 39.4677C40.9472 36.0045 43.4869 32.7722 45.4571 30.3556C45.611 30.0016 46.396 30.0786 46.5961 30.3711Z" fill="#23C8AC"/>
<path fill-rule="evenodd" clip-rule="evenodd" d="M7.99271 30.8945C7.13076 32.3875 6.03792 34.4654 5.6839 36.7896C5.43763 38.4981 5.74547 40.4068 4.9143 41.9152C3.40588 41.6535 4.31401 39.514 4.40636 38.1903C4.62185 35.1119 5.4992 32.1566 6.83831 30.4942C7.37703 30.4789 7.91575 30.4635 7.99271 30.8945Z" fill="#23C8AC"/>
<path fill-rule="evenodd" clip-rule="evenodd" d="M89.4322 31.156C89.5707 32.1719 88.4779 32.2642 87.7698 32.6952C87.0464 33.1416 86.1383 33.8342 85.3379 34.3576C84.6453 34.8039 83.6294 36.0507 82.9059 34.8655C83.3215 34.0805 84.2297 33.5726 84.9531 33.0646C86.1845 32.2181 87.2927 31.5716 88.678 30.7558C89.1089 30.6943 89.2167 30.9713 89.4322 31.156Z" fill="#23C8AC"/>
<path fill-rule="evenodd" clip-rule="evenodd" d="M47.2425 32.9416C46.9654 34.8656 45.5493 36.451 44.5489 38.2057C42.1939 42.3923 39.7465 47.1946 38.5152 52.705C38.3459 53.4438 38.3305 55.1677 37.0991 55.0138C36.5296 54.0749 37.1453 52.8743 37.3608 51.9354C38.0072 49.0571 39.4233 45.9171 40.5623 43.2081C42.1477 39.4524 44.3795 36.0354 46.3343 32.9416C46.4267 32.8184 46.5652 32.7569 46.7191 32.6799C46.9192 32.7569 47.0424 32.88 47.2425 32.9416Z" fill="#23C8AC"/>
<path fill-rule="evenodd" clip-rule="evenodd" d="M88.9087 33.8343C88.3854 34.9887 86.8154 36.3894 85.1838 36.1431C85.1992 35.9892 85.1531 35.9122 85.0607 35.8814C85.8765 34.9425 87.585 33.0339 88.9087 33.8343Z" fill="#23C8AC"/>
<path fill-rule="evenodd" clip-rule="evenodd" d="M101.361 33.9728C102.438 34.6655 103.87 37.2513 102.515 38.7136C101.345 38.5751 101.946 37.2975 101.746 36.5279C101.453 35.4351 100.36 35.2658 100.083 34.3422C100.268 33.9882 100.745 33.9113 101.361 33.9728Z" fill="#23C8AC"/>
<path fill-rule="evenodd" clip-rule="evenodd" d="M49.2897 35.512C48.6586 37.2975 47.612 38.8521 46.7192 40.5144C44.9953 43.7622 43.256 47.2562 41.9785 50.9041C41.6706 51.7968 41.3012 52.7665 41.0857 53.7208C40.8856 54.6598 41.1935 55.8911 40.3161 56.6761C39.054 56.3529 39.6696 54.6905 39.8082 53.9825C40.3161 51.0888 41.5783 48.5029 42.7634 46.0402C44.5797 42.223 46.2574 38.2364 48.2738 35.3889C48.3662 35.2658 48.5047 35.1888 48.6586 35.1272C49.0434 35.0657 48.9818 35.4659 49.2897 35.512Z" fill="#23C8AC"/>
<path fill-rule="evenodd" clip-rule="evenodd" d="M11.3174 36.4048C12.3178 36.1585 12.5025 37.3129 12.2101 37.944C11.3481 38.4057 10.6709 37.0666 11.3174 36.4048Z" fill="#23C8AC"/>
<path fill-rule="evenodd" clip-rule="evenodd" d="M58.1401 37.6823C59.587 37.2205 62.2036 37.3129 62.2498 38.8367C62.296 40.6529 57.5398 40.7915 57.1242 39.36C56.7087 37.9747 57.4475 37.9132 58.1401 37.6823Z" fill="#23C8AC"/>
<path fill-rule="evenodd" clip-rule="evenodd" d="M100.838 40.1296C100.807 41.2994 99.437 41.8997 98.652 42.5616C97.9439 43.1619 97.0512 44.5472 95.9584 43.8391C96.0199 42.8694 96.9743 42.2999 97.6207 41.792C98.4211 41.1455 99.3446 40.653 99.9295 39.7294C100.453 39.6679 100.638 39.8988 100.838 40.1296Z" fill="#23C8AC"/>
<path fill-rule="evenodd" clip-rule="evenodd" d="M68.9146 41.1456C70.3768 40.4375 72.9319 41.4226 73.1474 42.5616C73.3475 43.5929 72.7626 44.1316 72.1161 44.224C72.2701 44.2086 69.0069 43.6083 68.6529 43.3312C68.0834 42.8849 67.9295 41.6227 68.9146 41.1456Z" fill="#23C8AC"/>
<path fill-rule="evenodd" clip-rule="evenodd" d="M97.3898 46.4096C97.2667 46.2403 97.0512 46.148 96.8819 46.0248C97.7592 43.6544 100.545 43.1773 101.761 41.1455C103.962 41.9767 101.161 43.362 100.099 44.2239C98.9136 45.1475 98.2518 46.1941 97.3898 46.4096Z" fill="#23C8AC"/>
<path fill-rule="evenodd" clip-rule="evenodd" d="M101.992 44.1008C102.038 46.1633 100.761 46.8868 99.2983 47.4409C99.2676 47.1792 98.9597 47.1946 98.9135 46.9329C99.56 45.7785 100.822 45.2552 101.222 43.8545C101.623 43.7776 101.73 44.0238 101.992 44.1008Z" fill="#23C8AC"/>
<path fill-rule="evenodd" clip-rule="evenodd" d="M83.2754 44.2239C83.8911 44.0854 88.5087 45.3783 88.401 46.7944C88.247 48.9493 82.3057 47.5024 82.2441 45.5168C82.2287 44.6241 82.5828 44.3932 83.2754 44.2239Z" fill="#23C8AC"/>
<path fill-rule="evenodd" clip-rule="evenodd" d="M52.876 44.6087C52.0757 47.21 50.4903 49.4572 49.4128 51.9199C48.3354 54.3673 47.0117 56.7992 46.3344 59.4928C46.1497 60.2009 46.4114 61.4938 45.5648 61.9248C44.5797 61.6631 44.903 60.7396 44.9184 60.2624C45.0415 57.6766 46.8424 54.8136 47.9968 52.1816C49.3359 49.1032 50.6134 46.3172 52.1064 44.3624C52.5528 44.2547 52.6452 44.501 52.876 44.6087Z" fill="#23C8AC"/>
<path fill-rule="evenodd" clip-rule="evenodd" d="M54.0305 48.4568C55.2003 49.5804 53.7996 51.2427 53.2609 52.4279C51.7832 55.7372 50.5057 59.0003 49.536 63.2023C49.4128 63.7103 49.4128 64.9262 48.5047 64.7415C47.7659 63.3563 48.5201 61.6632 48.8895 60.3856C49.6899 57.5535 50.752 55.1523 51.8448 52.5664C52.4143 51.1966 53.0762 49.919 53.5071 48.7184C53.5995 48.5491 53.7996 48.4722 54.0305 48.4568Z" fill="#23C8AC"/>
<path fill-rule="evenodd" clip-rule="evenodd" d="M101.992 56.6761C101.746 58.9541 98.7443 56.907 98.144 56.5529C96.9434 55.8141 96.0199 55.6602 95.9583 54.7521C95.9121 54.1518 96.497 53.4438 96.9896 53.3514C98.0055 53.1359 98.8212 54.198 100.068 54.8906C100.838 55.2908 102.146 55.3524 101.992 56.6761Z" fill="#23C8AC"/>
<path fill-rule="evenodd" clip-rule="evenodd" d="M54.6769 54.4904C55.4618 55.4293 54.5075 57.4303 53.9073 58.2153C52.445 57.8305 53.5378 54.6905 54.6769 54.4904Z" fill="#23C8AC"/>
<path fill-rule="evenodd" clip-rule="evenodd" d="M37.6225 63.7257C38.6845 63.4948 38.469 65.9884 38.3921 67.1889C38.2074 70.0672 37.8841 72.8532 37.8841 76.1625C37.8841 77.3169 38.2228 78.5175 37.6225 79.2409C36.191 79.01 36.7297 77.0091 36.7297 75.7777C36.7297 73.0071 37.0068 70.0519 37.1145 67.5737C37.1761 66.2962 36.976 65.1572 37.2377 64.1105C37.2992 63.9258 37.4378 63.7873 37.6225 63.7257Z" fill="#23C8AC"/>
<path fill-rule="evenodd" clip-rule="evenodd" d="M39.7927 64.7569C40.6546 65.4957 40.3776 67.0657 40.3006 68.3433C40.1621 70.452 39.885 74.0229 40.0389 76.5472C40.1005 77.4707 40.6084 78.4404 39.9158 79.1177C38.392 78.6867 38.8845 76.3933 38.8845 74.7617C38.8845 71.6064 38.9769 67.9892 39.1462 65.1417C39.2232 64.957 39.3463 64.8339 39.531 64.7569C39.6233 64.7569 39.7157 64.7569 39.7927 64.7569Z" fill="#23C8AC"/>
<path fill-rule="evenodd" clip-rule="evenodd" d="M44.164 66.9272C44.5796 68.7743 44.4719 72.022 44.4257 74.5001C44.4103 75.2082 44.7335 76.378 43.7792 76.4241C42.8711 75.5622 43.2713 73.5766 43.2713 71.9296C43.2713 70.2365 43.1636 68.3895 43.3944 67.0503C43.7177 66.8964 43.7792 66.7733 44.164 66.9272Z" fill="#23C8AC"/>
<path fill-rule="evenodd" clip-rule="evenodd" d="M10.9327 68.5896C11.3175 69.2053 10.4247 69.6209 10.2862 70.3905C10.1169 71.314 10.7172 72.2837 10.2862 72.961C10.1323 72.9456 10.0553 72.9918 10.0245 73.0841C8.23906 72.53 9.03944 67.5891 10.9327 68.5896Z" fill="#23C8AC"/>
<path fill-rule="evenodd" clip-rule="evenodd" d="M98.4056 70.7753C99.1598 73.4381 99.4984 76.9167 100.068 80.0105C100.237 80.9032 100.699 82.2577 99.8063 82.8272C98.8674 82.4886 98.9289 81.1495 98.7904 80.2567C98.3132 77.5477 97.9592 74.0537 97.3743 71.2832C97.6206 71.0215 97.7591 70.6367 98.4056 70.7753Z" fill="#23C8AC"/>
<path fill-rule="evenodd" clip-rule="evenodd" d="M100.714 71.9297C101.546 71.8681 101.253 73.0225 101.361 73.8537C101.499 75.0081 102.192 77.0552 100.591 76.809C100.453 75.5314 99.3599 72.6685 100.714 71.9297Z" fill="#23C8AC"/>
<path fill-rule="evenodd" clip-rule="evenodd" d="M93.6649 72.1913C94.5114 72.6684 94.7115 73.9306 95.0809 74.8849C96.143 77.6555 96.6971 81.6112 97.3897 84.8897C97.5283 85.5362 98.2979 87.4602 97.0049 87.3371C96.1738 87.2447 96.0968 84.6742 95.9737 83.8739C95.5735 81.2418 94.9886 78.7791 94.3113 76.5626C93.8342 75.0234 93.2647 74.2076 93.1569 72.5915C93.2185 72.4068 93.357 72.2836 93.5417 72.2067C93.5725 72.1913 93.6187 72.1913 93.6649 72.1913Z" fill="#23C8AC"/>
<path fill-rule="evenodd" clip-rule="evenodd" d="M110.073 72.9609C110.796 74.3154 110.304 76.1009 110.073 77.7017C109.627 80.7647 108.626 84.8744 107.379 87.1986C107.041 87.845 106.363 88.9071 105.455 88.6146C105.009 87.6296 106.133 86.9523 106.487 86.1827C108.01 82.8272 108.826 77.871 109.303 73.238C109.58 73.1302 109.673 72.8994 110.073 72.9609Z" fill="#23C8AC"/>
<path fill-rule="evenodd" clip-rule="evenodd" d="M94.2961 87.4448C94.2037 88.2452 94.6193 89.5535 93.7881 89.6305C92.7722 89.1841 92.7261 87.6295 92.5106 86.5521C91.6794 82.4116 91.8179 76.4395 89.4322 73.592C89.5553 73.592 89.5399 73.4381 89.5553 73.3457C91.4177 72.7146 92.4336 76.5934 92.7568 78.8561C93.2802 82.3808 93.1878 85.3207 94.2961 87.4448Z" fill="#23C8AC"/>
<path fill-rule="evenodd" clip-rule="evenodd" d="M85.969 73.5919C86.1383 73.6073 86.4461 73.161 86.4769 73.4688C87.1388 73.8074 87.8468 76.3163 88.2778 77.5785C89.4476 81.1033 90.0786 85.3207 90.5866 89.6305C90.6328 90.0307 90.9868 91.6776 90.0786 91.6776C89.1859 91.6776 89.5091 90.3231 89.4322 89.7536C89.0936 87.3216 88.6164 84.1355 88.0161 81.1648C87.4466 78.3019 86.0151 76.0393 85.969 73.5919Z" fill="#23C8AC"/>
<path fill-rule="evenodd" clip-rule="evenodd" d="M82.244 73.5919C84.5528 78.1942 86.3537 84.2894 86.9848 90.908C87.0463 91.5853 87.4927 92.9552 86.3383 93.0937C85.4917 92.9706 85.9073 91.9701 85.8304 91.2928C85.4609 88.0913 84.9992 84.9667 84.168 82.0576C83.3522 79.2408 82.0747 76.7011 81.4744 73.9767C81.7976 73.9152 81.7515 73.4842 82.244 73.5919Z" fill="#23C8AC"/>
<path fill-rule="evenodd" clip-rule="evenodd" d="M82.244 95.0178C81.028 94.8792 81.536 93.6325 81.4744 92.9706C81.182 89.8614 80.5817 86.5983 79.9352 83.4737C79.2887 80.3645 78.1343 77.5632 77.6264 74.7618C77.7034 74.5771 77.8265 74.454 78.0112 74.377C79.1502 74.3001 79.3811 77.0399 79.7967 78.3482C81.0742 82.3193 82.2748 87.8297 82.6288 92.201C82.6904 92.9706 82.8289 94.5714 82.244 95.0178Z" fill="#23C8AC"/>
<path fill-rule="evenodd" clip-rule="evenodd" d="M74.548 77.7017C75.6562 76.224 76.2411 79.1177 76.5951 80.3953C77.7187 84.428 78.7962 89.7383 78.5191 94.125C78.5191 94.0634 78.8885 95.5872 77.8727 95.4025C77.1185 95.264 77.3801 93.2938 77.3647 92.9706C77.2108 90.5079 76.8414 87.6449 76.3335 84.8898C75.8409 82.0576 75.0251 79.4102 74.548 77.7017Z" fill="#23C8AC"/>
<path fill-rule="evenodd" clip-rule="evenodd" d="M71.7312 79.2409C72.7009 79.3332 73.7783 82.0576 74.3016 83.8585C75.3329 87.4448 75.179 90.9388 75.456 94.6329C75.5638 96.0028 75.7485 97.973 74.8096 97.973C73.7475 97.973 74.2247 95.7258 74.1631 94.6329C73.9938 90.985 73.6244 84.7666 72.2391 81.8114C72.0082 81.288 70.7615 80.1644 71.7312 79.2409Z" fill="#23C8AC"/>
<path fill-rule="evenodd" clip-rule="evenodd" d="M69.684 79.8873C71.7774 84.0586 72.2545 90.8157 72.2545 97.465C72.2545 98.404 72.6547 99.82 71.7466 100.42C70.6845 100.251 71.1001 98.8195 71.1001 98.1115C71.1001 91.7854 70.4075 85.136 68.9144 80.2875C69.1761 80.2413 69.1607 79.9335 69.4224 79.9027C69.4993 79.8873 69.5917 79.8873 69.684 79.8873Z" fill="#23C8AC"/>
<path fill-rule="evenodd" clip-rule="evenodd" d="M67.8832 101.682C66.4517 100.897 67.2367 98.4193 67.2367 96.9417C67.2675 93.5093 66.8673 89.7998 66.2054 86.4289C65.8514 84.6127 65.128 82.9195 65.051 81.565C65.128 81.3803 65.2511 81.2418 65.4358 81.1802C65.482 81.1956 65.5282 81.1648 65.559 81.1802C66.6518 81.5035 67.3598 85.2591 67.6061 86.9523C68.1448 90.7079 68.3757 93.8171 68.3757 98.1115C68.3911 99.389 68.7759 100.959 67.8832 101.682Z" fill="#23C8AC"/>
<path fill-rule="evenodd" clip-rule="evenodd" d="M63.5273 100.405C62.5114 99.8816 62.6807 98.3116 62.6345 97.3265C62.419 93.4785 62.4652 88.7993 61.4801 85.7825C61.1107 84.6435 60.1256 83.7815 61.0953 83.0889C62.0189 83.0581 62.8654 85.7209 63.1425 87.1986C63.6966 90.1538 63.5734 92.8013 63.7889 96.3107C63.8659 97.7575 64.6047 99.543 63.5273 100.405Z" fill="#23C8AC"/>
<path fill-rule="evenodd" clip-rule="evenodd" d="M3.37513 84.2433C4.31404 84.6897 3.8215 86.4751 3.88307 87.3217C4.05238 89.3842 4.85277 91.6777 5.42227 93.8633C6.88452 99.5122 8.30059 103.884 10.9326 108.347C11.3482 109.055 12.4872 109.794 11.9639 110.795C10.9172 111.01 10.3477 109.702 9.91675 108.994C7.39245 104.884 5.66855 100.066 4.26787 94.4944C3.4213 91.1081 2.49778 88.7994 2.72866 84.6281C2.80562 84.4434 2.92876 84.3049 3.11346 84.2433C3.20582 84.2433 3.28277 84.2433 3.37513 84.2433Z" fill="#23C8AC"/>
<path fill-rule="evenodd" clip-rule="evenodd" d="M59.5561 87.06C59.3714 89.0302 60.4951 92.3395 59.433 93.6016C58.0785 93.3862 58.4633 88.0451 58.7865 86.9369C59.1713 86.8446 59.2483 87.06 59.5561 87.06Z" fill="#23C8AC"/>
<path fill-rule="evenodd" clip-rule="evenodd" d="M5.176 104.761C4.05238 104.545 3.86767 103.083 3.51366 102.19C2.35925 99.3274 1.00477 96.1721 0.69693 92.4472C0.743106 92.2779 0.927808 92.2471 0.958592 92.0624C2.08221 91.7392 2.26692 94.1557 2.4978 95.2639C3.03652 97.8806 3.79073 99.5891 4.68347 101.806C5.03748 102.76 5.99178 103.914 5.176 104.761Z" fill="#23C8AC"/>
<path fill-rule="evenodd" clip-rule="evenodd" d="M23.1232 95.1409C22.1689 96.5415 21.5532 98.2655 20.0448 99.112C20.0448 98.9889 19.8909 99.0197 19.7831 98.9735C19.583 97.1264 21.3377 96.1875 21.9688 94.7407C22.5075 94.7253 23.0462 94.7099 23.1232 95.1409Z" fill="#23C8AC"/>
<path fill-rule="evenodd" clip-rule="evenodd" d="M25.5551 98.2192C25.3397 99.5891 23.8466 100.313 23.1232 101.421C22.5075 102.36 22.3998 103.96 21.1992 104.114C20.3372 103.314 21.5994 101.498 22.0919 100.774C22.8923 99.6353 23.9851 98.8195 24.6624 97.819C25.1703 97.7575 25.355 98.0037 25.5551 98.2192Z" fill="#23C8AC"/>
<path fill-rule="evenodd" clip-rule="evenodd" d="M27.7408 99.3736C26.8788 101.759 25.1241 103.73 23.8928 105.792C23.508 106.423 23.5234 107.685 22.3536 107.593C21.861 106.038 23.2771 104.638 24.0159 103.36C24.8779 101.883 25.8784 100.559 26.7095 99.1274C27.2021 99.0504 27.5407 99.1582 27.7408 99.3736Z" fill="#23C8AC"/>
<path fill-rule="evenodd" clip-rule="evenodd" d="M31.3271 100.528C31.2501 101.636 30.2496 102.267 29.6647 103.099C28.5411 104.638 27.4329 106.269 26.4632 108.101C26.0476 108.871 25.8013 110.302 24.5392 110.287C24.0312 109.409 24.9086 108.347 25.3088 107.593C26.6325 105.115 28.695 102.375 30.4343 100.282C30.8961 100.189 31.1116 100.359 31.3271 100.528Z" fill="#23C8AC"/>
<path fill-rule="evenodd" clip-rule="evenodd" d="M101.099 100.282C101.931 100.821 101.669 102.498 101.607 103.36C101.269 108.009 99.437 112.842 97.6362 116.705C97.0974 117.875 96.5433 120.014 94.8194 119.137C94.6501 118.291 95.512 118.198 95.8507 117.721C97.0359 116.089 97.6515 113.519 98.5443 111.179C99.4216 108.871 100.145 106.192 100.345 103.745C100.422 102.775 100.191 101.682 100.468 100.667C100.545 100.482 100.668 100.343 100.853 100.282C100.93 100.282 101.007 100.282 101.099 100.282Z" fill="#23C8AC"/>
<path fill-rule="evenodd" clip-rule="evenodd" d="M34.4056 101.559C33.7745 103.607 32.066 105.546 30.8192 107.578C30.219 108.563 29.5571 109.656 28.8952 110.656C28.3565 111.456 27.7254 113.103 26.4633 112.842C26.217 111.687 27.2945 110.887 27.8794 110.025C29.6956 107.301 31.5735 103.868 33.5129 101.298C33.8823 101.313 34.3902 101.19 34.4056 101.559Z" fill="#23C8AC"/>
<path fill-rule="evenodd" clip-rule="evenodd" d="M36.7142 104.376C35.2674 106.977 33.9437 109.702 32.2198 112.195C31.7426 112.903 31.2193 114.073 30.1726 114.119C29.5569 113.196 30.5574 112.303 31.0654 111.549C31.5733 110.81 32.0966 109.963 32.6046 109.117C33.6358 107.362 34.7748 104.946 35.9446 103.853C36.4834 103.76 36.4526 104.207 36.7142 104.376Z" fill="#23C8AC"/>
<path fill-rule="evenodd" clip-rule="evenodd" d="M39.7926 105.915C38.392 109.178 36.7912 112.241 34.7902 114.889C34.6517 115.52 34.467 116.105 33.759 116.166C32.7123 115.443 33.7744 114.319 34.2669 113.596C35.8061 111.38 37.3453 107.762 38.8845 105.777C38.9153 105.638 39.1462 105.684 39.1462 105.515C39.4232 105.607 39.5772 105.792 39.7926 105.915Z" fill="#23C8AC"/>
<path fill-rule="evenodd" clip-rule="evenodd" d="M105.209 105.792C105.578 106.7 104.917 107.424 104.701 108.347C104.332 109.917 104.209 111.795 103.67 113.35C103.193 114.75 102.731 116.644 101.238 116.936C100.992 115.335 102.3 113.842 102.777 111.81C103.285 109.686 103.547 107.208 104.439 105.654C104.824 105.561 104.901 105.792 105.209 105.792Z" fill="#23C8AC"/>
<path fill-rule="evenodd" clip-rule="evenodd" d="M37.2376 116.305C37.2376 116.182 37.0837 116.197 36.976 116.182C36.2987 115.227 37.4531 114.673 37.8687 113.996C39.0231 112.18 39.962 109.717 41.4551 108.224C41.4858 108.086 41.7013 108.132 41.7167 107.962C43.5176 108.286 41.7475 109.594 41.1934 110.394C40.0698 112.087 38.8846 115.689 37.2376 116.305Z" fill="#23C8AC"/>
<path fill-rule="evenodd" clip-rule="evenodd" d="M45.5647 109.502C45.1337 111.056 44.3949 112.703 43.5175 114.242C43.0558 115.043 42.7172 116.32 41.5935 116.428C40.8701 115.012 42.7479 113.519 43.379 112.072C43.8408 111.01 43.7638 109.948 44.6566 109.255C45.1337 109.163 45.3492 109.332 45.5647 109.502Z" fill="#23C8AC"/>
<path fill-rule="evenodd" clip-rule="evenodd" d="M106.748 109.902C106.471 110.441 106.348 111.118 106.225 111.826C105.917 111.826 105.855 112.041 105.455 111.964C104.547 110.902 105.825 108.363 106.748 109.902Z" fill="#23C8AC"/>
<path fill-rule="evenodd" clip-rule="evenodd" d="M48.2584 111.179C48.3969 112.103 47.5504 112.503 47.104 113.227C46.4421 114.319 46.3652 116.428 44.7952 116.182C44.8875 114.165 46.2728 112.365 47.3657 110.918C47.8274 110.825 48.0429 111.01 48.2584 111.179Z" fill="#23C8AC"/>
<path fill-rule="evenodd" clip-rule="evenodd" d="M50.3208 112.457C50.721 113.596 49.8437 114.412 49.2895 115.027C49.0279 115.658 49.151 116.413 48.3968 116.305C46.8268 116.074 49.3511 112.811 49.6743 112.334C50.0284 112.226 49.9976 112.503 50.3208 112.457Z" fill="#23C8AC"/>
<path fill-rule="evenodd" clip-rule="evenodd" d="M86.4768 114.119C86.8769 114.997 87.8312 117.352 86.7384 118.09C85.938 117.69 84.7528 114.212 86.4768 114.119Z" fill="#23C8AC"/>
<path fill-rule="evenodd" clip-rule="evenodd" d="M82.6288 116.043C83.1829 117.767 84.5528 119.968 84.2911 121.692C83.4753 122.077 82.6903 120.215 82.244 118.875C81.9207 117.937 81.1357 115.812 82.6288 116.043Z" fill="#23C8AC"/>
<path fill-rule="evenodd" clip-rule="evenodd" d="M20.5527 131.435C19.1366 131.374 19.7215 129.465 19.6599 128.619C19.4752 126.125 18.5055 123.431 17.9976 121.431C18.1207 121.338 18.1977 121.2 18.2593 121.046C19.4906 120.753 19.86 123.093 20.1833 124.509C20.6912 126.787 21.3992 129.25 20.5527 131.435Z" fill="#23C8AC"/>
<path fill-rule="evenodd" clip-rule="evenodd" d="M89.6784 124.386C88.0622 127.279 86.6615 131.204 86.9848 135.807C87.0309 136.484 87.3542 136.653 87.1079 137.346C85.1069 137.715 85.5687 134.575 85.6918 132.728C85.8457 130.573 86.6923 127.495 87.231 126.187C87.5543 125.417 88.4008 124.355 88.8934 124.001C89.3089 123.986 89.4167 124.263 89.6784 124.386Z" fill="#23C8AC"/>
<path fill-rule="evenodd" clip-rule="evenodd" d="M71.4695 129.511C71.3926 130.897 69.5763 131.374 68.6528 132.082C68.0833 132.513 67.3752 133.59 66.6056 132.851C67.1751 130.804 69.3454 130.389 70.8384 129.265C71.0078 129.388 71.3002 129.388 71.4695 129.511Z" fill="#23C8AC"/>
<path fill-rule="evenodd" clip-rule="evenodd" d="M77.3801 129.773C76.3642 131.374 74.5018 132.066 73.0242 133.113C71.5619 134.144 70.5307 135.776 68.7914 136.438C67.8986 135.637 69.053 134.76 69.6841 134.252C71.762 132.59 74.3325 130.62 76.6105 129.25C76.9799 129.311 77.2416 129.481 77.3801 129.773Z" fill="#23C8AC"/>
<path fill-rule="evenodd" clip-rule="evenodd" d="M79.5503 132.851C78.6576 134.498 76.9645 135.668 75.4406 136.961C74.825 137.484 74.0092 138.623 73.1318 137.854C73.3011 136.561 75.2713 135.745 76.4719 134.652C77.2877 133.898 78.2112 131.666 79.5503 132.851Z" fill="#23C8AC"/>
</svg>
