<svg width="72" height="100" viewBox="0 0 72 100" fill="none" xmlns="http://www.w3.org/2000/svg">
<path fill-rule="evenodd" clip-rule="evenodd" d="M66.6841 21.6833C68.425 22.8282 68.8485 26.4826 66.59 27.3922C66.6371 29.933 65.2726 31.0622 63.4376 31.721C63.6258 32.8502 62.4024 33.603 61.2732 33.7912C59.0931 34.152 57.0386 33.258 54.7801 32.709C53.8077 32.4738 52.8196 32.1915 51.9256 31.8151C50.2788 31.1407 48.9457 30.7642 47.691 29.9487C45.9187 31.2661 43.9269 31.9248 41.1979 32.1131C38.3277 32.3013 35.5674 31.2818 33.2305 31.0309C30.3603 30.7172 27.5843 31.0309 24.573 30.827C22.0479 30.6545 19.5071 30.1683 17.1859 29.4468C16.4174 29.2115 15.743 28.8351 15.0215 28.7567C11.9318 28.396 6.34835 28.2862 3.50957 29.2429C3.3841 29.29 1.98824 30.0742 1.7373 28.8508C1.48636 27.5804 3.7762 26.859 5.18774 26.6864C8.37157 26.2943 12.716 26.4982 15.3195 26.7806C16.6997 26.9374 18.2838 27.5961 19.9462 27.9568C21.5146 28.3019 23.1771 28.7253 24.871 28.8351C27.5059 29.0233 30.3446 28.7567 32.7443 28.9292C35.3792 29.1174 37.8729 30.231 40.5235 30.1055C42.3898 30.0271 44.7267 29.6664 45.7462 28.8194C46.6088 28.098 46.7813 26.6237 47.4244 25.667C45.4168 24.9926 43.0956 24.0045 40.3352 23.8006C37.8415 23.6124 35.2694 24.3025 32.462 24.0986C30.0623 23.9261 27.349 23.5026 25.8747 22.7184C24.9494 22.2322 23.7261 21.2128 23.4124 20.162C23.1614 19.2994 23.1771 17.433 23.5065 16.5233C24.0554 15.0333 26.455 13.7473 27.647 13.3709C28.6194 13.0572 29.8271 13.0885 30.9877 12.8847C33.7951 12.3828 37.8415 11.8338 40.9312 11.5986C47.8008 11.0967 50.5298 15.0804 54.5135 17.6055C56.8817 19.1111 59.3441 21.4794 63.5631 20.9462C64.3316 20.8521 64.5982 20.7423 65.3353 20.162C65.1942 18.9386 63.9238 18.6249 63.171 18.0917C62.3083 17.4957 61.5712 16.8527 60.8027 16.2253C59.297 15.002 57.7443 13.7786 56.27 12.3828C54.1527 10.3752 52.0197 8.27361 49.6828 6.28176C48.0517 4.8859 46.8127 4.05465 44.4601 3.1293C42.5467 2.37648 41.1822 1.84322 38.265 2.04711C35.5831 2.21964 32.8541 2.98814 30.2976 3.72528C27.8666 4.41537 25.467 5.26231 23.0203 5.98376C19.3032 7.08163 15.5391 8.16381 11.9004 9.32442C9.42238 10.1243 7.39917 10.5321 4.71724 11.4888C3.7762 11.8182 1.36089 13.6375 0.968795 12.0848C0.639434 10.736 3.21158 9.8263 4.51334 9.43421C9.24986 7.99129 14.0491 6.29744 18.5974 5.10547C25.3258 3.3332 31.0347 0.980611 38.1866 0.0866313C41.041 -0.274097 43.1897 0.557146 45.2757 1.37271C46.452 1.82754 47.6439 2.20396 48.5222 2.75289C49.3221 3.23909 50.0122 4.07033 50.7807 4.72905C54.5135 7.86582 58.011 11.1908 61.7123 14.4687C63.1866 15.7862 64.9275 16.8527 66.6371 17.8094C67.1233 18.9386 68.1114 20.507 66.6841 21.6833ZM40.696 15.5666C42.3742 15.7862 43.127 16.6958 44.3346 17.3389C48.3654 19.4405 51.1414 22.3891 55.6584 24.0359C57.415 24.6789 59.4225 25.4631 61.2732 25.7141C62.9357 25.9336 66.0881 26.1846 66.1979 24.726C66.2607 23.8477 64.8648 22.8125 64.5198 22.7498C63.9865 22.6714 63.5474 23.0164 63.0455 23.0478C59.7676 23.236 57.8071 22.0754 55.6584 20.7893C54.2782 19.9581 52.7569 19.0955 51.6276 18.2328C48.8202 16.0842 46.4049 13.3552 41.6841 13.6061C41.3861 14.2492 40.6646 14.9392 40.696 15.5666ZM37.4494 14.0923C37.2455 17.2291 36.0222 19.3621 35.285 21.9656C35.7399 21.9186 37.324 22.1852 37.3553 21.3696C37.3083 21.3069 36.5084 21.699 36.477 21.1657C37.2299 18.9543 37.4965 16.2724 38.2493 14.0766C37.8415 14.0139 37.9043 14.0766 37.4494 14.0923ZM34.8929 14.2962C33.9205 16.7743 33.2932 19.5817 32.3365 22.0754C32.9639 22.2479 33.4344 22.0127 34.2029 22.0754C34.8145 19.3307 36.1477 17.3389 36.3672 14.2021C35.7712 14.1237 35.4105 14.2962 34.8929 14.2962ZM31.4425 14.7824C31.3014 17.5898 30.2505 19.4876 29.4663 21.6676C30.0467 21.7774 30.6113 21.9029 31.2386 21.9656C32.1012 19.5346 32.9168 17.0722 33.6069 14.4844C32.7913 14.5001 32.1953 14.7197 31.4425 14.7824ZM30.3603 15.0804C30.0466 14.9079 29.4507 15.2843 28.8861 15.1745C28.8861 15.5352 29.3095 15.4725 29.184 15.9587C29.1056 17.135 28.2744 18.4054 27.898 19.4091C27.7725 19.7385 27.8509 20.9618 27.1138 20.8834C25.8591 20.7579 27.2079 18.7818 27.5059 18.029C27.898 17.0095 27.9764 16.0999 28.2901 15.3627C27.1608 15.7862 26.1884 16.3351 25.4356 17.135C25.7493 18.0446 25.0592 18.7347 25.2317 19.5032C25.467 20.46 27.3961 21.3382 28.4783 21.4794C29.0742 19.315 30.1878 17.6682 30.3603 15.0804ZM57.8228 26.8903C56.866 26.6237 55.925 26.2002 55.0624 25.9023C49.3221 23.9261 45.8873 19.8953 40.696 17.6369C40.6803 17.5584 40.6176 17.5271 40.4921 17.5428C40.3666 18.1074 40.2725 18.7034 40.1941 19.315C41.1822 19.566 42.1075 20.3972 43.2524 20.9932C44.2562 21.5265 45.5266 21.997 46.2951 22.6714C46.5461 22.891 46.6872 23.2987 46.9852 23.4556C48.0047 24.0359 49.824 23.8006 49.6358 25.4317C52.8823 26.5923 57.1483 29.5409 61.4457 29.8546C63.3905 29.9957 64.2218 29.3684 64.5982 27.8784C61.8221 27.9098 59.846 27.455 57.8228 26.8903ZM39.4256 21.8715C39.8177 21.8088 40.4764 21.997 40.7117 21.7774C40.398 21.5421 39.9902 21.3853 39.6295 21.1814C39.5354 21.401 39.4099 21.5735 39.4256 21.8715ZM48.8673 27.2824C48.6947 27.5491 48.632 27.9098 48.4752 28.1607C50.42 28.8822 52.5059 30.0585 54.6703 30.7172C56.3328 31.2191 58.1364 31.6896 59.893 31.5955C55.5956 30.7956 52.5843 28.694 48.8673 27.2824Z" fill="#23C8AC"/>
<path fill-rule="evenodd" clip-rule="evenodd" d="M41.8878 4.94878C41.2134 4.80763 41.1036 4.30575 40.3194 4.16459C38.9706 3.92933 37.2297 4.80763 36.2887 4.16459C36.2416 3.11377 39.1275 2.94126 40.2253 3.08241C41.3859 3.22357 42.9386 3.94502 41.8878 4.94878Z" fill="#23C8AC"/>
<path fill-rule="evenodd" clip-rule="evenodd" d="M49.5573 12.3202C48.7261 12.8534 48.1614 11.7712 47.3929 11.4419C45.8246 10.7675 43.5504 10.987 41.2919 10.6577C40.79 9.41866 43.5975 9.62254 45.0247 9.76369C47.0322 9.98327 49.6514 11.0184 49.5573 12.3202Z" fill="#23C8AC"/>
<path fill-rule="evenodd" clip-rule="evenodd" d="M35.4889 10.9556C35.3948 10.8301 35.3321 10.6576 35.1909 10.5635C35.4262 9.02644 37.1671 11.034 35.4889 10.9556Z" fill="#23C8AC"/>
<path fill-rule="evenodd" clip-rule="evenodd" d="M33.6067 11.144C33.1048 12.0379 31.8658 11.8497 30.9561 12.0222C29.1368 12.383 27.2391 13.026 25.5452 13.7004C24.7767 13.9984 23.9298 14.861 23.0828 14.3905C22.9417 13.4495 24.1337 13.2142 24.8551 12.9162C25.6236 12.6025 26.4392 12.2889 27.2234 12.0222C29.0113 11.4419 31.16 10.6264 32.6343 10.6421C33.0735 10.6578 33.5126 10.5636 33.6067 11.144Z" fill="#23C8AC"/>
<path fill-rule="evenodd" clip-rule="evenodd" d="M40.9938 25.6199C40.9625 26.5766 40.837 27.4549 41.5898 27.9881C40.0999 30.0898 38.8295 24.7729 40.9938 25.6199Z" fill="#23C8AC"/>
<path fill-rule="evenodd" clip-rule="evenodd" d="M12.3551 30.0429C12.0885 30.5134 11.618 30.2468 11.1788 30.3409C9.97118 30.5919 8.54395 31.4231 7.54018 30.733C7.30492 29.9331 8.41848 29.9959 9.10857 29.8547C10.1594 29.6038 12.0571 28.5373 12.3551 30.0429Z" fill="#23C8AC"/>
<path fill-rule="evenodd" clip-rule="evenodd" d="M39.2215 41.0685C40.0057 40.7548 40.3508 40.049 41.0879 39.5942C42.5622 38.6688 44.3658 37.1789 46.0127 36.9436C47.0948 36.7868 48.7573 36.6456 50.1532 36.9436C51.3765 37.1945 52.7253 38.6845 53.2115 39.5001C53.98 40.8018 54.6858 43.123 54.3878 45.209C54.0741 47.5459 52.2391 50.0082 50.8433 51.5139C49.6199 52.8313 47.9261 54.039 46.4204 55.2623C44.8677 56.5014 43.2837 57.5208 41.6996 58.603C41.1507 58.9794 40.7115 59.6381 40.2253 59.6852C39.645 59.7322 38.2021 58.6814 37.2767 58.2109C35.2065 57.1444 33.4342 56.5014 31.3639 55.4505C28.7761 54.1331 25.8432 52.1883 24.5728 49.7416C24.0709 48.8006 23.522 47.2008 23.3965 46.1971C22.8947 42.1036 24.6669 39.7667 27.0352 38.3238C28.5722 37.3828 30.0308 36.2378 33.0421 36.6456C35.379 36.9593 37.9668 39.2805 39.2215 41.0685ZM44.0522 40.1902C43.315 40.6764 42.421 41.0371 41.9819 41.3664C41.3232 41.8526 40.288 43.672 39.6136 43.7347C38.4217 43.8445 37.81 42.2918 37.2454 41.5703C36.5082 40.6136 34.2184 38.8884 32.8069 38.6218C32.2736 38.512 31.2228 38.4806 30.4386 38.6218C29.7014 38.7629 27.0352 40.5195 26.596 40.99C24.8394 42.8407 25.0747 46.4794 26.4078 48.9574C27.5214 51.0434 29.8897 52.4863 32.0227 53.5842C33.8577 54.5252 35.3319 55.0114 37.2454 55.9367C37.9198 56.2661 39.4725 57.2071 39.8018 57.2228C40.3821 57.2542 41.6996 56.3132 42.4524 55.7485C44.3972 54.3056 45.4323 53.4116 47.1732 52.0158C49.1965 50.4003 52.1137 47.7341 52.396 44.6287C52.6312 41.8526 51.4393 40.1274 49.6356 38.9198C46.5929 38.6688 45.7774 39.0609 44.0522 40.1902Z" fill="#23C8AC"/>
<path fill-rule="evenodd" clip-rule="evenodd" d="M28.7918 48.5497C27.0196 48.4556 27.1764 45.9305 27.5058 43.9229C27.741 42.5271 28.6193 41.0371 29.6702 40.4725C30.1564 40.2058 31.8502 39.6255 31.9286 40.4725C31.9913 41.1939 30.9405 41.0842 30.3602 41.3508C28.9644 42.0095 28.0547 44.4248 28.3841 46.6676C28.5095 47.4204 29.0585 47.4361 28.7918 48.5497Z" fill="#23C8AC"/>
<path fill-rule="evenodd" clip-rule="evenodd" d="M46.4989 40.7706C46.3734 42.041 45.2756 42.982 44.5384 43.923C43.864 44.7543 43.2524 46.3697 41.8722 45.8992C41.6997 45.068 42.5466 44.8484 42.9544 44.4249C44.0209 43.3114 44.758 41.8841 45.7147 40.5824C45.8559 40.5824 45.997 40.5981 46.0127 40.4883C46.2166 40.5353 46.3264 40.6765 46.4989 40.7706Z" fill="#23C8AC"/>
<path fill-rule="evenodd" clip-rule="evenodd" d="M48.1772 41.3667C48.3184 42.3077 47.4871 43.1389 47.0009 43.9231C45.9815 45.5699 44.8366 46.6678 43.4564 48.0637C42.9074 48.6126 42.2487 49.8673 41.292 49.3497C41.3547 48.4244 42.2173 47.8284 42.7663 47.2795C44.5072 45.5229 46.201 43.7349 47.393 41.2726C47.6126 41.4137 47.7694 41.0216 47.7851 41.2726C47.989 41.2255 48.0517 41.3353 48.1772 41.3667Z" fill="#23C8AC"/>
<path fill-rule="evenodd" clip-rule="evenodd" d="M50.0435 42.6369C50.9845 43.123 50.0748 43.9857 49.7455 44.4091C47.3302 47.5145 44.6326 50.6983 41.6683 53.3646C41.2292 53.7567 40.7743 54.5095 40.0999 54.3527C39.7706 52.9254 41.4487 52.251 42.2643 51.4982C44.9619 48.9888 47.2517 45.5854 49.6514 42.7309C49.7298 42.6368 49.8239 42.5898 49.9494 42.5427C50.0435 42.5271 50.0435 42.5898 50.0435 42.6369Z" fill="#23C8AC"/>
<path fill-rule="evenodd" clip-rule="evenodd" d="M51.6276 45.0051C51.5649 46.5108 50.2004 47.1381 49.3692 48.1576C48.036 49.773 46.7186 51.3257 45.3384 52.9725C44.9934 53.3803 44.5542 54.3841 43.77 53.8665C43.5348 53.098 44.366 52.6432 44.7581 52.1883C46.0285 50.6827 47.2989 49.0516 48.6006 47.4675C49.3692 46.5265 50.3572 45.9148 50.9689 44.8169C51.2826 44.7542 51.4081 44.9267 51.6276 45.0051Z" fill="#23C8AC"/>
<path fill-rule="evenodd" clip-rule="evenodd" d="M30.3603 50.4161C29.9839 50.4632 29.733 50.3848 29.5761 50.2122C29.3409 48.8634 31.1759 49.6163 30.3603 50.4161Z" fill="#23C8AC"/>
<path fill-rule="evenodd" clip-rule="evenodd" d="M24.2592 67.9349C25.9374 66.6802 27.9135 65.9744 30.6582 65.7705C33.544 65.551 36.1476 66.5704 38.7354 66.8527C41.5899 67.1664 44.6011 66.8684 47.3929 67.0409C49.8866 67.2135 52.4744 67.7153 54.78 68.4211C55.5642 68.6721 56.2386 69.0328 56.9444 69.1112C59.2028 69.3778 63.8452 69.519 66.386 69.2053C67.0134 69.1269 67.6878 68.7662 68.4563 68.5152C68.6602 68.4525 70.009 67.9035 70.2286 69.0014C70.4795 70.2718 68.174 70.9933 66.7781 71.1658C63.5943 71.5579 59.2656 71.354 56.6464 71.0717C55.2975 70.9148 53.6978 70.2561 52.0196 69.8954C50.4512 69.5504 48.7574 69.1269 47.0949 69.0171C44.3659 68.8132 41.386 69.0798 39.2216 68.923C36.6494 68.7348 34.0302 67.5899 31.3483 67.7467C29.6074 67.8408 27.3332 68.1702 26.3295 68.923C25.3884 69.6288 25.2159 71.1815 24.5572 72.1695C26.5647 72.844 28.8859 73.832 31.6463 74.0359C34.14 74.2085 36.7122 73.534 39.5196 73.7379C41.9192 73.9105 44.6325 74.3339 46.1225 75.1181C47.0478 75.6043 48.2712 76.6238 48.5849 77.6746C48.8358 78.5372 48.8201 80.3879 48.4908 81.3132C47.9418 82.8032 45.5265 84.0893 44.3502 84.4657C43.3778 84.7794 42.1858 84.748 41.0096 84.9519C38.1708 85.4538 34.093 86.0184 30.9719 86.238C24.2435 86.6928 21.5145 82.7875 17.4838 80.231C15.6017 79.0391 13.8138 77.455 11.3828 76.9845C9.87711 76.6865 7.65 76.7336 6.66191 77.6746C6.81875 78.8195 7.94799 79.2273 8.73218 79.7449C9.57911 80.3095 10.3476 80.9055 11.1004 81.5171C12.6061 82.7405 14.1745 83.9168 15.6331 85.2656C17.0446 86.5673 18.2993 88.073 19.7736 89.3904C20.4637 90.0021 21.2636 90.6295 22.0321 91.2568C23.82 92.7311 24.9493 93.6878 27.5371 94.7072C29.6231 95.5228 30.6739 95.9933 33.7322 95.7894C36.7906 95.5855 39.8489 94.6288 42.6877 93.829C49.5416 91.8685 56.7091 89.5316 63.4531 87.4299C64.8647 86.9908 66.339 86.7555 67.6878 86.2537C68.3308 86.0184 70.6364 84.152 71.0285 85.7675C71.4049 87.2574 68.3151 88.1357 67.3898 88.4337C62.6533 89.8923 57.7756 91.5391 53.1175 92.7624C49.8552 93.6094 46.7028 94.8327 43.566 95.711C39.7235 96.7932 35.8025 98.1891 31.066 97.8754C29.4506 97.7656 28.2115 97.0755 26.7372 96.4952C25.5923 96.0561 24.369 95.664 23.4907 95.115C22.6908 94.6131 22.0007 93.7976 21.2322 93.1545C17.4838 90.0021 14.0176 86.7085 10.3006 83.4149C8.82629 82.1131 7.10106 81.0466 5.37584 80.0742C5.37584 79.3528 4.56028 78.8666 4.49755 78.1137C4.43481 77.3452 4.81122 76.8277 5.28174 76.2474C3.54083 75.1024 3.10168 71.4481 5.37584 70.5384C5.32879 67.9976 6.69329 66.8684 8.5283 66.2097C8.41851 64.4845 10.4731 63.9826 12.7629 64.1394C15.0371 64.2963 18.268 65.4255 20.3382 66.3038C21.8596 66.9155 23.1613 67.0566 24.2592 67.9349ZM23.177 70.4914C23.2241 70.1777 23.3495 69.9424 23.475 69.7072C19.9775 68.3113 16.48 66.3979 12.0572 66.2567C16.3859 66.9939 19.507 69.4406 23.177 70.4914ZM22.2987 72.4675C18.911 71.2599 14.8018 68.3584 10.4888 68.0447C8.51261 67.9035 7.72842 68.5152 7.33632 70.0052C10.128 69.9738 12.1042 70.4286 14.1274 70.9933C21.3106 72.9851 25.4512 77.4707 31.4581 80.3408C31.5836 79.7762 31.6776 79.1802 31.7561 78.5686C30.6582 78.2392 29.7642 77.455 28.6977 76.8904C27.6626 76.3415 26.3295 75.918 25.5453 75.2122C25.2786 74.977 25.2786 74.6006 24.9493 74.428C24.2435 74.0202 23.1927 74.2085 22.5967 73.534C22.4869 73.2047 22.4399 72.7812 22.2987 72.4675ZM27.6155 80.5447C23.6005 78.4431 20.8088 75.5102 16.2918 73.8477C13.6099 72.8596 10.6299 71.6363 7.03832 72.0754C4.56027 72.3734 6.4737 74.9926 7.43042 75.1338C7.96367 75.2122 8.40282 74.8672 8.90471 74.8358C12.2611 74.6476 14.3627 75.918 16.48 77.1884C17.9386 78.0667 19.4913 79.0077 20.7146 79.9487C23.3338 81.972 25.8276 84.5912 30.2661 84.2775C30.6425 83.6815 31.0033 83.0542 31.3483 82.4111C29.6701 82.0974 28.8702 81.2035 27.6155 80.5447ZM38.0453 75.8082C37.0102 78.8822 35.2065 81.1721 33.7165 83.7756C34.6576 83.854 36.0221 83.6345 37.167 83.5874C37.1043 83.2737 37.2297 83.1326 37.2611 82.8973C38.7668 80.8584 40.0371 78.5843 40.8998 75.9023C40.6018 75.9023 40.3038 75.9023 40.0215 75.9023C39.4255 78.4117 37.9041 80.3252 36.571 82.0974C36.226 82.5679 36.1789 83.3678 35.3947 83.3835C34.6576 82.7875 35.4575 81.9563 35.7868 81.5171C37.0729 79.8233 38.3903 77.9726 38.9393 75.8082C38.9393 75.7455 38.9236 75.6984 38.8452 75.7141C38.7511 75.9337 38.2806 75.7612 38.0453 75.8082ZM35.1908 76.1062C35.5516 76.0435 35.4418 76.4512 35.5829 76.5924C35.0654 77.6118 34.438 78.5215 33.7165 79.3528C33.4813 80.1056 33.3402 81.4701 33.4186 82.2072C34.7047 80.2154 36.0534 78.2706 36.8533 75.8082C36.3514 75.965 35.5359 75.7925 35.1908 76.1062ZM32.3364 76.7022C32.4148 76.4826 32.5403 76.3258 32.5403 76.0121C32.1482 76.0748 31.4895 75.8866 31.2542 76.1062C31.5679 76.3571 31.96 76.514 32.3364 76.7022ZM42.076 76.1062C41.0095 78.7254 39.7548 81.125 38.3276 83.3835C38.9236 83.3835 39.3784 83.2424 39.896 83.1796C39.8176 82.7875 39.8176 82.7875 39.896 82.3954C40.8213 80.9996 41.6369 79.4782 42.4525 77.9726C42.5779 77.5021 42.5466 76.8904 43.1426 76.8904C44.3188 77.5648 42.923 79.2273 42.3584 80.231C41.7624 81.2662 41.2134 82.2229 40.9782 82.9914C41.6526 82.8816 42.2643 82.6934 43.0485 82.6934C43.2837 80.7172 44.8521 79.243 44.9148 76.7806C44.0522 76.4983 43.1112 76.263 42.076 76.1062ZM45.0246 80.5447C45.5736 79.886 45.9186 79.0077 46.7028 78.5686C46.5773 78.0667 46.3577 77.6746 45.8245 77.5805C45.95 78.8979 45.056 79.7135 45.0246 80.5447ZM44.6325 81.2348C44.6639 81.6897 44.0052 81.9876 44.2404 82.317C44.9305 81.8465 46.5303 81.2819 46.3107 80.5447C45.997 81.1721 45.2599 81.9876 44.6325 81.2348Z" fill="#23C8AC"/>
<path fill-rule="evenodd" clip-rule="evenodd" d="M68.1583 83.3993C67.1703 84.7795 65.0843 85.0461 63.3277 85.6578C62.3553 84.7168 64.0178 84.4345 65.1941 83.9796C66.3233 83.5562 67.4839 82.5524 68.1583 83.3993Z" fill="#23C8AC"/>
<path fill-rule="evenodd" clip-rule="evenodd" d="M59.2969 86.2536C60.6143 85.8301 59.2028 88.2925 58.9048 86.8495C58.8264 86.4731 58.9675 86.3634 59.2969 86.2536Z" fill="#23C8AC"/>
<path fill-rule="evenodd" clip-rule="evenodd" d="M42.7662 91.853C43.0485 90.7551 44.5071 90.8493 45.5265 90.567C46.5303 90.3003 47.5654 89.8455 48.5849 89.5789C51.0473 88.9515 52.9136 88.1203 54.78 87.7125C54.9368 87.6811 55.5328 87.7282 55.5642 88.1987C55.6113 88.8574 53.1175 89.2181 52.5215 89.4848C50.5767 90.3003 48.2085 90.8806 46.0284 91.4609C44.9462 91.7432 43.7699 92.4647 42.7662 91.853Z" fill="#23C8AC"/>
<path fill-rule="evenodd" clip-rule="evenodd" d="M33.1205 94.0172C32.007 95.7268 28.7134 94.2682 27.7096 93.4212C27.6469 93.0605 27.7723 92.9037 27.9135 92.7312C28.7918 92.7155 29.8426 93.5781 30.8621 93.7192C31.7247 93.8447 32.5246 93.2801 33.1205 94.0172Z" fill="#23C8AC"/>
<path fill-rule="evenodd" clip-rule="evenodd" d="M41.982 97.8597C42.3113 97.8754 42.625 97.7342 42.6721 98.2518C42.7505 99.0517 39.1275 99.8515 38.2492 99.93C37.4807 100.008 34.7517 100.165 34.7047 99.4281C34.6419 98.44 37.5278 98.9419 38.4531 98.8321C39.5824 98.7223 40.8057 97.8283 41.982 97.8597Z" fill="#23C8AC"/>
</svg>
