<svg width="128" height="104" viewBox="0 0 128 104" fill="none" xmlns="http://www.w3.org/2000/svg">
<path fill-rule="evenodd" clip-rule="evenodd" d="M112.106 36.2442C111.063 36.3357 110.021 36.5003 108.996 36.7016C105.429 34.9272 100.399 35.0187 96.7952 35.0187C93.2465 35.0187 89.3868 35.2016 85.8015 36.0979C85.6552 36.0065 85.5089 35.8967 85.3442 35.8235C84.1552 35.2016 82.8382 35.6223 82.3443 36.9028C82.2894 37.0491 82.2345 37.1772 82.198 37.3235C82.015 37.3967 81.8321 37.4881 81.6492 37.5613C79.1066 38.7869 78.1554 42.4087 79.9297 44.6404C79.8017 45.2806 79.6736 45.9026 79.5273 46.5062C78.8505 49.433 78.3383 52.3963 78.0273 55.378C77.5334 60.0059 77.7712 65.2924 81.7772 68.3472C85.3076 71.0545 90.4295 71.5483 94.7282 71.4569C98.0939 71.3837 101.752 71.2557 105.027 70.2679C108.703 70.085 112.088 68.9691 114.283 65.4936C116.459 62.0364 116.752 57.3718 116.862 53.4024C116.972 49.1403 116.679 44.8599 117.191 40.5978C117.557 37.6528 114.63 36.0247 112.106 36.2442ZM96.8318 48.8842C100.691 48.1159 104.496 46.3965 108.338 45.3904C108.246 50.4025 108.685 55.4328 107.24 60.2803C107.057 60.8657 107.057 60.7925 106.764 61.2315C106.71 61.2864 106.636 61.3595 106.545 61.451C106.911 61.2681 106.856 61.3047 106.38 61.5608C105.96 61.7986 105.045 61.9449 104.167 61.9632C101.002 62.0729 97.8378 61.7803 94.6733 61.89C93.6672 61.9266 92.4965 61.9266 91.6734 61.7254C91.6368 61.7254 91.0697 61.5059 90.9782 61.4876C90.8868 61.4327 90.8136 61.3961 90.7405 61.3413L90.7039 61.3047C90.6856 61.2864 90.6673 61.2681 90.649 61.2498C90.6307 61.2132 90.5941 61.1583 90.5575 61.0852C90.4661 60.8839 90.4295 60.7925 90.4295 60.7925C90.3746 60.6279 90.338 60.4815 90.3014 60.3169C90.0088 59.1645 89.9173 57.9389 89.8075 56.7682C89.588 54.317 89.5514 51.8476 89.4417 49.3781C91.7831 49.6159 94.2709 49.3964 96.8318 48.8842Z" fill="#E6EAEE"/>
<path fill-rule="evenodd" clip-rule="evenodd" d="M24.4678 25.8909C26.297 22.3056 26.9556 16.6899 28.1446 12.0071C29.2421 7.7084 29.2421 0.245149 35.7176 1.67195C38.0773 2.98899 36.7053 6.81208 36.4127 9.81201C35.8639 15.4826 34.7481 21.391 34.1078 26.8055C35.0407 26.458 35.3151 25.1226 35.8273 24.0434C36.3212 23.019 37.0529 21.9764 37.437 21.0618C37.9309 19.8362 38.1687 18.3911 38.6992 17.0375C39.7419 14.3668 40.7113 12.4827 42.2662 10.0315C42.9979 8.8791 43.6747 7.61694 45.0283 7.61694C47.6624 7.63523 47.6075 11.7876 47.3148 14.6229C46.949 18.2447 45.2478 21.6837 44.0954 25.1775C43.2357 27.7567 42.3028 30.3725 41.7906 33.2078C41.315 35.8785 41.3699 38.6589 41.0955 41.5857C44.6442 40.1772 47.0222 36.6834 50.516 34.5798C51.577 33.9395 53.1318 33.2078 54.4123 32.97C55.0342 32.842 56.9 32.7322 57.6317 33.0798C59.0951 33.7932 59.4792 37.1224 59.1317 38.5858C58.6012 40.8174 55.8391 42.8479 54.3025 44.7868C51.7965 47.9331 48.3758 49.9818 46.2722 53.8598C45.8515 54.6464 45.6502 55.5244 45.2478 56.2744C43.9125 58.7073 42.1016 61.1401 40.0894 62.5852C38.1138 64.012 35.0224 64.5059 34.2359 66.9388C33.7237 68.5485 34.1261 71.0728 34.1261 73.2496C34.1261 75.1886 33.9798 77.7678 34.1261 79.7983C34.2359 81.1153 34.8944 83.7677 33.3213 83.8226C31.3823 83.8957 32.114 80.5482 31.8213 78.6641C30.2299 78.9385 28.3092 78.9019 26.4251 78.8836C27.3031 84.2067 25.2178 93.0236 28.8396 95.7674C31.364 97.6698 37.0895 98.4198 41.2418 98.7491C45.8149 99.1149 50.4794 97.8344 54.9061 96.9198C57.028 96.4808 59.3146 96.1881 61.5645 95.8955C63.9791 95.5662 66.6864 95.2918 68.918 95.5479C71.0399 95.7857 73.2716 96.9564 75.2289 97.9625C78.3568 99.5539 82.2348 100.542 87.2835 100.139C90.4115 99.8832 94.3077 99.0783 96.4662 97.6149C99.1003 95.8406 99.1186 91.1578 99.2283 87.0603C97.3442 86.6762 95.6613 87.0054 94.3992 86.2554C93.8687 85.9445 93.7406 85.2859 93.2468 84.6457C92.3687 83.4933 91.2895 82.3409 91.1797 80.4019C84.3201 80.4385 78.6678 78.6458 76.363 73.6338C75.1557 70.9997 74.6252 66.8107 74.863 62.7316C75.4484 53.0184 75.2837 39.537 75.8874 29.6774C76.0337 27.3543 75.8691 25.1044 75.9972 23.019C76.4545 15.4643 79.308 11.7693 86.2042 10.7266C87.4664 10.5437 88.9847 10.8547 90.448 10.8364C91.0334 8.47667 91.6736 5.3304 94.015 4.8731C94.8748 4.70846 98.1674 4.81822 98.9539 5.11089C99.6673 5.36699 99.8503 6.37306 100.564 6.61086C102.009 7.06817 102.301 5.45845 103.545 5.11089C104.259 4.90968 105.576 4.90968 106.637 5.00114C107.643 5.07431 109.051 5.12919 109.746 5.45845C111.045 6.08039 111.85 9.08032 112.49 10.5071C116.204 10.6535 119.039 11.1656 120.649 13.8363C124.069 19.5252 123.008 30.8847 122.478 39.2077C122.295 42.2808 122.716 45.6832 122.478 48.9575C122.277 51.8477 121.673 54.7378 121.325 57.4451C120.978 60.1524 120.832 63.1523 120.521 66.4083C120.136 70.3229 120.173 73.7984 118.563 75.8288C117.886 76.6886 115.307 78.8471 114.21 79.2678C112.362 79.9995 109.783 79.9263 108.009 80.2921C108.118 84.6823 105.795 86.6396 101.46 86.603C101.57 92.3468 100.984 97.3771 97.6735 99.7002C91.6736 102.975 81.5397 103.395 75.0642 100.505C73.0887 99.6271 70.729 98.1454 68.5156 97.871C66.2656 97.5783 63.595 97.9808 61.2901 98.3283C59.0219 98.6576 56.7902 99.0234 54.7415 99.4807C50.4977 100.432 45.8698 101.347 41.0772 101.09C38.2967 100.944 34.9676 100.542 32.4615 99.8283C30.303 99.2064 27.4677 98.2186 26.0409 96.3894C23.0776 92.6028 24.669 85.2859 24.0837 78.9385C21.4313 78.5178 17.9558 78.2617 15.1387 77.6764C14.6814 78.9934 15.4863 83.036 13.529 83.0726C11.5352 83.1092 12.7607 78.0056 12.8339 76.7617C12.9437 75.1703 13.0351 74.1642 12.8339 72.9752C12.779 72.6277 12.4681 72.3899 12.4864 72.0606C12.5229 71.4204 13.0351 71.2009 13.1815 70.4509C13.7119 67.6888 12.4315 63.6096 11.6815 61.7255C10.6754 59.2194 8.97424 57.5914 8.24255 55.0671C6.94379 50.6404 8.38889 44.1283 7.54744 39.1162C7.19989 37.0675 6.26698 34.7993 5.71822 32.5676C4.60239 27.9762 3.50484 24.0983 2.15121 19.3606C1.49269 17.0375 0.504919 14.8607 0.889057 12.2449C1.40124 8.71447 5.31579 9.17178 7.09014 11.5498C8.64498 13.6351 9.68763 16.8545 10.6571 19.5801C11.6449 22.3971 12.8339 25.269 13.7485 28.0677C15.1387 24.83 14.279 20.2935 14.5534 15.9033C14.6997 13.4705 14.8643 11.001 15.0107 8.78764C15.2302 5.64137 15.0839 1.15976 18.6874 0.867086C20.0045 0.757333 21.3581 2.14755 21.7788 3.04387C22.4374 4.47066 22.7117 7.26938 22.8032 9.70226C23.0593 14.8241 23.8641 21.1715 24.4678 25.8909ZM17.2423 10.1596C17.0228 13.9095 17.2241 19.4703 17.0228 22.9093C16.8765 25.3604 16.5838 31.031 14.3888 31.1774C13.09 31.2689 12.0656 29.8421 11.6266 28.8909C9.72422 24.7385 8.5901 19.1045 6.46819 15.1168C5.77309 13.818 5.05969 12.1168 3.48656 12.0254C3.21217 16.3972 4.5658 18.885 5.44383 22.4703C5.97431 24.647 6.6877 26.8238 7.27306 29.0189C8.49864 33.592 10.1449 37.7443 10.1449 42.793C10.1449 46.488 9.52301 50.5306 10.4925 54.1525C11.023 56.1463 12.4864 57.6829 13.3644 59.5487C14.7912 62.5852 15.6143 66.1156 15.5412 70.4509C19.9496 71.3472 26.4799 71.3289 31.7298 70.9082C31.7298 69.2253 31.6932 67.0485 32.1871 65.8595C33.5225 62.7133 36.4493 62.5669 38.9553 60.5731C42.5589 57.7012 44.0771 52.0489 47.3331 48.4087C48.4124 47.2197 50.1502 46.1588 51.3575 44.8417C52.3635 43.7442 53.0403 42.5918 54.2293 41.4028C56.0403 39.5918 57.7049 38.2199 56.6439 35.3114C48.6136 35.6956 47.0771 43.1954 40.2357 44.3844C38.9004 43.6161 38.5711 42.1345 38.7358 40.1406C38.937 37.7809 39.1016 35.4944 39.4309 33.3725C40.0894 29.1287 41.8637 24.6105 43.2174 20.7508C44.3332 17.5313 45.3393 14.6229 45.0466 10.4157C44.4064 10.5254 44.2235 11.3851 43.8942 11.9156C42.7418 13.7083 41.9003 15.5009 41.0223 17.6594C40.4735 19.0313 40.1992 20.5313 39.6504 21.9032C39.1382 23.1654 38.2602 24.5922 37.4736 26.147C36.7785 27.5372 35.9736 29.4762 34.492 29.6957C32.992 29.9152 32.4432 29.2018 31.8579 28.3238C32.2603 19.6167 34.309 12.5559 34.7298 3.86702C33.1017 3.53776 32.553 4.67188 32.0957 5.82429C31.236 7.96449 31.1628 9.81201 30.5957 12.2449C30.3945 13.1046 30.1018 13.9826 29.9006 14.879C29.114 18.574 28.6019 22.269 27.2665 25.5617C26.6446 27.0799 25.7848 29.3482 24.2849 29.3482C22.2727 29.3482 22.0898 25.6348 21.8703 24.0617C21.1935 19.324 20.8825 14.7326 20.6081 9.8303C20.4801 7.4523 20.1874 4.87309 19.1082 3.40971C18.9984 3.40971 18.9801 3.31825 18.8704 3.29996C17.2789 3.83043 17.3704 7.87303 17.2423 10.1596ZM94.6187 7.30597C93.2468 7.65352 93.3199 9.44616 93.0089 10.9827C98.9539 11.1473 104.57 10.3974 110.002 10.4157C109.728 9.39129 109.106 8.71447 108.74 7.78157C107.478 7.39743 105.814 7.41572 104.149 7.43401C104.003 9.81201 98.2223 9.77542 97.9479 7.43401C96.576 7.69011 95.4967 7.06817 94.6187 7.30597ZM113.332 77.091C114.612 76.6154 116.862 74.5301 117.356 73.4143C118.234 71.4753 118.051 67.8534 118.271 64.9266C118.49 61.9633 118.893 58.9268 119.185 56.4207C119.496 53.7318 120.1 50.6587 120.21 48.0429C120.356 44.6222 120.027 41.7686 120.21 38.6406C120.466 34.5249 120.63 29.4945 120.557 24.6288C120.484 20.2569 119.716 14.7692 117.118 13.4888C116.13 13.0132 114.228 12.9217 112.874 12.7936C107.332 12.318 102.887 13.1595 97.3808 13.3607C91.6553 13.5802 85.5274 12.1534 81.7592 14.5131C78.7044 16.4338 78.3934 21.9398 78.1922 26.9153C77.8812 34.6346 77.7349 42.0613 77.7349 50.3294C77.7349 57.7744 76.0703 66.6644 78.302 72.2618C80.1312 76.8349 84.8323 78.0422 91.2712 78.0056C91.8565 77.1825 91.5822 75.1337 92.8809 74.5667C94.1614 73.9996 97.8015 74.3106 99.9966 74.4569C100.93 74.5301 102.118 74.6764 103.216 74.8045C104.314 74.9325 105.484 74.8959 106.088 75.152C107.222 75.6093 107.533 77.3288 108.045 78.0239C109.82 77.53 111.759 77.6946 113.332 77.091ZM15.2851 72.8472C15.0656 73.4691 15.2119 74.4569 15.1753 75.2618C17.0229 75.7922 19.2911 75.902 21.3764 76.1764C21.4496 75.1886 21.1752 74.5301 21.2666 73.5423C19.2545 73.3045 17.2606 73.085 15.2851 72.8472ZM28.4921 73.4143C28.5653 74.6032 28.4372 75.591 28.2543 76.5056C29.0957 76.7434 30.5408 76.4691 31.8213 76.2678C31.8213 75.2801 31.8213 74.274 31.8213 73.2862C30.742 73.3777 29.6811 73.4691 28.4921 73.4143ZM94.1614 76.8715C93.8321 77.6398 93.5028 78.4629 93.4663 79.2861C93.3748 81.408 94.6004 82.9079 95.7528 84.225C97.2893 84.9567 99.21 84.4811 100.801 84.3347C102.612 84.1701 104.368 84.1884 105.173 83.1823C106.088 82.0299 105.704 79.0117 105.173 77.4386C101.808 76.9447 98.1308 76.7434 94.1614 76.8715Z" fill="#23C8AC"/>
<path fill-rule="evenodd" clip-rule="evenodd" d="M121.472 8.8975C121.508 8.80603 121.764 8.58653 121.929 8.6597C125.606 10.2877 125.971 17.6046 125.715 22.7813C125.642 24.135 125.532 26.9886 124.563 26.9154C123.557 26.8239 124.398 24.1898 124.453 23.2386C124.618 20.2021 124.563 14.1474 123.411 11.9889C123.026 11.2572 121.069 9.70236 121.472 8.8975Z" fill="#23C8AC"/>
<path fill-rule="evenodd" clip-rule="evenodd" d="M50.6439 9.02548C50.8085 9.59254 50.9182 11.0376 50.5341 11.4401C50.2963 11.4401 50.0768 11.4401 49.839 11.4401C49.4731 10.8181 49.2536 8.20232 50.6439 9.02548Z" fill="#23C8AC"/>
<path fill-rule="evenodd" clip-rule="evenodd" d="M74.1861 15.9034C73.5642 15.062 74.4971 13.9278 74.991 13.0315C75.6129 11.8974 76.0702 10.7999 77.1678 10.3974C78.6129 10.8547 77.0214 11.8059 76.6007 12.4645C75.8873 13.5437 75.3934 15.9766 74.1861 15.9034Z" fill="#23C8AC"/>
<path fill-rule="evenodd" clip-rule="evenodd" d="M126.978 14.0742C127.6 14.1657 127.49 15.1534 127.545 15.7937C127.691 17.2022 128.13 19.6899 127.545 20.8423C126.191 20.824 126.594 18.9034 126.502 17.7509C126.411 16.5071 126.063 15.1169 126.392 14.184C126.575 14.184 126.886 13.7632 126.978 14.0742Z" fill="#23C8AC"/>
<path fill-rule="evenodd" clip-rule="evenodd" d="M111.027 17.6229C110.807 18.8119 109.801 19.6534 109.07 20.4948C106.984 22.946 105.173 26.0191 102.978 28.5251C102.521 29.0373 101.972 29.6592 101.149 29.6775C100.472 28.4885 101.643 28.2324 102.173 27.6105C104.826 24.5191 107.112 20.2753 110.094 17.3851C110.551 17.3485 110.844 17.44 111.027 17.6229Z" fill="#23C8AC"/>
<path fill-rule="evenodd" clip-rule="evenodd" d="M94.1614 19.3605C94.0699 20.2568 93.1736 20.7507 92.6614 21.4275C91.6919 22.7263 90.8688 24.1348 89.8993 25.5616C89.5151 26.1469 88.9847 27.2445 88.07 26.9335C87.7774 25.8909 89.1127 24.3543 90.1371 22.9092C90.9237 21.7751 92.4968 19.1044 93.3565 19.013C93.6126 18.9764 93.9967 18.9398 94.1614 19.3605Z" fill="#23C8AC"/>
<path fill-rule="evenodd" clip-rule="evenodd" d="M112.636 19.2326C111.996 21.1533 110.588 22.7813 109.417 24.3911C108.85 25.1959 108.191 26.0191 107.588 26.8056C107.057 27.4825 106.6 28.7629 105.521 28.6349C104.917 27.702 106.051 26.8788 106.563 26.2203C108.301 23.9703 110.094 21.2997 111.722 18.9948C112.161 18.9583 112.453 19.0314 112.636 19.2326Z" fill="#23C8AC"/>
<path fill-rule="evenodd" clip-rule="evenodd" d="M85.198 23.147C84.9419 24.025 84.5761 24.8116 83.698 25.1043C83.5883 24.9579 83.3871 24.8665 83.2407 24.7567C83.3139 23.7141 84.3383 21.958 85.198 23.147Z" fill="#23C8AC"/>
<path fill-rule="evenodd" clip-rule="evenodd" d="M94.4905 23.6044C94.5819 24.3726 93.7588 24.9397 93.1186 25.7811C92.4966 26.6043 91.7284 28.2689 90.832 27.2811C91.3076 26.2202 92.9539 22.7995 94.4905 23.6044Z" fill="#23C8AC"/>
<path fill-rule="evenodd" clip-rule="evenodd" d="M112.399 24.0616C112.746 24.7933 111.96 25.1957 111.594 25.7811C110.807 27.0615 110.332 29.2932 108.612 29.1103C108.319 28.1042 109.399 27.3908 109.874 26.5859C110.441 25.6164 110.825 24.647 111.594 23.8238C111.96 23.8055 112.289 23.8238 112.399 24.0616Z" fill="#23C8AC"/>
<path fill-rule="evenodd" clip-rule="evenodd" d="M117.228 35.0736C118.618 36.9577 118.399 41.0552 118.142 44.7136C117.923 47.9879 116.917 51.1525 116.642 54.939C116.386 58.3596 116.917 61.9632 116.405 65.7314C116.002 68.7314 115.161 71.713 113.185 72.4996C111.813 73.0483 108.063 72.9203 106.07 72.7191C103.582 72.4813 100.692 71.6581 97.4539 71.4569C95.6429 71.3472 93.6308 71.3289 91.7101 71.4569C86.0029 71.8593 80.8445 72.3715 80.1128 66.8655C79.8384 64.8351 80.0214 62.4754 80.1128 60.3169C80.497 51.4086 80.2226 42.9941 80.1128 34.0309C81.4481 33.1895 83.6432 32.4212 86.2041 32.8785C87.6858 33.1529 89.3321 34.5797 90.9052 35.0553C91.9479 35.3845 93.3747 35.6223 94.6917 35.5126C96.5758 35.348 98.4417 33.8297 100.088 33.5553C106.381 32.4944 108.411 37.4516 114.21 36.0796C115.197 35.8967 116.021 35.165 117.228 35.0736ZM81.3018 39.9027C81.375 40.2503 81.1555 40.8905 81.4115 41.0552C82.8749 38.6223 85.3261 36.5552 86.698 34.3968C85.1432 34.0126 82.125 33.8846 81.3018 34.9638C81.3018 36.1528 81.3018 37.3418 81.3018 38.5308C82.0701 38.3845 81.9969 37.3784 83.0213 37.5064C83.8078 38.4028 82.4176 39.793 81.3018 39.9027ZM87.6126 34.9638C87.6492 35.4577 87.3382 35.6041 87.2651 36.0065C85.2712 37.7077 83.8261 39.9942 82.0884 41.9698C81.7225 42.1344 81.4116 41.4393 81.3933 41.9698C81.5213 43.6709 81.5396 45.5002 81.6128 47.2562C83.0396 45.4453 84.631 43.7624 86.2041 42.0978C87.7955 40.4149 89.2224 38.4942 91.1431 37.2687C91.326 37.4333 91.5455 37.5613 91.6004 37.8357C88.7651 41.6222 85.07 44.549 82.3079 48.3904C82.125 48.7745 81.5945 48.0794 81.6128 48.6099C81.6859 49.3416 81.4664 50.3659 81.7225 50.8964C83.8078 47.8233 86.4968 45.2075 88.8382 42.5185C89.6248 41.6222 90.2467 40.3783 91.4723 39.9942C91.6552 40.1588 91.8747 40.2869 91.9296 40.5613C88.9297 44.6039 85.2163 47.933 82.2896 52.0488C81.942 52.1403 81.8689 51.9391 81.5945 51.9391C81.5213 54.0061 81.3201 56.567 81.5945 58.5974C82.3262 57.4816 82.8018 56.4938 83.7713 55.378C85.1249 53.8049 87.7407 52.5976 87.5578 49.744C87.0639 49.6525 86.698 50.3476 86.2956 50.7866C85.8932 51.2257 85.3444 51.7013 84.9237 52.1586C84.0639 53.0915 83.4603 54.7378 82.2896 55.1402C81.4664 54.0975 82.7652 52.9451 83.3322 52.2683C84.8505 50.4574 86.387 49.0672 87.9236 47.4574C88.7102 46.616 89.2589 45.4636 90.3382 45.1526C90.5943 45.2258 90.6857 45.5002 90.7955 45.7197C90.704 46.6343 89.4784 47.0001 89.5333 47.677C89.9358 47.4209 90.8138 47.6587 91.2528 47.4392C91.1796 47.055 91.326 46.9087 91.3626 46.6343C95.4417 43.2136 98.7709 39.043 102.045 34.7992C100.143 34.6529 98.899 35.1833 97.8014 35.8419C98.3136 35.7504 98.4417 36.0431 98.4965 36.4089C97.3258 37.8906 95.9173 39.0979 94.6003 40.4332C93.2832 41.7503 92.204 43.3051 90.704 44.4575C90.5943 44.2563 90.2833 44.2746 90.2467 44.0002C91.7833 40.5978 95.2588 38.5308 97.2527 35.9699C94.3259 37.5796 89.8443 36.1894 87.6126 34.9638ZM102.868 35.4211C100.417 39.2259 97.1978 43.1039 94.0332 46.1038C93.5393 46.5611 92.6796 46.927 92.8808 47.366C97.8929 47.3843 102.393 47.9513 107.35 48.0611C109.252 45.7746 111.173 43.1405 112.856 40.4881C113.277 39.8296 114.008 37.8906 114.685 37.9638C116.075 38.1101 114.173 40.7076 113.88 41.1832C112.746 42.9758 111.667 44.4941 110.551 46.0124C109.966 46.7989 108.941 47.5123 109.289 48.4269C109.691 49.0123 110.13 48.1708 110.332 47.9696C112.582 45.6282 114.594 42.6649 116.185 39.9393C116.368 39.7381 116.899 39.9027 116.88 39.482C117.356 38.4211 116.935 37.415 116.423 36.7199C114.868 37.415 112.472 37.7808 110.222 37.415C108.996 40.36 107.076 42.921 105.393 45.3355C104.844 46.1221 104.496 47.3477 103.435 47.6221C103.326 47.4209 103.015 47.4392 102.978 47.1648C104.807 43.5246 107.332 40.5796 109.289 37.0674C108.704 36.9577 108.319 36.665 107.679 36.6101C106.161 39.9576 103.929 42.8844 101.935 45.555C101.387 46.305 100.948 47.5306 99.8684 47.6221C99.8319 47.4574 99.6124 47.494 99.5209 47.4026C99.5392 46.1404 100.692 45.3355 101.35 44.4209C102.759 42.4819 103.966 40.7259 105.246 38.6772C105.722 37.9272 107.076 36.1711 105.941 35.6955C103.765 38.7686 101.314 41.6954 99.1734 44.6587C98.4783 45.6099 97.5819 46.7075 96.5393 47.2928C95.6247 46.2319 97.1978 44.9697 97.8014 44.1831C100.161 41.1649 102.795 38.0735 104.917 35.1102C104.277 34.9455 103.106 34.6894 102.393 35.0004C102.777 34.9089 102.74 35.2565 102.868 35.4211ZM110.332 50.0001C110.478 50.2745 110.624 50.5488 110.679 50.9147C111.63 50.0367 112.271 48.8477 113.094 47.8233C113.88 46.8355 114.703 45.5368 116.075 45.1892C116.094 45.3538 116.258 45.3904 116.295 45.5368C115.819 46.8904 114.63 47.9148 113.661 49.2135C112.71 50.494 110.734 52.1403 111.008 54.0427C112.527 52.3598 113.624 50.2196 115.38 48.7562C115.929 48.5001 116.021 49.7074 116.185 49.1038C116.533 46.6892 117.21 44.0185 116.752 41.1832C115.197 44.677 112.344 46.927 110.332 50.0001ZM91.3991 48.7379C89.1309 48.9025 88.1065 49.7257 89.2224 51.5C88.1248 52.9451 89.1492 55.5792 89.3321 56.8963C91.015 58.7804 94.3076 58.5609 98.1673 58.8535C102.685 59.2011 106.874 58.5792 109.637 57.7011C109.508 54.7195 110.149 50.9879 108.612 49.433C103.838 49.2684 96.3381 48.3721 91.3991 48.7379ZM114.356 51.9573C113.13 53.5122 111.265 54.7195 110.917 57.1341C112.326 55.9816 113.661 53.75 115.161 52.3049C115.344 52.3049 115.545 52.3049 115.728 52.3049C115.783 51.4086 116.149 50.2013 115.966 49.433C115.344 50.2562 114.978 51.1708 114.356 51.9573ZM88.1797 57.2438C87.2285 58.0853 86.2773 58.9633 85.4176 59.8779C84.5578 60.8108 83.9176 61.9815 82.8932 62.7498C81.3933 61.9449 84.2103 59.384 84.8505 58.7255C86.3871 57.1341 88.326 56.2012 87.4846 53.6768C85.509 54.9573 83.8993 57.5914 82.1981 59.5303C81.7774 59.7682 81.5213 58.9999 81.503 59.5303C81.3201 63.0608 80.5518 67.6521 82.6554 69.6277C84.3566 71.2374 88.637 70.4325 91.6004 70.1947C92.643 70.1033 93.832 70.2496 94.8198 70.1947C95.0942 70.085 94.5637 69.8472 94.71 69.4996C97.1429 66.4265 99.466 63.2437 101.716 59.9694C101.186 59.9694 100.655 59.9694 100.106 59.9694C100.161 60.3718 100.07 60.6096 99.9965 60.884C98.5514 62.7864 96.21 65.3839 94.3808 67.5424C93.7954 68.2375 92.4052 70.7435 91.7467 69.0423C93.9784 65.8229 96.8868 63.2986 98.9721 59.9694C96.6307 59.8962 94.3808 59.7316 92.0942 59.6218C91.015 62.4571 88.1797 64.7802 86.5883 66.7375C86.2224 67.1948 85.9297 68.3472 85.0883 68.1094C83.7712 67.7253 85.82 65.768 86.131 65.4753C87.9968 63.5729 89.8626 61.323 90.9601 59.384C89.9723 58.7255 88.4541 58.5974 88.1797 57.2438ZM111.722 58.2682C111.722 58.6523 111.923 58.8352 111.832 59.2925C110.057 62.1644 107.954 65.1095 106.435 68.1277C105.96 69.0789 105.466 70.4325 104.368 70.8716C103.271 70.2313 104.442 69.2618 104.826 68.5667C105.265 67.7985 105.539 66.7924 106.088 65.9326C107.515 63.6644 109.582 60.884 110.569 58.5792C109.929 58.7804 109.344 59.0365 108.612 59.1462C108.667 59.5486 108.576 59.7864 108.502 60.0608C106.691 62.512 105.502 65.6766 103.801 68.0911C103.234 68.8777 102.685 70.0667 101.625 70.2679C100.948 69.8472 101.423 69.0057 101.625 68.6582C102.045 67.9448 102.74 67.3777 103.234 66.5912C104.679 64.3046 106.033 61.8169 107.259 59.4755C106.765 59.6401 106.179 59.695 105.649 59.823C104.771 62.4022 103.435 64.3229 101.972 66.2619C100.984 67.5789 100.106 69.024 98.8624 70.0484C97.5636 69.6643 99.155 67.7436 99.6672 67.0668C101.387 64.7802 103.564 62.4205 104.259 59.9511C103.564 59.9511 102.887 59.9511 102.192 59.9511C101.935 60.1889 102.759 60.2986 102.539 60.8657C100.454 64.1034 98.0575 67.0119 95.8807 70.1582C98.8624 69.9204 102.557 71.0728 105.978 71.4203C108.027 71.6398 110.679 71.8045 112.399 71.4203C114.777 70.8899 114.941 66.7375 115.161 64.1949C114.777 65.5119 113.99 66.7558 113.313 67.9814C112.728 69.0789 112.38 70.9081 110.899 71.2008C110.643 69.8289 111.63 68.3838 112.271 67.1765C112.966 65.8778 113.679 64.5607 114.447 63.4998C114.96 63.4083 115.088 63.701 115.252 63.9571C115.088 61.4144 115.801 59.1462 115.362 56.7316C113.862 58.6706 112.911 60.9389 111.685 63.1522C110.716 64.9266 109.508 66.5729 108.466 68.3106C107.972 69.1338 107.698 70.3777 106.637 70.7252C105.466 70.1582 107.094 68.2741 107.551 67.5058C109.198 64.7985 111.082 61.9266 112.033 59.2377C113.112 58.2865 113.734 56.8963 114.667 55.7987C114.868 55.4146 115.49 56.2194 115.472 55.689C115.417 54.9756 115.563 53.8597 115.472 53.5122C114.356 55.25 112.966 56.695 111.722 58.2682Z" fill="#23C8AC"/>
<path fill-rule="evenodd" clip-rule="evenodd" d="M29.0591 33.8116C28.7115 35.1286 27.2664 34.2872 26.2969 34.2689C24.925 34.2506 22.4189 34.342 20.5531 34.5067C18.7422 34.653 17.2239 35.7506 16.0715 35.0737C16.291 33.8116 18.7422 33.4091 20.5531 33.2445C21.9068 33.1165 23.5165 33.3177 25.0348 33.2445C26.553 33.1713 28.364 32.8238 29.0591 33.8116Z" fill="#23C8AC"/>
<path fill-rule="evenodd" clip-rule="evenodd" d="M31.9309 33.3542C31.9858 33.7932 31.8943 34.0858 31.6931 34.2688C31.1443 34.3602 30.9431 34.1041 30.7785 33.8115C30.687 33.1346 31.6016 32.9151 31.9309 33.3542Z" fill="#23C8AC"/>
<path fill-rule="evenodd" clip-rule="evenodd" d="M89.3321 36.1163C89.1492 37.5797 87.7773 38.2748 86.9175 39.2077C86.0395 40.1589 85.0883 41.1284 84.2835 42.0796C83.5518 42.9393 83.2774 44.293 81.9786 44.6039C81.375 43.3966 82.6372 42.0979 83.3506 41.2747C84.9237 39.4638 87.009 37.7077 88.3992 35.8785C88.8565 35.8236 89.1492 35.9151 89.3321 36.1163Z" fill="#23C8AC"/>
<path fill-rule="evenodd" clip-rule="evenodd" d="M112.746 37.9455C113.039 39.043 111.96 39.7198 111.484 40.4698C110.478 42.043 109.49 43.671 108.265 45.299C107.826 45.8843 107.094 47.4575 106.435 47.366C105.027 47.1831 106.783 45.3722 107.002 45.0612C108.758 42.8295 110.295 40.1771 111.813 37.8357C111.978 37.8357 112.142 37.854 112.161 37.726C112.325 37.8357 112.6 37.8357 112.746 37.9455Z" fill="#23C8AC"/>
<path fill-rule="evenodd" clip-rule="evenodd" d="M35.1503 46.6709C34.7478 47.9879 33.3759 48.7013 32.5162 49.8903C31.4552 51.3354 30.1382 52.7439 29.8821 54.8293C29.7723 55.6524 30.2296 57.006 29.0772 57.1341C28.4187 56.6768 28.6199 55.25 28.7297 54.3719C29.0406 51.9391 32.5528 47.3843 34.2357 46.3416C34.3271 46.2685 35.0222 46.2319 35.1503 46.6709Z" fill="#23C8AC"/>
<path fill-rule="evenodd" clip-rule="evenodd" d="M4.6022 47.4758C5.0778 48.6831 4.73025 50.1648 4.82171 51.3721C4.98634 53.622 6.15705 55.3232 6.19363 57.1159C6.06559 57.0976 5.99241 57.1342 5.97412 57.2256C4.85829 57.1707 4.94975 55.872 4.47415 55.1586C4.21806 55.3598 4.36441 55.9817 3.77905 55.8537C2.79127 55.7439 2.86444 54.0611 2.86444 53.3294C3.01078 53.0916 3.63271 52.9818 3.8888 53.2196C3.50466 51.7196 3.50466 49.8538 3.54124 47.9331C3.77904 47.6405 3.99855 47.3661 4.6022 47.4758Z" fill="#23C8AC"/>
<path fill-rule="evenodd" clip-rule="evenodd" d="M91.5089 52.0672C95.4966 51.6831 100.307 52.5794 103.216 52.8721C104.057 52.9636 105.85 52.4514 105.85 53.5672C105.85 54.5001 103.673 54.1891 102.521 54.0245C101.496 53.8782 99.9233 53.5123 98.9721 53.4574C96.1368 53.2562 93.2101 53.6587 91.1613 53.0001C90.9052 52.6526 91.2162 52.1953 91.5089 52.0672Z" fill="#23C8AC"/>
<path fill-rule="evenodd" clip-rule="evenodd" d="M49.6196 53.7866C50.1866 56.8048 47.9001 59.2194 46.2904 61.0121C45.7599 61.6157 45.2111 62.823 44.2234 62.384C44.1319 60.8474 45.7051 60.1157 46.5282 59.0548C47.4062 57.9024 47.9367 56.6585 48.5952 55.2683C48.5403 54.7195 48.6318 54.3171 48.705 53.8964C48.9794 53.7134 49.2537 53.622 49.6196 53.7866Z" fill="#23C8AC"/>
<path fill-rule="evenodd" clip-rule="evenodd" d="M106.216 55.1769C105.905 56.2562 104.313 55.872 102.996 55.872C100.527 55.872 98.2953 55.872 95.4234 55.872C94.0515 55.872 91.1979 56.1098 92.5515 54.7196C95.2587 54.5184 99.9965 54.6099 103.344 54.6099C104.35 54.5916 105.722 54.244 106.216 55.1769Z" fill="#23C8AC"/>
<path fill-rule="evenodd" clip-rule="evenodd" d="M50.2964 57.7012C50.4427 59.2011 49.8025 60.8657 48.4671 61.2499C48.3574 61.0852 48.1562 61.0121 48.0098 60.9023C48.4854 59.7316 49.0342 58.6341 49.6195 57.5731C49.8939 57.5731 50.1683 57.5548 50.2964 57.7012Z" fill="#23C8AC"/>
<path fill-rule="evenodd" clip-rule="evenodd" d="M83.5883 65.7314C83.5151 65.5668 83.4054 65.457 83.2407 65.3839C83.8078 63.9205 85.0334 62.951 86.0028 61.8169C86.954 60.701 87.9967 59.695 88.8747 58.4877C90.9601 59.073 87.5577 61.89 86.9175 62.6217C85.6736 64.0851 84.887 65.3473 83.5883 65.7314Z" fill="#23C8AC"/>
<path fill-rule="evenodd" clip-rule="evenodd" d="M29.1687 58.7257C29.5894 59.1464 29.3699 59.8964 28.7114 59.8781C28.6016 59.7135 28.4004 59.6403 28.2541 59.5305C28.1443 58.8354 28.5102 58.6342 29.1687 58.7257Z" fill="#23C8AC"/>
<path fill-rule="evenodd" clip-rule="evenodd" d="M89.8992 67.2314C92.1674 65.6766 93.1552 62.823 95.5332 61.3779C96.5393 62.1279 95.3137 63.0242 94.8381 63.5547C93.1735 65.4754 91.4357 68.018 89.3321 69.4082C88.5638 69.2984 87.7041 69.2802 87.3748 68.7131C88.7284 66.3717 90.7772 64.3047 92.4235 62.0547C92.8808 61.4328 93.1735 59.9511 94.3808 60.445C94.4356 61.8718 93.1735 62.823 92.4235 63.8839C91.6735 64.9632 90.9418 66.1339 90.0089 66.9753C89.9906 67.0851 89.8992 67.1034 89.8992 67.2314Z" fill="#23C8AC"/>
<path fill-rule="evenodd" clip-rule="evenodd" d="M115.051 60.5547C114.301 63.7741 112.161 66.2253 110.697 68.713C110.295 69.3898 110.295 70.5606 109.088 70.4325C108.484 69.6276 109.344 68.6216 109.783 67.9082C110.24 67.1582 110.825 66.3533 111.264 65.6216C112.344 63.8473 113.295 62.0546 114.136 60.3352C114.557 60.2803 114.868 60.3718 115.051 60.5547Z" fill="#23C8AC"/>
<path fill-rule="evenodd" clip-rule="evenodd" d="M72.1191 62.7499C72.4483 64.2133 72.1556 65.7315 72.2288 67.1035C72.3751 70.1034 73.4361 73.1033 74.8629 75.024C75.5031 75.902 76.6738 76.2862 76.5824 77.5484C75.5397 77.9508 74.3873 76.5789 73.8202 75.8289C71.8813 73.1948 70.2715 67.2681 71.1862 63.0792C71.2593 62.9145 71.3691 62.8048 71.5337 62.7316C71.7349 62.7499 71.9178 62.7499 72.1191 62.7499Z" fill="#23C8AC"/>
<path fill-rule="evenodd" clip-rule="evenodd" d="M82.9115 63.884C83.3505 64.5059 83.0578 65.3473 83.1493 65.951C83.3505 67.3961 84.4115 68.0912 84.759 69.2802C82.4542 69.8655 81.6493 66.4449 81.9969 63.9937C82.253 63.8291 82.5457 63.7193 82.9115 63.884Z" fill="#23C8AC"/>
<path fill-rule="evenodd" clip-rule="evenodd" d="M69.5948 69.6278C70.1619 70.2863 70.0887 71.1644 70.3997 71.9326C70.674 72.5729 71.424 73.0485 71.3143 73.8899C69.7594 74.8411 68.2595 70.7071 69.0095 69.6461C69.2107 69.6278 69.3936 69.6278 69.5948 69.6278Z" fill="#23C8AC"/>
<path fill-rule="evenodd" clip-rule="evenodd" d="M122.386 72.0423C122.844 73.1398 122.423 74.7861 122.039 75.9385C121.71 76.9446 121.051 78.4995 119.862 78.1153C119.478 77.3105 120.374 76.7983 120.667 76.1581C121.143 75.0971 121.271 73.7984 121.472 72.3716C121.508 72.2252 121.673 72.1886 121.691 72.024C121.929 72.0423 122.167 72.0423 122.386 72.0423Z" fill="#23C8AC"/>
<path fill-rule="evenodd" clip-rule="evenodd" d="M30.1018 89.2737C30.6871 90.9566 30.7969 92.42 32.2785 93.17C33.9066 93.9931 36.687 92.9687 37.565 94.7797C36.8882 95.4016 36.0468 94.9992 34.6931 94.8894C31.7664 94.6699 28.8762 93.0419 29.2969 89.603C29.2237 89.1456 29.7359 89.2737 30.1018 89.2737Z" fill="#23C8AC"/>
<path fill-rule="evenodd" clip-rule="evenodd" d="M35.6077 92.365C35.6077 92.6028 35.6077 92.8223 35.6077 93.0601C34.1626 93.7735 32.1688 92.6943 32.3883 91.5601C32.6992 90.0785 33.4858 91.7065 34.1077 92.0174C34.8211 92.365 35.2053 91.8162 35.6077 92.365Z" fill="#23C8AC"/>
<path fill-rule="evenodd" clip-rule="evenodd" d="M69.7046 103.267C68.351 103.67 67.1802 102.188 65.4608 102.005C64.8937 101.932 64.1255 101.877 63.5035 102.005C62.6438 102.17 62.223 103.286 61.1987 102.7C61.3633 100.962 63.5035 100.56 65.3327 100.743C67.1803 100.926 69.4668 101.786 69.7046 103.267Z" fill="#23C8AC"/>
</svg>
