<svg width="135" height="72" viewBox="0 0 135 72" fill="none" xmlns="http://www.w3.org/2000/svg">
<path fill-rule="evenodd" clip-rule="evenodd" d="M50.3718 25.3335C51.1463 23.3568 53.2418 21.441 55.5679 22.3393C64.3522 25.732 76.2014 23.6442 83.9543 29.8691C85.004 28.9038 86.7722 28.7163 87.4657 30.3152C89.5777 35.2952 88.34 41.5746 84.4671 45.3466C80.1862 49.5205 73.577 48.0846 68.5957 46.3288C66.105 45.4509 63.6033 44.2517 61.2999 43.3276C58.6808 42.2726 55.9128 41.7834 53.3908 40.4197C47.5271 37.2382 48.2948 30.6282 50.3718 25.3335Z" fill="#E9FCF9"/>
<path fill-rule="evenodd" clip-rule="evenodd" d="M29.5207 26.2473C28.1951 25.6599 26.7957 24.6871 25.3126 24.1538C23.8295 23.6204 22.0926 23.3864 20.5531 22.886C17.3291 21.8311 14.4232 20.4143 11.2063 19.3931C9.97152 19.0047 6.93017 18.5867 6.6088 17.3881C6.48808 16.8789 6.96039 16.1118 7.77989 16.2637C9.6986 16.8957 11.6486 17.4086 13.5705 18.0892C15.4923 18.7697 17.2975 19.8334 19.1943 20.4277C22.177 21.3714 25.0883 22.0416 27.8595 23.1843C28.8216 23.5806 29.6427 24.2104 30.6385 24.5996C32.2995 25.2434 34.1484 25.475 35.836 26.0781C36.2966 25.3557 36.9247 23.7542 38.3238 23.5175C38.8064 23.4375 38.9843 23.8503 39.5304 23.7711C41.213 22.6381 42.9247 21.5763 44.3496 20.455C45.5748 19.4881 46.6848 18.7774 47.4509 17.8011C47.7885 17.3647 47.8198 16.9432 48.2177 16.7614C48.98 16.4048 50.2696 17.1897 51.064 17.2554C52.2126 17.3665 53.2067 17.2778 54.3459 17.5456C55.4106 17.7938 56.5043 17.8109 57.5463 18.085C59.1054 18.5109 60.594 19.2049 62.1304 19.6567C66.0289 20.8094 69.9595 22.082 73.7265 23.3115C76.876 24.3468 80.0349 25.2254 83.2455 25.847C88.1507 26.8029 92.908 28.2611 97.5703 29.5351C100.942 30.4536 103.985 32.2567 107.307 32.9394C107.785 33.5426 108.332 33.6389 108.739 34.271C109.135 34.8844 109.223 35.8786 109.354 36.7725C109.766 39.4432 109.407 42.2612 109.444 44.4196C111.532 45.1918 113.702 45.7783 115.973 45.9778C116.191 43.6956 116.625 41.5019 117.929 39.569C120.563 37.6038 123.108 38.5757 124.034 41.3497C124.484 42.7254 124.27 45.2316 124.11 47.0516C123.965 48.812 123.477 50.6092 123.055 52.4559C122.068 56.8119 121.533 59.695 118.308 62.3324C116.973 63.4138 115.15 63.5707 114.341 62.8328C111.753 60.4491 114.065 57.8901 112.793 55.7092C112.649 54.9869 113.058 54.4581 113.003 53.7592C111.883 53.4805 110.659 53.1109 109.45 52.7451C108.36 52.4108 108.281 52.2306 107.807 53.3635C106.677 56.09 104.969 58.6489 102.182 60.6533C101.035 61.0201 100.375 60.3214 99.4146 60.1006C98.2269 59.8359 97.0776 59.7883 95.9502 59.4759C93.6656 58.8431 91.4962 57.9542 89.2837 57.229C86.2791 56.2478 83.2839 55.4122 80.3192 54.5211C79.0508 54.1397 77.9202 53.4763 76.6777 53.1176C76.0861 52.9462 75.4241 53.0426 74.8177 52.8672C72.6899 52.2439 70.6426 51.4348 68.4991 50.8711C67.4124 50.5852 66.3344 50.2062 65.3354 49.7684C64.3514 49.3345 63.2412 48.8356 62.2219 48.5357C61.7792 48.4033 61.263 48.4904 60.8352 48.3619C60.4521 48.2453 60.1387 47.9241 59.7892 47.8004C59.4398 47.6766 58.9799 47.7307 58.6227 47.6368C57.8635 47.4371 57.1294 47.0212 56.3702 46.8215C54.0848 46.2523 51.7697 45.6752 49.6269 45.0479C48.8866 44.8373 48.2911 44.3782 47.5397 44.1488C46.0707 43.6828 44.4788 43.5029 42.9941 43.0965C42.7371 42.44 41.8416 42.3954 41.3965 41.8486C40.5503 40.8303 39.9491 39.0011 39.2016 37.5471C38.4179 35.9882 37.6633 34.5005 36.9815 33.1594C36.1902 32.8398 35.3284 32.7882 34.6452 32.1788C33.4988 30.3653 34.2562 29.1799 34.6195 27.859C33.2868 27.2379 31.1324 26.9577 29.5207 26.2473ZM45.1544 39.5425C44.0991 39.44 44.0428 40.3801 43.5234 41.0234C44.3696 41.437 45.3395 41.5011 46.2092 41.8253C47.1147 41.0449 46.9939 39.9309 47.6245 39.0463C47.5046 38.776 47.2226 38.9406 47.1567 38.5254C48.5437 35.3092 49.7968 32.0577 50.9903 28.7907C50.8845 28.5878 51.013 28.4624 50.8179 28.236C50.9103 28.0057 51.1516 27.8145 51.244 27.5841C51.1726 26.7059 51.5994 25.6882 51.6094 24.2584C51.6218 23.2431 50.9987 20.7714 52.289 20.888C52.7898 22.3725 52.4837 24.2019 52.4871 25.7625C52.813 25.6731 52.6852 24.8278 52.906 24.4721C54.1541 24.689 53.6419 25.9707 53.3976 26.7182C52.4534 26.072 50.947 27.14 52.1059 28.2406C51.3448 31.5577 49.747 34.607 48.6177 37.8114C49.0588 37.7683 49.5186 37.7142 49.8242 38.0651C51.1722 35.3002 51.6426 32.2408 52.6709 29.36C53.119 29.0481 53.6447 29.4092 53.4362 28.7496C53.9595 28.6963 54.367 28.9626 54.8167 29.1286C54.5488 29.3605 54.5276 29.2595 54.3858 29.5564C54.1621 31.678 53.335 33.6727 52.779 35.7865C52.4619 36.9923 52.4699 38.1721 51.3309 39.1139C50.9197 39.4673 50.8569 38.7983 50.5036 38.9918C49.7587 40.0692 49.0882 41.1661 48.3582 42.2473C48.8267 42.7048 49.3689 42.9429 50.0074 42.9357C51.4957 41.5128 51.8426 39.7101 52.7472 38.0859C53.0473 37.9738 53.3356 37.9064 53.5659 37.9988C54.8998 35.4689 55.0475 32.5475 56.0765 29.9056C56.2857 29.897 56.5176 29.8625 56.6798 30.0324C56.788 30.9522 56.5218 31.9644 56.301 32.9249C55.8046 35.0544 55.0653 36.8971 54.355 39.1135C53.8044 40.7831 53.2719 42.2028 52.046 43.5356C52.3492 43.7745 52.7801 43.6491 53.0872 43.8731C54.1298 42.8741 54.1908 41.5532 54.5306 40.3216C54.8189 40.2542 55.0375 40.3912 55.2639 40.4985C55.5634 41.962 54.8961 43.1074 54.1096 44.2216C56.5839 45.8273 56.7313 40.4866 57.4981 39.1445C57.6806 38.5718 58.4617 39.1115 58.6161 39.0088C58.9247 38.8035 58.9152 37.7506 59.0405 37.2742C59.3584 36.005 59.6552 35.2396 59.9692 33.9852C60.1689 33.2261 60.0253 32.1379 60.9968 32.3775C61.2352 33.9522 60.6745 35.5395 60.2837 36.9646C59.8891 38.4046 59.6464 39.9323 58.8835 41.2596C58.5797 42.5961 58.131 43.8787 57.4738 45.1064C57.7253 45.2999 58.0544 45.2591 58.291 45.4487C58.7993 44.1818 59.3671 42.9306 59.5706 41.5517C59.6638 41.2579 59.9271 41.4067 60.1754 41.2492C61.0987 38.102 62.2562 35.0324 62.7109 31.7302C63.058 31.7419 63.3541 31.9471 63.662 32.1076C63.1971 35.3276 62.1743 38.369 61.1179 41.4175C60.9174 41.6353 60.8085 41.6863 60.5131 41.72C60.261 43.102 60.1578 44.5232 59.1583 45.6609C62.6863 47.1936 60.4292 40.9499 63.4125 41.2253C64.5615 38.5513 65.0186 35.6635 65.7845 32.8728C66.0963 32.716 66.2757 33.002 66.5217 33.0349C66.3276 34.5594 66.2072 36.1671 65.7185 37.6619C65.1445 39.4208 64.7154 41.2337 63.6807 42.8078C63.6566 44.1702 63.2533 45.401 62.6604 46.5661C63.3577 46.9405 64.0706 47.2553 64.8228 47.4213C65.8128 46.1379 66.4347 44.7417 66.5771 43.1717C66.4431 42.8341 66.2425 42.7495 66.0505 42.5717C67.4016 39.8553 67.6707 36.7748 68.1999 33.7946C68.5376 33.6606 69.1635 33.7615 69.0759 34.2159C69.2364 33.908 69.7418 34.1046 70.1586 34.2142C70.2471 34.6036 70.0309 34.881 69.9111 35.2155C69.8203 35.6213 69.2891 35.0996 69.1277 35.1686C68.8684 35.3073 68.4896 37.8974 68.4144 38.2437C68.1262 39.5207 68.0543 40.5204 67.7763 41.2748C69.6646 42.8697 67.7018 46.4596 66.8261 48.1551C67.6777 48.4269 68.4174 49.0034 69.3426 49.0557C70.7009 47.8851 71.2484 46.4694 70.963 44.7709C70.2251 45.5795 69.6839 47.0924 69.1216 48.2018C68.8137 48.3437 68.5912 48.2215 68.3843 48.0397C68.3755 46.6209 69.3484 45.524 69.9531 44.3143C69.7963 44.0025 69.4148 44.3637 69.3012 43.8882C69.8531 40.8821 71.1336 37.8289 71.2367 34.8957C71.7028 34.6363 71.9285 35.1095 72.3593 34.9841C72.0142 37.8695 71.1896 40.5811 70.4167 43.3381C70.7254 43.4352 71.0984 43.772 70.9331 44.1583C71.1266 44.2092 71.3757 43.6858 71.8324 43.5831C72.6549 42.2715 72.8098 40.5934 73.1801 39.0038C73.4597 37.8199 74.0455 36.6212 73.721 35.374C74.1268 35.1625 74.3736 35.4343 74.6784 35.5463C75.0248 36.831 74.5087 38.1277 74.2174 39.3562C73.8424 41.0242 73.5723 42.6561 72.6504 44.1643C73.5297 46.4487 72.5945 48.1285 71.4697 49.7425C71.863 49.9415 72.3456 49.8615 72.735 50.0753C73.3561 48.7426 73.6685 47.3128 74.0961 45.9292C74.0287 45.6409 73.8258 45.7467 73.7435 45.4545C74.5062 42.6152 75.4028 39.8112 76.1506 36.968C75.8028 36.7173 75.7667 36.31 75.8896 36.024C76.3918 35.8696 76.7773 36.0983 77.14 36.3529C76.9062 39.2994 75.6797 41.9053 74.9922 44.7007C75.076 44.8659 75.1708 45.05 75.2547 45.2153C74.842 46.9053 74.5336 48.6226 73.7715 50.1888C75.3226 49.1325 75.5276 47.0219 75.9919 45.3774C75.847 45.3234 75.7412 45.1205 75.6393 44.9027C77.0891 42.3556 77.1592 39.366 77.9212 36.5901C78.2807 36.4937 78.5158 36.8102 78.8284 36.8924C78.4034 39.5977 77.7848 42.252 77.0213 44.8524C77.3778 45.0098 77.8658 44.788 78.2732 44.7519C79.2498 42.4305 80.033 40.0581 80.2175 37.4806C80.7965 37.4578 81.2204 37.9035 81.7719 37.9849C81.862 38.2474 81.7884 38.4668 81.555 38.6282C81.7133 38.813 81.9804 38.6446 82.0729 39.019C82.8535 41.4366 83.24 43.7187 84.1844 46.1794C84.5307 45.9521 84.7493 46.0892 85.0532 45.9622C83.9232 43.4209 83.4403 41.0816 82.5037 38.5912C82.7755 38.3444 83.3593 38.8481 83.7651 38.9389C84.5231 41.9872 86.0434 45.2836 86.7974 48.3468C87.0615 48.7345 86.9854 47.9347 87.1883 47.8289C85.8922 45.7373 85.6779 41.893 84.5533 39.2099C85.0249 39.1111 85.3884 39.3022 85.7598 39.4636C86.3994 41.8122 87.0131 44.1381 87.5673 46.4484C87.7718 46.5181 88.3381 45.3938 88.3357 44.9794C88.3167 43.4783 86.8913 41.2731 86.7423 39.722C87.1731 39.5966 87.4685 39.8652 87.8689 39.7954C88.1432 40.8703 88.4622 41.9569 88.8854 43.0709C89.6123 41.9411 88.5803 40.2372 88.7344 38.9249C87.2864 37.3504 86.9233 34.3742 86.3221 32.2426C86.1395 31.6056 85.6615 31.0025 86.3133 30.5213C86.5154 30.479 86.6862 30.5558 86.8766 30.5581C87.6518 33.4199 88.3525 36.2621 89.5665 39.2711C89.8391 38.9608 89.662 38.4845 89.8601 38.1547C89.1409 37.7427 88.7928 35.98 88.3656 34.5785C87.9495 33.1958 87.8686 32.1718 87.2206 30.8236C87.1562 30.2815 87.743 29.9265 88.2147 30.4326C89.0695 31.3577 89.1092 34.8377 89.888 35.8702C89.6826 34.3519 89.669 32.1042 89.1321 30.5147C88.984 30.1097 88.7708 29.5284 88.4832 29.23C87.8086 28.5273 85.2977 28.3921 84.1068 28.0789C81.7549 27.4603 79.9929 27.4425 78.0154 26.7314C78.4943 28.1783 78.0918 29.3457 78.1766 30.6572C77.7762 30.7269 77.4926 30.4136 77.1353 30.3196C77.4744 29.1515 76.7534 27.6568 77.5462 26.6398C77.1575 26.3625 76.664 26.4237 76.2409 26.2169C76.0585 27.3944 76.0171 28.6409 76.0392 29.8881C75.6702 29.8388 75.3435 29.6892 75.0481 29.4205C74.9689 28.2697 75.1834 27.212 75.0743 26.0533C71.5306 24.2777 67.6024 23.722 63.9428 22.2661C64.5281 23.2476 64.3481 24.5372 64.436 25.5948C64.0467 25.6834 63.7544 25.4633 63.4387 25.3325C63.2999 24.4684 63.451 23.7124 63.1226 22.7825C63.0764 22.5952 63.3842 22.151 63.6326 22.2959C60.9413 21.031 57.411 20.2935 54.1487 19.6264C52.8341 19.3602 51.3667 19.0698 49.7755 19.1287C50.2308 19.7578 50.013 20.162 50.1298 20.6861C50.5184 20.3586 50.701 20.6931 50.9572 20.8083C51.2738 22.0852 50.5642 23.0286 50.8957 24.3094C49.8471 27.6305 49.1457 31.2658 48.1418 34.901C47.8724 35.8647 47.7159 37.6698 46.9091 38.0146C46.8566 38.0326 46.5276 38.3758 46.1718 37.8525C45.9226 37.4687 47.1218 35.2694 47.2392 34.8228C47.2862 34.6442 47.0974 34.515 47.316 34.3496C47.0807 32.5211 47.7825 31.0027 48.1458 29.3794C47.2764 31.4744 46.6525 34.8754 45.4612 37.3473C45.9611 37.9881 45.2976 38.8163 45.1544 39.5425ZM48.1077 19.9633C45.7248 22.1854 42.1745 24.005 39.9365 26.2812C39.7572 27.2049 39.4683 28.243 39.2232 29.3563C39.0329 30.2612 38.643 31.6228 38.8491 32.4728C39.4331 34.7909 41.3676 36.573 42.254 39.1935C44.5905 35.2721 45.9507 30.5846 46.9764 26.0797C47.4337 24.0991 48.1676 22.3982 48.1524 20.2774C48.1649 20.1693 48.1735 20.0761 48.1077 19.9633ZM37.8244 26.8079C37.0262 27.3619 34.9231 30.8195 36.9475 31.0496C37.1518 29.6073 37.4454 28.1884 37.8244 26.8079ZM49.8576 23.4157C49.1518 24.6465 49.0706 26.7101 48.4997 28.2152C48.4003 28.7142 48.4152 28.7181 48.6298 28.2653C48.9321 27.358 48.9852 26.3693 49.5217 25.5396C49.5569 24.8008 49.7668 24.1239 49.8576 23.4157ZM51.1529 37.4915C51.5257 37.2235 51.8311 36.0624 51.4536 37.0135C51.373 37.1992 51.2163 37.1898 51.1529 37.4915ZM94.1581 56.7286C95.0237 55.5557 96.1689 54.1062 96.5557 52.6959C96.7624 51.9704 96.503 50.8995 97.2809 50.4834C97.653 50.2789 98.391 50.3775 98.6613 50.8624C98.9756 51.4225 98.3914 53.4015 98.1572 53.9288C97.5502 55.3289 96.7528 56.4243 96.2257 57.3997C96.8972 57.7514 97.6767 57.8132 98.3983 58.0348C98.3394 57.6532 98.7507 57.2999 99.2137 57.2943C100.527 55.5706 100.902 53.5368 101.248 51.4951C102.672 49.8959 104.226 51.9122 102.945 52.9121C102.469 54.8402 102.362 56.881 100.507 58.3667C100.759 58.5602 101.088 58.5194 101.324 58.7089C108.005 54.0043 107.283 46.4615 107.662 39.5743C107.736 38.1453 107.559 36.7617 106.768 35.4715C105.947 35.4466 105.46 36.5121 104.834 36.3477C104.233 35.4257 105.108 35.0033 105.987 34.566C100.95 33.1455 96.2692 30.6093 91.0185 29.8172C91.4653 31.7491 91.7186 33.6301 91.9132 35.432C92.1116 37.219 91.818 38.9402 91.5025 40.6239C91.0868 42.87 90.4494 45.2329 89.4696 47.5058C88.4742 49.8382 87.9935 52.2105 85.3982 53.7879C88.3362 54.7198 91.181 55.9455 94.1581 56.7286ZM81.2181 38.6987C80.7805 40.9073 80.1681 43.054 79.2619 45.1075C78.9611 45.283 78.7143 45.3136 78.5334 45.1546C77.7508 45.9514 78.1898 47.9131 77.8719 49.1823C77.7818 49.5247 77.4231 50.4649 77.1936 50.6114C76.5129 51.0212 76.3568 50.0412 75.8164 50.8858C78.2788 51.6289 80.7021 52.5209 83.1763 53.2194C84.3207 52.1358 86.023 51.2307 86.3644 49.8722C85.7595 49.2674 86.0038 48.52 85.6136 47.7648C85.0324 48.8852 84.7939 51.9101 82.9239 52.4846C82.1632 52.7143 81.2206 51.9411 81.707 50.939C83.1782 50.005 83.2101 48.6128 83.6698 47.3491C82.4152 44.3134 81.5953 41.4399 81.2181 38.6987ZM114.831 54.797C115.988 56.9952 114.089 59.0104 115.778 61.3644C120.032 59.6505 120.364 55.4246 121.211 51.78C121.601 50.1159 121.924 48.7049 122.096 46.9038C122.301 44.7297 122.976 41.74 120.76 40.4249C118.739 40.8483 118.778 42.2114 118.409 43.6742C118.213 44.4184 117.757 45.7307 117.99 46.4765C118.378 47.7245 119.364 48.6363 119.476 49.8436C119.659 51.6901 119.158 53.8979 117.779 54.6016C116.622 55.1885 115.846 54.2681 114.831 54.797ZM108.89 50.3377C109.821 51.0921 111.068 51.1334 112.184 51.4905C113.742 51.9799 115.121 52.7883 116.853 52.7982C117.558 51.6308 118.059 49.7254 116.743 48.3131C116.235 47.7655 114.881 47.9506 113.842 47.7251C112.167 47.3798 110.889 47.1551 109.512 46.4588C109.142 47.6826 109.189 49.0795 108.89 50.3377Z" fill="#23C8AC"/>
<path fill-rule="evenodd" clip-rule="evenodd" d="M15.6913 31.2044C15.7409 32.9522 14.3348 34.3649 12.1672 35.1635C9.58483 34.1501 9.64475 31.0782 9.50422 28.829C9.3747 26.901 9.09636 25.2362 9.81933 24.1213C9.87182 24.1033 9.9243 24.0853 9.94938 24.1714C11.6995 23.9315 15.637 29.2325 15.6913 31.2044ZM11.16 25.9222C11.2501 25.8823 11.0113 27.0927 11.1203 27.3442C11.1602 27.4343 11.5245 27.5619 11.5982 27.6449C11.7674 27.8486 11.8411 28.2341 12.0793 28.5991C12.6804 29.5211 14.0507 30.1203 13.1255 30.6727C12.5803 30.9909 12.2088 30.2247 11.7818 29.7304C11.7498 31.1226 13.9435 31.5563 13.1391 32.618C12.785 32.875 12.5891 32.7121 12.4018 32.4559C12.3901 32.803 12.8728 33.6302 12.9716 33.7994C16.3879 31.9446 13.2614 27.7959 11.16 25.9222Z" fill="#23C8AC"/>
<path fill-rule="evenodd" clip-rule="evenodd" d="M22.6215 18.5917C26.0963 20.8107 30.6544 21.1501 35.0698 20.9427C35.8619 20.8964 36.9947 21.067 37.5712 20.3274C37.1011 19.392 35.8594 19.8771 35.1982 19.9101C32.7664 20.0186 30.2242 20.0024 27.7618 19.5617C26.0891 19.265 24.6067 18.3658 23.0437 17.9547C22.587 18.0574 22.7139 18.3613 22.6215 18.5917Z" fill="#23C8AC"/>
<path fill-rule="evenodd" clip-rule="evenodd" d="M28.9681 18.3034C30.2475 19.006 32.4326 19.533 34.0699 18.754C34.0001 18.6561 34.0158 18.5965 34.0651 18.5299C32.7246 17.6362 30.8875 18.2671 29.4843 17.6116C28.9899 17.7362 29.0237 18.0316 28.9681 18.3034Z" fill="#23C8AC"/>
<path fill-rule="evenodd" clip-rule="evenodd" d="M10.8291 35.2891C10.7687 34.4297 9.83709 33.6753 9.38175 32.4415C8.91231 31.1403 9.24665 29.7481 8.72475 28.7673C8.60644 28.6725 8.3832 28.9162 8.29543 28.7657C8.22414 28.7947 8.22728 28.8433 8.26019 28.8997C7.82312 29.5328 7.89387 31.3817 8.40251 32.8365C8.86099 34.1189 9.71673 35.8878 10.8291 35.2891Z" fill="#23C8AC"/>
<path fill-rule="evenodd" clip-rule="evenodd" d="M17.4109 30.1129C18.3181 29.5079 16.9906 27.233 16.2723 27.6648C15.5955 28.0597 16.7435 30.0487 17.4109 30.1129Z" fill="#23C8AC"/>
<path fill-rule="evenodd" clip-rule="evenodd" d="M53.0491 22.2339C53.4149 22.2346 53.7659 22.2314 54.167 22.0982C54.0212 21.5028 54.2734 21.028 53.8041 20.3316C52.578 20.1524 53.3365 21.6251 53.0491 22.2339Z" fill="#23C8AC"/>
<path fill-rule="evenodd" clip-rule="evenodd" d="M31.3266 32.1495C31.5069 32.6744 31.9385 32.4855 32.1924 32.791C33.2376 33.7185 33.8529 35.9175 34.9835 36.5809C35.8342 36.0089 34.9268 34.7994 34.4434 34.0356C33.8392 33.065 32.7109 31.9088 32.1421 31.4091C31.6634 31.4741 31.3203 31.75 31.3266 32.1495Z" fill="#23C8AC"/>
<path fill-rule="evenodd" clip-rule="evenodd" d="M54.7702 20.713C54.7233 21.194 54.8769 21.7596 54.7853 22.2289C56.0969 23.6561 56.4302 19.9082 54.7702 20.713Z" fill="#23C8AC"/>
<path fill-rule="evenodd" clip-rule="evenodd" d="M57.1919 22.9415C57.4387 23.2133 57.7396 23.3402 58.053 23.359C58.3663 22.7729 58.3897 22.0788 58.3387 21.3651C57.3154 20.7776 57.3 22.3492 57.1919 22.9415Z" fill="#23C8AC"/>
<path fill-rule="evenodd" clip-rule="evenodd" d="M59.6603 21.3626C59.495 21.4464 59.3109 21.5413 59.1456 21.6251C59.1403 22.3717 59.4585 23.2194 59.323 23.9159C59.5972 24.0835 59.9255 24.1062 60.2303 24.2182C60.4002 23.4511 60.5708 22.0159 59.6603 21.3626Z" fill="#23C8AC"/>
<path fill-rule="evenodd" clip-rule="evenodd" d="M61.1208 21.9218C61.2478 22.8305 61.2002 23.6774 61.1376 24.5204C61.4831 24.6591 61.8216 24.764 62.2141 24.724C61.9076 23.8317 63.142 21.196 61.1208 21.9218Z" fill="#23C8AC"/>
<path fill-rule="evenodd" clip-rule="evenodd" d="M54.5388 25.586C54.321 25.9902 54.3634 26.4948 54.2499 26.9265C54.5453 27.1951 54.8798 27.315 55.2911 27.264C55.2025 26.8746 55.4077 26.5785 55.4194 26.2314C55.1624 25.8773 54.8083 25.8319 54.5388 25.586Z" fill="#23C8AC"/>
<path fill-rule="evenodd" clip-rule="evenodd" d="M56.5359 26.5251C56.2703 26.869 56.4286 27.3563 56.1482 27.6964C56.3786 28.0912 56.8298 27.8279 57.0641 28.2078C57.2779 27.8184 57.3727 27.3977 57.4118 26.9464C57.1657 26.6112 56.7905 26.7671 56.5359 26.5251Z" fill="#23C8AC"/>
<path fill-rule="evenodd" clip-rule="evenodd" d="M65.593 24.1007C65.6597 24.7548 65.7601 25.4019 65.6967 26.006C65.9921 26.2746 66.3031 26.4838 66.6878 26.4736C66.6618 25.846 67.1504 23.444 65.593 24.1007Z" fill="#23C8AC"/>
<path fill-rule="evenodd" clip-rule="evenodd" d="M59.0377 27.4218C58.805 27.8221 58.7322 28.2804 58.6148 28.727C58.8538 29.0286 59.24 28.8915 59.522 29.0293C59.7985 28.7042 59.688 28.2772 59.9496 27.9481C59.6809 27.6387 59.3338 27.627 59.0377 27.4218Z" fill="#23C8AC"/>
<path fill-rule="evenodd" clip-rule="evenodd" d="M60.8608 28.2355C60.614 28.5685 60.5608 28.9524 60.5671 29.352C60.8625 29.3182 61.1226 29.4185 61.3944 29.4741C61.718 29.2727 61.6176 28.928 61.7406 28.642C61.5095 28.3107 61.1193 28.4627 60.8608 28.2355Z" fill="#23C8AC"/>
<path fill-rule="evenodd" clip-rule="evenodd" d="M67.9428 27.0265C68.1889 27.3618 68.5587 27.3477 68.8587 27.538C68.9808 26.7107 69.1883 25.9217 68.708 24.9041C67.3651 24.5032 68.1488 26.3645 67.9428 27.0265Z" fill="#23C8AC"/>
<path fill-rule="evenodd" clip-rule="evenodd" d="M56.1366 40.2666C57.0352 40.0573 57.2121 39.0216 57.4149 38.311C58.0915 36.1016 58.5667 33.5687 58.9346 31.2622C57.9435 30.4922 57.7236 32.5989 57.5161 33.3879C57.0698 35.0848 56.8921 36.4864 56.4137 38.0635C56.2108 38.7741 55.4424 39.6384 56.1366 40.2666Z" fill="#23C8AC"/>
<path fill-rule="evenodd" clip-rule="evenodd" d="M62.7208 29.998C63.0648 29.9611 63.292 30.3074 63.6633 30.1663C63.6288 29.9344 63.8247 29.795 63.7902 29.5631C63.3005 29.0045 62.463 29.1026 62.7208 29.998Z" fill="#23C8AC"/>
<path fill-rule="evenodd" clip-rule="evenodd" d="M70.4883 27.9984C70.8362 27.9467 71.0752 28.2483 71.481 28.0367C71.5529 27.3394 71.7312 24.9672 70.3909 25.8879C70.5312 26.6251 70.4224 27.2808 70.4883 27.9984Z" fill="#23C8AC"/>
<path fill-rule="evenodd" clip-rule="evenodd" d="M73.1149 25.6971C72.4076 26.4501 73.0204 27.6299 72.5771 28.4682C72.8725 28.7369 73.2219 28.8606 73.6183 28.8058C73.7012 27.8249 74.1077 26.945 73.603 25.7778C73.4354 25.7496 73.2521 25.7809 73.1149 25.6971Z" fill="#23C8AC"/>
<path fill-rule="evenodd" clip-rule="evenodd" d="M64.7233 30.4929C65.0187 30.7616 65.3681 30.8853 65.7645 30.8304C66.0261 30.1989 64.7365 29.7165 64.7233 30.4929Z" fill="#23C8AC"/>
<path fill-rule="evenodd" clip-rule="evenodd" d="M67.3604 30.9954C67.2586 31.0801 67.3017 31.2187 67.185 31.2994C67.4389 31.6049 67.8165 31.561 68.1009 31.8109C68.5247 31.3494 67.6292 31.3049 67.3604 30.9954Z" fill="#23C8AC"/>
<path fill-rule="evenodd" clip-rule="evenodd" d="M79.4735 27.7834C79.5716 28.9233 79.6141 30.0326 79.5374 31.1106C79.7482 31.5799 80.1728 31.3573 80.4533 31.6221C80.4908 30.3905 81.1243 28.6473 80.0031 27.5248C79.8229 27.6047 79.6537 27.7035 79.4735 27.7834Z" fill="#23C8AC"/>
<path fill-rule="evenodd" clip-rule="evenodd" d="M44.2395 46.2888C45.1201 46.9343 46.2843 46.9858 47.3044 47.2223C48.3096 47.4548 49.3007 47.9224 50.2941 48.1996C54.376 49.321 58.4445 50.3115 62.3681 52.1552C63.7714 52.8107 65.271 53.5234 66.6601 54.414C66.986 54.6271 67.5502 55.2052 68.0406 54.793C68.3844 53.8489 66.6615 53.0775 65.9078 52.736C63.1311 51.4327 60.2024 50.0417 57.2057 49.0307C55.2313 48.3682 53.1027 47.8083 51.1009 47.25C48.9801 46.6603 46.9235 46.008 45.0009 45.6933C44.6993 45.6299 44.1908 45.6872 44.2395 46.2888Z" fill="#23C8AC"/>
<path fill-rule="evenodd" clip-rule="evenodd" d="M88.1881 24.6642C88.5925 25.4867 89.6705 25.5634 90.4344 25.6847C91.3063 25.8186 92.2238 25.9007 93.0628 25.9781C96.5311 26.2856 99.8867 27.2636 103.65 26.996C104.572 26.9363 105.488 26.843 106.413 26.8954C107.245 26.9391 108.355 27.1991 108.999 26.4453C108.608 25.4512 107.37 25.9214 106.661 25.8941C105.762 25.8644 104.85 25.8795 103.987 25.9548C102.29 26.1133 100.56 25.9129 98.7999 25.7682C95.3277 25.4757 91.8186 24.8392 88.8132 24.2238C88.5712 24.1761 88.2092 24.1604 88.1881 24.6642Z" fill="#23C8AC"/>
<path fill-rule="evenodd" clip-rule="evenodd" d="M71.8592 32.8313C72.1429 33.1446 72.4539 33.3538 72.9005 33.1688C72.667 32.7254 72.2439 32.821 71.8592 32.8313Z" fill="#23C8AC"/>
<path fill-rule="evenodd" clip-rule="evenodd" d="M92.1067 23.8645C92.9984 24.5288 93.9119 24.6258 95.1865 24.8019C95.6488 24.8598 98.5123 25.1673 98.0773 24.098C97.8673 23.5653 96.0787 23.8906 95.4488 23.8045C94.0582 23.6457 93.5122 23.4225 92.6378 23.1766C92.1435 23.3012 92.1772 23.5966 92.1067 23.8645Z" fill="#23C8AC"/>
<path fill-rule="evenodd" clip-rule="evenodd" d="M82.0252 28.55C81.7567 30.055 81.1443 31.8993 82.2295 33.2192C82.5146 32.8009 82.5889 31.9132 82.6907 30.9214C82.7799 30.0377 83.4361 27.9662 82.0252 28.55Z" fill="#23C8AC"/>
<path fill-rule="evenodd" clip-rule="evenodd" d="M85.8024 29.5593C85.2203 29.5336 84.3703 30.0421 84.5913 30.5937C85.0623 31.768 87.4147 29.6014 85.8024 29.5593Z" fill="#23C8AC"/>
<path fill-rule="evenodd" clip-rule="evenodd" d="M76.8241 34.1053C76.6666 34.4618 77.3004 34.2306 77.3858 34.5714C77.566 34.189 76.9674 34.2862 76.8241 34.1053Z" fill="#23C8AC"/>
<path fill-rule="evenodd" clip-rule="evenodd" d="M87.3962 37.8409C86.3891 35.6184 86.4234 33.7335 85.6357 31.5846C84.1449 31.6859 85.1557 33.2886 85.4756 34.9166C85.8338 36.7615 85.8928 38.0503 87.3962 37.8409Z" fill="#23C8AC"/>
<path fill-rule="evenodd" clip-rule="evenodd" d="M82.5375 33.3798C82.7851 33.5882 83.0561 33.7072 83.238 34.1052C83.4729 33.8169 84.0425 33.6484 84.1435 33.3248C84.1183 32.3314 82.8805 32.8016 82.5375 33.3798Z" fill="#23C8AC"/>
<path fill-rule="evenodd" clip-rule="evenodd" d="M79.0805 34.9056C79.0163 35.2707 79.8899 35.58 80.0316 35.2831C79.8161 34.8922 79.361 35.1704 79.0805 34.9056Z" fill="#23C8AC"/>
<path fill-rule="evenodd" clip-rule="evenodd" d="M63.3835 46.6608C63.9226 47.1527 64.8477 46.2979 64.6385 45.7017C65.1233 44.8265 65.6935 43.9898 65.2264 42.8006C65.0737 42.7763 64.8943 42.7928 64.7532 42.7238C64.2669 44.0283 63.6356 45.2788 63.3835 46.6608Z" fill="#23C8AC"/>
<path fill-rule="evenodd" clip-rule="evenodd" d="M84.1119 37.1362C84.4355 37.2372 84.7708 37.2936 85.1132 37.3836C85.1358 36.4506 84.7455 35.393 84.4445 34.3589C82.9692 34.0982 83.9222 36.1632 84.1119 37.1362Z" fill="#23C8AC"/>
<path fill-rule="evenodd" clip-rule="evenodd" d="M82.1469 35.4098C82.3883 35.8234 82.9037 35.4974 83.0008 35.1887C82.7893 35.0853 82.4 35.4763 82.1469 35.4098Z" fill="#23C8AC"/>
<path fill-rule="evenodd" clip-rule="evenodd" d="M53.951 52.6311C56.4384 53.158 59.0036 54.3579 61.6101 54.9161C62.3325 55.0743 63.4434 55.5097 64.0748 54.8641C63.8326 53.9091 62.565 54.0691 61.6045 53.8483C59.8997 53.4317 58.1001 52.8311 56.2769 52.3197C55.3579 52.0621 54.2861 51.4778 53.6351 51.593C52.3887 51.8541 52.8103 53.095 53.951 52.6311Z" fill="#23C8AC"/>
<path fill-rule="evenodd" clip-rule="evenodd" d="M81.0692 50.5803C80.5184 49.5282 81.0486 48.6014 81.3932 47.5938C81.5749 47.0846 82.1952 45.8153 81.9844 45.3461C81.6098 44.5313 80.4738 44.6145 79.9138 45.5336C79.5253 46.1635 79.0516 48.5695 78.8582 49.4258C78.7314 50.0291 78.4432 50.7013 78.6031 51.0617C79.0764 52.0456 80.4183 51.6028 81.0692 50.5803Z" fill="#23C8AC"/>
<path fill-rule="evenodd" clip-rule="evenodd" d="M92.8079 41.0468C93.3525 42.0017 94.9633 42.4731 95.445 41.5494C94.8268 40.8138 93.4479 40.3079 92.8079 41.0468Z" fill="#23C8AC"/>
<path fill-rule="evenodd" clip-rule="evenodd" d="M103.165 39.4895C103.943 39.6148 103.928 38.7671 104.072 38.2798C104.209 37.7588 104.65 37.1108 104.402 36.6C103.023 36.3965 102.727 38.6106 103.165 39.4895Z" fill="#23C8AC"/>
<path fill-rule="evenodd" clip-rule="evenodd" d="M101.629 41.9982C101.766 42.1455 101.948 42.1776 102.107 42.299C103.141 41.7591 102.902 40.7892 103.218 40.0128C102.014 38.5981 101.873 41.3142 101.629 41.9982Z" fill="#23C8AC"/>
<path fill-rule="evenodd" clip-rule="evenodd" d="M97.1075 42.6711C97.6991 43.4474 98.5358 43.4128 99.4454 43.2223C99.6207 42.0111 97.3949 41.7599 97.1075 42.6711Z" fill="#23C8AC"/>
<path fill-rule="evenodd" clip-rule="evenodd" d="M91.5933 46.3296C92.6024 46.8496 93.6045 47.336 94.8384 47.1831C94.7984 47.093 94.9034 47.0569 94.9637 47.0091C94.959 46.7851 94.9276 46.6018 94.7513 46.3644C94.5014 46.044 91.5594 45.127 91.5933 46.3296Z" fill="#23C8AC"/>
<path fill-rule="evenodd" clip-rule="evenodd" d="M100.64 44.1254C101.535 44.8382 102.904 45.2619 103.971 44.7149C105.255 46.5488 103.479 47.3708 104.205 49.0261C104.491 48.9101 104.266 48.6125 104.332 48.4229C105.477 47.944 105.591 46.5417 105.515 45.4394C105.04 45.1872 104.693 44.5707 104.388 43.8538C103.238 44.7769 101.316 42.5843 100.64 44.1254Z" fill="#23C8AC"/>
<path fill-rule="evenodd" clip-rule="evenodd" d="M96.6468 47.993C97.3018 48.4677 97.9795 48.9165 98.9447 48.4541C98.9384 48.357 98.947 48.2638 99.03 48.1901C98.5512 47.348 96.8542 46.9016 96.6468 47.993Z" fill="#23C8AC"/>
<path fill-rule="evenodd" clip-rule="evenodd" d="M90.7705 55.6306C91.829 56.0841 92.0654 54.7616 92.8409 53.9311C93.813 52.8976 95.0405 52.0427 94.7607 51.1097C94.5389 50.3192 93.9545 50.1814 93.5009 50.3327C92.8522 50.56 92.6275 51.5354 92.2531 51.9303C91.6734 52.6213 88.8949 54.8349 90.7705 55.6306Z" fill="#23C8AC"/>
<path fill-rule="evenodd" clip-rule="evenodd" d="M99.8958 48.8316C100.485 49.4959 101.221 49.7849 102.008 49.8169C102.656 48.7459 100.22 47.6596 99.8958 48.8316Z" fill="#23C8AC"/>
<path fill-rule="evenodd" clip-rule="evenodd" d="M99.3996 52.7755C99.4975 52.7057 99.5609 52.7065 99.6236 52.7708C100.362 51.9622 100.222 50.8591 100.172 49.7795C99.059 48.8662 98.7242 52.1363 99.3996 52.7755Z" fill="#23C8AC"/>
<path fill-rule="evenodd" clip-rule="evenodd" d="M103.023 50.4976C103.144 50.9434 103.406 50.9167 103.624 51.0538C104.123 50.6119 104.353 50.0995 104.353 49.4947C103.622 48.8249 103.407 50.185 103.023 50.4976Z" fill="#23C8AC"/>
<path fill-rule="evenodd" clip-rule="evenodd" d="M125.382 39.492C125.942 41.5971 126.149 43.6567 126.02 45.66C125.873 47.9131 125.741 50.1068 125.529 52.1837C125.46 52.993 124.562 54.046 125.546 54.7823C126.605 53.9627 126.502 52.3598 126.567 51.0241C126.671 48.5688 127.204 46.1784 127.179 43.673C127.162 42.284 126.832 40.9397 126.201 39.405C126.086 39.2953 125.967 39.264 125.807 39.2695C125.66 39.3424 125.514 39.4153 125.382 39.492Z" fill="#23C8AC"/>
<path fill-rule="evenodd" clip-rule="evenodd" d="M98.2504 54.5422C98.2583 55.1173 98.033 57.3658 99.0459 56.9637C99.5489 56.7459 99.7075 53.8432 98.2504 54.5422Z" fill="#23C8AC"/>
<path fill-rule="evenodd" clip-rule="evenodd" d="M129.251 44.5683C129.311 46.096 129.352 47.6346 129.152 49.0621C129.037 49.8596 128.433 50.4011 128.52 51.2197C129.5 51.732 130.114 50.0632 130.228 49.2656C130.321 48.6694 130.133 47.8719 130.225 47.1002C130.347 45.9705 130.806 45.0726 129.785 44.2948C129.601 44.3896 129.417 44.4844 129.251 44.5683Z" fill="#23C8AC"/>
<path fill-rule="evenodd" clip-rule="evenodd" d="M111.597 63.1615C111.634 65.0174 113.951 66.3748 115.415 65.3436C115.09 64.1599 113.554 64.9177 112.9 64.0137C112.576 63.3713 112.286 62.6584 111.597 63.1615Z" fill="#23C8AC"/>
</svg>
