<svg width="123" height="108" viewBox="0 0 123 108" fill="none" xmlns="http://www.w3.org/2000/svg">
<path fill-rule="evenodd" clip-rule="evenodd" d="M105.61 21.3146C110.441 21.916 115.172 20.633 118.439 22.1966C122.87 24.3214 123.13 32.3397 122.088 38.4336C120.845 39.0751 119.121 39.2354 117.177 39.1954C117.597 46.2514 116.615 52.7062 117.177 59.4415C117.277 60.5641 117.678 61.6465 117.798 62.8493C118.059 65.375 117.858 68.0812 118.038 70.6471C118.099 71.3487 118.339 72.0503 118.419 72.792C118.68 75.6385 118.419 79.1464 118.66 82.474C118.88 85.541 119.081 89.2495 118.66 91.6549C118.56 92.1962 118.219 92.4568 118.038 93.0381C117.177 95.7042 117.477 97.9293 115.012 99.2122C112.506 100.515 108.417 100.435 104.688 100.716C100.819 101.016 96.6898 101.638 92.9814 101.979C91.498 102.119 90.1349 102.099 88.7117 102.239C79.5307 103.121 67.2828 102.921 57.7611 102.239C52.1683 101.838 46.6758 102.52 41.4038 102.239C37.8757 102.059 34.3877 101.858 30.9599 101.618C27.3918 101.357 23.9239 100.996 20.3959 100.736C18.3712 100.575 15.625 100.936 13.7206 100.475C11.9767 100.054 10.2528 97.2277 9.45093 95.4436C9.11015 94.6819 8.54887 93.9402 8.44864 93.439C8.22814 92.3967 8.28825 90.9133 8.20807 89.6704C8.06775 87.9265 8.32835 86.1223 8.20807 84.3984C8.14793 83.6768 7.88734 82.9351 7.8272 82.2536C7.10555 74.7965 8.34839 66.3172 7.8272 58.359C7.6067 54.9713 7.82722 51.6638 7.56662 48.5367C7.4263 46.7125 6.82492 44.0865 7.30602 41.7411C3.63766 40.8992 3.03628 38.594 3.03628 33.9434C3.03628 32.019 2.75566 30.0545 3.15658 28.531C3.53744 27.0677 5.40167 25.3237 7.04542 24.7624C9.21035 24.0207 12.1972 24.0408 14.8432 23.7602C17.6696 23.4595 20.456 23.1989 22.9016 22.9984C22.3804 18.4079 22.4405 13.0958 23.9039 9.16689C24.5854 7.30264 25.4875 5.37824 26.6702 4.51627C28.9554 2.85248 33.4656 2.49166 37.3545 1.99052C45.7737 0.9281 56.3378 1.52948 64.7771 0.867967C69.8687 0.467053 75.2009 1.16865 79.2501 0.366825C81.395 -0.0741809 85.2638 0.246525 88.3107 0.246525C94.2643 0.246525 99.7969 -0.394933 102.523 2.63197C103.766 3.99508 105.59 7.88394 105.931 10.4297C106.452 13.9578 105.831 17.8868 105.61 21.3146ZM103.465 11.1314C103.225 9.00652 101.781 5.278 100.579 4.07526C98.4739 1.99051 92.4602 2.81237 88.1303 2.81237C82.5175 2.81237 78.5084 2.67206 73.4168 3.07298C70.009 3.33357 65.9397 3.49393 63.1133 3.69439C60.0663 3.91489 55.9169 3.41375 52.4289 3.69439C48.2594 4.03517 43.1478 3.8347 38.5974 4.3158C35.811 4.61649 29.7372 5.25796 28.1535 6.58098C27.5121 7.12221 26.8506 8.78601 26.3895 9.96871C25.0865 13.3765 25.1668 18.4681 25.6278 22.7979C27.2916 22.6977 30.0579 22.6376 32.303 22.6777C32.8242 18.1874 32.5436 10.971 35.8311 9.72817C36.8334 9.3473 38.9382 9.12679 40.602 8.96642C44.7715 8.6056 49.6827 9.04661 54.0526 8.72588C54.8545 8.66574 55.6763 8.40514 56.4381 8.34501C60.8481 8.02428 66.1001 8.70583 70.7707 8.34501C74.7999 8.02428 78.9093 7.46298 82.4774 7.20239C84.7225 7.04202 87.148 6.88166 89.1526 7.20239C94.9258 8.10444 94.5249 15.6216 94.4447 22.0563C97.1108 22.2768 99.4361 21.3547 101.24 21.8157C101.441 20.7934 102.242 20.3925 103.124 20.0517C103.445 17.2854 103.806 14.1382 103.465 11.1314ZM91.8989 20.3123C91.8789 16.7642 92.1194 11.7127 90.1349 10.3696C88.5713 9.30719 84.8829 9.5277 82.4574 9.7482C81.5753 9.82838 80.4127 9.90856 79.3102 9.98874C77.2054 10.1692 74.7799 10.3896 72.5147 10.6102C61.1889 11.7528 46.0945 10.2894 36.653 12.2539C35.2097 14.7195 35.0693 18.4881 35.0092 22.3169C43.3282 21.5551 50.5647 21.9159 57.6408 21.4349C61.5698 21.1743 65.619 21.3948 69.588 21.6754C76.6441 22.1765 83.7804 21.2344 90.5959 21.7957C90.8565 21.1141 91.4379 20.7733 91.8989 20.3123ZM117.818 24.8426C115.352 23.0185 106.813 24.0809 103.345 24.3415C101.581 24.4617 99.9573 24.2212 98.5541 24.3415C96.5695 24.5219 93.9436 24.8025 91.2575 24.6021C84.8829 24.0809 76.3635 24.8827 69.4878 24.3415C68.726 24.2813 68.0646 24.0207 67.3429 23.9606C63.7748 23.68 59.7055 24.0007 55.8968 24.3415C51.2662 24.7424 46.2949 24.2413 41.6844 24.6021C35.5504 25.0631 29.2761 25.0431 22.9416 25.4841C18.9125 25.7647 15.184 26.4263 11.6158 26.747C8.40852 27.0477 6.84497 27.1879 5.58209 29.2727C5.74245 32.3597 5.18117 36.1284 6.08323 38.4537C7.14565 38.9147 8.44864 39.1152 9.73156 39.3357C9.67143 38.7744 9.7917 38.3935 9.85183 37.9525C10.3329 37.1707 10.9543 36.4691 11.4956 35.6874C12.0368 34.9056 12.1771 33.7028 13.1393 33.3019C14.5225 34.1438 13.1393 35.4468 12.6382 36.1885C11.9566 37.2309 11.1548 38.1931 10.9944 39.3357C11.5757 39.3357 12.1771 39.3357 12.7585 39.3357C13.4801 38.0327 15.0437 36.2687 15.7853 35.0659C16.0058 34.7051 16.086 33.6226 16.7876 33.6828C16.968 33.7028 17.3489 33.9233 17.4291 34.3042C17.7498 35.8678 14.4022 38.1129 14.6628 39.3357C15.8054 39.3357 16.9279 39.3357 18.0706 39.3357C19.1129 37.8323 20.4159 36.3288 21.338 34.6851C21.5986 34.224 21.4984 33.4422 22.22 33.3019C23.7435 34.1839 22.2401 35.547 21.7189 36.3288C21.0373 37.3512 20.3959 38.5739 19.8346 39.3557C20.6765 39.3557 21.5184 39.3557 22.3403 39.3557C22.9818 38.3534 23.523 37.2108 24.2246 36.2086C24.8661 35.3065 25.5476 34.0236 26.7303 33.7028C26.7504 33.8031 26.8305 33.8432 26.9709 33.8231C26.9508 36.1685 24.5453 37.1707 23.9439 39.3557C24.5453 39.4559 24.7458 39.1552 25.3271 39.2354C26.0688 38.2933 26.8907 36.3689 27.8328 35.3265C28.2337 34.9056 29.4766 33.6628 30.098 34.8254C29.0957 36.3088 27.8128 37.4915 26.9508 39.0951C28.0333 39.0951 29.1358 39.0951 30.2183 39.0951C30.6593 38.0929 31.0602 37.4915 31.862 36.4491C32.1627 36.0682 33.2251 33.8832 33.7463 33.9233C35.0894 34.0235 33.8065 36.1083 33.5058 36.5694C32.8242 37.5717 32.0625 37.9525 31.862 39.0751C32.6238 39.1753 33.0447 38.9147 33.7463 38.9548C34.2675 38.0728 35.0894 37.291 35.6306 36.3088C36.1318 35.4067 36.2921 33.9233 37.5149 33.6627C38.4972 34.3443 37.535 35.4468 37.134 36.1684C36.6329 37.1106 36.0516 37.9926 35.6306 38.6942C36.5126 38.7744 37.3946 38.7343 38.1363 38.6942C38.4972 37.4113 39.9805 36.3889 40.642 35.2864C40.8826 34.9055 40.9628 33.8431 41.6443 33.9033C43.0275 34.0235 41.6844 36.0281 41.3837 36.429C40.7022 37.3712 40.1008 37.8924 39.6197 38.6942C43.268 39.6564 43.5487 35.3265 45.9141 33.9033C47.4375 35.8276 44.0097 37.1707 43.7692 38.6942C44.2904 38.8145 44.8516 38.6341 45.6535 38.6942C46.315 37.7922 47.0567 36.9502 47.7984 36.0482C48.4599 35.2263 49.1013 33.9434 50.3041 33.6627C51.2462 35.6472 48.1391 36.6496 47.658 38.4537C48.3195 38.4537 49.0011 38.4537 49.6626 38.4537C50.1036 37.2309 51.4467 36.3489 52.3087 35.3065C52.6494 34.8855 52.9702 33.4823 53.8121 33.6627C55.1151 33.9634 53.5314 35.7675 53.1907 36.1684C52.4289 37.0905 51.7674 37.5516 51.3064 38.4336C52.4289 38.4336 53.5715 38.4336 54.6941 38.4336C55.6563 36.9502 56.4781 35.3465 58.0818 34.5247C59.4048 35.988 56.5984 36.9502 56.3178 38.4336C57.1998 38.4336 58.0818 38.4336 58.9638 38.4336C60.1866 36.9703 60.9483 35.0459 62.4918 33.9033C64.0955 35.3666 61.0285 36.87 60.7278 38.4336C61.6499 38.4336 62.572 38.4336 63.4941 38.4336C64.757 38.2331 65.5589 34.3242 66.6413 34.2841C68.4655 34.2039 65.8996 37.712 65.639 38.1931C66.2605 38.1931 66.9019 38.1931 67.5233 38.1931C68.4454 37.4514 69.147 36.3288 69.9088 35.3065C70.6505 34.3242 71.2318 32.8008 72.5548 32.8008C73.0158 33.8031 72.0536 34.8254 71.4322 35.6874C70.7908 36.5694 69.7083 37.3712 69.7885 38.0728C70.6705 37.9926 71.4523 37.8122 72.4345 37.8323C73.1361 36.9502 73.8177 36.0883 74.4391 35.0659C75.0004 34.1438 75.4013 32.7607 76.584 32.4199C77.5261 33.1415 76.4838 34.4245 75.9626 35.3065C75.3812 36.2887 74.3389 37.1908 74.4591 37.8323C78.348 38.0728 77.6063 33.6828 80.6132 33.0614C80.7335 33.2217 80.954 33.3019 80.9941 33.5625C80.2724 35.106 78.9494 36.0482 78.2277 37.5917C79.0496 37.6118 79.8114 37.5917 80.4929 37.4714C81.1745 36.1283 82.3371 35.2664 83.1389 34.0637C83.3794 33.5425 83.3394 32.7607 84.0209 32.6805C85.8651 34.3643 82.9385 35.9079 82.3772 37.2108C83.0989 37.2108 83.8004 37.2108 84.5221 37.2108C84.9631 35.8277 86.3863 34.5247 87.1681 33.3019C87.3686 33.0012 87.6091 31.7383 88.3107 31.7985C89.8142 31.8987 88.0702 34.204 87.8096 34.5648C87.108 35.4869 86.1658 36.6496 86.3062 37.2108C86.9877 37.2108 87.6492 37.2108 88.3107 37.2108C89.6538 36.1284 89.6939 33.7229 91.4579 33.0614C91.7386 33.1416 91.8388 33.4422 91.9591 33.6828C91.4579 34.9657 90.616 35.948 90.0748 37.2108C90.8766 37.2108 91.6584 37.2108 92.4602 37.2108C93.3823 35.9079 93.6829 33.9835 95.6073 33.6828C95.6274 33.8632 95.8078 33.9033 95.8479 34.0637C95.6475 35.4468 94.4046 35.8076 94.0839 37.0705C96.9304 36.7698 96.8101 33.5024 98.8548 32.4199C100.779 33.4823 97.2311 35.547 97.0908 36.9502C98.0129 36.9502 98.935 36.9502 99.8571 36.9502C99.6767 36.5493 99.837 36.5293 99.8571 36.0682C100.539 35.3867 101.06 34.5047 101.621 33.6828C102.142 32.901 102.563 31.7584 103.626 31.5379C104.648 32.5402 103.245 33.5625 102.744 34.3042C102.122 35.2062 101.541 36.2286 100.98 36.9502C101.601 36.9502 102.243 36.9502 102.864 36.9502C103.525 35.9279 103.906 35.1261 104.628 33.8031C105.029 33.0413 106.011 30.8363 106.773 30.9165C108.216 31.0568 106.512 33.4222 106.011 34.3042C105.43 35.3867 104.788 36.1885 104.508 36.9502C104.929 36.9502 105.35 36.9502 105.771 36.9502C107.715 35.3666 107.875 31.9989 110.301 30.9165C111.323 31.9187 109.9 32.901 109.419 33.6828C108.797 34.665 108.457 35.8277 107.915 36.7097C108.838 36.7097 109.76 36.7097 110.682 36.7097C110.962 36.2286 111.203 35.7074 111.564 35.3265C111.644 33.6828 112.586 33.0012 113.207 31.9388C113.548 31.3575 113.508 30.4153 114.35 30.295C114.591 30.4153 114.891 30.5156 114.971 30.7962C114.37 33.0413 112.887 34.4245 112.326 36.7097C112.967 36.6496 113.889 36.85 114.33 36.5894C114.51 35.1862 115.854 34.2842 116.335 33.0614C116.615 32.3397 116.335 31.0568 117.477 30.9165C119.081 33.1415 116.154 34.9457 115.834 36.5894C116.936 36.83 118.8 36.7898 119.742 36.4691C120.223 32.4399 120.344 26.7069 117.818 24.8426ZM95.4269 39.4359C91.7786 39.6965 88.2305 39.8168 84.6023 39.8168C81.1143 39.8168 77.6865 40.3379 74.2787 40.4382C70.9311 40.5384 67.6637 40.6988 64.3361 40.9393C60.8882 41.1999 57.3 40.9393 53.772 40.9393C46.5755 40.9393 39.3591 41.4204 32.0023 41.5607C24.7458 41.701 17.389 42.122 9.87187 41.9416C9.87187 48.5166 10.373 54.9513 10.373 61.4461C10.373 68.0612 9.91196 74.7765 10.373 81.4517C10.4331 82.3136 10.6737 82.915 10.7539 83.8371C10.8742 85.5009 10.5935 87.5055 10.7539 89.3698C11.0145 92.3566 12.1972 97.2477 14.6428 97.9292C16.2865 98.3903 18.7321 98.0094 20.9371 98.1898C26.8706 98.6509 33.3253 99.2322 39.299 99.4527C47.8986 99.7534 57.0594 99.9539 65.0978 99.9539C71.4322 99.9539 78.4482 100.255 84.7225 99.9539C88.9321 99.7534 92.7007 99.1922 96.6698 98.8313C100.899 98.4505 104.588 98.4705 108.737 97.829C110.582 97.5284 113.448 97.4682 114.27 96.6864C114.831 96.1853 115.032 94.9424 115.272 93.9201C115.553 92.6773 116.034 91.8955 116.154 90.8932C116.455 88.4276 116.355 85.5611 116.154 82.9752C115.713 77.202 115.693 71.1081 115.272 65.355C115.132 63.4707 114.791 61.6265 114.651 59.8224C114.11 52.8866 115.052 46.3717 114.651 39.1954C108.076 39.5762 101.842 38.9748 95.4269 39.4359Z" fill="#23C8AC"/>
<path fill-rule="evenodd" clip-rule="evenodd" d="M96.0482 7.72355C94.3443 6.28026 91.0568 6.44062 87.7493 6.72126C83.7802 7.04199 79.3702 6.72126 75.3009 6.72126C74.0781 6.72126 72.5346 7.10213 71.6526 6.22012C71.9934 4.75678 74.018 5.3381 75.0403 5.3381C79.3301 5.3381 84.9629 5.43831 88.8718 5.09753C89.6937 5.01735 90.6559 5.0374 91.3976 5.09753C93.6628 5.27794 95.9279 5.53855 97.0505 6.86156C98.153 8.16454 98.7544 12.3741 98.9348 14.5391C99.0751 16.0425 99.2755 19.4102 98.3134 19.33C97.1507 19.2097 97.8122 16.0826 97.6919 15.0603C97.6118 14.4188 97.1507 13.3363 97.0705 12.294C96.8701 10.2092 96.83 9.20693 96.0482 7.72355Z" fill="#23C8AC"/>
<path fill-rule="evenodd" clip-rule="evenodd" d="M30.2585 19.0494C28.8954 18.6685 29.196 16.1027 29.3765 14.6393C29.7774 11.3118 31.4211 10.2293 33.7865 8.72587C35.8111 7.44294 38.4371 6.24019 41.5843 5.95955C47.0167 5.47845 53.1306 5.95955 59.3247 5.95955C60.6478 5.95955 62.6523 5.73904 62.7125 6.58096C62.8127 7.66343 60.2869 7.34271 59.1844 7.34271C58.4227 7.34271 56.0773 7.46298 55.0349 7.34271C52.9301 7.10216 48.921 6.6411 45.7338 6.96183C45.1524 7.02197 44.6312 7.28257 44.09 7.34271C42.5264 7.52312 41.023 7.32265 39.6799 7.58325C37.7555 7.98416 36.0717 8.86618 34.5282 9.84842C32.5637 11.1113 31.0803 11.7728 30.7596 14.6193C30.5992 15.9222 31.2808 17.7665 30.2585 19.0494Z" fill="#23C8AC"/>
<path fill-rule="evenodd" clip-rule="evenodd" d="M66.481 6.98181C67.0422 4.2155 68.686 8.32487 66.481 6.98181V6.98181Z" fill="#23C8AC"/>
<path fill-rule="evenodd" clip-rule="evenodd" d="M48.4999 13.8977C47.658 15.2808 45.5332 14.519 43.9696 14.6594C40.5819 14.9601 38.3969 16.0225 38.3167 19.31C35.4702 19.4102 38.1363 15.1405 39.319 14.3988C40.2411 13.8175 42.3058 13.4165 43.7291 13.2762C45.433 13.0758 47.6981 12.9555 48.4999 13.8977Z" fill="#23C8AC"/>
<path fill-rule="evenodd" clip-rule="evenodd" d="M109.88 16.0225C109.82 16.8443 109.479 17.3856 109.639 18.4079C109.84 18.9692 110.802 19.2899 110.261 20.1719C107.695 21.2744 107.535 14.5391 109.88 16.0225Z" fill="#23C8AC"/>
<path fill-rule="evenodd" clip-rule="evenodd" d="M111.022 26.4663C110.722 28.11 108.677 27.4686 107.374 27.5888C106.773 27.649 106.131 27.9096 105.61 27.9697C102.764 28.2504 99.4762 27.9296 96.6698 28.2103C96.0283 28.2704 95.4871 28.531 94.9058 28.5911C93.4625 28.7515 91.9991 28.4909 90.4957 28.5911C89.3731 28.6713 88.2105 28.992 87.108 29.0923C83.7603 29.3729 80.1521 29.0923 76.5439 29.0923C73.056 29.0923 69.4477 29.0923 65.9798 29.0923C56.8389 29.0923 48.079 28.8517 40.4416 29.5934C39.1987 29.7137 37.6552 30.4554 36.673 29.4731C37.2944 28.1501 38.9582 28.4709 40.0607 28.3506C50.0836 27.208 64.1958 27.8495 75.9225 27.8495C79.5107 27.8495 83.159 28.1902 86.4866 27.8495C87.7895 27.7091 89.0925 27.3283 90.3955 27.228C91.8989 27.1078 93.3622 27.3884 94.8055 27.228C95.2866 27.1679 95.7276 26.9274 96.309 26.8472C98.9349 26.5064 102.483 26.8071 105.37 26.5866C106.592 26.4863 108.797 26.5665 109.639 26.2057C110 26.0654 110.682 25.7046 111.022 26.4663Z" fill="#23C8AC"/>
<path fill-rule="evenodd" clip-rule="evenodd" d="M27.3516 30.2348C26.7102 31.217 25.5475 30.4553 24.5853 30.3551C21.8391 30.0945 16.3666 30.1145 13.2595 30.3551C12.5579 30.4152 11.4153 30.4753 10.9943 30.5956C10.0722 30.8963 8.82939 32.4799 8.60889 33.4822C8.42848 34.284 9.08998 35.4667 8.10774 35.9879C7.04532 36.1683 7.0253 34.1838 7.22576 33.2216C7.54649 31.7182 9.45082 30.1345 10.2526 29.3327C13.8809 29.0922 19.9949 28.571 24.3448 28.9518C25.4473 29.0922 27.0509 29.0922 27.3516 30.2348Z" fill="#23C8AC"/>
<path fill-rule="evenodd" clip-rule="evenodd" d="M30.3786 29.2326C33.0447 29.2527 29.1758 31.4978 30.3786 29.2326V29.2326Z" fill="#23C8AC"/>
<path fill-rule="evenodd" clip-rule="evenodd" d="M39.9403 78.3045C38.477 75.9993 36.0514 73.7742 34.528 70.8876C33.1047 68.2014 31.3007 64.8939 30.8797 61.8269C30.4587 58.8201 31.2606 54.851 31.882 52.7662C32.9644 49.0979 36.5526 47.0132 40.1809 45.8505C42.9472 44.9685 47.5778 45.9307 49.6224 46.4719C50.5646 46.7325 51.5869 46.8728 52.509 47.0933C55.3354 47.7949 58.0817 50 59.6854 51.7439C60.1063 52.205 61.269 54.3699 61.6899 54.3899C62.1109 54.3899 62.9127 52.6059 63.3337 52.2451C64.7369 50.9822 66.561 50.2004 68.4854 49.0979C71.3519 47.4541 74.6595 46.7525 79.6709 47.2136C83.4395 47.5544 88.1903 49.6993 89.9945 52.1248C91.5179 54.1895 93.1617 58.5595 93.5225 61.5663C94.0036 65.7158 91.1571 70.1659 89.3731 72.2507C88.03 73.8543 86.1457 75.2375 84.3416 76.5204C80.7534 79.0662 77.6463 82.2736 73.6572 84.4385C71.6527 85.541 69.4676 86.4029 67.4831 87.5856C66.7013 88.0467 65.8595 89.1292 64.8371 89.7305C64.4563 89.951 63.8348 89.9711 63.3337 90.2317C62.6722 90.5724 62.612 90.9533 62.0708 90.9934C61.3692 91.0335 59.9059 90.1114 59.0439 89.6103C52.5691 85.7815 45.0921 83.336 39.9403 78.3045ZM72.0135 82.4539C75.9424 80.3892 78.9893 77.3423 82.4573 74.9168C84.2413 73.6539 86.0856 72.2106 87.3685 70.7673C89.1325 68.7627 91.3977 65.4151 91.0168 61.7067C90.7562 59.2611 89.3129 55.4123 87.9899 53.6483C86.4865 51.6838 82.1967 50.02 79.3101 49.7394C74.1383 49.2583 71.1114 50.5412 68.1246 52.1248C66.0398 53.2474 64.5364 54.2296 63.8548 55.7731C63.3737 56.8355 63.474 58.7599 61.8503 58.5394C61.0484 58.4191 60.6676 57.1362 59.966 56.154C58.1418 53.6483 56.2575 51.3631 53.2908 49.9799C52.489 49.599 51.7072 49.6592 50.6447 49.4788C49.0812 49.2182 47.4375 48.3562 46.2347 48.2159C44.6511 48.0555 41.985 48.0154 40.8223 48.3362C35.851 49.7594 33.7863 52.7061 33.2651 58.6597C32.9645 62.1677 34.1271 63.7914 35.1494 66.2169C37.2141 71.068 39.9403 75.2977 43.8292 78.3045C49.1213 82.3738 56.1974 84.7191 61.6899 88.1269C61.8703 87.3251 62.8927 87.0444 63.8348 87.3651C66.0399 85.1802 69.0868 83.9974 72.0135 82.4539Z" fill="#23C8AC"/>
<path fill-rule="evenodd" clip-rule="evenodd" d="M42.5864 50.2405C42.5664 51.0223 41.8046 51.0423 40.9426 51.0022C38.1763 52.4254 36.3923 55.6328 35.9112 59.5617C35.7909 60.6041 36.0314 61.5262 35.2897 61.5663C34.6082 61.6064 34.4679 60.7244 34.528 59.682C34.7084 56.9959 35.7708 53.8086 37.2943 52.1448C38.1362 51.2026 41.0228 48.4965 42.5864 50.2405Z" fill="#23C8AC"/>
<path fill-rule="evenodd" clip-rule="evenodd" d="M73.7775 52.7663C73.6572 53.9891 72.9757 55.1518 72.3943 56.0338C71.8531 56.8356 71.1716 58.0584 70.0089 58.1787C69.5879 56.0338 72.1739 54.8511 72.6549 52.7663C72.695 52.6059 72.8754 52.5658 72.8955 52.3854C73.4367 52.2652 73.4768 52.646 73.7775 52.7663Z" fill="#23C8AC"/>
<path fill-rule="evenodd" clip-rule="evenodd" d="M77.6866 52.646C77.2255 54.3699 75.7822 55.7731 74.8 57.1763C73.918 58.4192 72.8756 60.2834 71.1517 60.8247C70.43 59.9426 71.4925 59.1609 72.0337 58.5595C73.6373 56.7353 75.1407 53.969 76.9449 52.3854C77.3257 52.3252 77.406 52.5658 77.6866 52.646Z" fill="#23C8AC"/>
<path fill-rule="evenodd" clip-rule="evenodd" d="M81.0741 53.3878C79.8714 57.7778 77.0249 60.925 74.1584 64.0722C73.557 64.7337 71.9133 66.3774 71.3921 65.4553C70.9711 64.6936 72.8354 63.4107 73.2764 62.9296C73.978 62.1678 74.9803 61.3259 75.5415 60.6644C77.4258 58.4393 78.6285 55.7532 79.9516 53.2475C80.2122 52.7865 80.8536 53.1071 81.0741 53.3878Z" fill="#23C8AC"/>
<path fill-rule="evenodd" clip-rule="evenodd" d="M84.8428 54.41C85.2237 56.575 83.6201 58.1787 82.1968 59.8224C79.9717 62.4083 77.6264 64.8138 75.4013 67.4999C74.9803 68.001 74.4792 68.9031 73.6373 68.3819C73.3165 66.8183 74.9803 66.0165 75.7822 65.1144C77.5261 63.0898 79.0897 61.1855 80.9339 59.0807C82.1367 57.6975 83.3194 56.595 83.8205 54.6706C83.7203 54.1094 84.6424 54.2296 84.8428 54.41Z" fill="#23C8AC"/>
<path fill-rule="evenodd" clip-rule="evenodd" d="M120.324 54.9112C121.647 55.9536 120.905 58.0785 121.085 59.9427C121.386 63.13 121.687 68.2817 122.088 72.0303C122.188 72.9324 122.91 74.2353 121.587 74.536C120.865 74.0349 120.785 72.9724 120.705 72.1506C120.404 68.7428 120.123 64.2125 119.823 60.8247C119.702 59.4817 119.943 58.1186 119.823 56.9158C119.762 56.2142 119.301 55.6329 119.702 55.0315C119.963 54.9513 120.103 54.6707 120.324 54.9112Z" fill="#23C8AC"/>
<path fill-rule="evenodd" clip-rule="evenodd" d="M3.95841 72.0102C2.93608 71.7696 3.337 70.3263 3.337 69.3641C3.337 66.5377 3.53745 62.0876 3.337 59.5618C3.29691 59.0206 2.45498 56.6351 3.57754 56.4146C4.51968 56.2342 4.63997 58.8201 4.72016 59.6821C4.84043 61.3258 4.72016 63.8917 4.72016 66.3573C4.72016 68.5824 5.22129 71.469 3.95841 72.0102Z" fill="#23C8AC"/>
<path fill-rule="evenodd" clip-rule="evenodd" d="M87.108 57.2966C87.0879 58.8802 85.6246 59.8825 84.7225 60.9449C83.8004 62.0274 82.9184 63.1299 81.9562 64.092C79.4304 66.6178 77.1653 68.9632 74.399 71.2684C73.9379 71.6694 73.4368 72.4712 72.635 72.2707C71.6126 70.6871 74.0983 69.8853 74.9001 69.2438C78.9093 66.0365 82.6979 61.1053 86.1057 57.1763C86.1859 57.056 86.3262 56.9758 86.4866 56.9157C86.7471 56.9959 86.8875 57.1763 87.108 57.2966Z" fill="#23C8AC"/>
<path fill-rule="evenodd" clip-rule="evenodd" d="M88.371 60.3235C89.0726 61.5663 87.6694 62.6688 86.9879 63.3504C83.0389 67.2994 78.7491 71.0079 73.898 74.1751C72.9359 74.7965 72.0137 75.5382 71.1317 76.1797C70.2898 76.8211 69.4479 77.9837 68.2451 77.8234C67.744 76.6206 69.1472 76.3199 69.508 75.5582C68.2452 75.5582 67.0023 75.5582 65.7394 75.5582C65.2182 77.4224 66.2005 79.5072 65.118 80.71C63.9153 82.033 60.8884 81.2311 59.5854 80.3291C59.2647 78.8056 59.7057 76.5204 59.0842 75.2976C56.6988 75.1172 53.5316 75.7387 51.9079 74.7965C51.2263 73.3532 50.625 69.344 52.2888 68.5021C54.6341 68.6625 56.5184 67.7203 58.8237 68.2415C58.7836 67.1991 58.0219 62.8693 58.7034 61.9472C59.8059 60.4438 63.1535 61.9272 64.8775 61.9472C66.2406 62.7891 65.2784 65.9764 65.7595 67.7404C67.4032 68.2215 70.4702 67.2994 71.5527 68.3618C71.6529 70.1459 71.3121 72.5514 71.0515 74.3956C71.0315 74.4958 70.9313 74.5158 70.9313 74.6361C76.7245 70.9677 81.6758 66.7381 86.4065 61.9271C86.9277 61.3659 87.3688 60.2834 88.371 60.3235ZM61.0688 64.092C60.9084 66.3572 61.4898 67.8607 61.3294 70.1258C60.0064 71.8297 56.2378 70.1459 53.7721 71.0078C53.7721 71.5892 53.712 72.2306 53.8924 72.6516C56.2778 72.9322 58.5631 72.1905 61.0688 73.1527C61.2893 73.9345 61.8305 75.1172 61.9508 76.2999C62.0711 77.3624 61.5299 78.8457 62.9531 78.8056C63.6146 76.8211 62.1112 73.6539 64.0757 73.0124C65.2383 72.6516 66.7818 73.273 68.4857 73.0124C68.8064 72.3709 68.9267 71.509 68.8666 70.4866C67.5836 70.1859 65.6994 70.3263 64.7171 70.7472C62.7527 70.0256 63.1135 66.9787 63.0734 64.3326C62.6925 63.9718 61.8105 64.1121 61.0688 64.092Z" fill="#23C8AC"/>
<path fill-rule="evenodd" clip-rule="evenodd" d="M89.8743 63.7113C89.5134 65.0744 88.2906 66.1368 87.2282 67.099C85.1234 69.0234 82.6378 70.4266 80.1922 72.1305C78.9895 72.9724 77.9872 74.0549 76.7844 74.7765C72.9958 77.0417 69.9688 79.808 66.1 82.1934C65.0977 82.8149 63.4139 84.5187 62.0709 83.1957C62.0508 82.4139 62.8326 82.454 63.454 82.3137C66.8618 80.3292 69.9288 77.7032 73.1361 75.3979C74.2386 74.5961 75.4013 74.135 76.5439 73.3934C77.6263 72.6717 78.6086 71.7496 79.6911 71.0079C82.8783 68.8029 86.2059 66.5978 88.7517 63.591C88.8519 63.4707 88.9722 63.4106 89.1326 63.3304C89.6137 63.2302 89.5736 63.6311 89.8743 63.7113Z" fill="#23C8AC"/>
<path fill-rule="evenodd" clip-rule="evenodd" d="M36.1719 64.5931C36.7332 61.8268 38.3569 65.9362 36.1719 64.5931V64.5931Z" fill="#23C8AC"/>
<path fill-rule="evenodd" clip-rule="evenodd" d="M45.2325 75.2776C45.0521 75.5182 44.8516 75.7186 44.591 75.899C41.6443 74.4758 39.5595 72.2106 38.1764 69.2238C38.9782 67.0589 39.9204 70.0056 40.5618 70.8675C41.1833 71.6694 42.366 73.1126 43.3282 73.7541C44.15 74.3154 45.1724 74.3355 45.2325 75.2776Z" fill="#23C8AC"/>
<path fill-rule="evenodd" clip-rule="evenodd" d="M4.72018 87.3652C5.7826 88.2672 5.22132 89.6304 5.22132 90.6326C5.22132 92.3967 5.10105 94.8422 5.72247 96.8067C6.02315 97.7488 7.62679 100.335 8.36848 101.337C9.11018 102.319 10.353 103.362 11.5157 103.843C11.8364 103.983 13.3599 103.963 13.2797 104.845C13.2195 105.487 12.117 105.507 11.2751 105.226C8.52884 104.304 6.64454 101.197 5.10102 98.5507C3.51741 95.8244 3.95842 91.8153 4.09874 87.4855C4.27915 87.4855 4.59991 87.0244 4.72018 87.3652Z" fill="#23C8AC"/>
<path fill-rule="evenodd" clip-rule="evenodd" d="M122.088 91.0135C122.85 91.7151 122.85 93.5794 122.589 94.7821C122.168 96.8268 119.261 101.598 117.818 102.961C117.257 103.482 116.174 104.184 115.553 103.342C115.433 102.339 116.555 102.339 117.056 101.838C118.199 100.676 121.005 96.3055 121.326 94.1606C121.466 93.1984 121.106 92.1561 121.446 91.1338C121.647 91.1338 121.968 90.6727 122.088 91.0135Z" fill="#23C8AC"/>
<path fill-rule="evenodd" clip-rule="evenodd" d="M2.31471 97.3078C3.17667 98.4905 3.85824 99.7935 4.96075 100.716C5.52203 101.177 6.7849 101.357 6.60449 102.48C4.88055 103.001 3.51746 101.217 2.45504 99.8335C1.55298 98.6508 0.590785 97.9693 1.07188 96.1852C1.6933 95.0827 2.41493 96.4859 2.31471 97.3078Z" fill="#23C8AC"/>
<path fill-rule="evenodd" clip-rule="evenodd" d="M52.2686 97.0471C56.9993 98.0294 65.2782 98.6909 71.3922 98.1898C72.5749 98.0895 73.958 97.3478 74.9202 98.4303C75.0004 99.4927 73.6975 99.0517 72.9157 99.1921C72.4947 99.2722 72.0537 99.5128 71.6528 99.5729C68.5257 99.9538 62.1912 99.5729 58.7033 99.1921C56.6987 98.9716 50.5847 99.192 52.2686 97.0471Z" fill="#23C8AC"/>
<path fill-rule="evenodd" clip-rule="evenodd" d="M79.4304 97.0472C80.1922 97.0071 80.6733 97.7689 80.3124 98.4304C79.6309 98.8313 78.8892 98.29 78.9293 97.5483C79.0897 97.3679 79.25 97.1875 79.4304 97.0472Z" fill="#23C8AC"/>
<path fill-rule="evenodd" clip-rule="evenodd" d="M76.6641 104.845C79.9516 104.745 84.3015 104.865 87.3484 105.086C88.1101 105.146 92.2195 104.564 92.1394 105.847C92.0592 107.11 87.2682 106.308 86.2258 106.228C82.8983 105.968 78.388 106.829 76.1629 105.727C76.0827 105.186 76.4035 105.025 76.6641 104.845Z" fill="#23C8AC"/>
<path fill-rule="evenodd" clip-rule="evenodd" d="M69.0067 105.988C68.5256 106.83 67.3028 106.529 67.363 105.747C67.4231 104.945 68.9065 104.825 69.0067 105.988Z" fill="#23C8AC"/>
<path fill-rule="evenodd" clip-rule="evenodd" d="M64.5965 105.988C64.1355 107.531 60.8881 106.709 58.9437 106.87C54.4334 107.251 48.3395 106.85 43.3481 107.491C42.6665 107.591 40.1809 108.373 40.0806 107.11C40.0005 106.128 42.0652 106.389 42.3458 106.348C43.3882 106.248 46.5353 105.767 47.257 105.727C50.9053 105.426 56.057 105.707 58.9637 105.466C59.8457 105.386 61.0885 105.466 62.1109 105.466C63.0731 105.466 64.2557 105.226 64.5965 105.988Z" fill="#23C8AC"/>
</svg>
