<svg width="820" height="725" viewBox="0 0 820 725" fill="none" xmlns="http://www.w3.org/2000/svg">
<path d="M272.12 58.2174C273.763 54.0537 274.61 49.5442 274.52 44.8894C277.406 42.4693 288.043 39.9891 288.043 39.9891L287.261 35.9957C282.982 36.8224 274.324 35.7402 273.097 35.5798C272.054 32.0825 270.486 28.8557 268.502 25.9596C269.644 22.4873 274.354 18.4388 274.354 18.4388L271.654 15.3924C268.377 18.2784 264.298 20.1323 263.732 20.3829C261.798 18.549 259.668 16.9306 257.373 15.5828C256.662 11.9551 259.929 1.3328 259.929 1.3328L256.081 0C254.533 4.4243 248.615 11.91 248.58 11.9551C245.323 11.1033 241.911 10.7276 238.424 10.8779C236.069 8.07699 234.876 1.93908 234.876 1.93908L230.883 2.73576C231.775 7.26528 231.259 11.7798 231.244 11.9351C228.272 12.6967 225.481 13.8191 222.911 15.2621C219.288 13.8642 211.833 5.97257 211.833 5.97257L208.736 8.69328C211.507 11.865 214.684 19.2805 215.375 20.939C212.649 23.6598 210.41 26.8214 208.716 30.2737C205.094 30.7096 199.958 28.9258 199.958 28.9258L198.665 32.8391C202.067 33.9714 205.053 35.8354 206.316 36.6871C205.534 39.6484 205.144 42.7299 205.179 45.8865C201.441 48.1362 192.342 50.2657 192.342 50.2657L193.138 54.3092C196.876 53.5877 203.771 54.3192 206.381 54.6449C207.413 58.4479 209.057 61.9403 211.181 65.0518C209.708 68.3838 205.64 71.8711 205.64 71.8711L208.37 74.9576C211.066 72.5826 214.183 70.9392 215.551 70.2728C219.073 73.725 223.302 76.3956 227.952 78.0992C229.239 82.0576 228.723 92.0987 228.723 92.0987L232.827 92.4544C233.158 88.7617 235.633 82.6187 236.72 80.0634C239.741 80.3339 242.843 80.2538 245.975 79.6876C247.548 79.407 249.056 78.9861 250.539 78.5101C252.999 81.1657 254.638 86.091 254.638 86.091L258.526 84.7282C257.158 80.7999 256.913 76.7063 256.872 75.7443C261.171 73.3242 264.849 70.0423 267.72 66.1591C271.999 66.8806 280.342 71.2699 280.342 71.2699L282.391 67.6923C278.668 65.5378 273.152 59.3849 272.12 58.2174ZM232.296 11.6896C232.251 11.6996 232.211 11.7096 232.165 11.7196C232.206 11.7096 232.251 11.6996 232.296 11.6896Z" fill="#91E3D5"/>
<g opacity="0.5">
<path d="M570.721 305.813C572.365 301.649 573.211 297.139 573.121 292.485C576.007 290.065 586.645 287.584 586.645 287.584L585.863 283.591C581.584 284.418 572.926 283.335 571.698 283.175C570.656 279.678 569.088 276.451 567.104 273.555C568.246 270.083 572.956 266.034 572.956 266.034L570.255 262.988C566.978 265.874 562.9 267.728 562.334 267.978C560.399 266.144 558.27 264.526 555.975 263.178C555.264 259.55 558.531 248.928 558.531 248.928L554.682 247.595C553.134 252.02 547.217 259.505 547.182 259.55C543.925 258.699 540.513 258.323 537.025 258.473C534.67 255.672 533.478 249.534 533.478 249.534L529.484 250.331C530.376 254.86 529.86 259.375 529.845 259.53C526.874 260.292 524.083 261.414 521.513 262.857C517.89 261.459 510.434 253.568 510.434 253.568L507.338 256.288C510.109 259.46 513.285 266.876 513.977 268.534C511.251 271.255 509.011 274.417 507.318 277.869C503.695 278.305 498.559 276.521 498.559 276.521L497.267 280.434C500.669 281.567 503.655 283.431 504.918 284.282C504.136 287.244 503.745 290.325 503.78 293.482C500.043 295.731 490.943 297.861 490.943 297.861L491.74 301.904C495.478 301.183 502.372 301.914 504.983 302.24C506.015 306.043 507.659 309.535 509.783 312.647C508.31 315.979 504.241 319.466 504.241 319.466L506.972 322.553C509.668 320.178 512.784 318.534 514.152 317.868C517.675 321.32 521.904 323.991 526.553 325.694C527.841 329.653 527.325 339.694 527.325 339.694L531.429 340.05C531.759 336.357 534.234 330.214 535.322 327.659C538.343 327.929 541.445 327.849 544.576 327.283C546.15 327.002 547.658 326.581 549.141 326.105C551.601 328.761 553.239 333.686 553.239 333.686L557.128 332.323C555.76 328.395 555.514 324.302 555.474 323.339C559.773 320.919 563.451 317.638 566.322 313.754C570.601 314.476 578.943 318.865 578.943 318.865L580.993 315.288C577.27 313.133 571.753 306.98 570.721 305.813ZM530.897 259.285C530.852 259.295 530.812 259.305 530.767 259.315C530.807 259.305 530.852 259.295 530.897 259.285Z" fill="#91E3D5"/>
<g opacity="0.2">
<path opacity="0.2" d="M563.125 301.839C561.417 301.283 561.141 297.766 559.848 293.181C559.718 292.605 559.488 292.014 559.322 291.402C559.137 290.796 558.896 290.175 558.681 289.543C558.175 288.291 557.659 286.973 556.962 285.68C555.624 283.075 553.806 280.504 551.541 278.29C549.236 276.12 546.59 274.407 543.93 273.179C542.607 272.543 541.274 272.077 539.997 271.626C539.355 271.44 538.724 271.225 538.113 271.065C537.496 270.924 536.895 270.719 536.314 270.614C531.674 269.516 528.157 269.386 527.525 267.703C527.38 267.297 527.44 266.836 527.721 266.32C528.001 265.819 528.487 265.202 529.219 264.661C530.657 263.504 533.047 262.381 536.239 261.77C537.035 261.59 537.877 261.53 538.764 261.434C539.651 261.359 540.573 261.364 541.54 261.369C543.454 261.464 545.528 261.695 547.643 262.271C549.752 262.847 551.957 263.629 554.081 264.816C556.211 265.984 558.295 267.462 560.204 269.266C562.088 271.095 563.646 273.114 564.904 275.193C566.177 277.263 567.048 279.432 567.715 281.517C568.376 283.606 568.697 285.665 568.867 287.579C568.912 288.541 568.957 289.468 568.917 290.355C568.857 291.247 568.837 292.089 568.687 292.89C568.211 296.102 567.189 298.537 566.091 300.025C565.58 300.777 564.984 301.288 564.498 301.589C563.992 301.884 563.536 301.965 563.125 301.839Z" fill="white"/>
</g>
<path d="M511.131 251.378C511.632 251.934 510.655 253.628 508.946 255.171C508.37 255.692 507.784 256.128 507.243 256.454C506.18 257.095 505.284 257.321 504.953 256.955C504.452 256.399 505.429 254.705 507.137 253.162C508.841 251.624 510.63 250.827 511.131 251.378Z" fill="#91E3D5"/>
<path opacity="0.3" d="M507.398 256.364C507.398 256.364 509.402 255.041 510.429 253.568C510.955 254.119 511.562 254.745 512.188 255.362C512.188 255.362 509.377 257.025 507.964 257.07L507.398 256.364Z" fill="black"/>
<path d="M498.053 274.276C498.765 274.502 498.78 276.461 498.093 278.651C497.858 279.392 497.577 280.064 497.272 280.625C496.68 281.717 496.024 282.363 495.553 282.218C494.842 281.993 494.827 280.033 495.513 277.844C496.204 275.649 497.342 274.051 498.053 274.276Z" fill="#91E3D5"/>
<path opacity="0.3" d="M497.357 280.464C497.357 280.464 498.564 278.415 498.554 276.521C499.281 276.772 500.083 277.002 500.939 277.217C500.939 277.217 499.401 280.013 498.204 280.765L497.357 280.464Z" fill="black"/>
<path d="M489.405 296.147C490.137 295.992 491.109 297.691 491.585 299.94C491.745 300.702 491.825 301.428 491.835 302.06C491.855 303.302 491.6 304.189 491.119 304.289C490.387 304.445 489.415 302.746 488.939 300.496C488.468 298.247 488.674 296.303 489.405 296.147Z" fill="#91E3D5"/>
<path opacity="0.3" d="M491.835 301.884C491.835 301.884 491.7 299.489 490.943 297.861C491.685 297.681 492.532 297.475 493.378 297.245C493.378 297.245 493.399 300.511 492.727 301.754L491.835 301.884Z" fill="black"/>
<path d="M502.047 318.77C502.598 318.269 504.301 319.241 505.85 320.94C506.371 321.516 506.812 322.097 507.142 322.638C507.789 323.701 508.019 324.592 507.654 324.923C507.102 325.424 505.399 324.452 503.851 322.754C502.302 321.055 501.496 319.271 502.047 318.77Z" fill="#91E3D5"/>
<path opacity="0.3" d="M507.047 322.483C507.047 322.483 505.885 320.409 504.241 319.462C504.823 318.96 505.429 318.379 506.045 317.753C506.045 317.753 507.689 320.489 507.739 321.902L507.047 322.483Z" fill="black"/>
<path d="M525.256 340.696C525.311 339.949 527.215 339.483 529.505 339.654C530.281 339.709 530.998 339.834 531.614 339.999C532.811 340.325 533.593 340.816 533.558 341.307C533.503 342.054 531.599 342.52 529.309 342.349C527.019 342.179 525.205 341.438 525.256 340.696Z" fill="#91E3D5"/>
<path opacity="0.3" d="M531.439 339.95C531.439 339.95 529.099 339.413 527.325 339.689C527.355 338.927 527.39 338.056 527.405 337.179C527.405 337.179 530.552 338.066 531.559 339.053L531.439 339.95Z" fill="black"/>
<path d="M551.771 335.45C551.516 334.749 553.054 333.541 555.214 332.749C555.945 332.484 556.652 332.298 557.278 332.198C558.506 332.003 559.417 332.128 559.588 332.589C559.843 333.291 558.305 334.498 556.146 335.29C553.986 336.081 552.027 336.152 551.771 335.45Z" fill="#91E3D5"/>
<path opacity="0.3" d="M557.098 332.228C557.098 332.228 554.738 332.524 553.239 333.686C552.994 332.955 552.688 332.178 552.338 331.372C552.338 331.372 555.494 330.886 556.822 331.372L557.098 332.228Z" fill="black"/>
<path d="M578.989 321.16C578.337 320.799 578.713 318.875 579.825 316.866C580.201 316.185 580.617 315.583 581.023 315.097C581.82 314.145 582.596 313.644 583.027 313.88C583.678 314.24 583.303 316.165 582.19 318.174C581.078 320.183 579.64 321.521 578.989 321.16Z" fill="#91E3D5"/>
<path opacity="0.3" d="M580.908 315.232C580.908 315.232 579.44 317.131 578.943 318.86C578.267 318.509 577.49 318.114 576.699 317.733C576.699 317.733 578.823 315.248 580.146 314.751L580.908 315.232Z" fill="black"/>
<path opacity="0.3" d="M524.689 300.647C525.165 303.293 524.108 305.698 522.324 306.013C520.546 306.334 518.717 304.445 518.241 301.799C517.765 299.154 518.822 296.749 520.606 296.433C522.39 296.118 524.218 298.002 524.689 300.647Z" fill="black"/>
<path d="M522.996 298.152C523.472 300.797 522.415 303.202 520.631 303.518C518.852 303.839 517.023 301.95 516.547 299.304C516.071 296.659 517.128 294.254 518.912 293.938C520.696 293.622 522.52 295.506 522.996 298.152Z" fill="#91E3D5"/>
<path opacity="0.2" d="M522.996 298.152C523.472 300.797 522.415 303.202 520.631 303.518C518.852 303.839 517.023 301.95 516.547 299.304C516.071 296.659 517.128 294.254 518.912 293.938C520.696 293.622 522.52 295.506 522.996 298.152Z" fill="white"/>
<path opacity="0.3" d="M518.456 273.36C520.571 271.701 523.191 271.511 524.304 272.934C525.421 274.357 524.609 276.852 522.495 278.51C520.38 280.169 517.76 280.359 516.647 278.936C515.53 277.513 516.337 275.018 518.456 273.36Z" fill="black"/>
<path d="M516.587 271.1C518.702 269.441 521.322 269.251 522.435 270.674C523.552 272.097 522.74 274.592 520.626 276.251C518.511 277.909 515.891 278.099 514.779 276.676C513.661 275.254 514.473 272.753 516.587 271.1Z" fill="#91E3D5"/>
<path opacity="0.2" d="M516.587 271.1C518.702 269.441 521.322 269.251 522.435 270.674C523.552 272.097 522.74 274.592 520.626 276.251C518.511 277.909 515.891 278.099 514.779 276.676C513.661 275.254 514.473 272.753 516.587 271.1Z" fill="white"/>
<path opacity="0.3" d="M536.75 313.338C537.06 315.082 535.903 316.746 534.164 317.056C532.421 317.367 530.757 316.21 530.446 314.471C530.136 312.727 531.293 311.064 533.032 310.753C534.776 310.442 536.439 311.6 536.75 313.338Z" fill="black"/>
<path d="M536.449 311.65C536.76 313.394 535.602 315.057 533.864 315.368C532.12 315.678 530.457 314.521 530.146 312.782C529.835 311.039 530.993 309.375 532.731 309.065C534.47 308.754 536.133 309.911 536.449 311.65Z" fill="#91E3D5"/>
<path opacity="0.3" d="M536.449 311.65C536.76 313.394 535.602 315.057 533.864 315.368C532.12 315.678 530.457 314.521 530.146 312.782C529.835 311.039 530.993 309.375 532.731 309.065C534.47 308.754 536.133 309.911 536.449 311.65Z" fill="white"/>
<path opacity="0.3" d="M550.202 283.292C552.324 282.814 553.657 280.707 553.179 278.585C552.702 276.463 550.594 275.13 548.472 275.607C546.35 276.085 545.017 278.192 545.495 280.314C545.973 282.436 548.08 283.769 550.202 283.292Z" fill="black"/>
<path d="M553.791 279.783C552.623 281.617 550.188 282.158 548.354 280.99C546.52 279.823 545.979 277.388 547.147 275.554C548.314 273.72 550.749 273.179 552.583 274.346C554.417 275.514 554.958 277.944 553.791 279.783Z" fill="#91E3D5"/>
<path opacity="0.3" d="M553.791 279.783C552.623 281.617 550.188 282.158 548.354 280.99C546.52 279.823 545.979 277.388 547.147 275.554C548.314 273.72 550.749 273.179 552.583 274.346C554.417 275.514 554.958 277.944 553.791 279.783Z" fill="white"/>
<path opacity="0.3" d="M553.365 313.574C553.595 314.852 552.743 316.074 551.466 316.3C550.188 316.53 548.965 315.679 548.74 314.401C548.509 313.123 549.361 311.901 550.639 311.675C551.912 311.445 553.134 312.296 553.365 313.574Z" fill="black"/>
<path d="M553.144 312.331C553.375 313.609 552.523 314.832 551.245 315.057C549.968 315.288 548.745 314.436 548.52 313.158C548.289 311.88 549.141 310.663 550.419 310.432C551.691 310.207 552.914 311.059 553.144 312.331Z" fill="#91E3D5"/>
<path opacity="0.3" d="M553.144 312.331C553.375 313.609 552.523 314.832 551.245 315.057C549.968 315.288 548.745 314.436 548.52 313.158C548.289 311.88 549.141 310.663 550.419 310.432C551.691 310.207 552.914 311.059 553.144 312.331Z" fill="white"/>
<path d="M588.158 289.273C587.436 289.423 586.474 287.745 586.008 285.525C585.848 284.774 585.768 284.057 585.758 283.431C585.738 282.203 585.988 281.326 586.469 281.226C587.191 281.076 588.153 282.754 588.619 284.974C589.09 287.199 588.879 289.123 588.158 289.273Z" fill="#91E3D5"/>
<path opacity="0.3" d="M585.763 283.606C585.763 283.606 585.893 285.971 586.645 287.585C585.913 287.76 585.076 287.965 584.24 288.196C584.24 288.196 584.22 284.969 584.886 283.741L585.763 283.606Z" fill="black"/>
<path d="M575.12 266.725C574.574 267.222 572.896 266.259 571.368 264.581C570.851 264.015 570.421 263.434 570.095 262.902C569.459 261.855 569.233 260.973 569.594 260.643C570.14 260.147 571.818 261.109 573.347 262.787C574.87 264.466 575.662 266.229 575.12 266.725Z" fill="#91E3D5"/>
<path opacity="0.3" d="M570.185 263.053C570.185 263.053 571.332 265.102 572.956 266.039C572.38 266.535 571.783 267.106 571.177 267.728C571.177 267.728 569.554 265.022 569.509 263.629L570.185 263.053Z" fill="black"/>
<path d="M560.75 248.467C560.52 249.169 558.581 249.154 556.426 248.442C555.7 248.202 555.038 247.911 554.492 247.605C553.425 247.004 552.793 246.348 552.944 245.882C553.174 245.18 555.113 245.195 557.268 245.907C559.422 246.618 560.981 247.766 560.75 248.467Z" fill="#91E3D5"/>
<path opacity="0.3" d="M554.647 247.686C554.647 247.686 556.757 248.763 558.526 248.928C558.31 249.65 558.07 250.476 557.839 251.313C557.839 251.313 555.038 249.705 554.312 248.517L554.647 247.686Z" fill="black"/>
<path d="M535.156 248.006C535.312 248.728 533.633 249.695 531.414 250.171C530.662 250.331 529.945 250.416 529.319 250.426C528.092 250.451 527.215 250.201 527.114 249.725C526.959 249.003 528.638 248.036 530.857 247.56C533.077 247.089 535.001 247.285 535.156 248.006Z" fill="#91E3D5"/>
<path opacity="0.3" d="M529.499 250.426C529.499 250.426 531.849 250.466 533.473 249.534C533.613 250.281 533.804 251.083 534.034 251.919C534.034 251.919 530.882 251.96 529.65 251.298L529.499 250.426Z" fill="black"/>
<path opacity="0.3" d="M560.344 303.894C559.528 306.454 557.468 308.082 555.745 307.531C554.021 306.98 553.29 304.46 554.106 301.899C554.923 299.339 556.982 297.711 558.706 298.262C560.43 298.813 561.161 301.333 560.344 303.894Z" fill="black"/>
<path d="M561.487 302.35C560.67 304.911 558.611 306.539 556.887 305.988C555.163 305.437 554.432 302.917 555.249 300.356C556.065 297.796 558.125 296.167 559.848 296.719C561.577 297.27 562.309 299.79 561.487 302.35Z" fill="#91E3D5"/>
<path opacity="0.3" d="M561.487 302.35C560.67 304.911 558.611 306.539 556.887 305.988C555.163 305.437 554.432 302.917 555.249 300.356C556.065 297.796 558.125 296.167 559.848 296.719C561.577 297.27 562.309 299.79 561.487 302.35Z" fill="white"/>
<path opacity="0.3" d="M543.058 291.237C543.534 293.883 541.77 296.413 539.125 296.884C536.479 297.36 533.949 295.596 533.478 292.951C533.002 290.305 534.766 287.775 537.411 287.304C540.057 286.833 542.587 288.592 543.058 291.237Z" fill="black"/>
<path d="M542.562 288.451C543.038 291.097 541.274 293.627 538.629 294.098C535.983 294.574 533.453 292.81 532.982 290.165C532.506 287.519 534.27 284.989 536.915 284.518C539.556 284.047 542.086 285.806 542.562 288.451Z" fill="#91E3D5"/>
<path opacity="0.2" d="M542.562 288.451C543.038 291.097 541.274 293.627 538.629 294.098C535.983 294.574 533.453 292.81 532.982 290.165C532.506 287.519 534.27 284.989 536.915 284.518C539.556 284.047 542.086 285.806 542.562 288.451Z" fill="white"/>
<g opacity="0.3">
<path opacity="0.3" d="M560.169 315.223C560.445 315.543 560.119 316.375 559.177 317.553C558.235 318.73 556.622 320.203 554.352 321.661C553.219 322.393 551.907 323.079 550.449 323.736C548.98 324.352 547.372 324.953 545.618 325.384C542.126 326.286 538.088 326.652 533.894 326.186C529.705 325.68 525.857 324.392 522.665 322.713C521.057 321.892 519.629 320.94 518.341 319.998C517.073 319.026 515.956 318.054 515.019 317.082C513.14 315.142 511.913 313.339 511.266 311.976C510.615 310.613 510.495 309.726 510.835 309.481C511.582 308.934 513.862 311.099 517.845 313.679C518.837 314.331 519.954 314.982 521.157 315.643C522.38 316.275 523.687 316.931 525.11 317.497C527.941 318.655 531.173 319.557 534.625 319.978C538.078 320.358 541.43 320.223 544.451 319.747C545.964 319.527 547.387 319.186 548.72 318.85C550.043 318.479 551.28 318.104 552.393 317.698C556.857 316.099 559.573 314.521 560.169 315.223Z" fill="black"/>
</g>
<g opacity="0.3">
<path opacity="0.3" d="M508.21 297.485C509.893 297.099 511.552 298.086 511.918 299.685C512.283 301.283 511.211 302.892 509.528 303.272C507.844 303.653 506.185 302.671 505.82 301.073C505.459 299.474 506.531 297.871 508.21 297.485Z" fill="black"/>
</g>
</g>
<path d="M809.652 703.8C810.574 701.465 811.048 698.937 810.998 696.327C812.616 694.97 818.581 693.579 818.581 693.579L818.142 691.34C815.743 691.803 810.888 691.197 810.2 691.107C809.616 689.146 808.736 687.336 807.624 685.713C808.264 683.766 810.905 681.496 810.905 681.496L809.391 679.788C807.554 681.406 805.267 682.445 804.949 682.586C803.865 681.557 802.671 680.65 801.384 679.894C800.985 677.86 802.817 671.904 802.817 671.904L800.659 671.157C799.791 673.638 796.473 677.835 796.453 677.86C794.627 677.383 792.714 677.172 790.759 677.256C789.438 675.686 788.77 672.244 788.77 672.244L786.531 672.691C787.031 675.231 786.741 677.762 786.733 677.849C785.067 678.276 783.502 678.905 782.061 679.715C780.03 678.931 775.849 674.506 775.849 674.506L774.113 676.031C775.667 677.81 777.448 681.968 777.835 682.898C776.307 684.423 775.051 686.196 774.102 688.132C772.07 688.376 769.191 687.376 769.191 687.376L768.466 689.57C770.374 690.205 772.048 691.25 772.756 691.728C772.318 693.388 772.099 695.116 772.118 696.886C770.022 698.147 764.92 699.341 764.92 699.341L765.367 701.608C767.463 701.204 771.329 701.614 772.792 701.797C773.371 703.929 774.293 705.887 775.484 707.632C774.658 709.5 772.377 711.455 772.377 711.455L773.908 713.186C775.419 711.854 777.167 710.933 777.934 710.559C779.909 712.495 782.28 713.992 784.887 714.948C785.609 717.167 785.32 722.797 785.32 722.797L787.621 722.997C787.806 720.926 789.194 717.482 789.804 716.049C791.498 716.201 793.237 716.156 794.993 715.838C795.875 715.681 796.72 715.445 797.552 715.178C798.931 716.667 799.85 719.429 799.85 719.429L802.03 718.664C801.263 716.462 801.126 714.167 801.103 713.627C803.514 712.27 805.576 710.43 807.185 708.253C809.585 708.657 814.262 711.118 814.262 711.118L815.411 709.112C813.324 707.904 810.231 704.454 809.652 703.8ZM787.323 677.711C787.298 677.717 787.275 677.723 787.25 677.728C787.272 677.723 787.298 677.717 787.323 677.711Z" fill="#91E3D5"/>
<g opacity="0.2">
<path opacity="0.2" d="M805.393 701.572C804.435 701.26 804.281 699.288 803.556 696.717C803.483 696.394 803.353 696.063 803.261 695.72C803.157 695.38 803.022 695.031 802.901 694.677C802.617 693.975 802.328 693.236 801.937 692.511C801.187 691.051 800.168 689.609 798.898 688.368C797.605 687.151 796.122 686.19 794.63 685.502C793.888 685.145 793.141 684.884 792.425 684.631C792.065 684.527 791.711 684.406 791.368 684.316C791.023 684.238 790.686 684.122 790.36 684.063C787.758 683.448 785.786 683.375 785.432 682.431C785.351 682.204 785.384 681.945 785.542 681.656C785.699 681.375 785.971 681.029 786.382 680.726C787.188 680.077 788.528 679.448 790.318 679.105C790.764 679.004 791.236 678.97 791.734 678.917C792.231 678.874 792.748 678.877 793.29 678.88C794.363 678.933 795.526 679.063 796.712 679.386C797.895 679.709 799.131 680.147 800.322 680.813C801.516 681.468 802.685 682.296 803.755 683.308C804.812 684.333 805.685 685.465 806.39 686.631C807.104 687.792 807.593 689.008 807.967 690.177C808.337 691.348 808.517 692.503 808.613 693.576C808.638 694.116 808.663 694.635 808.641 695.133C808.607 695.633 808.596 696.105 808.512 696.554C808.245 698.355 807.672 699.72 807.056 700.555C806.77 700.976 806.435 701.263 806.163 701.431C805.879 701.597 805.623 701.642 805.393 701.572Z" fill="white"/>
</g>
<path d="M776.24 673.278C776.521 673.59 775.973 674.54 775.015 675.405C774.692 675.697 774.363 675.941 774.06 676.124C773.464 676.484 772.961 676.61 772.776 676.405C772.495 676.093 773.043 675.144 774.001 674.278C774.956 673.416 775.959 672.969 776.24 673.278Z" fill="#91E3D5"/>
<path opacity="0.3" d="M774.147 676.074C774.147 676.074 775.27 675.332 775.846 674.506C776.141 674.815 776.481 675.166 776.832 675.512C776.832 675.512 775.256 676.444 774.464 676.47L774.147 676.074Z" fill="black"/>
<path d="M768.907 686.117C769.306 686.244 769.314 687.342 768.93 688.57C768.798 688.986 768.64 689.362 768.469 689.677C768.137 690.289 767.769 690.652 767.505 690.57C767.106 690.444 767.098 689.345 767.483 688.117C767.87 686.887 768.508 685.991 768.907 686.117Z" fill="#91E3D5"/>
<path opacity="0.3" d="M768.517 689.587C768.517 689.587 769.194 688.438 769.188 687.376C769.595 687.516 770.045 687.645 770.525 687.766C770.525 687.766 769.663 689.334 768.991 689.755L768.517 689.587Z" fill="black"/>
<path d="M764.058 698.38C764.468 698.293 765.013 699.246 765.28 700.507C765.37 700.934 765.415 701.341 765.421 701.695C765.432 702.392 765.289 702.889 765.019 702.946C764.609 703.033 764.064 702.08 763.797 700.819C763.533 699.557 763.648 698.467 764.058 698.38Z" fill="#91E3D5"/>
<path opacity="0.3" d="M765.421 701.597C765.421 701.597 765.345 700.254 764.921 699.341C765.336 699.24 765.811 699.125 766.286 698.996C766.286 698.996 766.297 700.827 765.921 701.524L765.421 701.597Z" fill="black"/>
<path d="M771.146 711.065C771.455 710.784 772.41 711.329 773.279 712.281C773.571 712.604 773.818 712.93 774.003 713.234C774.366 713.829 774.495 714.329 774.29 714.515C773.981 714.796 773.026 714.251 772.158 713.298C771.289 712.346 770.837 711.346 771.146 711.065Z" fill="#91E3D5"/>
<path opacity="0.3" d="M773.95 713.147C773.95 713.147 773.298 711.984 772.377 711.453C772.703 711.172 773.043 710.846 773.388 710.495C773.388 710.495 774.31 712.029 774.338 712.821L773.95 713.147Z" fill="black"/>
<path d="M784.159 723.359C784.19 722.94 785.258 722.679 786.542 722.775C786.977 722.805 787.379 722.876 787.725 722.968C788.396 723.151 788.834 723.426 788.815 723.702C788.784 724.12 787.716 724.382 786.432 724.286C785.148 724.191 784.131 723.775 784.159 723.359Z" fill="#91E3D5"/>
<path opacity="0.3" d="M787.626 722.94C787.626 722.94 786.314 722.64 785.32 722.794C785.337 722.367 785.356 721.878 785.365 721.387C785.365 721.387 787.129 721.884 787.694 722.437L787.626 722.94Z" fill="black"/>
<path d="M799.027 720.418C798.884 720.024 799.746 719.347 800.957 718.903C801.367 718.754 801.763 718.65 802.114 718.594C802.803 718.485 803.314 718.555 803.41 718.813C803.553 719.207 802.69 719.884 801.48 720.328C800.269 720.772 799.17 720.811 799.027 720.418Z" fill="#91E3D5"/>
<path opacity="0.3" d="M802.013 718.611C802.013 718.611 800.69 718.777 799.85 719.429C799.712 719.018 799.541 718.583 799.344 718.131C799.344 718.131 801.114 717.858 801.859 718.131L802.013 718.611Z" fill="black"/>
<path d="M814.288 712.405C813.922 712.203 814.133 711.124 814.757 709.997C814.968 709.615 815.201 709.278 815.428 709.006C815.875 708.472 816.311 708.191 816.552 708.323C816.917 708.525 816.707 709.604 816.083 710.731C815.459 711.857 814.653 712.607 814.288 712.405Z" fill="#91E3D5"/>
<path opacity="0.3" d="M815.364 709.081C815.364 709.081 814.541 710.146 814.262 711.116C813.883 710.919 813.448 710.697 813.004 710.483C813.004 710.483 814.195 709.09 814.937 708.812L815.364 709.081Z" fill="black"/>
<path opacity="0.3" d="M783.842 700.903C784.109 702.387 783.516 703.735 782.516 703.912C781.519 704.092 780.493 703.033 780.226 701.549C779.959 700.066 780.552 698.718 781.552 698.541C782.552 698.364 783.578 699.42 783.842 700.903Z" fill="black"/>
<path d="M782.892 699.504C783.159 700.988 782.566 702.336 781.566 702.513C780.569 702.693 779.544 701.634 779.277 700.15C779.01 698.667 779.603 697.318 780.603 697.141C781.603 696.964 782.625 698.021 782.892 699.504Z" fill="#91E3D5"/>
<path opacity="0.2" d="M782.892 699.504C783.159 700.988 782.566 702.336 781.566 702.513C780.569 702.693 779.544 701.634 779.277 700.15C779.01 698.667 779.603 697.318 780.603 697.141C781.603 696.964 782.625 698.021 782.892 699.504Z" fill="white"/>
<path opacity="0.3" d="M780.347 685.603C781.533 684.673 783.002 684.566 783.626 685.364C784.252 686.162 783.797 687.561 782.611 688.491C781.426 689.421 779.956 689.528 779.333 688.73C778.706 687.932 779.159 686.533 780.347 685.603Z" fill="black"/>
<path d="M779.299 684.336C780.485 683.406 781.954 683.299 782.578 684.097C783.204 684.895 782.749 686.294 781.563 687.224C780.378 688.154 778.909 688.261 778.285 687.463C777.658 686.665 778.114 685.263 779.299 684.336Z" fill="#91E3D5"/>
<path opacity="0.2" d="M779.299 684.336C780.485 683.406 781.954 683.299 782.578 684.097C783.204 684.895 782.749 686.294 781.563 687.224C780.378 688.154 778.909 688.261 778.285 687.463C777.658 686.665 778.114 685.263 779.299 684.336Z" fill="white"/>
<path opacity="0.3" d="M790.604 708.019C790.778 708.997 790.129 709.93 789.155 710.104C788.177 710.278 787.244 709.629 787.07 708.654C786.896 707.677 787.545 706.744 788.52 706.57C789.497 706.396 790.43 707.045 790.604 708.019Z" fill="black"/>
<path d="M790.436 707.073C790.61 708.05 789.961 708.983 788.986 709.157C788.008 709.331 787.076 708.682 786.901 707.708C786.727 706.73 787.376 705.797 788.351 705.623C789.326 705.449 790.259 706.098 790.436 707.073Z" fill="#91E3D5"/>
<path opacity="0.3" d="M790.436 707.073C790.61 708.05 789.961 708.983 788.986 709.157C788.008 709.331 787.076 708.682 786.901 707.708C786.727 706.73 787.376 705.797 788.351 705.623C789.326 705.449 790.259 706.098 790.436 707.073Z" fill="white"/>
<path opacity="0.3" d="M798.147 691.172C799.337 690.904 800.084 689.723 799.816 688.533C799.549 687.343 798.367 686.596 797.177 686.863C795.987 687.131 795.24 688.313 795.508 689.503C795.776 690.693 796.957 691.44 798.147 691.172Z" fill="black"/>
<path d="M800.159 689.205C799.505 690.233 798.139 690.536 797.111 689.882C796.083 689.227 795.779 687.862 796.434 686.833C797.088 685.805 798.454 685.502 799.482 686.156C800.51 686.811 800.814 688.174 800.159 689.205Z" fill="#91E3D5"/>
<path opacity="0.3" d="M800.159 689.205C799.505 690.233 798.139 690.536 797.111 689.882C796.083 689.227 795.779 687.862 796.434 686.833C797.088 685.805 798.454 685.502 799.482 686.156C800.51 686.811 800.814 688.174 800.159 689.205Z" fill="white"/>
<path opacity="0.3" d="M799.92 708.152C800.05 708.868 799.572 709.553 798.856 709.68C798.139 709.809 797.454 709.332 797.327 708.615C797.198 707.899 797.676 707.213 798.392 707.087C799.106 706.958 799.791 707.435 799.92 708.152Z" fill="black"/>
<path d="M799.797 707.455C799.926 708.171 799.448 708.857 798.732 708.983C798.016 709.112 797.33 708.635 797.204 707.918C797.074 707.202 797.552 706.519 798.268 706.39C798.982 706.263 799.667 706.741 799.797 707.455Z" fill="#91E3D5"/>
<path opacity="0.3" d="M799.797 707.455C799.926 708.171 799.448 708.857 798.732 708.983C798.016 709.112 797.33 708.635 797.204 707.918C797.074 707.202 797.552 706.519 798.268 706.39C798.982 706.263 799.667 706.741 799.797 707.455Z" fill="white"/>
<path d="M819.429 694.526C819.024 694.61 818.485 693.669 818.224 692.424C818.134 692.003 818.089 691.601 818.083 691.25C818.072 690.562 818.212 690.07 818.482 690.014C818.887 689.93 819.426 690.871 819.687 692.115C819.952 693.363 819.834 694.441 819.429 694.526Z" fill="#91E3D5"/>
<path opacity="0.3" d="M818.086 691.348C818.086 691.348 818.159 692.674 818.581 693.579C818.17 693.677 817.701 693.792 817.232 693.922C817.232 693.922 817.221 692.112 817.594 691.424L818.086 691.348Z" fill="black"/>
<path d="M812.119 681.883C811.813 682.161 810.871 681.622 810.015 680.681C809.725 680.363 809.484 680.037 809.301 679.74C808.944 679.152 808.818 678.658 809.02 678.473C809.326 678.194 810.267 678.734 811.124 679.675C811.978 680.616 812.422 681.605 812.119 681.883Z" fill="#91E3D5"/>
<path opacity="0.3" d="M809.351 679.824C809.351 679.824 809.995 680.973 810.905 681.498C810.582 681.777 810.248 682.097 809.908 682.445C809.908 682.445 808.997 680.928 808.972 680.147L809.351 679.824Z" fill="black"/>
<path d="M804.061 671.646C803.932 672.039 802.845 672.031 801.637 671.632C801.229 671.497 800.859 671.334 800.552 671.163C799.954 670.825 799.6 670.457 799.684 670.196C799.814 669.803 800.901 669.811 802.109 670.21C803.317 670.609 804.191 671.252 804.061 671.646Z" fill="#91E3D5"/>
<path opacity="0.3" d="M800.64 671.208C800.64 671.208 801.822 671.812 802.814 671.904C802.693 672.309 802.558 672.772 802.429 673.242C802.429 673.242 800.859 672.34 800.451 671.674L800.64 671.208Z" fill="black"/>
<path d="M789.711 671.387C789.798 671.792 788.857 672.334 787.612 672.601C787.191 672.691 786.789 672.739 786.438 672.744C785.75 672.758 785.258 672.618 785.202 672.351C785.115 671.946 786.056 671.404 787.3 671.137C788.545 670.873 789.624 670.983 789.711 671.387Z" fill="#91E3D5"/>
<path opacity="0.3" d="M786.539 672.744C786.539 672.744 787.857 672.767 788.767 672.244C788.846 672.663 788.952 673.112 789.081 673.582C789.081 673.582 787.314 673.604 786.623 673.233L786.539 672.744Z" fill="black"/>
<path opacity="0.3" d="M803.834 702.724C803.376 704.159 802.221 705.072 801.255 704.763C800.288 704.454 799.878 703.041 800.336 701.605C800.794 700.17 801.949 699.257 802.915 699.566C803.882 699.875 804.292 701.288 803.834 702.724Z" fill="black"/>
<path d="M804.474 701.858C804.016 703.294 802.862 704.207 801.895 703.898C800.929 703.589 800.519 702.176 800.977 700.74C801.435 699.305 802.589 698.391 803.556 698.7C804.525 699.01 804.935 700.423 804.474 701.858Z" fill="#91E3D5"/>
<path opacity="0.3" d="M804.474 701.858C804.016 703.294 802.862 704.207 801.895 703.898C800.929 703.589 800.519 702.176 800.977 700.74C801.435 699.305 802.589 698.391 803.556 698.7C804.525 699.01 804.935 700.423 804.474 701.858Z" fill="white"/>
<path opacity="0.3" d="M794.141 695.627C794.408 697.11 793.419 698.529 791.936 698.793C790.453 699.06 789.034 698.071 788.77 696.588C788.503 695.105 789.492 693.686 790.975 693.422C792.458 693.158 793.877 694.144 794.141 695.627Z" fill="black"/>
<path d="M793.863 694.065C794.13 695.548 793.141 696.967 791.658 697.231C790.174 697.498 788.756 696.509 788.492 695.026C788.225 693.543 789.214 692.124 790.697 691.86C792.178 691.596 793.596 692.582 793.863 694.065Z" fill="#91E3D5"/>
<path opacity="0.2" d="M793.863 694.065C794.13 695.548 793.141 696.967 791.658 697.231C790.174 697.498 788.756 696.509 788.492 695.026C788.225 693.543 789.214 692.124 790.697 691.86C792.178 691.596 793.596 692.582 793.863 694.065Z" fill="white"/>
<g opacity="0.3">
<path opacity="0.3" d="M803.736 709.076C803.89 709.256 803.707 709.722 803.179 710.382C802.651 711.042 801.746 711.868 800.474 712.686C799.839 713.096 799.103 713.481 798.285 713.849C797.462 714.195 796.56 714.532 795.577 714.773C793.619 715.279 791.354 715.484 789.003 715.223C786.654 714.939 784.497 714.217 782.707 713.276C781.805 712.815 781.004 712.281 780.282 711.753C779.572 711.208 778.945 710.663 778.42 710.118C777.366 709.031 776.678 708.02 776.315 707.255C775.95 706.491 775.883 705.994 776.074 705.856C776.492 705.55 777.771 706.764 780.004 708.211C780.561 708.576 781.187 708.941 781.861 709.312C782.547 709.666 783.28 710.034 784.078 710.351C785.665 711 787.477 711.506 789.413 711.742C791.349 711.956 793.228 711.88 794.922 711.613C795.771 711.489 796.569 711.298 797.316 711.11C798.058 710.902 798.752 710.691 799.375 710.464C801.878 709.568 803.401 708.683 803.736 709.076Z" fill="black"/>
</g>
<g opacity="0.3">
<path opacity="0.3" d="M774.602 699.13C775.546 698.914 776.476 699.467 776.681 700.364C776.886 701.26 776.285 702.162 775.341 702.375C774.397 702.589 773.467 702.038 773.262 701.142C773.059 700.246 773.661 699.347 774.602 699.13Z" fill="black"/>
</g>
<path opacity="0.3" d="M230.689 416.811C234.272 416.811 237.177 413.906 237.177 410.323C237.177 406.739 234.272 403.834 230.689 403.834C227.105 403.834 224.2 406.739 224.2 410.323C224.2 413.906 227.105 416.811 230.689 416.811Z" fill="white"/>
<path opacity="0.3" d="M349.689 132.937C353.272 132.937 356.177 130.032 356.177 126.449C356.177 122.866 353.272 119.961 349.689 119.961C346.105 119.961 343.2 122.866 343.2 126.449C343.2 130.032 346.105 132.937 349.689 132.937Z" fill="white"/>
<path d="M571.844 535.619C572.082 533.56 571.926 531.432 571.326 529.36C572.357 527.934 576.759 525.586 576.759 525.586L575.934 523.899C573.981 524.843 569.583 525.366 569.583 525.366C569.684 525.522 569.799 525.737 569.913 525.98C567.758 522.115 564.195 519.451 560.179 518.346C559.436 516.8 559.628 511.697 559.628 511.697L557.753 511.559C557.592 513.673 555.914 517.589 555.836 517.768C554.282 517.777 552.714 518.016 551.177 518.497C549.779 517.548 548.532 514.943 548.532 514.943L546.849 515.773C547.743 517.598 548.064 519.575 548.101 519.818C546.858 520.515 545.744 521.354 544.762 522.308C542.965 522.092 538.737 519.483 538.737 519.483L537.683 521.065C539.292 522.147 541.585 525.063 542.094 525.728C541.195 527.274 540.562 528.956 540.218 530.708C538.655 531.318 536.174 531.125 536.174 531.125L536.064 533.024C537.701 533.125 539.246 533.592 539.92 533.821C539.925 535.238 540.117 536.674 540.512 538.081C539.099 539.526 535.321 541.543 535.321 541.543L536.156 543.254C537.733 542.488 540.883 541.997 542.094 541.828C543.011 543.405 544.162 544.776 545.487 545.918C545.216 547.573 543.818 549.6 543.818 549.6L545.404 550.65C546.317 549.279 547.504 548.178 548.041 547.715C550.026 548.839 552.237 549.531 554.52 549.737C555.561 551.361 556.519 555.873 556.519 555.873L558.39 555.543C558.101 553.873 558.468 550.861 558.652 549.568C560.032 549.329 561.407 548.907 562.737 548.288C563.411 547.972 564.044 547.614 564.654 547.225C566.057 548.123 567.364 550.113 567.364 550.113L568.937 549.04C567.868 547.468 567.277 545.693 567.135 545.244C568.767 543.648 570.023 541.74 570.84 539.659C572.843 539.48 577.062 540.443 577.062 540.443L577.548 538.604C575.659 538.104 572.527 536.073 571.844 535.619ZM549.82 518.992C549.637 519.07 549.453 519.144 549.27 519.226C549.453 519.139 549.637 519.061 549.82 518.992Z" fill="#EBEBEB"/>
<path d="M568.098 517.607L566.534 516.571C565.333 518.373 563.485 519.813 563.485 519.813C564.535 520.345 566.406 521.629 566.406 521.629C566.479 519.941 568.098 517.607 568.098 517.607Z" fill="#EBEBEB"/>
<path d="M567.969 534.743C567.139 534.697 566.603 533.166 565.479 531.272C565.355 531.029 565.181 530.795 565.034 530.543C564.879 530.295 564.7 530.048 564.53 529.791C564.154 529.291 563.769 528.768 563.306 528.273C562.398 527.269 561.284 526.338 560.009 525.623C558.72 524.93 557.34 524.481 556.006 524.252C555.341 524.123 554.69 524.078 554.066 524.027C553.759 524.022 553.452 524 553.158 524C552.869 524.009 552.576 523.99 552.305 524.013C550.109 524.073 548.522 524.435 548.041 523.761C547.926 523.596 547.899 523.385 547.963 523.124C548.027 522.867 548.169 522.537 548.431 522.207C548.935 521.519 549.866 520.735 551.214 520.084C551.549 519.909 551.916 519.781 552.301 519.634C552.686 519.497 553.099 519.387 553.53 519.277C554.396 519.089 555.346 518.946 556.359 518.951C557.368 518.956 558.445 519.043 559.532 519.318C560.619 519.584 561.728 519.996 562.792 520.574C563.847 521.166 564.787 521.881 565.594 522.661C566.41 523.431 567.057 524.298 567.598 525.146C568.143 525.999 568.529 526.879 568.831 527.709C568.964 528.136 569.097 528.539 569.184 528.943C569.262 529.346 569.354 529.727 569.386 530.103C569.556 531.588 569.391 532.799 569.079 533.592C568.941 533.987 568.735 534.285 568.552 534.477C568.364 534.656 568.171 534.748 567.969 534.743Z" fill="#FAFAFA"/>
<path d="M538.788 518.428C539.077 518.616 538.843 519.487 538.265 520.377C538.068 520.68 537.861 520.941 537.655 521.152C537.256 521.565 536.885 521.771 536.692 521.647C536.403 521.459 536.637 520.588 537.215 519.698C537.797 518.809 538.499 518.24 538.788 518.428Z" fill="#EBEBEB"/>
<path d="M537.719 521.092C537.719 521.092 538.453 520.267 538.737 519.488C539.04 519.671 539.384 519.877 539.737 520.079C539.737 520.079 538.682 521.157 538.054 521.345L537.719 521.092Z" fill="#E0E0E0"/>
<path d="M535.683 530.19C536.027 530.204 536.266 531.075 536.22 532.134C536.201 532.492 536.156 532.826 536.087 533.111C535.954 533.666 535.738 534.037 535.509 534.023C535.165 534.01 534.927 533.138 534.973 532.079C535.018 531.02 535.339 530.176 535.683 530.19Z" fill="#EBEBEB"/>
<path d="M536.11 533.033C536.11 533.033 536.403 531.974 536.174 531.13C536.527 531.157 536.912 531.162 537.32 531.157C537.32 531.157 536.967 532.588 536.522 533.065L536.11 533.033Z" fill="#E0E0E0"/>
<path d="M534.427 540.97C534.734 540.814 535.372 541.456 535.848 542.401C536.009 542.722 536.133 543.034 536.215 543.318C536.371 543.868 536.362 544.295 536.16 544.395C535.853 544.551 535.216 543.909 534.739 542.965C534.257 542.02 534.12 541.126 534.427 540.97Z" fill="#EBEBEB"/>
<path d="M536.192 543.24C536.192 543.24 535.848 542.19 535.316 541.553C535.624 541.383 535.977 541.19 536.33 540.989C536.33 540.989 536.729 542.442 536.577 543.075L536.192 543.24Z" fill="#E0E0E0"/>
<path d="M542.754 549.554C542.942 549.265 543.813 549.494 544.707 550.068C545.01 550.26 545.276 550.471 545.487 550.673C545.9 551.067 546.111 551.439 545.987 551.631C545.799 551.92 544.927 551.691 544.033 551.118C543.139 550.54 542.566 549.843 542.754 549.554Z" fill="#EBEBEB"/>
<path d="M545.423 550.613C545.423 550.613 544.657 549.829 543.813 549.6C544.015 549.307 544.212 548.976 544.414 548.623C544.414 548.623 545.473 549.65 545.661 550.274L545.423 550.613Z" fill="#E0E0E0"/>
<path d="M555.708 556.57C555.644 556.23 556.437 555.799 557.478 555.598C557.831 555.529 558.166 555.501 558.459 555.501C559.032 555.501 559.44 555.63 559.482 555.854C559.546 556.194 558.753 556.625 557.712 556.826C556.671 557.019 555.772 556.904 555.708 556.57Z" fill="#EBEBEB"/>
<path d="M558.377 555.501C558.377 555.501 557.271 555.543 556.51 555.877C556.432 555.533 556.345 555.144 556.249 554.749C556.249 554.749 557.757 554.768 558.322 555.093L558.377 555.501Z" fill="#E0E0E0"/>
<path d="M566.905 551.077C566.708 550.797 567.249 550.072 568.121 549.462C568.414 549.256 568.707 549.091 568.973 548.972C569.496 548.738 569.918 548.683 570.051 548.871C570.248 549.151 569.707 549.875 568.836 550.485C567.969 551.095 567.103 551.361 566.905 551.077Z" fill="#EBEBEB"/>
<path d="M568.9 549.004C568.9 549.004 567.882 549.417 567.355 550.114C567.158 549.815 566.928 549.508 566.676 549.187C566.676 549.187 568.024 548.596 568.675 548.655L568.9 549.004Z" fill="#E0E0E0"/>
<path d="M577.342 541.47C577.007 541.387 576.947 540.484 577.204 539.457C577.291 539.109 577.406 538.792 577.53 538.526C577.773 538.008 578.057 537.692 578.277 537.747C578.612 537.829 578.672 538.733 578.415 539.76C578.158 540.787 577.676 541.553 577.342 541.47Z" fill="#EBEBEB"/>
<path d="M577.493 538.6C577.493 538.6 577.067 539.622 577.048 540.448C576.704 540.374 576.31 540.287 575.911 540.209C575.911 540.209 576.562 538.847 577.094 538.471L577.493 538.6Z" fill="#E0E0E0"/>
<path d="M550.696 538.778C551.223 539.902 551.035 541.099 550.279 541.452C549.522 541.805 548.486 541.181 547.958 540.058C547.431 538.934 547.619 537.738 548.376 537.384C549.128 537.036 550.169 537.66 550.696 538.778Z" fill="#E0E0E0"/>
<path d="M549.641 537.87C550.169 538.994 549.981 540.191 549.224 540.544C548.467 540.897 547.431 540.273 546.904 539.15C546.376 538.026 546.564 536.83 547.321 536.476C548.078 536.123 549.114 536.747 549.641 537.87Z" fill="#F5F5F5"/>
<path d="M544.671 527.356C545.418 526.366 546.56 525.971 547.229 526.471C547.894 526.971 547.83 528.182 547.087 529.172C546.34 530.162 545.198 530.557 544.529 530.057C543.859 529.557 543.923 528.347 544.671 527.356Z" fill="#E0E0E0"/>
<path d="M543.566 526.572C544.313 525.582 545.455 525.187 546.124 525.687C546.789 526.187 546.725 527.397 545.982 528.388C545.235 529.378 544.093 529.773 543.423 529.273C542.759 528.768 542.823 527.562 543.566 526.572Z" fill="#F5F5F5"/>
<path d="M557.579 543.006C557.927 543.744 557.606 544.625 556.868 544.973C556.13 545.322 555.249 545.001 554.901 544.263C554.552 543.524 554.873 542.644 555.612 542.295C556.354 541.947 557.235 542.268 557.579 543.006Z" fill="#E0E0E0"/>
<path d="M557.244 542.291C557.592 543.029 557.271 543.909 556.533 544.258C555.795 544.606 554.915 544.285 554.566 543.547C554.218 542.809 554.539 541.929 555.277 541.58C556.02 541.232 556.9 541.548 557.244 542.291Z" fill="#F5F5F5"/>
<path d="M560.894 526.943C560.591 527.902 559.569 528.429 558.615 528.126C557.657 527.824 557.129 526.801 557.432 525.847C557.735 524.889 558.757 524.362 559.711 524.664C560.665 524.967 561.197 525.99 560.894 526.943Z" fill="#E0E0E0"/>
<path d="M561.187 526.017C560.885 526.975 559.862 527.503 558.908 527.2C557.95 526.898 557.423 525.875 557.725 524.921C558.028 523.963 559.051 523.436 560.004 523.738C560.958 524.041 561.49 525.059 561.187 526.017Z" fill="#F5F5F5"/>
<path d="M565.016 541.131C565.268 541.672 565.035 542.318 564.493 542.57C563.952 542.823 563.306 542.589 563.054 542.048C562.801 541.507 563.035 540.86 563.576 540.608C564.117 540.356 564.759 540.59 565.016 541.131Z" fill="#E0E0E0"/>
<path d="M564.769 540.608C565.021 541.149 564.787 541.796 564.246 542.048C563.705 542.3 563.058 542.066 562.806 541.525C562.554 540.984 562.788 540.337 563.329 540.085C563.87 539.833 564.516 540.067 564.769 540.608Z" fill="#F5F5F5"/>
<path d="M577.64 526.159C577.337 526.311 576.709 525.678 576.237 524.742C576.076 524.426 575.957 524.114 575.874 523.839C575.719 523.293 575.728 522.876 575.929 522.771C576.232 522.619 576.86 523.252 577.333 524.188C577.805 525.128 577.942 526.008 577.64 526.159Z" fill="#EBEBEB"/>
<path d="M575.897 523.922C575.897 523.922 576.237 524.963 576.764 525.591C576.457 525.756 576.108 525.948 575.764 526.15C575.764 526.15 575.37 524.715 575.521 524.087L575.897 523.922Z" fill="#E0E0E0"/>
<path d="M569.143 517.658C568.96 517.942 568.098 517.718 567.213 517.149C566.915 516.956 566.653 516.75 566.442 516.553C566.034 516.163 565.828 515.796 565.947 515.604C566.13 515.319 566.992 515.544 567.877 516.113C568.762 516.681 569.326 517.374 569.143 517.658Z" fill="#EBEBEB"/>
<path d="M566.506 516.608C566.506 516.608 567.263 517.383 568.098 517.608C567.9 517.896 567.703 518.222 567.506 518.57C567.506 518.57 566.461 517.557 566.273 516.943L566.506 516.608Z" fill="#E0E0E0"/>
<path d="M560.564 511.229C560.545 511.569 559.679 511.793 558.633 511.734C558.28 511.711 557.95 511.66 557.67 511.591C557.12 511.449 556.762 511.234 556.776 511.009C556.795 510.67 557.661 510.445 558.707 510.505C559.757 510.564 560.587 510.89 560.564 511.229Z" fill="#EBEBEB"/>
<path d="M557.753 511.605C557.753 511.605 558.821 511.835 559.628 511.697C559.619 512.045 559.61 512.44 559.605 512.843C559.605 512.843 558.166 512.458 557.702 512.013L557.753 511.605Z" fill="#E0E0E0"/>
<path d="M549.1 514.068C549.256 514.37 548.623 515.003 547.688 515.48C547.371 515.64 547.064 515.764 546.785 515.842C546.239 515.998 545.822 515.994 545.716 515.792C545.56 515.489 546.193 514.856 547.128 514.379C548.064 513.903 548.944 513.765 549.1 514.068Z" fill="#EBEBEB"/>
<path d="M546.867 515.819C546.867 515.819 547.917 515.558 548.532 514.948C548.683 515.264 548.866 515.599 549.068 515.948C549.068 515.948 547.665 516.342 547.041 516.191L546.867 515.819Z" fill="#E0E0E0"/>
<path d="M566.974 535.986C566.915 537.224 566.19 538.196 565.355 538.155C564.521 538.113 563.897 537.077 563.957 535.839C564.017 534.601 564.741 533.629 565.576 533.67C566.41 533.711 567.034 534.748 566.974 535.986Z" fill="#E0E0E0"/>
<path d="M567.3 535.163C567.361 533.923 566.735 532.885 565.903 532.845C565.071 532.804 564.347 533.776 564.287 535.015C564.226 536.255 564.852 537.292 565.684 537.333C566.516 537.374 567.24 536.402 567.3 535.163Z" fill="#F5F5F5"/>
<path d="M557.767 532.4C558.294 533.523 557.808 534.858 556.684 535.385C555.561 535.912 554.227 535.426 553.699 534.303C553.172 533.18 553.658 531.845 554.782 531.318C555.9 530.795 557.239 531.277 557.767 532.4Z" fill="#E0E0E0"/>
<path d="M557.212 531.217C557.739 532.34 557.253 533.675 556.13 534.202C555.006 534.729 553.672 534.243 553.145 533.12C552.617 531.996 553.103 530.662 554.227 530.135C555.35 529.612 556.684 530.094 557.212 531.217Z" fill="#F5F5F5"/>
<path d="M568.244 541.057C568.405 541.167 568.359 541.575 568.079 542.213C567.8 542.85 567.254 543.699 566.415 544.616C565.997 545.079 565.493 545.542 564.92 546.005C564.338 546.454 563.691 546.913 562.962 547.316C561.513 548.133 559.757 548.779 557.831 549.068C555.9 549.339 554.034 549.224 552.411 548.857C551.595 548.683 550.847 548.426 550.159 548.16C549.481 547.876 548.866 547.578 548.33 547.257C547.261 546.615 546.5 545.959 546.051 545.427C545.597 544.895 545.441 544.515 545.56 544.363C545.826 544.033 547.101 544.726 549.183 545.4C549.701 545.574 550.279 545.73 550.893 545.881C551.512 546.014 552.172 546.156 552.874 546.239C554.273 546.418 555.822 546.436 557.409 546.211C558.991 545.973 560.472 545.514 561.761 544.941C562.412 544.661 563.003 544.34 563.558 544.033C564.104 543.712 564.613 543.396 565.057 543.084C566.873 541.846 567.896 540.819 568.244 541.057Z" fill="#E0E0E0"/>
<g opacity="0.2">
<path opacity="0.2" d="M542.97 539.333C543.676 538.962 544.533 539.205 544.886 539.874C545.239 540.544 544.95 541.387 544.249 541.759C543.543 542.13 542.685 541.887 542.337 541.218C541.979 540.544 542.268 539.7 542.97 539.333Z" fill="#E0E0E0"/>
</g>
<path d="M800.959 412.449C801.471 408.025 801.136 403.453 799.845 399C802.062 395.935 811.521 390.891 811.521 390.891L809.748 387.265C805.55 389.294 796.101 390.418 796.101 390.418C796.318 390.753 796.564 391.216 796.811 391.738C792.18 383.432 784.524 377.708 775.893 375.333C774.297 372.013 774.711 361.046 774.711 361.046L770.681 360.751C770.336 365.293 766.73 373.707 766.562 374.091C763.222 374.111 759.853 374.624 756.552 375.658C753.547 373.619 750.867 368.022 750.867 368.022L747.251 369.805C749.172 373.727 749.862 377.974 749.941 378.496C747.271 379.993 744.876 381.796 742.768 383.846C738.905 383.383 729.821 377.776 729.821 377.776L727.555 381.176C731.013 383.501 735.94 389.767 737.033 391.196C735.102 394.517 733.743 398.132 733.004 401.896C729.644 403.207 724.313 402.793 724.313 402.793L724.077 406.872C727.594 407.089 730.915 408.094 732.363 408.586C732.373 411.631 732.787 414.715 733.634 417.74C730.6 420.843 722.481 425.179 722.481 425.179L724.274 428.854C727.663 427.208 734.432 426.154 737.033 425.789C739.004 429.179 741.477 432.125 744.325 434.578C743.743 438.135 740.738 442.49 740.738 442.49L744.147 444.746C746.108 441.8 748.66 439.436 749.813 438.441C754.079 440.855 758.828 442.342 763.735 442.786C765.971 446.274 768.031 455.969 768.031 455.969L772.051 455.259C771.43 451.673 772.218 445.2 772.612 442.421C775.578 441.909 778.534 441.002 781.391 439.672C782.839 438.992 784.199 438.224 785.51 437.386C788.525 439.318 791.333 443.594 791.333 443.594L794.712 441.288C792.416 437.909 791.145 434.095 790.84 433.13C794.348 429.701 797.047 425.602 798.801 421.129C803.107 420.745 812.171 422.814 812.171 422.814L813.216 418.863C809.156 417.789 802.427 413.424 800.959 412.449ZM753.636 376.722C753.241 376.89 752.847 377.047 752.453 377.225C752.847 377.037 753.241 376.87 753.636 376.722Z" fill="#EBEBEB"/>
<path d="M792.909 373.747L789.549 371.52C786.968 375.392 782.997 378.486 782.997 378.486C785.253 379.629 789.273 382.387 789.273 382.387C789.431 378.762 792.909 373.747 792.909 373.747Z" fill="#EBEBEB"/>
<path d="M792.633 410.567C790.85 410.468 789.697 407.177 787.283 403.108C787.017 402.586 786.643 402.083 786.327 401.542C785.992 401.01 785.608 400.477 785.244 399.926C784.436 398.852 783.608 397.729 782.613 396.664C780.662 394.507 778.268 392.506 775.529 390.969C772.76 389.482 769.794 388.516 766.927 388.023C765.498 387.748 764.099 387.649 762.759 387.541C762.099 387.531 761.439 387.482 760.808 387.482C760.188 387.501 759.557 387.462 758.976 387.511C754.256 387.639 750.847 388.418 749.813 386.969C749.566 386.614 749.507 386.161 749.645 385.6C749.783 385.048 750.089 384.338 750.65 383.629C751.734 382.151 753.734 380.466 756.631 379.067C757.35 378.693 758.138 378.417 758.966 378.102C759.794 377.806 760.68 377.57 761.607 377.333C763.469 376.929 765.508 376.624 767.686 376.634C769.853 376.643 772.169 376.831 774.504 377.422C776.839 377.993 779.223 378.88 781.509 380.121C783.775 381.392 785.795 382.93 787.529 384.605C789.283 386.26 790.673 388.122 791.835 389.945C793.008 391.777 793.835 393.669 794.486 395.452C794.771 396.369 795.057 397.236 795.244 398.103C795.412 398.97 795.609 399.788 795.678 400.596C796.042 403.788 795.688 406.389 795.018 408.094C794.722 408.941 794.279 409.582 793.885 409.995C793.481 410.38 793.067 410.577 792.633 410.567Z" fill="#FAFAFA"/>
<path d="M729.929 375.51C730.55 375.914 730.048 377.786 728.806 379.698C728.383 380.348 727.939 380.909 727.496 381.363C726.639 382.249 725.84 382.693 725.427 382.427C724.806 382.023 725.308 380.151 726.55 378.239C727.801 376.328 729.309 375.106 729.929 375.51Z" fill="#EBEBEB"/>
<path d="M727.634 381.235C727.634 381.235 729.21 379.461 729.821 377.786C730.471 378.18 731.21 378.624 731.969 379.057C731.969 379.057 729.703 381.373 728.353 381.777L727.634 381.235Z" fill="#E0E0E0"/>
<path d="M723.259 400.783C723.998 400.812 724.51 402.684 724.412 404.96C724.373 405.729 724.274 406.448 724.126 407.059C723.84 408.251 723.377 409.049 722.885 409.02C722.146 408.99 721.633 407.118 721.732 404.842C721.83 402.566 722.52 400.753 723.259 400.783Z" fill="#EBEBEB"/>
<path d="M724.175 406.892C724.175 406.892 724.806 404.616 724.313 402.803C725.072 402.862 725.9 402.872 726.777 402.862C726.777 402.862 726.018 405.936 725.062 406.961L724.175 406.892Z" fill="#E0E0E0"/>
<path d="M720.559 423.947C721.22 423.612 722.589 424.991 723.614 427.021C723.959 427.711 724.225 428.381 724.402 428.992C724.737 430.174 724.717 431.09 724.284 431.307C723.624 431.642 722.254 430.263 721.229 428.233C720.195 426.203 719.899 424.282 720.559 423.947Z" fill="#EBEBEB"/>
<path d="M724.353 428.824C724.353 428.824 723.614 426.568 722.471 425.198C723.131 424.834 723.89 424.42 724.648 423.986C724.648 423.986 725.506 427.11 725.18 428.469L724.353 428.824Z" fill="#E0E0E0"/>
<path d="M738.452 442.391C738.856 441.771 740.728 442.263 742.649 443.495C743.3 443.909 743.871 444.362 744.324 444.795C745.211 445.643 745.664 446.441 745.398 446.855C744.994 447.475 743.122 446.983 741.201 445.751C739.28 444.51 738.048 443.012 738.452 442.391Z" fill="#EBEBEB"/>
<path d="M744.187 444.667C744.187 444.667 742.541 442.982 740.728 442.49C741.162 441.859 741.585 441.15 742.019 440.391C742.019 440.391 744.295 442.598 744.699 443.938L744.187 444.667Z" fill="#E0E0E0"/>
<path d="M766.287 457.466C766.149 456.737 767.853 455.811 770.09 455.378C770.849 455.23 771.568 455.171 772.198 455.171C773.43 455.171 774.307 455.447 774.396 455.929C774.533 456.658 772.829 457.585 770.592 458.018C768.356 458.432 766.425 458.186 766.287 457.466Z" fill="#EBEBEB"/>
<path d="M772.021 455.171C772.021 455.171 769.646 455.259 768.011 455.979C767.843 455.24 767.656 454.402 767.449 453.555C767.449 453.555 770.691 453.594 771.903 454.294L772.021 455.171Z" fill="#E0E0E0"/>
<path d="M790.347 445.662C789.924 445.061 791.086 443.505 792.958 442.194C793.589 441.751 794.219 441.396 794.791 441.14C795.914 440.637 796.821 440.519 797.106 440.923C797.53 441.524 796.367 443.081 794.495 444.391C792.633 445.702 790.771 446.273 790.347 445.662Z" fill="#EBEBEB"/>
<path d="M794.633 441.209C794.633 441.209 792.446 442.096 791.313 443.593C790.889 442.953 790.397 442.293 789.855 441.603C789.855 441.603 792.751 440.332 794.151 440.46L794.633 441.209Z" fill="#E0E0E0"/>
<path d="M812.773 425.021C812.053 424.844 811.925 422.903 812.477 420.696C812.664 419.947 812.91 419.267 813.176 418.695C813.699 417.582 814.31 416.902 814.782 417.02C815.502 417.198 815.63 419.139 815.078 421.346C814.526 423.553 813.492 425.198 812.773 425.021Z" fill="#EBEBEB"/>
<path d="M813.098 418.853C813.098 418.853 812.181 421.05 812.142 422.824C811.403 422.666 810.556 422.479 809.698 422.311C809.698 422.311 811.098 419.385 812.24 418.577L813.098 418.853Z" fill="#E0E0E0"/>
<path d="M755.517 419.237C756.651 421.651 756.247 424.223 754.621 424.982C752.995 425.74 750.768 424.4 749.635 421.986C748.502 419.572 748.906 417.001 750.532 416.242C752.148 415.493 754.384 416.833 755.517 419.237Z" fill="#E0E0E0"/>
<path d="M753.251 417.287C754.384 419.7 753.98 422.272 752.355 423.031C750.729 423.789 748.502 422.449 747.369 420.035C746.236 417.622 746.64 415.05 748.266 414.291C749.891 413.533 752.118 414.873 753.251 417.287Z" fill="#F5F5F5"/>
<path d="M742.571 394.694C744.177 392.566 746.63 391.718 748.069 392.792C749.497 393.866 749.359 396.467 747.763 398.596C746.157 400.724 743.704 401.571 742.265 400.497C740.827 399.423 740.965 396.822 742.571 394.694Z" fill="#E0E0E0"/>
<path d="M740.196 393.009C741.802 390.881 744.256 390.033 745.694 391.107C747.123 392.181 746.985 394.782 745.389 396.911C743.783 399.039 741.329 399.886 739.891 398.812C738.462 397.728 738.6 395.137 740.196 393.009Z" fill="#F5F5F5"/>
<path d="M770.307 428.322C771.055 429.908 770.366 431.8 768.779 432.548C767.193 433.297 765.301 432.608 764.553 431.021C763.804 429.435 764.493 427.543 766.08 426.794C767.676 426.046 769.568 426.735 770.307 428.322Z" fill="#E0E0E0"/>
<path d="M769.587 426.785C770.336 428.371 769.647 430.263 768.06 431.012C766.474 431.76 764.582 431.071 763.833 429.484C763.084 427.898 763.774 426.006 765.36 425.257C766.957 424.509 768.848 425.188 769.587 426.785Z" fill="#F5F5F5"/>
<path d="M777.43 393.807C776.78 395.866 774.583 396.999 772.533 396.349C770.474 395.699 769.341 393.502 769.991 391.452C770.642 389.393 772.839 388.26 774.888 388.91C776.938 389.561 778.081 391.758 777.43 393.807Z" fill="#E0E0E0"/>
<path d="M778.061 391.817C777.411 393.876 775.213 395.009 773.164 394.359C771.105 393.708 769.972 391.511 770.622 389.462C771.272 387.403 773.469 386.269 775.519 386.92C777.568 387.57 778.711 389.757 778.061 391.817Z" fill="#F5F5F5"/>
<path d="M786.288 424.292C786.83 425.454 786.327 426.844 785.165 427.386C784.002 427.927 782.613 427.425 782.071 426.262C781.529 425.1 782.031 423.71 783.194 423.169C784.357 422.627 785.736 423.129 786.288 424.292Z" fill="#E0E0E0"/>
<path d="M785.756 423.169C786.298 424.331 785.795 425.721 784.633 426.263C783.47 426.804 782.081 426.302 781.539 425.139C780.997 423.977 781.499 422.587 782.662 422.046C783.825 421.504 785.214 422.006 785.756 423.169Z" fill="#F5F5F5"/>
<path d="M813.413 392.122C812.763 392.447 811.413 391.088 810.398 389.078C810.053 388.398 809.797 387.728 809.62 387.137C809.285 385.964 809.304 385.068 809.738 384.841C810.388 384.516 811.738 385.876 812.753 387.886C813.768 389.905 814.063 391.797 813.413 392.122Z" fill="#EBEBEB"/>
<path d="M809.669 387.314C809.669 387.314 810.398 389.551 811.531 390.9C810.871 391.255 810.122 391.669 809.383 392.102C809.383 392.102 808.536 389.018 808.861 387.669L809.669 387.314Z" fill="#E0E0E0"/>
<path d="M795.156 373.855C794.761 374.466 792.909 373.983 791.007 372.761C790.367 372.347 789.805 371.904 789.352 371.48C788.475 370.643 788.032 369.855 788.288 369.441C788.682 368.83 790.535 369.313 792.436 370.534C794.338 371.756 795.55 373.244 795.156 373.855Z" fill="#EBEBEB"/>
<path d="M789.49 371.599C789.49 371.599 791.116 373.264 792.909 373.747C792.485 374.367 792.062 375.067 791.638 375.816C791.638 375.816 789.392 373.638 788.988 372.318L789.49 371.599Z" fill="#E0E0E0"/>
<path d="M776.721 360.041C776.681 360.77 774.819 361.253 772.573 361.125C771.814 361.076 771.105 360.967 770.504 360.82C769.321 360.514 768.553 360.051 768.582 359.568C768.622 358.839 770.484 358.356 772.73 358.484C774.987 358.613 776.77 359.312 776.721 360.041Z" fill="#EBEBEB"/>
<path d="M770.681 360.849C770.681 360.849 772.977 361.342 774.711 361.046C774.691 361.795 774.671 362.642 774.662 363.509C774.662 363.509 771.568 362.682 770.573 361.726L770.681 360.849Z" fill="#E0E0E0"/>
<path d="M752.089 366.14C752.424 366.79 751.064 368.15 749.054 369.175C748.374 369.52 747.714 369.786 747.113 369.953C745.94 370.288 745.044 370.278 744.817 369.845C744.482 369.194 745.842 367.835 747.852 366.81C749.862 365.785 751.754 365.49 752.089 366.14Z" fill="#EBEBEB"/>
<path d="M747.29 369.904C747.29 369.904 749.547 369.342 750.867 368.032C751.192 368.712 751.586 369.431 752.02 370.18C752.02 370.18 749.005 371.027 747.665 370.702L747.29 369.904Z" fill="#E0E0E0"/>
<path d="M790.495 413.237C790.367 415.897 788.81 417.986 787.017 417.897C785.224 417.808 783.884 415.582 784.012 412.921C784.14 410.261 785.697 408.172 787.49 408.261C789.283 408.35 790.623 410.576 790.495 413.237Z" fill="#E0E0E0"/>
<path d="M791.196 411.468C791.326 408.805 789.982 406.575 788.194 406.488C786.406 406.4 784.851 408.488 784.721 411.152C784.591 413.815 785.935 416.044 787.723 416.132C789.511 416.219 791.066 414.131 791.196 411.468Z" fill="#F5F5F5"/>
<path d="M770.711 405.532C771.844 407.946 770.799 410.813 768.385 411.946C765.971 413.079 763.104 412.035 761.971 409.621C760.838 407.207 761.882 404.34 764.296 403.206C766.7 402.083 769.577 403.118 770.711 405.532Z" fill="#E0E0E0"/>
<path d="M769.518 402.99C770.651 405.404 769.607 408.271 767.193 409.404C764.779 410.537 761.912 409.493 760.779 407.079C759.646 404.665 760.69 401.798 763.104 400.665C765.518 399.542 768.385 400.576 769.518 402.99Z" fill="#F5F5F5"/>
<path d="M793.224 424.134C793.569 424.371 793.471 425.248 792.87 426.617C792.269 427.987 791.096 429.809 789.293 431.78C788.397 432.775 787.313 433.77 786.081 434.765C784.83 435.731 783.441 436.716 781.874 437.583C778.76 439.337 774.987 440.726 770.849 441.347C766.701 441.929 762.69 441.682 759.202 440.894C757.449 440.52 755.843 439.968 754.365 439.396C752.907 438.785 751.586 438.145 750.433 437.455C748.138 436.076 746.502 434.667 745.537 433.524C744.561 432.381 744.226 431.563 744.482 431.238C745.054 430.529 747.793 432.017 752.266 433.465C753.379 433.839 754.621 434.174 755.941 434.499C757.271 434.785 758.69 435.091 760.198 435.268C763.203 435.652 766.533 435.692 769.942 435.209C773.341 434.696 776.524 433.711 779.292 432.48C780.692 431.879 781.963 431.189 783.155 430.529C784.327 429.839 785.421 429.159 786.377 428.489C790.278 425.829 792.476 423.622 793.224 424.134Z" fill="#E0E0E0"/>
<g opacity="0.2">
<path opacity="0.2" d="M738.915 420.429C740.433 419.631 742.275 420.154 743.034 421.592C743.793 423.031 743.172 424.844 741.664 425.642C740.147 426.44 738.304 425.918 737.556 424.479C736.787 423.031 737.408 421.218 738.915 420.429Z" fill="#E0E0E0"/>
</g>
<path d="M20.2177 445.22C20.6227 444.194 20.8314 443.083 20.8092 441.936C21.5204 441.339 24.1421 440.728 24.1421 440.728L23.9494 439.744C22.8949 439.948 20.761 439.681 20.4585 439.641C20.2016 438.779 19.8151 437.984 19.3261 437.27C19.6076 436.415 20.7684 435.417 20.7684 435.417L20.1028 434.666C19.2952 435.377 18.2901 435.834 18.1505 435.896C17.6739 435.444 17.149 435.045 16.5835 434.713C16.4081 433.819 17.2133 431.201 17.2133 431.201L16.2649 430.873C15.8833 431.963 14.4249 433.808 14.4163 433.819C13.6136 433.609 12.7727 433.516 11.9132 433.553C11.3328 432.863 11.0389 431.35 11.0389 431.35L10.0548 431.547C10.2746 432.663 10.1474 433.776 10.1437 433.814C9.4114 434.002 8.72358 434.278 8.0901 434.634C7.1973 434.289 5.35982 432.345 5.35982 432.345L4.59668 433.015C5.27956 433.797 6.06246 435.624 6.23287 436.033C5.5611 436.704 5.00912 437.483 4.59174 438.334C3.69894 438.441 2.4332 438.001 2.4332 438.001L2.11461 438.966C2.95308 439.245 3.68906 439.704 4.00024 439.914C3.8076 440.644 3.71128 441.403 3.71993 442.181C2.79872 442.736 0.556213 443.261 0.556213 443.261L0.752558 444.257C1.67376 444.079 3.37293 444.26 4.01629 444.34C4.27068 445.277 4.67571 446.138 5.19929 446.905C4.83624 447.726 3.83354 448.585 3.83354 448.585L4.50653 449.346C5.17089 448.761 5.93897 448.356 6.27609 448.191C7.1442 449.042 8.18642 449.7 9.33237 450.12C9.64973 451.096 9.52254 453.571 9.52254 453.571L10.5339 453.658C10.6154 452.748 11.2254 451.234 11.4934 450.604C12.238 450.671 13.0024 450.651 13.7742 450.512C14.1619 450.443 14.5336 450.339 14.8991 450.222C15.5054 450.876 15.9092 452.09 15.9092 452.09L16.8675 451.754C16.5304 450.786 16.4699 449.777 16.46 449.54C17.5195 448.944 18.4259 448.135 19.1335 447.178C20.188 447.355 22.2441 448.437 22.2441 448.437L22.7491 447.556C21.8316 447.025 20.4721 445.508 20.2177 445.22ZM10.403 433.753C10.3919 433.756 10.382 433.758 10.3709 433.761C10.3808 433.758 10.3919 433.756 10.403 433.753Z" fill="#91E3D5"/>
<g opacity="0.2">
<path opacity="0.2" d="M18.3456 444.241C17.9245 444.104 17.8566 443.237 17.538 442.107C17.5059 441.965 17.4491 441.82 17.4084 441.669C17.3627 441.52 17.3034 441.366 17.2503 441.211C17.1256 440.902 16.9984 440.577 16.8267 440.259C16.497 439.617 16.0488 438.983 15.4906 438.437C14.9226 437.903 14.2706 437.48 13.6149 437.178C13.2889 437.021 12.9604 436.906 12.6455 436.795C12.4874 436.749 12.3319 436.696 12.1812 436.657C12.0293 436.622 11.8811 436.571 11.7379 436.546C10.5944 436.275 9.72753 436.243 9.57194 435.828C9.53613 435.728 9.55094 435.614 9.6201 435.487C9.68925 435.364 9.80903 435.212 9.98932 435.079C10.3437 434.793 10.9328 434.517 11.7194 434.366C11.9157 434.322 12.1232 434.307 12.3417 434.283C12.5603 434.265 12.7875 434.266 13.0258 434.267C13.4976 434.291 14.0088 434.347 14.5299 434.489C15.0498 434.632 15.5931 434.824 16.1167 435.117C16.6415 435.405 17.1552 435.769 17.6257 436.213C18.09 436.664 18.474 437.162 18.784 437.674C19.0977 438.184 19.3125 438.719 19.4768 439.233C19.6398 439.748 19.7188 440.255 19.7608 440.727C19.7719 440.964 19.783 441.192 19.7731 441.411C19.7583 441.631 19.7534 441.838 19.7163 442.036C19.599 442.827 19.3471 443.427 19.0767 443.794C18.9507 443.979 18.8038 444.105 18.684 444.179C18.5593 444.252 18.4469 444.272 18.3456 444.241Z" fill="white"/>
</g>
<path d="M5.5315 431.805C5.65499 431.942 5.41419 432.359 4.9931 432.74C4.85109 432.868 4.70661 432.976 4.57325 433.056C4.31146 433.214 4.09042 433.27 4.00892 433.179C3.88543 433.042 4.12623 432.625 4.54732 432.245C4.96717 431.866 5.40801 431.669 5.5315 431.805Z" fill="#91E3D5"/>
<path opacity="0.3" d="M4.61151 433.034C4.61151 433.034 5.10545 432.708 5.3586 432.345C5.48826 432.481 5.63768 432.635 5.79204 432.787C5.79204 432.787 5.09928 433.197 4.75105 433.208L4.61151 433.034Z" fill="black"/>
<path d="M2.30849 437.448C2.48384 437.504 2.48754 437.987 2.31837 438.526C2.26033 438.709 2.19118 438.875 2.11585 439.013C1.97014 439.282 1.80837 439.441 1.69229 439.406C1.51694 439.35 1.51324 438.867 1.68241 438.328C1.85282 437.787 2.13314 437.393 2.30849 437.448Z" fill="#91E3D5"/>
<path opacity="0.3" d="M2.13684 438.973C2.13684 438.973 2.43444 438.468 2.43197 438.001C2.61103 438.063 2.80861 438.12 3.01977 438.173C3.01977 438.173 2.64066 438.862 2.34553 439.047L2.13684 438.973Z" fill="black"/>
<path d="M0.177122 442.839C0.357412 442.8 0.596974 443.219 0.714286 443.773C0.753801 443.961 0.773559 444.14 0.776029 444.296C0.780968 444.602 0.717991 444.821 0.599445 444.845C0.419155 444.884 0.179591 444.465 0.0622794 443.91C-0.0537976 443.356 -0.0031673 442.877 0.177122 442.839Z" fill="#91E3D5"/>
<path opacity="0.3" d="M0.776019 444.253C0.776019 444.253 0.742677 443.662 0.556213 443.261C0.738973 443.217 0.947664 443.166 1.15636 443.109C1.15636 443.109 1.1613 443.914 0.995826 444.221L0.776019 444.253Z" fill="black"/>
<path d="M3.29266 448.414C3.42849 448.291 3.84834 448.53 4.22992 448.949C4.35834 449.091 4.46701 449.234 4.54851 449.367C4.70781 449.629 4.76461 449.849 4.67447 449.93C4.53863 450.054 4.11878 449.814 3.73721 449.396C3.35564 448.977 3.15682 448.538 3.29266 448.414Z" fill="#91E3D5"/>
<path opacity="0.3" d="M4.52508 449.329C4.52508 449.329 4.23859 448.818 3.83356 448.584C3.9768 448.461 4.12622 448.318 4.27811 448.163C4.27811 448.163 4.68314 448.838 4.69549 449.186L4.52508 449.329Z" fill="black"/>
<path d="M9.01252 453.818C9.0261 453.634 9.49535 453.519 10.0597 453.561C10.2511 453.574 10.4277 453.605 10.5796 453.646C10.8747 453.726 11.0673 453.847 11.0587 453.968C11.0451 454.152 10.5759 454.267 10.0115 454.225C9.44719 454.183 9.00017 454 9.01252 453.818Z" fill="#91E3D5"/>
<path opacity="0.3" d="M10.5363 453.634C10.5363 453.634 9.95966 453.501 9.52252 453.569C9.52993 453.382 9.53858 453.167 9.54228 452.951C9.54228 452.951 10.3178 453.169 10.566 453.413L10.5363 453.634Z" fill="black"/>
<path d="M15.5474 452.525C15.4844 452.352 15.8635 452.054 16.3958 451.859C16.5761 451.794 16.7502 451.748 16.9045 451.723C17.2071 451.675 17.4318 451.706 17.4738 451.82C17.5368 451.993 17.1577 452.29 16.6255 452.485C16.0932 452.68 15.6104 452.698 15.5474 452.525Z" fill="#91E3D5"/>
<path opacity="0.3" d="M16.8601 451.731C16.8601 451.731 16.2784 451.804 15.9092 452.09C15.8487 451.91 15.7734 451.718 15.687 451.52C15.687 451.52 16.4649 451.4 16.7921 451.52L16.8601 451.731Z" fill="black"/>
<path d="M22.2552 449.003C22.0947 448.914 22.1873 448.44 22.4614 447.945C22.554 447.777 22.6565 447.628 22.7565 447.509C22.9529 447.274 23.1443 447.151 23.2505 447.209C23.411 447.297 23.3184 447.772 23.0443 448.267C22.7701 448.762 22.4157 449.092 22.2552 449.003Z" fill="#91E3D5"/>
<path opacity="0.3" d="M22.7281 447.542C22.7281 447.542 22.3663 448.01 22.2441 448.436C22.0774 448.349 21.886 448.252 21.6909 448.158C21.6909 448.158 22.2144 447.546 22.5404 447.423L22.7281 447.542Z" fill="black"/>
<path opacity="0.3" d="M8.87299 443.947C8.9903 444.599 8.72975 445.192 8.29013 445.27C7.85176 445.349 7.40104 444.883 7.28372 444.231C7.16641 443.579 7.42697 442.987 7.86658 442.909C8.30619 442.831 8.75691 443.295 8.87299 443.947Z" fill="black"/>
<path d="M8.45563 443.332C8.57294 443.984 8.31239 444.577 7.87278 444.655C7.4344 444.734 6.98368 444.268 6.86637 443.616C6.74905 442.964 7.00961 442.372 7.44922 442.294C7.88883 442.216 8.33832 442.68 8.45563 443.332Z" fill="#91E3D5"/>
<path opacity="0.2" d="M8.45563 443.332C8.57294 443.984 8.31239 444.577 7.87278 444.655C7.4344 444.734 6.98368 444.268 6.86637 443.616C6.74905 442.964 7.00961 442.372 7.44922 442.294C7.88883 442.216 8.33832 442.68 8.45563 443.332Z" fill="white"/>
<path opacity="0.3" d="M7.33684 437.222C7.85796 436.813 8.50379 436.767 8.77793 437.117C9.0533 437.468 8.85325 438.083 8.33214 438.492C7.81103 438.9 7.1652 438.947 6.89106 438.597C6.61568 438.246 6.8145 437.631 7.33684 437.222Z" fill="black"/>
<path d="M6.87622 436.665C7.39733 436.257 8.04316 436.21 8.3173 436.56C8.59267 436.911 8.39263 437.526 7.87151 437.935C7.3504 438.343 6.70457 438.39 6.43043 438.04C6.15506 437.689 6.3551 437.073 6.87622 436.665Z" fill="#91E3D5"/>
<path opacity="0.2" d="M6.87622 436.665C7.39733 436.257 8.04316 436.21 8.3173 436.56C8.59267 436.911 8.39263 437.526 7.87151 437.935C7.3504 438.343 6.70457 438.39 6.43043 438.04C6.15506 437.689 6.3551 437.073 6.87622 436.665Z" fill="white"/>
<path opacity="0.3" d="M11.8453 447.075C11.9219 447.505 11.6366 447.915 11.2081 447.991C10.7784 448.068 10.3684 447.783 10.2918 447.354C10.2153 446.924 10.5005 446.515 10.929 446.438C11.3588 446.361 11.7687 446.647 11.8453 447.075Z" fill="black"/>
<path d="M11.7712 446.659C11.8478 447.089 11.5625 447.499 11.134 447.575C10.7043 447.652 10.2943 447.367 10.2177 446.938C10.1412 446.508 10.4264 446.099 10.8549 446.022C11.2834 445.945 11.6934 446.231 11.7712 446.659Z" fill="#91E3D5"/>
<path opacity="0.3" d="M11.7712 446.659C11.8478 447.089 11.5625 447.499 11.134 447.575C10.7043 447.652 10.2943 447.367 10.2177 446.938C10.1412 446.508 10.4264 446.099 10.8549 446.022C11.2834 445.945 11.6934 446.231 11.7712 446.659Z" fill="white"/>
<path opacity="0.3" d="M15.1606 439.67C15.6836 439.552 16.0121 439.033 15.8944 438.51C15.7767 437.987 15.2573 437.659 14.7343 437.776C14.2114 437.894 13.8828 438.413 14.0006 438.936C14.1183 439.459 14.6377 439.788 15.1606 439.67Z" fill="black"/>
<path d="M16.045 438.805C15.7573 439.257 15.1572 439.391 14.7052 439.103C14.2533 438.815 14.1199 438.215 14.4076 437.763C14.6953 437.311 15.2955 437.178 15.7474 437.466C16.1994 437.753 16.3328 438.352 16.045 438.805Z" fill="#91E3D5"/>
<path opacity="0.3" d="M16.045 438.805C15.7573 439.257 15.1572 439.391 14.7052 439.103C14.2533 438.815 14.1199 438.215 14.4076 437.763C14.6953 437.311 15.2955 437.178 15.7474 437.466C16.1994 437.753 16.3328 438.352 16.045 438.805Z" fill="white"/>
<path opacity="0.3" d="M15.9401 447.133C15.9969 447.448 15.7869 447.749 15.4721 447.805C15.1572 447.862 14.8559 447.652 14.8003 447.337C14.7435 447.022 14.9534 446.721 15.2683 446.665C15.582 446.608 15.8833 446.818 15.9401 447.133Z" fill="black"/>
<path d="M15.8857 446.827C15.9426 447.142 15.7326 447.443 15.4177 447.499C15.1028 447.556 14.8015 447.346 14.746 447.031C14.6892 446.716 14.8991 446.416 15.214 446.359C15.5276 446.303 15.8289 446.513 15.8857 446.827Z" fill="#91E3D5"/>
<path opacity="0.3" d="M15.8857 446.827C15.9426 447.142 15.7326 447.443 15.4177 447.499C15.1028 447.556 14.8015 447.346 14.746 447.031C14.6892 446.716 14.8991 446.416 15.214 446.359C15.5276 446.303 15.8289 446.513 15.8857 446.827Z" fill="white"/>
<path d="M24.515 441.144C24.3372 441.181 24.1001 440.768 23.9852 440.221C23.9457 440.035 23.926 439.859 23.9235 439.704C23.9186 439.402 23.9803 439.186 24.0988 439.161C24.2767 439.124 24.5138 439.538 24.6286 440.085C24.7447 440.633 24.6928 441.107 24.515 441.144Z" fill="#91E3D5"/>
<path opacity="0.3" d="M23.9247 439.748C23.9247 439.748 23.9568 440.33 24.1421 440.728C23.9618 440.771 23.7556 440.822 23.5493 440.879C23.5493 440.879 23.5444 440.083 23.7086 439.781L23.9247 439.748Z" fill="black"/>
<path d="M21.3018 435.587C21.1672 435.709 20.7536 435.472 20.3769 435.059C20.2497 434.919 20.1435 434.776 20.0633 434.645C19.9064 434.387 19.8509 434.17 19.9398 434.088C20.0744 433.966 20.4881 434.203 20.8647 434.617C21.2401 435.03 21.4352 435.465 21.3018 435.587Z" fill="#91E3D5"/>
<path opacity="0.3" d="M20.0855 434.682C20.0855 434.682 20.3683 435.187 20.7684 435.418C20.6264 435.54 20.4795 435.681 20.33 435.834C20.33 435.834 19.9299 435.167 19.9188 434.824L20.0855 434.682Z" fill="black"/>
<path d="M17.7603 431.087C17.7035 431.26 17.2256 431.257 16.6946 431.081C16.5155 431.022 16.3525 430.95 16.2179 430.875C15.9549 430.727 15.7993 430.565 15.8364 430.45C15.8932 430.277 16.371 430.281 16.902 430.456C17.433 430.632 17.8171 430.915 17.7603 431.087Z" fill="#91E3D5"/>
<path opacity="0.3" d="M16.2562 430.895C16.2562 430.895 16.7761 431.16 17.212 431.201C17.1589 431.379 17.0996 431.583 17.0428 431.789C17.0428 431.789 16.3525 431.392 16.1735 431.1L16.2562 430.895Z" fill="black"/>
<path d="M11.4526 430.974C11.4909 431.152 11.0772 431.39 10.5302 431.507C10.3449 431.547 10.1684 431.568 10.014 431.57C9.71146 431.576 9.49535 431.515 9.47066 431.397C9.43238 431.22 9.84606 430.981 10.3931 430.864C10.9401 430.748 11.4143 430.796 11.4526 430.974Z" fill="#91E3D5"/>
<path opacity="0.3" d="M10.0585 431.57C10.0585 431.57 10.6376 431.58 11.0377 431.351C11.0723 431.535 11.1192 431.732 11.176 431.938C11.176 431.938 10.3993 431.948 10.0955 431.785L10.0585 431.57Z" fill="black"/>
<path opacity="0.3" d="M17.6603 444.747C17.459 445.378 16.9515 445.78 16.5267 445.644C16.1019 445.508 15.9216 444.887 16.1229 444.256C16.3242 443.625 16.8317 443.224 17.2565 443.359C17.6813 443.495 17.8616 444.116 17.6603 444.747Z" fill="black"/>
<path d="M17.9418 444.367C17.7405 444.998 17.233 445.399 16.8082 445.264C16.3834 445.128 16.2031 444.507 16.4044 443.876C16.6057 443.245 17.1132 442.843 17.538 442.979C17.9641 443.115 18.1443 443.736 17.9418 444.367Z" fill="#91E3D5"/>
<path opacity="0.3" d="M17.9418 444.367C17.7405 444.998 17.233 445.399 16.8082 445.264C16.3834 445.128 16.2031 444.507 16.4044 443.876C16.6057 443.245 17.1132 442.843 17.538 442.979C17.9641 443.115 18.1443 443.736 17.9418 444.367Z" fill="white"/>
<path opacity="0.3" d="M13.4 441.628C13.5173 442.28 13.0827 442.904 12.4306 443.02C11.7786 443.137 11.155 442.702 11.039 442.05C10.9216 441.398 11.3563 440.775 12.0083 440.659C12.6603 440.543 13.2839 440.976 13.4 441.628Z" fill="black"/>
<path d="M13.2778 440.942C13.3951 441.594 12.9604 442.217 12.3084 442.333C11.6564 442.451 11.0328 442.016 10.9167 441.364C10.7994 440.712 11.2341 440.088 11.8861 439.972C12.5368 439.856 13.1604 440.29 13.2778 440.942Z" fill="#91E3D5"/>
<path opacity="0.2" d="M13.2778 440.942C13.3951 441.594 12.9604 442.217 12.3084 442.333C11.6564 442.451 11.0328 442.016 10.9167 441.364C10.7994 440.712 11.2341 440.088 11.8861 439.972C12.5368 439.856 13.1604 440.29 13.2778 440.942Z" fill="white"/>
<g opacity="0.3">
<path opacity="0.3" d="M17.6171 447.54C17.685 447.619 17.6047 447.824 17.3726 448.114C17.1404 448.404 16.7428 448.767 16.1834 449.126C15.9043 449.307 15.5808 449.476 15.2214 449.638C14.8596 449.79 14.4632 449.938 14.031 450.044C13.1703 450.266 12.175 450.356 11.1414 450.241C10.1091 450.117 9.16073 449.799 8.37412 449.386C7.97773 449.183 7.62579 448.949 7.30844 448.716C6.99602 448.477 6.72064 448.237 6.48972 447.998C6.02665 447.52 5.72411 447.075 5.56481 446.739C5.40428 446.404 5.37464 446.185 5.45861 446.124C5.64261 445.99 6.20447 446.523 7.18618 447.159C7.43069 447.32 7.70606 447.48 8.00243 447.643C8.30373 447.799 8.62603 447.961 8.97673 448.1C9.67443 448.386 10.4709 448.608 11.3217 448.712C12.1726 448.805 12.9987 448.772 13.7433 448.655C14.1162 448.6 14.4669 448.516 14.7954 448.434C15.1214 448.342 15.4264 448.25 15.7005 448.15C16.8008 447.756 17.4701 447.367 17.6171 447.54Z" fill="black"/>
</g>
<g opacity="0.3">
<path opacity="0.3" d="M4.81151 443.168C5.22642 443.073 5.63516 443.316 5.7253 443.71C5.81545 444.104 5.55119 444.5 5.13628 444.594C4.72136 444.688 4.31262 444.446 4.22248 444.052C4.13357 443.658 4.39783 443.263 4.81151 443.168Z" fill="black"/>
</g>
<rect x="724.396" y="281.156" width="22.8945" height="22.1984" fill="#E9F9F7"/>
</svg>
