<svg width="201" height="195" viewBox="0 0 201 195" fill="none" xmlns="http://www.w3.org/2000/svg">
<path d="M164.651 121.214C167.931 112.904 169.621 103.904 169.441 94.6142C175.201 89.7842 196.431 84.8342 196.431 84.8342L194.871 76.8642C186.331 78.5142 169.051 76.3542 166.601 76.0342C164.521 69.0542 161.391 62.6142 157.431 56.8342C159.711 49.9042 169.111 41.8242 169.111 41.8242L163.721 35.7442C157.181 41.5042 149.041 45.2042 147.911 45.7042C144.051 42.0442 139.801 38.8142 135.221 36.1242C133.801 28.8842 140.321 7.68417 140.321 7.68417L132.641 5.02417C129.551 13.8542 117.741 28.7942 117.671 28.8842C111.171 27.1842 104.361 26.4342 97.4008 26.7342C92.7009 21.1442 90.3208 8.89418 90.3208 8.89418L82.3508 10.4842C84.1308 19.5242 83.1008 28.5342 83.0708 28.8442C77.1408 30.3642 71.5709 32.6042 66.4409 35.4842C59.2109 32.6942 44.3309 16.9442 44.3309 16.9442L38.1508 22.3742C43.6808 28.7042 50.0208 43.5042 51.4008 46.8142C45.9608 52.2442 41.4909 58.5542 38.1109 65.4442C30.8809 66.3142 20.6309 62.7542 20.6309 62.7542L18.0509 70.5642C24.8409 72.8242 30.8008 76.5442 33.3208 78.2442C31.7608 84.1542 30.9809 90.3042 31.0509 96.6042C23.5909 101.094 5.43085 105.344 5.43085 105.344L7.02086 113.414C14.4809 111.974 28.2409 113.434 33.4509 114.084C35.5109 121.674 38.7909 128.644 43.0309 134.854C40.0909 141.504 31.9709 148.464 31.9709 148.464L37.4209 154.624C42.8009 149.884 49.0209 146.604 51.7509 145.274C58.7809 152.164 67.2209 157.494 76.5009 160.894C79.0709 168.794 78.0408 188.834 78.0408 188.834L86.2309 189.544C86.8909 182.174 91.8309 169.914 94.0009 164.814C100.031 165.354 106.221 165.194 112.471 164.064C115.611 163.504 118.621 162.664 121.581 161.714C126.491 167.014 129.761 176.844 129.761 176.844L137.521 174.124C134.791 166.284 134.301 158.114 134.221 156.194C142.801 151.364 150.141 144.814 155.871 137.064C164.411 138.504 181.061 147.264 181.061 147.264L185.151 140.124C177.721 135.824 166.711 123.544 164.651 121.214ZM85.1709 28.3542C85.0809 28.3742 85.0009 28.3942 84.9109 28.4142C84.9909 28.3942 85.0809 28.3742 85.1709 28.3542Z" fill="#23C8AC"/>
<g opacity="0.2">
<path opacity="0.2" d="M149.491 113.284C146.081 112.174 145.531 105.154 142.951 96.0042C142.691 94.8542 142.231 93.6742 141.901 92.4542C141.531 91.2442 141.051 90.0042 140.621 88.7442C139.611 86.2442 138.581 83.6142 137.191 81.0342C134.521 75.8342 130.891 70.7042 126.371 66.2842C121.771 61.9542 116.491 58.5342 111.181 56.0842C108.541 54.8142 105.881 53.8842 103.331 52.9842C102.051 52.6142 100.791 52.1842 99.5709 51.8642C98.3409 51.5842 97.1409 51.1742 95.9809 50.9642C86.7209 48.7742 79.7009 48.5142 78.4409 45.1542C78.1509 44.3442 78.2709 43.4242 78.8309 42.3942C79.3909 41.3942 80.3609 40.1642 81.8209 39.0842C84.6909 36.7742 89.4609 34.5342 95.8309 33.3142C97.4209 32.9542 99.1009 32.8342 100.871 32.6442C102.641 32.4942 104.481 32.5042 106.411 32.5142C110.231 32.7042 114.371 33.1642 118.591 34.3142C122.801 35.4642 127.201 37.0242 131.441 39.3942C135.691 41.7242 139.851 44.6741 143.661 48.2741C147.421 51.9241 150.531 55.9542 153.041 60.1042C155.581 64.2341 157.321 68.5642 158.651 72.7242C159.971 76.8942 160.611 81.0042 160.951 84.8242C161.041 86.7442 161.131 88.5942 161.051 90.3642C160.931 92.1442 160.891 93.8242 160.591 95.4242C159.641 101.834 157.601 106.694 155.411 109.664C154.391 111.164 153.201 112.184 152.231 112.784C151.221 113.374 150.311 113.534 149.491 113.284Z" fill="white"/>
</g>
<path d="M45.7208 12.5742C46.7208 13.6842 44.7708 17.0642 41.3608 20.1442C40.2108 21.1842 39.0408 22.0542 37.9608 22.7042C35.8408 23.9842 34.0508 24.4342 33.3908 23.7042C32.3908 22.5942 34.3408 19.2142 37.7508 16.1342C41.1508 13.0642 44.7208 11.4742 45.7208 12.5742Z" fill="#23C8AC"/>
<path opacity="0.3" d="M38.2709 22.5242C38.2709 22.5242 42.2709 19.8842 44.3209 16.9442C45.3709 18.0442 46.5809 19.2942 47.8309 20.5242C47.8309 20.5242 42.2209 23.8442 39.4009 23.9342L38.2709 22.5242Z" fill="black"/>
<path d="M19.6209 58.2742C21.0409 58.7242 21.0709 62.6342 19.7009 67.0042C19.2309 68.4842 18.6709 69.8242 18.0609 70.9442C16.8809 73.1242 15.5709 74.4142 14.6309 74.1242C13.2109 73.6742 13.1809 69.7642 14.5509 65.3942C15.9309 61.0142 18.2009 57.8242 19.6209 58.2742Z" fill="#23C8AC"/>
<path opacity="0.3" d="M18.2309 70.6242C18.2309 70.6242 20.6409 66.5342 20.6209 62.7542C22.0709 63.2542 23.6709 63.7142 25.3809 64.1442C25.3809 64.1442 22.3109 69.7242 19.9209 71.2242L18.2309 70.6242Z" fill="black"/>
<path d="M2.36086 101.924C3.82086 101.614 5.76086 105.004 6.71086 109.494C7.03086 111.014 7.19086 112.464 7.21086 113.724C7.25086 116.204 6.74086 117.974 5.78086 118.174C4.32086 118.484 2.38086 115.094 1.43086 110.604C0.490857 106.114 0.900865 102.234 2.36086 101.924Z" fill="#23C8AC"/>
<path opacity="0.3" d="M7.21085 113.374C7.21085 113.374 6.94085 108.594 5.43085 105.344C6.91085 104.984 8.60085 104.574 10.2908 104.114C10.2908 104.114 10.3309 110.634 8.99086 113.114L7.21085 113.374Z" fill="black"/>
<path d="M27.5909 147.074C28.6909 146.074 32.0909 148.014 35.1809 151.404C36.2209 152.554 37.1009 153.714 37.7609 154.794C39.0509 156.914 39.5109 158.694 38.7809 159.354C37.6809 160.354 34.2809 158.414 31.1909 155.024C28.1009 151.634 26.4909 148.074 27.5909 147.074Z" fill="#23C8AC"/>
<path opacity="0.3" d="M37.5709 154.484C37.5709 154.484 35.2509 150.344 31.9709 148.454C33.1309 147.454 34.3409 146.294 35.5709 145.044C35.5709 145.044 38.8509 150.504 38.9509 153.324L37.5709 154.484Z" fill="black"/>
<path d="M73.9108 190.834C74.0208 189.344 77.8208 188.414 82.3908 188.754C83.9408 188.864 85.3708 189.114 86.6008 189.444C88.9908 190.094 90.5508 191.074 90.4808 192.054C90.3708 193.544 86.5708 194.474 82.0008 194.134C77.4308 193.794 73.8108 192.314 73.9108 190.834Z" fill="#23C8AC"/>
<path opacity="0.3" d="M86.2508 189.344C86.2508 189.344 81.5808 188.274 78.0408 188.824C78.1008 187.304 78.1708 185.564 78.2008 183.814C78.2008 183.814 84.4808 185.584 86.4908 187.554L86.2508 189.344Z" fill="black"/>
<path d="M126.831 180.364C126.321 178.964 129.391 176.554 133.701 174.974C135.161 174.444 136.571 174.074 137.821 173.874C140.271 173.484 142.091 173.734 142.431 174.654C142.941 176.054 139.871 178.464 135.561 180.044C131.251 181.624 127.341 181.764 126.831 180.364Z" fill="#23C8AC"/>
<path opacity="0.3" d="M137.461 173.934C137.461 173.934 132.751 174.524 129.761 176.844C129.271 175.384 128.661 173.834 127.961 172.224C127.961 172.224 134.261 171.254 136.911 172.224L137.461 173.934Z" fill="black"/>
<path d="M181.151 151.844C179.851 151.124 180.601 147.284 182.821 143.274C183.571 141.914 184.401 140.714 185.211 139.744C186.801 137.844 188.351 136.844 189.211 137.314C190.511 138.034 189.761 141.874 187.541 145.884C185.321 149.894 182.451 152.564 181.151 151.844Z" fill="#23C8AC"/>
<path opacity="0.3" d="M184.981 140.014C184.981 140.014 182.051 143.804 181.061 147.254C179.711 146.554 178.161 145.764 176.581 145.004C176.581 145.004 180.821 140.044 183.461 139.054L184.981 140.014Z" fill="black"/>
<path opacity="0.3" d="M72.7808 110.904C73.7308 116.184 71.6208 120.984 68.0608 121.614C64.5108 122.254 60.8609 118.484 59.9109 113.204C58.9609 107.924 61.0709 103.124 64.6309 102.494C68.1909 101.864 71.8408 105.624 72.7808 110.904Z" fill="black"/>
<path d="M69.4008 105.924C70.3508 111.204 68.2408 116.004 64.6808 116.634C61.1308 117.274 57.4808 113.504 56.5308 108.224C55.5808 102.944 57.6908 98.1442 61.2508 97.5142C64.8108 96.8842 68.4508 100.644 69.4008 105.924Z" fill="#23C8AC"/>
<path opacity="0.2" d="M69.4008 105.924C70.3508 111.204 68.2408 116.004 64.6808 116.634C61.1308 117.274 57.4808 113.504 56.5308 108.224C55.5808 102.944 57.6908 98.1442 61.2508 97.5142C64.8108 96.8842 68.4508 100.644 69.4008 105.924Z" fill="white"/>
<path opacity="0.3" d="M60.3408 56.4442C64.5608 53.1342 69.7908 52.7542 72.0108 55.5942C74.2408 58.4342 72.6208 63.4142 68.4008 66.7242C64.1808 70.0342 58.9508 70.4142 56.7308 67.5742C54.5008 64.7342 56.1108 59.7542 60.3408 56.4442Z" fill="black"/>
<path d="M56.6109 51.9342C60.8309 48.6242 66.0609 48.2442 68.2809 51.0842C70.5109 53.9242 68.8909 58.9042 64.6709 62.2142C60.4509 65.5242 55.2209 65.9042 53.0009 63.0642C50.7709 60.2242 52.3909 55.2342 56.6109 51.9342Z" fill="#23C8AC"/>
<path opacity="0.2" d="M56.6109 51.9342C60.8309 48.6242 66.0609 48.2442 68.2809 51.0842C70.5109 53.9242 68.8909 58.9042 64.6709 62.2142C60.4509 65.5242 55.2209 65.9042 53.0009 63.0642C50.7709 60.2242 52.3909 55.2342 56.6109 51.9342Z" fill="white"/>
<path opacity="0.3" d="M96.8509 136.234C97.4709 139.714 95.1609 143.034 91.6909 143.654C88.2109 144.274 84.8909 141.964 84.2709 138.494C83.6509 135.014 85.9609 131.694 89.4309 131.074C92.9109 130.454 96.2309 132.764 96.8509 136.234Z" fill="black"/>
<path d="M96.2509 132.864C96.8709 136.344 94.5608 139.664 91.0908 140.284C87.6108 140.904 84.2909 138.594 83.6709 135.124C83.0509 131.644 85.3609 128.324 88.8309 127.704C92.3009 127.084 95.6209 129.394 96.2509 132.864Z" fill="#23C8AC"/>
<path opacity="0.3" d="M96.2509 132.864C96.8709 136.344 94.5608 139.664 91.0908 140.284C87.6108 140.904 84.2909 138.594 83.6709 135.124C83.0509 131.644 85.3609 128.324 88.8309 127.704C92.3009 127.084 95.6209 129.394 96.2509 132.864Z" fill="white"/>
<path opacity="0.3" d="M123.699 76.2674C127.934 75.3141 130.594 71.1081 129.641 66.8731C128.688 62.638 124.482 59.9777 120.247 60.9309C116.011 61.8842 113.351 66.0902 114.304 70.3252C115.258 74.5602 119.464 77.2206 123.699 76.2674Z" fill="black"/>
<path d="M130.861 69.2642C128.531 72.9242 123.671 74.0042 120.011 71.6742C116.351 69.3442 115.271 64.4842 117.601 60.8242C119.931 57.1642 124.791 56.0842 128.451 58.4142C132.111 60.7442 133.191 65.5942 130.861 69.2642Z" fill="#23C8AC"/>
<path opacity="0.3" d="M130.861 69.2642C128.531 72.9242 123.671 74.0042 120.011 71.6742C116.351 69.3442 115.271 64.4842 117.601 60.8242C119.931 57.1642 124.791 56.0842 128.451 58.4142C132.111 60.7442 133.191 65.5942 130.861 69.2642Z" fill="white"/>
<path opacity="0.3" d="M130.011 136.704C130.471 139.254 128.771 141.694 126.221 142.144C123.671 142.604 121.231 140.904 120.781 138.354C120.321 135.804 122.021 133.364 124.571 132.914C127.111 132.454 129.551 134.154 130.011 136.704Z" fill="black"/>
<path d="M129.571 134.224C130.031 136.774 128.331 139.214 125.781 139.664C123.231 140.124 120.791 138.424 120.341 135.874C119.881 133.324 121.581 130.894 124.131 130.434C126.671 129.984 129.111 131.684 129.571 134.224Z" fill="#23C8AC"/>
<path opacity="0.3" d="M129.571 134.224C130.031 136.774 128.331 139.214 125.781 139.664C123.231 140.124 120.791 138.424 120.341 135.874C119.881 133.324 121.581 130.894 124.131 130.434C126.671 129.984 129.111 131.684 129.571 134.224Z" fill="white"/>
<path d="M199.451 88.2042C198.011 88.5042 196.091 85.1542 195.161 80.7242C194.841 79.2242 194.681 77.7942 194.661 76.5442C194.621 74.0942 195.121 72.3442 196.081 72.1442C197.521 71.8442 199.441 75.1942 200.371 79.6242C201.311 84.0642 200.891 87.9042 199.451 88.2042Z" fill="#23C8AC"/>
<path opacity="0.3" d="M194.671 76.8942C194.671 76.8942 194.931 81.6142 196.431 84.8342C194.971 85.1842 193.301 85.5942 191.631 86.0542C191.631 86.0542 191.591 79.6142 192.921 77.1642L194.671 76.8942Z" fill="black"/>
<path d="M173.431 43.2042C172.341 44.1942 168.991 42.2742 165.941 38.9242C164.911 37.7942 164.051 36.6342 163.401 35.5742C162.131 33.4842 161.681 31.7242 162.401 31.0642C163.491 30.0742 166.841 31.9942 169.891 35.3442C172.931 38.6942 174.511 42.2142 173.431 43.2042Z" fill="#23C8AC"/>
<path opacity="0.3" d="M163.581 35.8741C163.581 35.8741 165.871 39.9642 169.111 41.8342C167.961 42.8242 166.771 43.9641 165.561 45.2041C165.561 45.2041 162.321 39.8041 162.231 37.0241L163.581 35.8741Z" fill="black"/>
<path d="M144.751 6.76419C144.291 8.16419 140.421 8.13418 136.121 6.71418C134.671 6.23418 133.351 5.65419 132.261 5.04419C130.131 3.84419 128.871 2.53418 129.171 1.60418C129.631 0.204183 133.501 0.234187 137.801 1.65419C142.101 3.07419 145.211 5.36419 144.751 6.76419Z" fill="#23C8AC"/>
<path opacity="0.3" d="M132.571 5.20422C132.571 5.20422 136.781 7.35422 140.311 7.68422C139.881 9.12422 139.401 10.7742 138.941 12.4442C138.941 12.4442 133.351 9.23423 131.901 6.86423L132.571 5.20422Z" fill="black"/>
<path d="M93.6708 5.84418C93.9808 7.28418 90.6308 9.21417 86.2008 10.1642C84.7008 10.4842 83.2709 10.6542 82.0209 10.6742C79.5709 10.7242 77.8208 10.2242 77.6208 9.27418C77.3108 7.83418 80.6608 5.90418 85.0908 4.95418C89.5208 4.01418 93.3608 4.40418 93.6708 5.84418Z" fill="#23C8AC"/>
<path opacity="0.3" d="M82.3809 10.6742C82.3809 10.6742 87.0709 10.7542 90.3109 8.89417C90.5909 10.3842 90.9708 11.9842 91.4308 13.6542C91.4308 13.6542 85.1408 13.7342 82.6808 12.4142L82.3809 10.6742Z" fill="black"/>
<path opacity="0.3" d="M143.941 117.384C142.311 122.494 138.201 125.744 134.761 124.644C131.321 123.544 129.861 118.514 131.491 113.404C133.121 108.294 137.231 105.044 140.671 106.144C144.111 107.244 145.571 112.274 143.941 117.384Z" fill="black"/>
<path d="M146.221 114.304C144.591 119.414 140.481 122.664 137.041 121.564C133.601 120.464 132.141 115.434 133.771 110.324C135.401 105.214 139.511 101.964 142.951 103.064C146.401 104.164 147.861 109.194 146.221 114.304Z" fill="#23C8AC"/>
<path opacity="0.3" d="M146.221 114.304C144.591 119.414 140.481 122.664 137.041 121.564C133.601 120.464 132.141 115.434 133.771 110.324C135.401 105.214 139.511 101.964 142.951 103.064C146.401 104.164 147.861 109.194 146.221 114.304Z" fill="white"/>
<path opacity="0.3" d="M109.441 92.1242C110.391 97.4042 106.871 102.454 101.591 103.394C96.3109 104.344 91.2609 100.824 90.3209 95.5442C89.3709 90.2642 92.8909 85.2142 98.1709 84.2742C103.451 83.3342 108.501 86.8442 109.441 92.1242Z" fill="black"/>
<path d="M108.451 86.5642C109.401 91.8442 105.881 96.8942 100.601 97.8342C95.3209 98.7842 90.2709 95.2642 89.3309 89.9842C88.3809 84.7042 91.9009 79.6542 97.1809 78.7142C102.451 77.7742 107.501 81.2842 108.451 86.5642Z" fill="#23C8AC"/>
<path opacity="0.2" d="M108.451 86.5642C109.401 91.8442 105.881 96.8942 100.601 97.8342C95.3209 98.7842 90.2709 95.2642 89.3309 89.9842C88.3809 84.7042 91.9009 79.6542 97.1809 78.7142C102.451 77.7742 107.501 81.2842 108.451 86.5642Z" fill="white"/>
<g opacity="0.3">
<path opacity="0.3" d="M143.591 139.994C144.141 140.634 143.491 142.294 141.611 144.644C139.731 146.994 136.511 149.934 131.981 152.844C129.721 154.304 127.101 155.674 124.191 156.984C121.261 158.214 118.051 159.414 114.551 160.274C107.581 162.074 99.5208 162.804 91.1508 161.874C82.7908 160.864 75.1109 158.294 68.7409 154.944C65.5309 153.304 62.6808 151.404 60.1108 149.524C57.5808 147.584 55.3508 145.644 53.4808 143.704C49.7308 139.834 47.2809 136.234 45.9909 133.514C44.6909 130.794 44.4509 129.024 45.1309 128.534C46.6209 127.444 51.1708 131.764 59.1208 136.914C61.1008 138.214 63.3308 139.514 65.7308 140.834C68.1708 142.094 70.7808 143.404 73.6208 144.534C79.2708 146.844 85.7208 148.644 92.6108 149.484C99.5008 150.244 106.191 149.974 112.221 149.024C115.241 148.584 118.081 147.904 120.741 147.234C123.381 146.494 125.851 145.744 128.071 144.934C136.981 141.744 142.401 138.594 143.591 139.994Z" fill="black"/>
</g>
<g opacity="0.3">
<path opacity="0.3" d="M39.8909 104.594C43.2509 103.824 46.5609 105.794 47.2909 108.984C48.0209 112.174 45.8809 115.384 42.5209 116.144C39.1609 116.904 35.8509 114.944 35.1209 111.754C34.4009 108.564 36.5409 105.364 39.8909 104.594Z" fill="black"/>
</g>
</svg>
