<svg width="152" height="244" viewBox="0 0 152 244" fill="none" xmlns="http://www.w3.org/2000/svg">
<path opacity="0.7" d="M91.9255 243.51C118.277 243.51 139.64 231.177 139.64 215.963C139.64 200.75 118.277 188.417 91.9255 188.417C65.5737 188.417 44.2113 200.75 44.2113 215.963C44.2113 231.177 65.5737 243.51 91.9255 243.51Z" fill="#EBEBEB"/>
<path d="M132.719 99.745C132.719 101.303 131.311 103.409 128.414 105.879C124.825 108.938 118.31 114.149 118.31 114.149C118.287 114.091 118.264 114.039 118.24 113.982C117.254 111.575 114.876 110.121 112.718 110.04C112.666 110.029 112.62 110.029 112.568 110.029L120.012 101.765L103.75 94.6609L100.772 82.6519C103.496 81.8786 103.571 81.8382 107.997 84.0484C112.423 86.2644 125.789 93.7318 128.391 95.0533C130.117 95.9132 132.719 97.6791 132.719 99.745Z" fill="#27DEBF"/>
<path opacity="0.8" d="M132.719 99.745C132.719 101.303 131.311 103.409 128.414 105.879C124.825 108.938 118.31 114.149 118.31 114.149C118.287 114.091 118.264 114.039 118.24 113.982C117.254 111.575 114.876 110.121 112.718 110.04C112.666 110.029 112.62 110.029 112.568 110.029L120.012 101.765L103.75 94.6609L100.772 82.6519C103.496 81.8786 103.571 81.8382 107.997 84.0484C112.423 86.2644 125.789 93.7318 128.391 95.0533C130.117 95.9132 132.719 97.6791 132.719 99.745Z" fill="white"/>
<path opacity="0.1" d="M125.575 97.7483C125.575 97.7483 123.278 96.6634 118.477 101.09L120.018 101.765C122.384 99.1102 124.433 97.881 125.575 97.7483Z" fill="black"/>
<path d="M29.6989 152.502C29.6989 152.502 34.3906 143.771 44.4203 141.849C52.9668 140.21 54.4788 146.362 64.3642 144.567C72.1259 143.159 74.0418 133.562 82.5422 133.666C88.792 133.741 90.7195 140.764 90.7195 140.764C90.7195 140.764 109.036 129.061 109.301 107.126C109.567 85.1853 97.0962 82.0286 97.0962 82.0286L88.4458 81.8382C88.4458 81.8382 92.2314 96.7038 76.6041 107.414C60.9652 118.125 28.0196 125.696 29.6989 152.502Z" fill="#27DEBF"/>
<path opacity="0.6" d="M29.6989 152.502C29.6989 152.502 34.3906 143.771 44.4203 141.849C52.9668 140.21 54.4788 146.362 64.3642 144.567C72.1259 143.159 74.0418 133.562 82.5422 133.666C88.792 133.741 90.7195 140.764 90.7195 140.764C90.7195 140.764 109.036 129.061 109.301 107.126C109.567 85.1853 97.0962 82.0286 97.0962 82.0286L88.4458 81.8382C88.4458 81.8382 92.2314 96.7038 76.6041 107.414C60.9652 118.125 28.0196 125.696 29.6989 152.502Z" fill="white"/>
<path opacity="0.1" d="M29.6989 152.502C29.6989 152.502 34.3906 143.771 44.4203 141.849C52.9668 140.21 54.4788 146.362 64.3642 144.567C72.1259 143.159 74.0418 133.562 82.5422 133.666C88.792 133.741 90.7195 140.764 90.7195 140.764C90.7195 140.764 109.036 129.061 109.301 107.126C109.567 85.1853 97.0962 82.0286 97.0962 82.0286L88.4458 81.8382C88.4458 81.8382 92.2314 96.7038 76.6041 107.414C60.9652 118.125 28.0196 125.696 29.6989 152.502Z" fill="black"/>
<path d="M119.406 211.572C119.545 211.583 119.666 213.28 118.881 213.932C117.975 214.688 115.378 215.848 112.06 215.115C108.742 214.382 106.993 213.095 105.718 211.751C104.442 210.406 102.659 208.513 101.165 208.029C99.7796 207.578 98.2907 206.753 97.8637 206.24C97.4367 205.726 97.6098 203.591 97.6098 203.591L119.406 211.572Z" fill="#455A64"/>
<path d="M99.3643 195.465C99.3643 195.465 98.9431 195.437 98.8334 195.927C98.7007 196.51 98.5045 198.212 98.2332 199.164C97.8581 200.486 97.5119 203.227 97.6389 204.335C97.7658 205.443 100.016 206.384 101.448 207.111C102.908 207.855 104.57 209.286 106.018 210.793C107.513 212.351 110.744 214.094 112.92 214.244C115.5 214.417 118.448 213.718 119.181 212.443C120.087 210.868 119.493 209.869 115.771 207.613C115.067 207.186 112.608 205.322 111.777 204.653C109.515 202.84 108.725 200.313 107.79 197.335C107.68 196.989 106.157 196.677 105.874 196.481C105.655 196.331 105.389 196.331 105.135 196.348C104.495 196.4 103.86 196.562 103.265 196.822C102.74 197.052 101.996 197.312 101.967 198.045C101.955 198.299 102.013 198.553 102.071 198.795C102.111 198.945 102.134 199.147 102.013 199.228C101.898 199.303 101.753 199.199 101.661 199.089C101.28 198.662 101.015 198.132 100.703 197.641C100.536 197.381 100.351 197.127 100.132 196.914C99.9356 196.718 99.676 196.608 99.5028 196.394C99.2835 196.123 99.3586 195.806 99.3643 195.465Z" fill="#27DEBF"/>
<path opacity="0.9" d="M99.3643 195.465C99.3643 195.465 98.9431 195.437 98.8334 195.927C98.7007 196.51 98.5045 198.212 98.2332 199.164C97.8581 200.486 97.5119 203.227 97.6389 204.335C97.7658 205.443 100.016 206.384 101.448 207.111C102.908 207.855 104.57 209.286 106.018 210.793C107.513 212.351 110.744 214.094 112.92 214.244C115.5 214.417 118.448 213.718 119.181 212.443C120.087 210.868 119.493 209.869 115.771 207.613C115.067 207.186 112.608 205.322 111.777 204.653C109.515 202.84 108.725 200.313 107.79 197.335C107.68 196.989 106.157 196.677 105.874 196.481C105.655 196.331 105.389 196.331 105.135 196.348C104.495 196.4 103.86 196.562 103.265 196.822C102.74 197.052 101.996 197.312 101.967 198.045C101.955 198.299 102.013 198.553 102.071 198.795C102.111 198.945 102.134 199.147 102.013 199.228C101.898 199.303 101.753 199.199 101.661 199.089C101.28 198.662 101.015 198.132 100.703 197.641C100.536 197.381 100.351 197.127 100.132 196.914C99.9356 196.718 99.676 196.608 99.5028 196.394C99.2835 196.123 99.3586 195.806 99.3643 195.465Z" fill="white"/>
<path d="M106.018 210.793C105.383 210.135 104.702 209.488 104.021 208.911V208.906C104.021 208.906 108.361 212.276 110.248 211.041C111.466 210.244 110.963 209.125 110.952 208.779C110.94 208.432 113.901 207.18 115.043 207.117C115.349 207.336 115.609 207.509 115.771 207.607C119.493 209.864 120.087 210.862 119.181 212.437C118.448 213.713 116.296 214.584 112.966 214.33C110.79 214.169 107.518 212.351 106.018 210.793Z" fill="#27DEBF"/>
<path opacity="0.7" d="M106.018 210.793C105.383 210.135 104.702 209.488 104.021 208.911V208.906C104.021 208.906 108.361 212.276 110.248 211.041C111.466 210.244 110.963 209.125 110.952 208.779C110.94 208.432 113.901 207.18 115.043 207.117C115.349 207.336 115.609 207.509 115.771 207.607C119.493 209.864 120.087 210.862 119.181 212.437C118.448 213.713 116.296 214.584 112.966 214.33C110.79 214.169 107.518 212.351 106.018 210.793Z" fill="white"/>
<path d="M110.686 207.757C113.006 208.992 111.973 209.408 111.298 209.46C110.629 209.512 106.757 206.62 104.431 204.295C102.001 201.871 100.518 199.309 99.618 198.414C99.2833 198.08 98.9198 197.676 98.6024 197.301C98.6947 196.723 98.7697 196.204 98.8332 195.927C98.9428 195.437 99.3641 195.465 99.3641 195.465C99.3583 195.806 99.2833 196.123 99.5026 196.394C99.6757 196.614 99.9354 196.718 100.132 196.914C100.351 197.127 100.536 197.381 100.703 197.641C101.015 198.132 101.286 198.662 101.661 199.089C103.594 202.171 108.367 206.522 110.686 207.757Z" fill="#27DEBF"/>
<path d="M111.154 209.061C111.102 209.056 111.05 209.033 111.01 208.992C110.911 208.894 110.906 208.727 110.992 208.623C111.708 207.763 113.705 206.707 115.442 207.053C115.569 207.076 115.655 207.215 115.638 207.353C115.615 207.498 115.511 207.584 115.367 207.567C113.745 207.249 111.91 208.3 111.339 208.981C111.292 209.038 111.223 209.067 111.154 209.061Z" fill="#455A64"/>
<path d="M109.151 207.486C109.099 207.48 109.048 207.457 109.007 207.417C108.909 207.319 108.903 207.151 108.99 207.047C109.705 206.188 111.702 205.132 113.439 205.478C113.566 205.501 113.653 205.639 113.635 205.778C113.612 205.922 113.497 206.014 113.364 205.991C111.742 205.674 109.907 206.724 109.336 207.405C109.29 207.463 109.221 207.492 109.151 207.486Z" fill="#455A64"/>
<path d="M107.149 205.991C107.097 205.986 107.045 205.963 107.005 205.922C106.907 205.824 106.901 205.657 106.987 205.553C107.703 204.693 109.7 203.631 111.437 203.983C111.564 204.006 111.65 204.145 111.633 204.283C111.61 204.427 111.494 204.52 111.362 204.497C109.74 204.179 107.905 205.23 107.334 205.911C107.282 205.968 107.212 205.997 107.149 205.991Z" fill="#455A64"/>
<path d="M105.32 204.22C105.262 204.214 105.204 204.191 105.164 204.145C105.06 204.035 105.054 203.856 105.146 203.747C105.926 202.812 108.095 201.669 109.977 202.044C110.115 202.073 110.213 202.217 110.184 202.373C110.161 202.529 110.034 202.627 109.89 202.604C108.13 202.258 106.139 203.4 105.522 204.139C105.464 204.197 105.389 204.225 105.32 204.22Z" fill="#455A64"/>
<path d="M104.056 202.558C103.998 202.552 103.946 202.529 103.9 202.483C103.796 202.379 103.785 202.2 103.877 202.085C104.944 200.769 107.235 200.024 109.111 200.394C109.25 200.423 109.342 200.567 109.319 200.723C109.296 200.873 109.169 200.977 109.024 200.953C107.339 200.619 105.198 201.3 104.252 202.465C104.206 202.529 104.131 202.564 104.056 202.558Z" fill="#455A64"/>
<path d="M75.5595 221.065C75.2306 223.529 74.6996 225.139 73.632 226.507C72.5644 227.874 70.712 228.174 68.9 227.586C67.0822 226.997 64.7969 225.653 64.4161 223.465C64.0352 221.278 64.2372 219.824 64.8142 217.562L75.5595 221.065Z" fill="#455A64"/>
<path d="M69.4425 202.465C68.6807 202.454 68.2248 205.761 67.5612 209.061C66.8456 212.593 65.576 213.967 64.9586 216.864C64.2488 220.17 64.3411 221.682 65.4895 223.817C66.6379 225.953 71.0583 228.336 73.5051 225.635C75.4961 223.431 75.75 220.817 75.8135 217.464C75.8769 213.996 75.8885 211.549 76.2232 208.94C76.5406 206.447 76.8984 204.035 76.2578 203.7C76.1828 204.064 76.102 204.526 76.0212 204.883C75.9635 205.155 75.7904 206.505 75.3633 206.482C75.346 206.159 75.3749 205.859 75.421 205.535C75.4614 205.253 75.4557 204.941 75.2652 204.71C75.0748 204.474 74.7516 204.376 74.4458 204.295C73.7071 204.093 72.9627 203.908 72.2067 203.781C71.8316 203.718 71.4507 203.666 71.0699 203.637C70.764 203.614 70.3947 203.602 70.1004 203.677C69.9157 203.723 69.7426 203.822 69.6675 203.983C69.6098 204.099 69.6098 204.231 69.6041 204.364C69.5868 204.595 69.5406 204.826 69.4598 205.045C69.4252 205.143 69.3444 205.253 69.2347 205.224C69.1482 205.195 69.1193 205.091 69.1251 205.01C69.1482 204.606 69.2232 204.318 69.2809 203.85C69.304 203.637 69.3617 203.343 69.3848 203.123C69.3963 202.892 69.4136 202.673 69.4425 202.465Z" fill="#27DEBF"/>
<path opacity="0.9" d="M69.4425 202.465C68.6807 202.454 68.2248 205.761 67.5612 209.061C66.8456 212.593 65.576 213.967 64.9586 216.864C64.2488 220.17 64.3411 221.682 65.4895 223.817C66.6379 225.953 71.0583 228.336 73.5051 225.635C75.4961 223.431 75.75 220.817 75.8135 217.464C75.8769 213.996 75.8885 211.549 76.2232 208.94C76.5406 206.447 76.8984 204.035 76.2578 203.7C76.1828 204.064 76.102 204.526 76.0212 204.883C75.9635 205.155 75.7904 206.505 75.3633 206.482C75.346 206.159 75.3749 205.859 75.421 205.535C75.4614 205.253 75.4557 204.941 75.2652 204.71C75.0748 204.474 74.7516 204.376 74.4458 204.295C73.7071 204.093 72.9627 203.908 72.2067 203.781C71.8316 203.718 71.4507 203.666 71.0699 203.637C70.764 203.614 70.3947 203.602 70.1004 203.677C69.9157 203.723 69.7426 203.822 69.6675 203.983C69.6098 204.099 69.6098 204.231 69.6041 204.364C69.5868 204.595 69.5406 204.826 69.4598 205.045C69.4252 205.143 69.3444 205.253 69.2347 205.224C69.1482 205.195 69.1193 205.091 69.1251 205.01C69.1482 204.606 69.2232 204.318 69.2809 203.85C69.304 203.637 69.3617 203.343 69.3848 203.123C69.3963 202.892 69.4136 202.673 69.4425 202.465Z" fill="white"/>
<path d="M65.1951 215.923C65.0913 216.402 64.4218 219.559 65.3394 220.216C66.332 220.932 67.0706 218.468 67.0706 218.468C67.0706 218.468 69.5406 218 72.98 219.72C72.7607 220.222 73.1935 221.982 74.1861 221.705C75.1729 221.428 75.8019 217.798 75.8134 217.752C75.7442 220.972 75.4441 223.5 73.5109 225.635C71.0698 228.336 66.6436 225.953 65.4952 223.817C64.3468 221.682 64.2545 220.17 64.9643 216.864C65.0278 216.529 65.1086 216.217 65.1951 215.923Z" fill="#27DEBF"/>
<path opacity="0.7" d="M65.1951 215.923C65.0913 216.402 64.4218 219.559 65.3394 220.216C66.332 220.932 67.0706 218.468 67.0706 218.468C67.0706 218.468 69.5406 218 72.98 219.72C72.7607 220.222 73.1935 221.982 74.1861 221.705C75.1729 221.428 75.8019 217.798 75.8134 217.752C75.7442 220.972 75.4441 223.5 73.5109 225.635C71.0698 228.336 66.6436 225.953 65.4952 223.817C64.3468 221.682 64.2545 220.17 64.9643 216.864C65.0278 216.529 65.1086 216.217 65.1951 215.923Z" fill="white"/>
<path d="M67.3304 218.704C67.2323 219.911 65.9511 219.391 66.0088 217.677C66.0666 215.963 67.3708 211.999 67.5612 209.056C68.2248 205.761 68.6807 202.448 69.4425 202.46C69.4367 202.5 69.4367 202.54 69.4309 202.581L69.2174 204.266C69.177 204.508 69.1424 204.728 69.1251 204.987C68.9404 207.451 68.2306 212.189 67.844 214.428C67.4516 216.667 67.4285 217.493 67.3304 218.704Z" fill="#27DEBF"/>
<path d="M72.5645 219.651C72.8934 218.485 73.1589 217.7 73.5802 215.467C73.9957 213.251 74.9767 208.623 75.6577 206.228C75.8712 205.83 75.975 205.074 76.0154 204.872C76.0905 204.537 76.1655 204.116 76.2347 203.764C76.2405 203.741 76.2463 203.718 76.2521 203.689C76.7137 203.937 76.6502 205.282 76.4598 206.949C76.2982 207.907 76.0501 209.09 75.7096 210.521C74.8613 213.343 74.6997 217.539 74.1572 219.166C73.6263 220.799 72.2356 220.817 72.5645 219.651Z" fill="#27DEBF"/>
<path d="M73.0435 219.824C73.0088 219.818 72.9742 219.807 72.9454 219.789C72.9165 219.772 70.2446 218.249 67.1284 218.722C66.9726 218.745 66.8283 218.647 66.7937 218.508C66.7648 218.37 66.8629 218.237 67.013 218.214C70.3543 217.706 73.1185 219.287 73.2339 219.357C73.3666 219.432 73.4128 219.593 73.3262 219.714C73.2685 219.801 73.1531 219.841 73.0435 219.824Z" fill="#455A64"/>
<path d="M73.8571 217.25C73.8283 217.244 73.7936 217.233 73.7648 217.216C73.7359 217.198 70.7236 215.606 67.2495 216.027C67.0937 216.044 66.9495 215.946 66.9264 215.802C66.9033 215.663 67.0072 215.531 67.1572 215.513C70.8332 215.069 73.909 216.702 74.0418 216.771C74.1803 216.846 74.2264 217.002 74.1514 217.123C74.0879 217.227 73.9725 217.273 73.8571 217.25Z" fill="#455A64"/>
<path d="M67.6016 213.551C67.4977 213.534 67.4053 213.459 67.3765 213.355C67.3361 213.216 67.4227 213.078 67.5727 213.043C71.0525 212.287 74.313 214.163 74.4515 214.244C74.5842 214.319 74.6304 214.48 74.5438 214.601C74.463 214.723 74.2899 214.751 74.1572 214.676C74.1283 214.659 70.9602 212.841 67.7227 213.545C67.6823 213.557 67.6419 213.557 67.6016 213.551Z" fill="#455A64"/>
<path d="M67.9594 211.214C67.8555 211.197 67.7632 211.122 67.7343 211.024C67.6881 210.885 67.7747 210.747 67.9247 210.712C71.7565 209.817 74.8151 211.82 74.942 211.906C75.069 211.993 75.1036 212.155 75.0113 212.27C74.9247 212.385 74.7401 212.409 74.6189 212.322C74.59 212.305 71.6469 210.383 68.0805 211.214C68.0402 211.22 67.9998 211.22 67.9594 211.214Z" fill="#455A64"/>
<path d="M68.3691 208.594C68.2652 208.577 68.1787 208.507 68.1441 208.409C68.0979 208.271 68.1845 208.132 68.3287 208.092C71.9239 207.203 75.2537 209.269 75.3922 209.362C75.5249 209.442 75.5595 209.604 75.473 209.719C75.3864 209.835 75.2133 209.864 75.0806 209.783C75.046 209.76 71.8316 207.763 68.4961 208.594C68.4557 208.6 68.4095 208.6 68.3691 208.594Z" fill="#455A64"/>
<path d="M106.485 120.295C106.485 120.295 99.5488 120.151 88.2265 120.214L87.8052 118.673C84.5159 118.869 78.6873 117.075 78.6873 117.075C77.3197 120.941 76.4136 124.15 76.0905 133.377C75.8019 141.705 74.9305 163.732 74.9305 163.732C74.9305 163.732 72.0855 168.816 71.3526 172.082C70.4351 176.185 68.6288 191.16 67.2669 206.153C69.8638 207.844 74.0014 208.842 77.4466 207.197C77.4466 207.197 87.6898 170.807 88.6997 167.483C89.7673 163.968 93.7261 143.672 94.0723 141.907L94.1069 141.964L100.172 161.262C100.172 161.262 98.1003 166.802 97.9041 174.044C97.8003 178.009 98.1407 196.77 98.1407 196.77C100.345 199.938 107.051 200.174 108.69 199.101C108.69 199.101 114.818 161.781 115.107 157.615C115.499 152.127 106.485 120.295 106.485 120.295Z" fill="#455A64"/>
<path d="M94.1127 141.958L94.5397 132.973C94.5397 132.973 99.4911 131.888 102.359 127.872C102.359 127.872 101.788 132.483 96.8769 134.301L95.8208 141.595L100.178 161.256L94.1127 141.958Z" fill="#37474F"/>
<path d="M88.8324 81.919L81.1226 82.6461C78.1044 83.3848 78.5142 84.1812 78.2025 86.853C78.0583 88.0995 77.6947 90.7945 78.745 94.9437C79.7029 98.7063 82.6172 106.422 82.6172 106.422C82.6172 106.422 80.1704 110.225 78.5892 115.095C77.5735 118.217 76.5694 121.772 75.9923 124.565C76.8233 125.021 78.1102 125.644 79.0451 125.985C79.0451 125.985 80.4243 121.01 81.8439 118.846C81.9074 122.43 83.3097 127.116 83.3097 127.116C92.6815 128.813 104.067 126.418 107.57 123.082C107.195 119.077 105.014 113.601 104.696 110.029C104.696 110.029 104.927 104.454 105.371 102.036C108.765 98.3312 108.424 94.13 106.901 91.2735C104.09 85.999 98.4754 82.0171 97.1077 82.0229L88.8324 81.919Z" fill="#27DEBF"/>
<path opacity="0.6" d="M88.8324 81.919L81.1226 82.6461C78.1044 83.3848 78.5142 84.1812 78.2025 86.853C78.0583 88.0995 77.6947 90.7945 78.745 94.9437C79.7029 98.7063 82.6172 106.422 82.6172 106.422C82.6172 106.422 80.1704 110.225 78.5892 115.095C77.5735 118.217 76.5694 121.772 75.9923 124.565C76.8233 125.021 78.1102 125.644 79.0451 125.985C79.0451 125.985 80.4243 121.01 81.8439 118.846C81.9074 122.43 83.3097 127.116 83.3097 127.116C92.6815 128.813 104.067 126.418 107.57 123.082C107.195 119.077 105.014 113.601 104.696 110.029C104.696 110.029 104.927 104.454 105.371 102.036C108.765 98.3312 108.424 94.13 106.901 91.2735C104.09 85.999 98.4754 82.0171 97.1077 82.0229L88.8324 81.919Z" fill="white"/>
<path d="M88.4458 81.8324C89.2075 85.1391 91.1061 92.6008 83.5521 103.144C75.9981 113.693 50.52 128.074 40.8828 134.889C31.2455 141.71 29.6989 152.502 29.6989 152.502C29.6989 152.502 19.7212 139.956 25.4689 123.423C25.4689 123.423 31.032 115.955 46.0476 113.231C60.9767 110.519 69.8753 107.212 73.2974 103.692C76.7137 100.172 76.6041 94.7475 76.6041 94.7475C76.6041 94.7475 75.4903 84.2504 79.6222 82.4326H83.3732C83.3732 82.4326 85.8316 81.7632 88.4458 81.8324Z" fill="#27DEBF"/>
<path opacity="0.9" d="M88.4458 81.8324C89.2075 85.1391 91.1061 92.6008 83.5521 103.144C75.9981 113.693 50.52 128.074 40.8828 134.889C31.2455 141.71 29.6989 152.502 29.6989 152.502C29.6989 152.502 19.7212 139.956 25.4689 123.423C25.4689 123.423 31.032 115.955 46.0476 113.231C60.9767 110.519 69.8753 107.212 73.2974 103.692C76.7137 100.172 76.6041 94.7475 76.6041 94.7475C76.6041 94.7475 75.4903 84.2504 79.6222 82.4326H83.3732C83.3732 82.4326 85.8316 81.7632 88.4458 81.8324Z" fill="white"/>
<path d="M80.9321 57.8086L83.8348 60.1861C84.4985 59.4359 84.3888 58.2933 83.5867 57.6354C82.7903 56.9833 81.6015 57.0584 80.9321 57.8086Z" fill="#455A64"/>
<path d="M88.5216 79.0797C88.5216 77.2562 84.2801 74.5323 82.0872 70.6947C79.9 66.8629 80.9849 60.5727 83.9915 59.609C83.9915 59.609 84.0492 53.8844 91.7706 52.3609C99.4977 50.8374 101.921 49.1292 103.295 48.8869C104.663 48.6445 104.94 53.5093 103.128 54.7904C103.128 54.7904 104.963 54.1441 106.602 52.5629C107.727 51.478 108.171 57.1391 105.747 59.1243C105.747 59.1243 107.756 60.3015 107.513 63.285C107.271 66.2685 105.118 67.5958 103.67 67.9074L88.5216 79.0797Z" fill="#455A64"/>
<path d="M101.695 57.6123C103.559 58.4202 105.331 61.271 105.302 69.2405C105.279 75.9981 103.207 77.7063 102.163 78.2083C101.118 78.7104 99.0756 78.4565 97.0904 78.1506L97.0962 82.0344C98.3657 83.7714 99.5603 86.7318 99.5718 89.3921C99.5718 89.3921 95.665 88.4515 92.2545 85.9008C89.4037 83.7656 88.4457 81.8439 88.4457 81.8439L88.3765 73.3493C88.3765 73.3493 87.2338 74.5496 85.2256 72.7895C83.5694 71.3353 82.9692 68.8423 84.2157 67.4746C85.4622 66.1069 87.0607 65.9973 88.5092 67.5266L89.5479 66.9783C91.3946 66.7648 94.13 66.4532 96.1036 65.4433C101.205 62.8349 101.736 60.0014 101.695 57.6123Z" fill="#FFA8A7"/>
<path d="M87.8975 65.6164L89.0171 69.2001C89.9866 68.9404 90.5232 67.9248 90.2116 66.938C89.9058 65.9454 88.867 65.351 87.8975 65.6164Z" fill="#455A64"/>
<path d="M101.874 66.9437C101.857 67.4573 102.244 67.8901 102.734 67.9074C103.231 67.9247 103.646 67.5208 103.663 67.0072C103.681 66.4936 103.294 66.0608 102.804 66.0435C102.307 66.0261 101.892 66.4243 101.874 66.9437Z" fill="#263238"/>
<path d="M94.7244 67.3419C94.7013 67.8959 95.1168 68.3575 95.6477 68.3749C96.1786 68.3922 96.623 67.9594 96.646 67.4054C96.6691 66.8514 96.2536 66.3897 95.7227 66.3724C95.1918 66.3551 94.7475 66.7879 94.7244 67.3419Z" fill="#263238"/>
<path d="M96.1844 72.8704L99.0756 73.7706C98.8505 74.6305 98.0253 75.1268 97.2232 74.8786C96.4326 74.6305 95.9651 73.736 96.1844 72.8704Z" fill="#F28F8F"/>
<path d="M104.246 65.276L101.938 64.3584C102.146 63.689 102.902 63.3947 103.536 63.6486C104.177 63.9025 104.46 64.6008 104.246 65.276Z" fill="#263238"/>
<path d="M99.6873 66.2108L99.5718 71.745L102.544 71.0814L99.6873 66.2108Z" fill="#F28F8F"/>
<path d="M97.0904 78.1449C95.0014 77.9025 91.1811 76.3732 89.8192 74.6304C89.8192 74.6304 90.0039 76.102 91.3023 77.2273C93.0162 78.7162 97.0962 79.5645 97.0962 79.5645L97.0904 78.1449Z" fill="#F28F8F"/>
<path d="M87.7071 66.8572C88.6881 67.2842 88.642 68.675 88.8209 69.229C88.9998 69.783 89.1844 71.5084 89.1844 71.5084L89.2594 72.6684C89.2594 72.6684 89.5018 75.4961 92.0006 76.8234C94.0954 77.9314 99.318 79.3221 102.157 78.3815C104.535 77.5909 105.423 73.2801 105.227 70.3947C105.227 70.3947 102.042 69.2694 100.605 69.5348C99.191 69.8003 95.8959 71.2776 94.5628 71.3065C92.7912 71.3526 91.6024 70.5216 89.698 68.6865C88.2438 67.29 87.7071 66.8572 87.7071 66.8572Z" fill="#27DEBF"/>
<path opacity="0.5" d="M87.7071 66.8572C88.6881 67.2842 88.642 68.675 88.8209 69.229C88.9998 69.783 89.1844 71.5084 89.1844 71.5084L89.2594 72.6684C89.2594 72.6684 89.5018 75.4961 92.0006 76.8234C94.0954 77.9314 99.318 79.3221 102.157 78.3815C104.535 77.5909 105.423 73.2801 105.227 70.3947C105.227 70.3947 102.042 69.2694 100.605 69.5348C99.191 69.8003 95.8959 71.2776 94.5628 71.3065C92.7912 71.3526 91.6024 70.5216 89.698 68.6865C88.2438 67.29 87.7071 66.8572 87.7071 66.8572Z" fill="white"/>
<path opacity="0.1" d="M87.7071 66.8572C88.5208 67.5381 88.642 68.675 88.8209 69.229C88.9998 69.783 89.1844 71.5084 89.1844 71.5084L89.2594 72.6684C89.2594 72.6684 89.5018 75.4961 92.0006 76.8234C94.0954 77.9314 99.318 79.3221 102.157 78.3815C104.535 77.5909 105.423 73.2801 105.227 70.3947C105.227 70.3947 102.042 69.2694 100.605 69.5348C99.191 69.8003 95.8959 71.2776 94.5628 71.3065C92.7912 71.3526 91.6024 70.5216 89.698 68.6865C88.2438 67.29 87.7071 66.8572 87.7071 66.8572Z" fill="black"/>
<path d="M105.256 71.0583C105.25 70.8275 105.245 70.6024 105.227 70.3947C105.227 70.3947 102.042 69.2694 100.605 69.5348C99.191 69.8003 97.3039 70.5736 95.6419 70.891C92.7969 71.4392 91.4523 70.3658 89.6518 68.4384C88.3015 66.9899 87.4993 66.7302 87.4993 66.7302C88.1745 67.2669 88.4573 68.3172 88.6304 68.8712C88.7112 69.1136 88.919 70.0831 89.0286 70.8102C89.1094 71.3642 88.9593 74.0014 90.5175 75.623C90.0962 75.0171 89.6807 73.5109 89.6114 72.1202C89.496 69.8292 89.1729 68.7154 88.9132 68.2595C89.219 68.6865 90.7656 70.7121 92.6469 71.4277C94.6898 72.2067 97.1539 71.2141 99.0756 70.6544C101.736 69.8869 102.301 70.1465 105.256 71.0583Z" fill="white"/>
<path d="M107.501 67.1342L107.495 67.0765C107.362 66.1474 107.207 64.9932 107.045 64.318C106.433 61.8193 105.481 61.3807 100.103 61.6461C94.7186 61.9116 91.7409 62.5348 91.3715 65.0913C91.2734 65.8011 91.2273 67.0072 91.1869 67.9767V68.0113C91.1522 68.8885 91.4927 69.7483 92.116 70.3601C92.7392 70.9775 93.5991 71.3065 94.4762 71.2661L96.3575 71.1737C97.7656 71.1103 99.0063 70.1869 99.5199 68.8366C99.6642 68.4499 99.97 67.792 100.403 67.769C100.83 67.7459 101.205 68.3691 101.384 68.7442C102.024 70.0427 102.74 70.8621 104.16 70.7929L104.489 70.7813C105.383 70.7352 106.22 70.3197 106.791 69.6272C107.362 68.9289 107.622 68.0229 107.501 67.1342ZM104.442 69.8061L104.113 69.8176C103.069 69.8695 102.717 69.2463 102.249 68.3056C101.863 67.5208 101.257 66.7533 100.351 66.7937C99.4507 66.8399 98.9197 67.6709 98.6139 68.4788C98.2503 69.4598 97.3559 70.1408 96.3056 70.1927L94.4243 70.285C93.1489 70.3427 92.0929 69.304 92.1448 68.0286C92.1794 67.1053 92.2256 65.8761 92.3179 65.2067C92.543 63.6313 94.3723 62.8753 100.143 62.5983C105.914 62.3155 105.724 62.985 106.099 64.5315C106.254 65.1721 106.416 66.3609 106.537 67.2554C106.728 68.5711 105.752 69.7426 104.442 69.8061Z" fill="#27DEBF"/>
<path opacity="0.3" d="M107.501 67.1342L107.495 67.0765C107.362 66.1474 107.207 64.9932 107.045 64.318C106.433 61.8193 105.481 61.3807 100.103 61.6461C94.7186 61.9116 91.7409 62.5348 91.3715 65.0913C91.2734 65.8011 91.2273 67.0072 91.1869 67.9767V68.0113C91.1522 68.8885 91.4927 69.7483 92.116 70.3601C92.7392 70.9775 93.5991 71.3065 94.4762 71.2661L96.3575 71.1737C97.7656 71.1103 99.0063 70.1869 99.5199 68.8366C99.6642 68.4499 99.97 67.792 100.403 67.769C100.83 67.7459 101.205 68.3691 101.384 68.7442C102.024 70.0427 102.74 70.8621 104.16 70.7929L104.489 70.7813C105.383 70.7352 106.22 70.3197 106.791 69.6272C107.362 68.9289 107.622 68.0229 107.501 67.1342ZM104.442 69.8061L104.113 69.8176C103.069 69.8695 102.717 69.2463 102.249 68.3056C101.863 67.5208 101.257 66.7533 100.351 66.7937C99.4507 66.8399 98.9197 67.6709 98.6139 68.4788C98.2503 69.4598 97.3559 70.1408 96.3056 70.1927L94.4243 70.285C93.1489 70.3427 92.0929 69.304 92.1448 68.0286C92.1794 67.1053 92.2256 65.8761 92.3179 65.2067C92.543 63.6313 94.3723 62.8753 100.143 62.5983C105.914 62.3155 105.724 62.985 106.099 64.5315C106.254 65.1721 106.416 66.3609 106.537 67.2554C106.728 68.5711 105.752 69.7426 104.442 69.8061Z" fill="black"/>
<path opacity="0.5" d="M106.549 67.2669C106.728 68.5711 105.752 69.7426 104.442 69.8118L104.114 69.8233C103.069 69.8753 102.717 69.252 102.25 68.3114C101.863 67.5266 101.257 66.759 100.351 66.7994C99.4507 66.8456 98.9198 67.6766 98.6139 68.4845C98.2504 69.4656 97.3559 70.1465 96.3056 70.1984L94.4243 70.2908C93.149 70.3485 92.0929 69.3097 92.1448 68.0344C92.1795 67.1111 92.2256 65.8819 92.318 65.2125C92.543 63.637 94.3724 62.8811 100.143 62.6041C105.914 62.3213 105.724 62.9907 106.099 64.5373C106.26 65.1836 106.422 66.3724 106.549 67.2669Z" fill="#37474F"/>
<path d="M84.0484 30.3337C82.4326 25.9883 77.4177 21.8391 72.8473 21.0658C70.562 20.6791 68.8192 21.21 67.8497 22.3815L28.0485 70.487L28.0716 70.5043C27.281 71.6758 27.1655 73.3666 27.91 75.3749C29.5258 79.7203 34.5406 83.8695 39.1111 84.6428C41.2232 85.0006 42.8679 84.5677 43.8663 83.5752L43.8893 83.5925L83.6906 35.487C84.6601 34.3156 84.8563 32.5035 84.0484 30.3337Z" fill="#27DEBF"/>
<path opacity="0.7" d="M84.0484 30.3337C82.4326 25.9883 77.4177 21.8391 72.8473 21.0658C70.562 20.6791 68.8192 21.21 67.8497 22.3815L28.0485 70.487L28.0716 70.5043C27.281 71.6758 27.1655 73.3666 27.91 75.3749C29.5258 79.7203 34.5406 83.8695 39.1111 84.6428C41.2232 85.0006 42.8679 84.5677 43.8663 83.5752L43.8893 83.5925L83.6906 35.487C84.6601 34.3156 84.8563 32.5035 84.0484 30.3337Z" fill="white"/>
<path d="M67.4977 27.5349C65.8819 23.1894 68.2768 20.2925 72.8473 21.0658C77.4178 21.8391 82.4326 25.9883 84.0484 30.3337C85.6642 34.6791 83.2693 37.5761 78.6989 36.8028C74.1284 36.0295 69.1136 31.8803 67.4977 27.5349Z" fill="#27DEBF"/>
<path opacity="0.8" d="M67.4977 27.5349C65.8819 23.1894 68.2768 20.2925 72.8473 21.0658C77.4178 21.8391 82.4326 25.9883 84.0484 30.3337C85.6642 34.6791 83.2693 37.5761 78.6989 36.8028C74.1284 36.0295 69.1136 31.8803 67.4977 27.5349Z" fill="white"/>
<path d="M0.50438 108.499C-1.11145 104.154 1.28344 101.257 5.85392 102.03C10.4244 102.804 15.4392 106.953 17.0551 111.298C18.6709 115.644 16.276 118.541 11.7055 117.767C7.13504 116.994 2.12021 112.845 0.50438 108.499Z" fill="#27DEBF"/>
<path opacity="0.7" d="M0.50438 108.499C-1.11145 104.154 1.28344 101.257 5.85392 102.03C10.4244 102.804 15.4392 106.953 17.0551 111.298C18.6709 115.644 16.276 118.541 11.7055 117.767C7.13504 116.994 2.12021 112.845 0.50438 108.499Z" fill="white"/>
<path d="M12.4269 105.221C10.4302 103.6 8.08722 102.411 5.85392 102.036C1.28344 101.263 -1.11145 104.16 0.50438 108.505C1.29498 110.629 2.89927 112.706 4.86711 114.362L12.4269 105.221Z" fill="#27DEBF"/>
<path opacity="0.6" d="M12.4269 105.221C10.4302 103.6 8.08722 102.411 5.85392 102.036C1.28344 101.263 -1.11145 104.16 0.50438 108.505C1.29498 110.629 2.89927 112.706 4.86711 114.362L12.4269 105.221Z" fill="white"/>
<path d="M1.28343 107.564C-0.332394 103.219 2.06249 100.322 6.63297 101.095C11.2035 101.869 16.2183 106.018 17.8341 110.363C19.4499 114.709 17.0551 117.606 12.4846 116.832C7.90832 116.059 2.89349 111.91 1.28343 107.564Z" fill="#27DEBF"/>
<path opacity="0.8" d="M1.28343 107.564C-0.332394 103.219 2.06249 100.322 6.63297 101.095C11.2035 101.869 16.2183 106.018 17.8341 110.363C19.4499 114.709 17.0551 117.606 12.4846 116.832C7.90832 116.059 2.89349 111.91 1.28343 107.564Z" fill="white"/>
<path d="M38.5225 79.299C38.9149 78.9124 39.0246 78.2834 38.7303 77.5043C38.1936 76.0558 36.52 74.6709 34.9965 74.4169C34.2348 74.29 33.6519 74.4631 33.3288 74.8555L6.91002 106.785C6.58685 107.178 6.52337 107.778 6.78883 108.505C7.32551 109.954 8.99905 111.339 10.5225 111.592C11.342 111.731 11.9422 111.506 12.248 111.05L38.5225 79.299Z" fill="#27DEBF"/>
<path opacity="0.7" d="M38.5225 79.299C38.9149 78.9124 39.0246 78.2834 38.7303 77.5043C38.1936 76.0558 36.52 74.6709 34.9965 74.4169C34.2348 74.29 33.6519 74.4631 33.3288 74.8555L6.91002 106.785C6.58685 107.178 6.52337 107.778 6.78883 108.505C7.32551 109.954 8.99905 111.339 10.5225 111.592C11.342 111.731 11.9422 111.506 12.248 111.05L38.5225 79.299Z" fill="white"/>
<g opacity="0.3">
<g opacity="0.3">
<path opacity="0.3" d="M38.8341 77.8622C38.8052 77.7467 38.7764 77.6313 38.7302 77.5044C38.684 77.3832 38.6206 77.262 38.5629 77.1408L10.1474 111.489C10.2744 111.523 10.4071 111.564 10.534 111.587C10.661 111.61 10.788 111.621 10.9034 111.621L38.8341 77.8622Z" fill="white"/>
<path opacity="0.3" d="M38.2166 76.5695C38.0204 76.2925 37.7896 76.0328 37.5299 75.7904L8.61816 110.733C8.75666 110.831 8.89516 110.923 9.03366 111.004C9.05097 111.015 9.06829 111.027 9.0856 111.033C9.2241 111.114 9.3626 111.189 9.50687 111.252L38.2166 76.5695Z" fill="white"/>
</g>
</g>
<path d="M7.98339 108.297C8.11612 107.495 9.88775 105.591 11.6652 103.45C12.577 102.342 32.9768 77.6948 35.5679 74.5612C35.3774 74.4977 35.187 74.4458 34.9965 74.4169C34.2348 74.29 33.6519 74.4631 33.3288 74.8555L6.91002 106.785C6.58685 107.178 6.52337 107.778 6.78883 108.505C7.32551 109.954 8.99905 111.339 10.5225 111.592C10.586 111.604 10.638 111.61 10.6957 111.616C11.1054 111.616 11.3709 111.598 11.3709 111.598C10.1244 111.489 7.78718 109.475 7.98339 108.297Z" fill="#27DEBF"/>
<path opacity="0.6" d="M7.98339 108.297C8.11612 107.495 9.88775 105.591 11.6652 103.45C12.577 102.342 32.9768 77.6948 35.5679 74.5612C35.3774 74.4977 35.187 74.4458 34.9965 74.4169C34.2348 74.29 33.6519 74.4631 33.3288 74.8555L6.91002 106.785C6.58685 107.178 6.52337 107.778 6.78883 108.505C7.32551 109.954 8.99905 111.339 10.5225 111.592C10.586 111.604 10.638 111.61 10.6957 111.616C11.1054 111.616 11.3709 111.598 11.3709 111.598C10.1244 111.489 7.78718 109.475 7.98339 108.297Z" fill="#FAFAFA"/>
<path d="M38.7302 77.5043C38.1936 76.0558 36.52 74.6709 34.9965 74.4169C34.2348 74.29 33.6519 74.4631 33.3288 74.8555L29.9817 78.9009C31.3955 80.6552 33.2537 82.196 35.2447 83.2578L38.5167 79.3048C38.9149 78.9182 39.0245 78.2834 38.7302 77.5043Z" fill="#27DEBF"/>
<path opacity="0.65" d="M38.7302 77.5043C38.1936 76.0558 36.52 74.6709 34.9965 74.4169C34.2348 74.29 33.6519 74.4631 33.3288 74.8555L29.9817 78.9009C31.3955 80.6552 33.2537 82.196 35.2447 83.2578L38.5167 79.3048C38.9149 78.9182 39.0245 78.2834 38.7302 77.5043Z" fill="#FAFAFA"/>
<g opacity="0.3">
<g opacity="0.3">
<path opacity="0.3" d="M38.8341 77.8622C38.8053 77.7467 38.7764 77.6313 38.7303 77.5044C38.6841 77.3832 38.6206 77.262 38.5629 77.1408L34.079 82.5596C34.2694 82.6808 34.4599 82.802 34.6503 82.9174L38.8341 77.8622Z" fill="white"/>
<path opacity="0.3" d="M32.7286 81.5958C32.9998 81.8094 33.271 82.0113 33.5538 82.2075L38.2166 76.5695C38.0204 76.2925 37.7896 76.0328 37.5299 75.7904L32.7286 81.5958Z" fill="white"/>
</g>
</g>
<path opacity="0.05" d="M35.5678 74.5612C35.3774 74.4977 35.187 74.4458 34.9965 74.4169C34.2348 74.29 33.6519 74.4631 33.3288 74.8555L29.9817 78.9009C30.3049 79.299 30.6511 79.6857 31.0147 80.0608C32.3073 78.5027 33.9924 76.4656 35.5678 74.5612Z" fill="black"/>
<path d="M43.872 72.8357C44.2644 72.4491 44.374 71.8201 44.0797 71.041C43.543 69.5925 41.8695 68.2075 40.346 67.9536C39.5843 67.8267 39.0014 67.9998 38.6783 68.3922L33.3287 74.8613C33.0056 75.2537 32.9421 75.8539 33.2075 76.581C33.7442 78.0295 35.4178 79.4144 36.9412 79.6684C37.7607 79.8069 38.3609 79.5818 38.6667 79.1259L43.872 72.8357Z" fill="#27DEBF"/>
<path opacity="0.5" d="M43.872 72.8357C44.2644 72.4491 44.374 71.8201 44.0797 71.041C43.543 69.5925 41.8695 68.2075 40.346 67.9536C39.5843 67.8267 39.0014 67.9998 38.6783 68.3922L33.3287 74.8613C33.0056 75.2537 32.9421 75.8539 33.2075 76.581C33.7442 78.0295 35.4178 79.4144 36.9412 79.6684C37.7607 79.8069 38.3609 79.5818 38.6667 79.1259L43.872 72.8357Z" fill="white"/>
<path opacity="0.05" d="M43.872 72.8357C44.2644 72.4491 44.374 71.8201 44.0797 71.041C43.543 69.5925 41.8695 68.2075 40.346 67.9536C39.5843 67.8267 39.0014 67.9998 38.6783 68.3922L33.3287 74.8613C33.0056 75.2537 32.9421 75.8539 33.2075 76.581C33.7442 78.0295 35.4178 79.4144 36.9412 79.6684C37.7607 79.8069 38.3609 79.5818 38.6667 79.1259L43.872 72.8357Z" fill="black"/>
<g opacity="0.3">
<path opacity="0.3" d="M36.5604 79.5587C36.6874 79.5933 36.8201 79.6337 36.9471 79.6568C37.074 79.6799 37.201 79.6915 37.3164 79.6915L42.3947 73.5513L41.8811 73.1243L36.5604 79.5587Z" fill="white"/>
<path opacity="0.3" d="M35.9314 79.3279L41.1194 73.0608L40.3288 72.4087L35.0369 78.8027C35.3255 79.0105 35.6255 79.1894 35.9314 79.3279Z" fill="white"/>
</g>
<path opacity="0.1" d="M33.2133 76.5695C33.2825 76.7484 33.3633 76.9273 33.4614 77.1004C35.6947 74.4054 38.6609 70.816 39.717 69.5406C39.5266 69.4772 39.3361 69.4252 39.1457 69.3964C38.3839 69.2694 37.8011 69.4425 37.4779 69.835L33.3229 74.8556C33.0113 75.2422 32.9478 75.8481 33.2133 76.5695Z" fill="black"/>
<path d="M37.7723 84.3139C33.6 83.0443 29.37 79.2991 27.9157 75.3749C27.1713 73.3667 27.2925 71.67 28.0773 70.4986L28.0542 70.4813L67.8555 22.3758C66.886 23.5473 66.6898 25.3593 67.4977 27.5291L30.8704 71.797C28.8506 74.2438 30.0336 79.7319 37.7723 84.3139Z" fill="#27DEBF"/>
<path opacity="0.4" d="M37.7723 84.3139C33.6 83.0443 29.37 79.2991 27.9157 75.3749C27.1713 73.3667 27.2925 71.67 28.0773 70.4986L28.0542 70.4813L67.8555 22.3758C66.886 23.5473 66.6898 25.3593 67.4977 27.5291L30.8704 71.797C28.8506 74.2438 30.0336 79.7319 37.7723 84.3139Z" fill="white"/>
<path d="M38.886 64.0179C35.0773 63.3716 33.0806 65.7838 34.4252 69.4021C35.7698 73.0204 39.9479 76.4771 43.7566 77.1235C47.5653 77.7698 49.562 75.3576 48.2174 71.7393C46.8728 68.1152 42.6948 64.6585 38.886 64.0179Z" fill="#263238"/>
<path d="M39.365 63.4409C35.5563 62.7945 33.5596 65.2067 34.9042 68.825C36.2488 72.4433 40.4269 75.9 44.2356 76.5464C48.0443 77.1927 50.041 74.7805 48.6964 71.1622C47.3518 67.5381 43.1738 64.0814 39.365 63.4409Z" fill="#37474F"/>
<path d="M82.3749 34.3906C83.1193 33.4961 83.2116 32.065 82.4903 30.3164C81.0418 26.8193 76.8637 23.3568 73.1589 22.5951C71.3064 22.2142 69.9214 22.5778 69.177 23.4722L35.6198 64.0295C34.8118 65.0047 34.6503 66.5109 35.3197 68.323C36.6643 71.9412 40.8423 75.398 44.6511 76.0443C46.5554 76.3675 48.0097 75.9231 48.8176 74.9478L82.3749 34.3906Z" fill="#27DEBF"/>
<path d="M67.4977 27.5348C69.1136 31.8803 74.1284 36.0295 78.6989 36.8028C79.2586 36.8951 79.7896 36.9355 80.2801 36.9239L82.3749 34.3963C83.1193 33.5019 83.2117 32.0707 82.4903 30.3221C81.0418 26.825 76.8638 23.3625 73.1589 22.6008C71.3065 22.2199 69.9215 22.5835 69.177 23.478L67.088 26.0056C67.163 26.4846 67.3015 26.9982 67.4977 27.5348Z" fill="#27DEBF"/>
<path opacity="0.2" d="M67.4977 27.5348C69.1136 31.8803 74.1284 36.0295 78.6989 36.8028C79.2586 36.8951 79.7896 36.9355 80.2801 36.9239L82.3749 34.3963C83.1193 33.5019 83.2117 32.0707 82.4903 30.3221C81.0418 26.825 76.8638 23.3625 73.1589 22.6008C71.3065 22.2199 69.9215 22.5835 69.177 23.478L67.088 26.0056C67.163 26.4846 67.3015 26.9982 67.4977 27.5348Z" fill="white"/>
<path d="M39.7459 62.9735C37.8415 62.6503 36.3931 63.0946 35.5852 64.0699C34.7772 65.0452 34.6157 66.5514 35.2851 68.3634C36.6297 71.9817 40.8077 75.4384 44.6165 76.0847C46.5208 76.4079 47.9751 75.9635 48.783 74.994C49.5909 74.0188 49.7525 72.5126 49.0773 70.7006C48.4021 68.8885 48.3271 65.5415 46.642 64.1449C44.9512 62.7426 41.6503 63.2966 39.7459 62.9735Z" fill="#455A64"/>
<path opacity="0.2" d="M37.0336 66.1128C38.3494 64.9932 40.5538 65.7146 42.9256 64.8317C45.2166 63.9776 46.4227 64.0757 47.2537 64.8259C47.0748 64.5662 46.8786 64.3354 46.642 64.1392C44.9512 62.7426 41.6503 63.2966 39.7459 62.9735C37.8415 62.6503 36.3931 63.0946 35.5852 64.0699C34.7772 65.0452 34.6157 66.5514 35.2851 68.3634C36.6297 71.9817 40.7847 75.4557 44.6511 76.0905C36.4046 72.9281 35.6544 67.29 37.0336 66.1128Z" fill="black"/>
<path d="M39.7459 62.9735C37.8415 62.6503 36.3931 63.0946 35.5852 64.0699C34.7772 65.0452 34.6157 66.5514 35.2851 68.3634C36.6297 71.9817 40.8077 75.4384 44.6165 76.0847C46.5208 76.4079 47.9751 75.9635 48.783 74.994C49.5909 74.0188 49.7525 72.5126 49.0773 70.7006C48.4021 68.8885 48.3271 65.5415 46.642 64.1449C44.9512 62.7426 41.6503 63.2966 39.7459 62.9735Z" fill="#27DEBF"/>
<path opacity="0.4" d="M39.7459 62.9735C37.8415 62.6503 36.3931 63.0946 35.5852 64.0699C34.7772 65.0452 34.6157 66.5514 35.2851 68.3634C36.6297 71.9817 40.8077 75.4384 44.6165 76.0847C46.5208 76.4079 47.9751 75.9635 48.783 74.994C49.5909 74.0188 49.7525 72.5126 49.0773 70.7006C48.4021 68.8885 48.3271 65.5415 46.642 64.1449C44.9512 62.7426 41.6503 63.2966 39.7459 62.9735Z" fill="black"/>
<path opacity="0.3" d="M43.3527 75.7211C43.7855 75.8596 44.2183 75.975 44.6511 76.0501C45.1935 76.1424 45.6898 76.1655 46.1515 76.1366L81.5439 33.3576L79.6799 31.811L43.3527 75.7211Z" fill="white"/>
<path opacity="0.3" d="M41.0674 74.6997C41.454 74.9248 41.8522 75.121 42.2562 75.2999L78.2025 31.8515L77.2042 31.0262L41.0674 74.6997Z" fill="white"/>
<path opacity="0.1" d="M43.2719 75.6981C37.7319 72.9512 37.4087 67.5901 39.1515 65.4895C40.9232 63.3428 66.0954 32.9248 70.9198 27.0963L71.0699 22.5027C70.2504 22.6239 69.5983 22.9586 69.1713 23.4722L35.614 64.0295C34.8061 65.0048 34.6445 66.5109 35.3139 68.323C36.497 71.5085 39.8613 74.5901 43.2719 75.6981Z" fill="black"/>
<path d="M73.1589 22.5951C69.4483 21.8276 67.6131 24.0436 69.0616 27.5464C70.5043 31.0436 74.6824 34.5003 78.393 35.2678C82.1036 36.0353 83.9388 33.8193 82.4903 30.3164C81.0418 26.8193 76.8637 23.3626 73.1589 22.5951Z" fill="#27DEBF"/>
<path opacity="0.3" d="M73.1589 22.5951C69.4483 21.8276 67.6131 24.0436 69.0616 27.5464C70.5043 31.0436 74.6824 34.5003 78.393 35.2678C82.1036 36.0353 83.9388 33.8193 82.4903 30.3164C81.0418 26.8193 76.8637 23.3626 73.1589 22.5951Z" fill="white"/>
<path d="M83.2982 27.8984C83.783 27.3156 83.8811 26.4096 83.4771 25.3247C82.6692 23.1548 80.1647 21.0774 77.8794 20.6907C76.7368 20.4945 75.8654 20.76 75.3807 21.3486L71.8143 25.6594C71.3296 26.2422 71.2314 27.1482 71.6354 28.2332C72.4433 30.403 74.9478 32.4805 77.2331 32.8671C78.3757 33.0576 79.2471 32.7979 79.7318 32.2092L83.2982 27.8984Z" fill="#27DEBF"/>
<path opacity="0.7" d="M83.2982 27.8984C83.783 27.3156 83.8811 26.4096 83.4771 25.3247C82.6692 23.1548 80.1647 21.0774 77.8794 20.6907C76.7368 20.4945 75.8654 20.76 75.3807 21.3486L71.8143 25.6594C71.3296 26.2422 71.2314 27.1482 71.6354 28.2332C72.4433 30.403 74.9478 32.4805 77.2331 32.8671C78.3757 33.0576 79.2471 32.7979 79.7318 32.2092L83.2982 27.8984Z" fill="white"/>
<path opacity="0.4" d="M76.9272 32.7863C77.0311 32.8094 77.1349 32.8498 77.233 32.8671C77.5504 32.9191 77.8447 32.9364 78.116 32.9191L83.2174 26.7559L82.4441 26.1153L76.9272 32.7863Z" fill="white"/>
<path opacity="0.4" d="M75.5942 32.3189C75.825 32.4286 76.0616 32.5324 76.2982 32.6132L81.6766 26.1153L81.1168 25.6536L75.5942 32.3189Z" fill="white"/>
<path d="M73.1358 26.9578C73.6436 26.3461 74.0361 25.8729 75.9116 23.5992L77.1061 20.6272C76.3444 20.6387 75.75 20.8984 75.3807 21.3428L71.8143 25.6536C71.3296 26.2364 71.2314 27.1424 71.6354 28.2274C72.4433 30.3972 74.9478 32.4747 77.2331 32.8613C77.5505 32.9132 77.8448 32.9306 78.116 32.9132C74.4285 32.2727 72.0451 28.2793 73.1358 26.9578Z" fill="#27DEBF"/>
<path opacity="0.5" d="M73.1358 26.9578C73.6436 26.3461 74.0361 25.8729 75.9116 23.5992L77.1061 20.6272C76.3444 20.6387 75.75 20.8984 75.3807 21.3428L71.8143 25.6536C71.3296 26.2364 71.2314 27.1424 71.6354 28.2274C72.4433 30.3972 74.9478 32.4747 77.2331 32.8613C77.5505 32.9132 77.8448 32.9306 78.116 32.9132C74.4285 32.2727 72.0451 28.2793 73.1358 26.9578Z" fill="white"/>
<path d="M77.8794 20.6907C75.5942 20.3041 74.3938 21.7525 75.2017 23.9224C76.0097 26.0922 78.5142 28.1697 80.7994 28.5563C83.0847 28.943 84.285 27.4945 83.4771 25.3247C82.6692 23.1491 80.1646 21.0773 77.8794 20.6907Z" fill="#27DEBF"/>
<path opacity="0.8" d="M77.8794 20.6907C75.5942 20.3041 74.3938 21.7525 75.2017 23.9224C76.0097 26.0922 78.5142 28.1697 80.7994 28.5563C83.0847 28.943 84.285 27.4945 83.4771 25.3247C82.6692 23.1491 80.1646 21.0773 77.8794 20.6907Z" fill="white"/>
<path d="M84.8563 20.6387C84.4754 19.6173 83.2924 18.6363 82.219 18.4516C81.6823 18.3593 81.2668 18.4862 81.0418 18.7632L77.4754 23.074C77.2446 23.351 77.1984 23.778 77.3889 24.2917C77.7697 25.3131 78.9527 26.2941 80.0261 26.473C80.5628 26.5653 80.9725 26.4384 81.2034 26.1614L84.7697 21.8506C85.0005 21.5794 85.0467 21.1523 84.8563 20.6387Z" fill="#27DEBF"/>
<path opacity="0.7" d="M84.8563 20.6387C84.4754 19.6173 83.2924 18.6363 82.219 18.4516C81.6823 18.3593 81.2668 18.4862 81.0418 18.7632L77.4754 23.074C77.2446 23.351 77.1984 23.778 77.3889 24.2917C77.7697 25.3131 78.9527 26.2941 80.0261 26.473C80.5628 26.5653 80.9725 26.4384 81.2034 26.1614L84.7697 21.8506C85.0005 21.5794 85.0467 21.1523 84.8563 20.6387Z" fill="white"/>
<path opacity="0.4" d="M79.3452 26.2538C79.576 26.3576 79.8068 26.4384 80.0319 26.473C80.0838 26.4788 80.1242 26.4788 80.1761 26.4846L84.0945 21.7467L83.4886 21.2447L79.3452 26.2538Z" fill="white"/>
<path opacity="0.4" d="M78.4507 25.6998C78.6007 25.821 78.7565 25.9306 78.9181 26.0287L82.8769 21.2447L82.4383 20.8812L78.4507 25.6998Z" fill="white"/>
<path d="M80.6032 26.4788C79.7203 26.4903 78.6469 25.6651 78.3642 24.736C78.0756 23.7954 78.52 23.3799 79.1374 22.6354C79.7549 21.891 80.7071 20.7369 81.9132 19.2768L81.8728 18.4285C81.5035 18.4285 81.2149 18.5497 81.036 18.7632L77.4697 23.074C77.2388 23.351 77.1927 23.7781 77.3831 24.2917C77.764 25.3131 78.947 26.2941 80.0204 26.473C80.2454 26.5134 80.4301 26.5077 80.6032 26.4788Z" fill="#27DEBF"/>
<path opacity="0.5" d="M80.6032 26.4788C79.7203 26.4903 78.6469 25.6651 78.3642 24.736C78.0756 23.7954 78.52 23.3799 79.1374 22.6354C79.7549 21.891 80.7071 20.7369 81.9132 19.2768L81.8728 18.4285C81.5035 18.4285 81.2149 18.5497 81.036 18.7632L77.4697 23.074C77.2388 23.351 77.1927 23.7781 77.3831 24.2917C77.764 25.3131 78.947 26.2941 80.0204 26.473C80.2454 26.5134 80.4301 26.5077 80.6032 26.4788Z" fill="white"/>
<path d="M82.219 18.4574C81.1399 18.2727 80.5801 18.9595 80.9552 19.9809C81.3361 21.0023 82.5191 21.9834 83.5925 22.168C84.6716 22.3527 85.2372 21.666 84.8563 20.6445C84.4754 19.6173 83.2982 18.6421 82.219 18.4574Z" fill="#27DEBF"/>
<path opacity="0.8" d="M82.219 18.4574C81.1399 18.2727 80.5801 18.9595 80.9552 19.9809C81.3361 21.0023 82.5191 21.9834 83.5925 22.168C84.6716 22.3527 85.2372 21.666 84.8563 20.6445C84.4754 19.6173 83.2982 18.6421 82.219 18.4574Z" fill="white"/>
<path d="M82.8423 19.8886C82.9173 19.7097 83.1193 19.5308 83.3328 19.2596C83.7714 18.7286 84.4004 17.9727 85.1564 17.0666C85.9124 16.1606 86.7837 15.093 87.7417 13.9735C88.6939 12.8482 89.7153 11.6479 90.731 10.4475C92.7738 8.05264 94.8225 5.66353 96.3518 3.86304C97.1193 2.96279 97.7598 2.21836 98.2042 1.69321C98.4292 1.43353 98.6024 1.22578 98.7236 1.08728C98.8447 0.948779 98.9313 0.891071 98.9544 0.908383C98.9775 0.931466 98.9428 1.0238 98.8217 1.16807C98.7062 1.31234 98.5389 1.52586 98.3196 1.79132C97.8868 2.328 97.2751 3.09552 96.5364 4.01885C95.0591 5.85974 93.0912 8.3181 91.1234 10.7765C90.1366 11.9999 89.1498 13.2291 88.2207 14.3774C87.2973 15.5316 86.4144 16.5819 85.6642 17.4995C84.914 18.4112 84.2908 19.1672 83.8522 19.7039C83.6213 19.9636 83.4828 20.1944 83.3213 20.3041C83.1135 20.3502 82.8481 20.1252 82.8423 19.8886Z" fill="#455A64"/>
<path opacity="0.5" d="M82.6172 30.6742C83.4944 33.9809 81.2207 35.2159 78.0121 34.6388C74.8728 34.0733 70.9198 30.7089 69.9214 29.1623C71.7912 32.0535 75.2537 34.6215 78.3872 35.2678C81.9709 36.0065 83.7945 33.9636 82.6172 30.6742Z" fill="white"/>
<path opacity="0.3" d="M69.9561 31.5225C72.2644 34.1771 75.5826 36.2719 78.6988 36.8028C83.2693 37.5761 85.6642 34.6791 84.0484 30.3337C83.9099 29.9528 83.731 29.5777 83.5405 29.2026C84.5158 31.3782 84.6774 34.5233 82.2017 35.8621C79.6914 37.2241 74.5496 36.0988 69.9561 31.5225Z" fill="white"/>
<path opacity="0.4" d="M83.6964 35.4813L43.8951 83.5867L43.872 83.5694C42.8736 84.562 41.2347 85.0006 39.1168 84.6428C39.0245 84.6255 38.9264 84.6024 38.8283 84.5793C42.4985 84.8794 43.5373 82.8538 45.7071 80.2339L81.717 36.7162C82.5422 36.4854 83.2174 36.0641 83.6964 35.4813Z" fill="white"/>
<path opacity="0.3" d="M83.4771 25.3247C83.454 25.2612 83.4136 25.1977 83.3848 25.1342C83.731 26.2711 83.5579 27.835 81.919 28.1293C80.2281 28.4294 76.3963 26.9059 74.9536 22.8201C74.9709 23.1606 75.0517 23.5357 75.2018 23.9281C76.0097 26.0979 78.5142 28.1754 80.7994 28.5621C83.0904 28.943 84.285 27.4945 83.4771 25.3247Z" fill="white"/>
<path opacity="0.3" d="M84.8563 20.6387C84.7813 20.431 84.6601 20.2232 84.5216 20.0213C84.8274 20.6618 84.8909 21.5794 84.2388 21.8679C83.679 22.1161 81.942 21.8564 80.9091 19.7962C80.9264 19.8597 80.9379 19.9174 80.961 19.9809C81.3419 21.0023 82.5249 21.9833 83.5983 22.1622C84.6716 22.3469 85.2372 21.6659 84.8563 20.6387Z" fill="white"/>
<path opacity="0.4" d="M17.8284 110.363C17.7072 110.04 17.5629 109.723 17.4071 109.4C20.2983 115.534 14.5505 117.779 9.27026 115.153C3.88609 112.475 1.06417 107.224 0.78717 105.354C0.827566 106.035 0.983378 106.774 1.27769 107.559C2.89352 111.904 7.90835 116.053 12.4788 116.827C17.0493 117.606 19.4442 114.709 17.8284 110.363Z" fill="white"/>
<path d="M80.1762 114.94C80.1531 114.934 80.1358 114.922 80.1127 114.916L80.3262 114.414C80.7706 114.599 81.492 114.593 82.2306 114.437C81.8209 113.849 81.4977 113.214 81.3304 112.649C80.9206 111.275 82.0402 103.029 83.2694 101.482C84.3023 100.184 87.0031 97.4886 88.3188 97.933C88.3304 97.9387 88.3419 97.9387 88.3534 97.9445C89.6403 98.4408 90.1539 102.169 90.1886 103.813C90.229 105.793 86.1317 113.035 84.9718 113.878C84.4928 114.224 83.8522 114.536 83.1713 114.755C83.6675 115.326 84.21 115.765 84.7005 115.892L84.5678 116.423C83.9157 116.261 83.1943 115.661 82.5942 114.922C81.6939 115.136 80.7937 115.182 80.1762 114.94ZM88.1572 98.4523C88.1515 98.4523 88.1457 98.4466 88.1399 98.4466C87.3666 98.1869 85.0756 100.08 83.6964 101.822C82.5653 103.242 81.4746 111.223 81.8555 112.493C82.0229 113.052 82.3749 113.705 82.8019 114.293C83.5002 114.085 84.1754 113.78 84.6486 113.433C85.7219 112.649 89.6807 105.643 89.6403 103.825C89.5942 101.615 88.9247 98.7466 88.1572 98.4523Z" fill="#455A64"/>
<path d="M85.3872 116.405C85.2487 116.827 84.7928 117.046 84.3715 116.907C83.9503 116.769 83.731 116.313 83.8695 115.892C84.008 115.47 84.4639 115.251 84.8851 115.39C85.3064 115.534 85.5315 115.99 85.3872 116.405Z" fill="#263238"/>
<path d="M80.9783 114.922C80.8398 115.344 80.3839 115.563 79.9627 115.424C79.5414 115.286 79.3221 114.83 79.4606 114.409C79.5991 113.987 80.055 113.768 80.4763 113.907C80.8975 114.051 81.1226 114.501 80.9783 114.922Z" fill="#263238"/>
<path d="M89.0286 107.189L88.6131 106.993C88.5265 106.953 88.4861 106.843 88.5265 106.757C89.1613 105.372 89.5133 104.31 89.5018 103.825C89.4556 101.701 88.7862 98.8044 88.0995 98.5735C87.4128 98.3427 85.1218 100.241 83.8003 101.903C83.5002 102.284 83.1366 103.346 82.8019 104.829C82.7788 104.927 82.6865 104.991 82.5884 104.968L82.1383 104.869C82.0402 104.846 81.9824 104.748 81.9998 104.65C82.3749 102.982 82.7615 101.886 83.1539 101.395C83.8637 100.507 86.8184 97.2809 88.3534 97.8003C89.8885 98.3139 90.2866 102.671 90.3155 103.808C90.327 104.437 89.975 105.545 89.2652 107.097C89.2248 107.189 89.1209 107.23 89.0286 107.189Z" fill="#27DEBF"/>
<path opacity="0.2" d="M89.0286 107.189L88.6131 106.993C88.5265 106.953 88.4861 106.843 88.5265 106.757C89.1613 105.372 89.5133 104.31 89.5018 103.825C89.4556 101.701 88.7862 98.8044 88.0995 98.5735C87.4128 98.3427 85.1218 100.241 83.8003 101.903C83.5002 102.284 83.1366 103.346 82.8019 104.829C82.7788 104.927 82.6865 104.991 82.5884 104.968L82.1383 104.869C82.0402 104.846 81.9824 104.748 81.9998 104.65C82.3749 102.982 82.7615 101.886 83.1539 101.395C83.8637 100.507 86.8184 97.2809 88.3534 97.8003C89.8885 98.3139 90.2866 102.671 90.3155 103.808C90.327 104.437 89.975 105.545 89.2652 107.097C89.2248 107.189 89.1209 107.23 89.0286 107.189Z" fill="black"/>
<path d="M88.8382 98.0946L87.8687 97.7945C88.5092 95.7459 88.8209 92.3411 86.6799 87.7706C85.3007 84.8275 85.8143 83.0385 86.2413 82.2364C86.6453 81.4804 87.2858 80.9841 88.0014 80.8745C88.0303 80.8687 88.0707 80.8629 88.1053 80.8514C88.2207 80.8283 88.3361 80.8052 88.4458 80.8052V81.8209C88.4169 81.8267 88.365 81.8382 88.313 81.8498C88.2553 81.8613 88.1976 81.8728 88.1514 81.8786C87.7533 81.9421 87.3839 82.2422 87.1358 82.7154C86.8646 83.229 86.3625 84.7063 87.5974 87.3436C89.8769 92.2026 89.5307 95.8728 88.8382 98.0946Z" fill="#27DEBF"/>
<path opacity="0.2" d="M88.8382 98.0946L87.8687 97.7945C88.5092 95.7459 88.8209 92.3411 86.6799 87.7706C85.3007 84.8275 85.8143 83.0385 86.2413 82.2364C86.6453 81.4804 87.2858 80.9841 88.0014 80.8745C88.0303 80.8687 88.0707 80.8629 88.1053 80.8514C88.2207 80.8283 88.3361 80.8052 88.4458 80.8052V81.8209C88.4169 81.8267 88.365 81.8382 88.313 81.8498C88.2553 81.8613 88.1976 81.8728 88.1514 81.8786C87.7533 81.9421 87.3839 82.2422 87.1358 82.7154C86.8646 83.229 86.3625 84.7063 87.5974 87.3436C89.8769 92.2026 89.5307 95.8728 88.8382 98.0946Z" fill="black"/>
<path d="M97.0962 80.8918C100.264 81.2149 103.323 81.9767 105.464 85.9528C105.464 85.9528 102.977 83.1366 97.0962 82.0286V80.8918Z" fill="#27DEBF"/>
<path opacity="0.2" d="M97.0962 80.8918C100.264 81.2149 103.323 81.9767 105.464 85.9528C105.464 85.9528 102.977 83.1366 97.0962 82.0286V80.8918Z" fill="black"/>
<path d="M97.0962 82.0286C97.0962 82.0286 103.386 85.4103 106.566 92.0814C109.746 98.7524 109.307 109.105 109.307 109.105C109.307 109.105 111.333 100.795 109.884 93.7664C108.43 86.7318 101.978 83.0789 100.772 82.6461C99.2718 82.1036 97.0962 82.0286 97.0962 82.0286Z" fill="#27DEBF"/>
<path opacity="0.9" d="M97.0962 82.0286C97.0962 82.0286 103.386 85.4103 106.566 92.0814C109.746 98.7524 109.307 109.105 109.307 109.105C109.307 109.105 111.333 100.795 109.884 93.7664C108.43 86.7318 101.978 83.0789 100.772 82.6461C99.2718 82.1036 97.0962 82.0286 97.0962 82.0286Z" fill="white"/>
<path d="M114.08 120.035L113.647 122.101C113.647 122.101 114.057 122.101 114.559 120.601C114.755 119.995 115.522 119.187 115.892 118.783C116.001 119.037 116.094 119.458 115.915 120.012C115.58 121.057 114.859 122.822 113.97 123.469C113.087 124.115 112.066 123.942 111.719 123.394C111.564 122.505 112.014 120.329 112.17 119.914C112.32 119.504 111.806 119.839 111.691 120.081C111.598 120.272 111.315 122.286 111.396 123.423C110.092 123.486 109.728 122.459 109.728 122.459C109.752 121.564 110.132 119.314 110.277 118.944C110.421 118.581 110.173 118.437 109.89 118.719C109.653 118.956 109.428 121.305 109.469 122.511C109.244 122.545 108.915 122.563 108.603 122.447C107.784 122.147 107.766 121.553 107.766 121.512C107.801 120.526 108.009 119.019 108.165 118.419C108.315 117.813 108.367 117.513 107.968 117.842C107.605 118.142 107.495 120.485 107.501 121.495C106.987 121.334 106.116 120.555 106.208 119.735C106.318 118.748 106.878 115.407 107.536 114.628C108.153 113.901 110.981 111.448 112.724 110.029C114.882 110.109 117.259 111.564 118.246 113.97C117.127 115.061 116.907 116.007 116.59 117.017C116.284 117.975 115.73 118.494 115.73 118.494C114.893 119.296 114.08 120.035 114.08 120.035Z" fill="#FFA8A7"/>
<path d="M108.159 118.431C108.009 119.031 107.795 120.537 107.761 121.524C107.697 121.547 107.605 121.547 107.489 121.507C107.484 120.503 107.593 118.154 107.957 117.854C108.361 117.525 108.315 117.825 108.159 118.431Z" fill="#FFA8A7"/>
<path d="M110.271 118.95C110.127 119.314 109.74 121.57 109.723 122.465C109.723 122.465 109.619 122.494 109.463 122.522C109.423 121.311 109.648 118.968 109.884 118.731C110.167 118.437 110.409 118.581 110.271 118.95Z" fill="#FFA8A7"/>
<path d="M112.164 119.92C112.014 120.329 111.558 122.505 111.714 123.4C111.639 123.417 111.564 123.423 111.494 123.423C111.46 123.428 111.425 123.428 111.39 123.428C111.31 122.297 111.592 120.283 111.685 120.087C111.794 119.845 112.314 119.504 112.164 119.92Z" fill="#FFA8A7"/>
<path d="M115.886 118.783C115.522 119.187 114.755 120.001 114.559 120.601C114.062 122.101 113.647 122.101 113.647 122.101L114.08 120.035C114.08 120.035 114.893 119.296 115.724 118.494C115.724 118.494 115.776 118.558 115.828 118.662C115.846 118.696 115.869 118.737 115.886 118.783Z" fill="#FFA8A7"/>
<path d="M108.159 118.431C108.009 119.031 107.795 120.537 107.761 121.524C107.697 121.553 107.599 121.547 107.489 121.507C107.484 120.503 107.593 118.154 107.957 117.854C108.361 117.525 108.315 117.825 108.159 118.431Z" fill="#F28F8F"/>
<path d="M110.271 118.95C110.127 119.314 109.74 121.57 109.723 122.465C109.723 122.465 109.619 122.494 109.463 122.522C109.423 121.311 109.648 118.968 109.884 118.731C110.167 118.437 110.409 118.581 110.271 118.95Z" fill="#F28F8F"/>
<path d="M112.164 119.92C112.014 120.329 111.558 122.505 111.714 123.4C111.639 123.417 111.564 123.423 111.494 123.423C111.46 123.428 111.425 123.428 111.39 123.428C111.31 122.297 111.592 120.283 111.685 120.087C111.794 119.845 112.314 119.504 112.164 119.92Z" fill="#F28F8F"/>
<path d="M115.886 118.783C115.522 119.187 114.755 119.995 114.553 120.601C114.057 122.101 113.641 122.101 113.641 122.101L114.074 120.035C114.074 120.035 114.888 119.296 115.719 118.494C115.719 118.494 115.771 118.558 115.822 118.662C115.846 118.696 115.869 118.737 115.886 118.783Z" fill="#F28F8F"/>
<path d="M151.377 84.1695C151.4 83.6675 151.273 83.3558 151.053 83.2346C151.053 83.2289 151.059 83.2289 151.059 83.2289L151.03 83.2058C150.794 83.1019 149.212 82.1613 148.987 82.0401C148.987 82.0343 148.993 82.0343 148.993 82.0343L148.964 82.0112C148.728 81.9074 148.376 82.0055 147.954 82.3286C143.747 85.5487 137.954 86.3393 133.545 84.3946C132.939 83.9445 132.379 83.4309 131.877 82.848C131.854 82.8192 131.825 82.7845 131.802 82.7614H131.796C131.652 82.6056 131.513 82.4844 131.369 82.4094C131.369 82.4094 129.447 81.2957 129.303 81.2149L129.234 81.1745C128.761 80.9494 128.328 81.1802 128.045 81.8785C124.046 91.8101 115.534 101.869 109.85 104.39C109.428 104.581 109.036 104.869 108.73 105.227C108.326 105.689 108.078 106.26 108.101 106.855C108.101 119.62 115.095 140.025 128.345 146.841C129.13 147.354 129.938 147.816 130.775 148.225C148.999 129.43 151.377 99.3006 151.377 84.1695Z" fill="#27DEBF"/>
<path opacity="0.4" d="M151.024 83.2059C150.788 83.102 150.436 83.2001 150.014 83.5233C145.115 87.2743 138.063 87.7302 133.55 84.4062C137.959 86.3394 143.747 85.5546 147.949 82.3345C148.37 82.0113 148.722 81.9132 148.958 82.0171L148.987 82.0402C148.987 82.0402 148.981 82.0402 148.981 82.046C149.207 82.1614 150.782 83.0962 151.024 83.2059Z" fill="white"/>
<path d="M131.282 82.3691C130.809 82.144 130.376 82.3749 130.094 83.0731C126.094 93.0105 117.583 103.063 111.904 105.585C111.483 105.775 111.09 106.064 110.785 106.416C110.617 106.612 110.473 106.826 110.369 107.057L108.309 105.868C108.418 105.637 108.551 105.418 108.719 105.227C109.024 104.869 109.417 104.581 109.838 104.39C115.517 101.874 124.034 91.8101 128.028 81.8786C128.31 81.1745 128.743 80.9495 129.216 81.1745L129.286 81.2149C129.349 81.2496 129.759 81.4862 130.203 81.7401C130.642 81.9998 131.109 82.2768 131.282 82.3691Z" fill="#27DEBF"/>
<path opacity="0.3" d="M128.31 146.829C115.078 140.008 108.09 119.614 108.09 106.86C108.078 106.514 108.165 106.185 108.309 105.874L110.369 107.062C110.219 107.374 110.144 107.703 110.156 108.049C110.156 120.133 116.405 139.056 128.31 146.829Z" fill="black"/>
<path d="M151.376 84.1696C151.376 99.3007 148.999 129.43 130.769 148.231C117.277 141.606 110.156 120.935 110.156 108.049C110.132 107.455 110.386 106.884 110.785 106.422C111.09 106.064 111.483 105.776 111.904 105.585C117.583 103.069 126.1 93.0047 130.094 83.0731C130.376 82.3691 130.809 82.144 131.282 82.3691L131.352 82.4095C131.496 82.4845 131.635 82.5999 131.779 82.7615H131.785C131.808 82.7846 131.836 82.8192 131.86 82.8481C136.101 87.7879 144.44 87.7821 150.009 83.5175C150.43 83.1943 150.782 83.0962 151.019 83.2001L151.048 83.2232C151.048 83.2232 151.042 83.2232 151.042 83.229C151.273 83.3559 151.394 83.6675 151.376 84.1696Z" fill="#27DEBF"/>
<path opacity="0.1" d="M131.282 82.3748C130.809 82.1498 130.376 82.3806 130.094 83.0789C126.095 93.0104 117.583 103.069 111.904 105.591C111.483 105.781 111.09 106.07 110.785 106.422C110.381 106.883 110.132 107.455 110.156 108.049C110.156 120.935 117.277 141.606 130.769 148.231C139.829 113.179 131.282 82.3748 131.282 82.3748Z" fill="black"/>
<path d="M124.86 125.985C124.975 122.921 124.969 121.38 124.808 118.304C127.364 116.769 131.773 114.132 131.773 114.132C131.802 111.044 131.761 109.607 131.45 106.22C134.087 104.685 135.23 104.039 137.948 102.515C138.357 105.568 138.49 107.103 138.623 110.173C141.329 108.638 142.195 108.147 144.982 106.618C144.959 109.14 144.486 112.972 144.163 114.715C141.324 116.267 141.139 116.365 138.404 117.894C138.063 120.97 137.757 122.857 137.244 125.743C134.756 127.151 133.562 127.855 131.098 129.372C131.583 126.337 131.842 124.894 132.021 121.674C129.499 123.244 127.387 124.49 124.86 125.985Z" fill="#FAFAFA"/>
<path d="M131.773 114.126C131.773 114.126 127.364 116.763 124.808 118.298C124.969 121.38 124.975 122.915 124.86 125.979C127.387 124.485 129.494 123.244 132.015 121.668C131.836 124.888 131.577 126.331 131.092 129.367C132.408 128.553 133.366 127.976 134.347 127.399C135.12 118.893 135.045 111.062 134.595 104.402C133.666 104.933 132.737 105.47 131.456 106.214C131.761 109.607 131.802 111.044 131.773 114.126Z" fill="#EBEBEB"/>
<path opacity="0.4" d="M138.167 89.1845C142.72 90.3444 146.748 88.3477 149.057 87.1647C149.057 87.1647 149.593 113.866 140.4 131.138C144.024 117.652 143.649 114.888 143.909 104.887C144.157 95.0534 141.612 91.637 138.167 89.1845Z" fill="white"/>
<path d="M50.2776 80.257C50.1853 78.1449 49.4812 76.8349 49.4812 76.8349L47.6981 78.9874L50.2776 80.257Z" fill="#F28F8F"/>
<path d="M82.8769 82.4788C77.8621 82.2421 76.1193 83.9907 71.8028 86.8992C68.8019 88.919 62.8176 92.8143 59.2455 95.3938L51.1721 83.0154C50.4912 81.9651 50.5604 80.6148 49.9718 79.5241C49.337 78.3468 47.525 78.3007 46.3535 78.1795C44.8127 78.0121 43.2719 77.7178 41.8753 77.0427C40.6577 76.454 39.5728 75.5884 38.2917 75.1614C37.0394 74.7459 35.6833 74.7805 34.3618 74.8209C33.9578 74.8324 33.5019 74.8728 33.248 75.1845C32.8094 75.7211 33.2134 76.4944 33.5077 76.9907C33.8655 77.5966 34.2348 78.243 34.6907 78.7739C35.7468 80.0031 36.9528 81.0995 38.2744 82.0344C38.8918 82.473 39.567 82.7327 40.2422 83.0731C41.0213 83.4656 41.8176 83.8176 42.6313 84.135C43.7278 84.562 44.7665 85.1275 45.4821 86.0913C45.7014 86.3856 45.8976 86.703 46.065 87.0377C47.6462 90.7829 50.4392 97.2289 52.2282 100.345C55.1136 105.366 56.3139 105.747 60.8613 103.865C67.1573 101.488 80.3032 95.3996 80.3032 95.3996C80.3032 95.3996 84.7351 90.7714 82.8769 82.4788Z" fill="#FFA8A7"/>
<path d="M83.3732 82.4326C83.3732 82.4326 80.8052 81.0649 77.1985 83.0155C73.5917 84.966 58.9743 94.9726 58.9743 94.9726L51.6742 83.7772C51.6742 83.7772 49.8564 86.5414 45.1359 87.3897C45.1359 87.3897 51.2356 100.051 53.0015 102.867C54.7731 105.683 55.102 106.537 59.2282 105.354C63.3601 104.171 79.6164 96.1267 79.6164 96.1267C79.6164 96.1267 84.6832 92.0872 83.3732 82.4326Z" fill="#27DEBF"/>
<path opacity="0.8" d="M83.3732 82.4326C83.3732 82.4326 80.8052 81.0649 77.1985 83.0155C73.5917 84.966 58.9743 94.9726 58.9743 94.9726L51.6742 83.7772C51.6742 83.7772 49.8564 86.5414 45.1359 87.3897C45.1359 87.3897 51.2356 100.051 53.0015 102.867C54.7731 105.683 55.102 106.537 59.2282 105.354C63.3601 104.171 79.6164 96.1267 79.6164 96.1267C79.6164 96.1267 84.6832 92.0872 83.3732 82.4326Z" fill="white"/>
<path opacity="0.1" d="M61.1902 101.638C61.1902 101.638 62.0097 98.2042 60.1803 94.1473C59.4244 94.6609 58.9742 94.9726 58.9742 94.9726C60.9248 97.8233 61.1902 101.638 61.1902 101.638Z" fill="black"/>
</svg>
